<svg xmlns="http://www.w3.org/2000/svg" width="140" height="140" viewBox="0 0 140 140"><g transform="translate(-728 -4292.946)"><g transform="translate(728 4292.946)" fill="#fff" stroke="#205d78" stroke-width="4"><circle cx="70" cy="70" r="70" stroke="none"/><circle cx="70" cy="70" r="68" fill="none"/></g><g transform="translate(94.112 4253.765)"><path d="M755.809,109.181A51.921,51.921,0,1,1,703.888,57.26a51.921,51.921,0,0,1,51.921,51.921Zm0,0" fill="#1f2060"/><path d="M748.807,109.181a44.919,44.919,0,1,1-44.919-44.919,44.919,44.919,0,0,1,44.919,44.919Zm0,0" fill="#2b246f"/><path d="M722.57,120.6a23.914,23.914,0,0,0,1.923-2.827c.3-.523.592-1.054.855-1.6a23.71,23.71,0,0,0,2.348-10.321c0-.38-.009-.756-.029-1.129a23.806,23.806,0,0,0-47.558,0q-.03.56-.03,1.129a23.854,23.854,0,0,0,13.487,21.46,23.157,23.157,0,0,0,2.136.9q.547.2,1.106.375a23.741,23.741,0,0,0,6.436,1.054l12.141,12.141a2.117,2.117,0,0,0,3.615-1.5V124.247q.9-.74,1.722-1.562c.3-.305.6-.621.888-.942.333-.37.652-.753.96-1.144Zm0,0" fill="#1f2060"/><path d="M727.7,102.807a23.808,23.808,0,1,0-23.808,23.808,24.1,24.1,0,0,0,2.782-.161l8.715,8.715a2.118,2.118,0,0,0,3.615-1.5V121.2a23.76,23.76,0,0,0,8.7-18.4Zm0,0" fill="#00a0df"/><path d="M727.7,102.807c0-.754-.039-1.5-.108-2.233a23.805,23.805,0,0,1-47.4,0c-.068.736-.108,1.479-.108,2.233a23.809,23.809,0,0,0,23.173,23.8l12.133,12.133a2.117,2.117,0,0,0,3.615-1.5v-3.569a2.118,2.118,0,0,1-3.615,1.5l-8.715-8.715A23.812,23.812,0,0,0,727.7,102.807Zm0,0" fill="#0089ce"/><path d="M700.809,115.705a3.566,3.566,0,0,1-2.526-1.045l-8.462-8.463a3.571,3.571,0,0,1,5.051-5.05l5.936,5.937,12.1-12.1a3.572,3.572,0,0,1,5.052,5.051L703.333,114.66a3.559,3.559,0,0,1-2.524,1.045Zm0,0" fill="#0089ce"/><path d="M700.809,112.448a3.562,3.562,0,0,1-2.526-1.046l-8.462-8.463a3.571,3.571,0,0,1,5.051-5.05l5.936,5.937,12.1-12.1a3.572,3.572,0,1,1,5.052,5.05L703.333,111.4a3.556,3.556,0,0,1-2.524,1.046Zm0,0" fill="#fff"/><path d="M717.955,92.837l-14.622,14.622a3.573,3.573,0,0,1-5.05,0L689.82,99a3.525,3.525,0,0,1-.452-.554,3.573,3.573,0,0,0,.452,4.5l8.463,8.463a3.571,3.571,0,0,0,5.05,0L717.955,96.78a3.573,3.573,0,0,0,.452-4.5,3.521,3.521,0,0,1-.452.554Zm0,0" fill="#c6c9ca"/></g></g></svg>