<svg xmlns="http://www.w3.org/2000/svg" width="140" height="140" viewBox="0 0 140 140"><g transform="translate(-238 -4072.946)"><g transform="translate(238 4072.946)" fill="#fff" stroke="#205d78" stroke-width="4"><circle cx="70" cy="70" r="70" stroke="none"/><circle cx="70" cy="70" r="68" fill="none"/></g><g transform="translate(-568.182 3392.765)"><path d="M928.1,750.181a51.921,51.921,0,1,1-51.921-51.921A51.922,51.922,0,0,1,928.1,750.181Zm0,0" fill="#1f2060"/><path d="M921.1,750.181a44.919,44.919,0,1,1-44.919-44.919A44.92,44.92,0,0,1,921.1,750.181Zm0,0" fill="#2b246f"/><path d="M889.353,765.252c0-.093-.011-.184-.016-.276-.011-.182-.025-.364-.041-.545-.01-.1-.019-.208-.03-.312q-.033-.284-.073-.564c-.011-.082-.021-.162-.033-.243a17.873,17.873,0,0,0-35.316,0c-.013.082-.022.163-.033.246-.026.186-.051.373-.071.561-.012.1-.021.209-.031.315-.016.178-.029.36-.041.541-.005.092-.012.184-.016.277-.012.271-.02.541-.02.814v.009a17.879,17.879,0,0,0,13.405,17.309c.286.074.575.141.864.2a18.076,18.076,0,0,0,7.2,0q.437-.09.865-.2a17.878,17.878,0,0,0,13.4-17.309v0c0-.276-.008-.549-.02-.82Zm0,0" fill="#1f2060"/><path d="M897.084,722.5H863.053a1.649,1.649,0,0,0-1.649,1.649v17.537a1.648,1.648,0,0,0,1.649,1.648H885.1l6.954,6.954a1.1,1.1,0,0,0,1.875-.777v-6.177h3.159a1.647,1.647,0,0,0,1.647-1.648V724.15a1.647,1.647,0,0,0-1.647-1.647Zm0,0" fill="#1f2060"/><path d="M889.374,763.032A17.871,17.871,0,1,1,871.5,745.16a17.871,17.871,0,0,1,17.872,17.872Zm0,0" fill="#ffd520"/><path d="M879.59,764.368a.548.548,0,0,1,.554.571,8.66,8.66,0,0,1-17.282,0,.547.547,0,0,1,.553-.571Zm0,0" fill="#e69b11"/><path d="M862.862,764.939a8.608,8.608,0,0,0,.487,2.341h16.307a8.647,8.647,0,0,0,.487-2.341.547.547,0,0,0-.553-.571H863.415a.547.547,0,0,0-.553.571Zm0,0" fill="#fff"/><path d="M871.5,775.376a17.874,17.874,0,0,1-17.657-15.107,17.871,17.871,0,1,0,35.315,0A17.875,17.875,0,0,1,871.5,775.376Zm0,0" fill="#fdbe00"/><path d="M867.357,756.7a2.257,2.257,0,1,1-2.256-2.257,2.256,2.256,0,0,1,2.256,2.257Zm0,0" fill="#e69b11"/><path d="M880.162,756.7a2.257,2.257,0,1,1-2.257-2.257,2.256,2.256,0,0,1,2.257,2.257Zm0,0" fill="#e69b11"/><path d="M897.084,721.042H863.053a1.649,1.649,0,0,0-1.649,1.649v15.954a1.648,1.648,0,0,0,1.649,1.648H885.1l6.954,6.954a1.1,1.1,0,0,0,1.875-.777v-6.177h3.159a1.648,1.648,0,0,0,1.647-1.649V722.69a1.647,1.647,0,0,0-1.647-1.648Zm0,0" fill="#005c91"/><path d="M897.084,719.459H863.053a1.648,1.648,0,0,0-1.649,1.648v15.955a1.648,1.648,0,0,0,1.649,1.648h22.5l6.5,6.5a1.1,1.1,0,0,0,1.875-.777V738.71h3.159a1.647,1.647,0,0,0,1.647-1.648V721.107a1.647,1.647,0,0,0-1.647-1.648Zm0,0" fill="#00a0df"/><path d="M885.751,731.007H864.863a1.215,1.215,0,0,1,0-2.429h20.888a1.215,1.215,0,0,1,0,2.429Zm0,0" fill="#fff"/><path d="M894.886,731.007H889.8a1.215,1.215,0,0,1,0-2.429h5.088a1.215,1.215,0,1,1,0,2.429Zm0,0" fill="#fff"/><path d="M885.751,725.139H864.863a1.214,1.214,0,0,1,0-2.428h20.888a1.214,1.214,0,0,1,0,2.428Zm0,0" fill="#005c91"/><path d="M878,735.458H864.833a1.214,1.214,0,1,1,0-2.428H878a1.214,1.214,0,1,1,0,2.428Zm0,0" fill="#fff"/><path d="M891.3,735.458h-9.119a1.214,1.214,0,1,1,0-2.428H891.3a1.214,1.214,0,1,1,0,2.428Zm0,0" fill="#fff"/></g></g></svg>