<svg xmlns="http://www.w3.org/2000/svg" width="173.4" height="140.233" viewBox="0 0 173.4 140.233"><g transform="translate(-485.36 -776.446)"><path d="M508.366,816.926h-7.9a12.03,12.03,0,0,0-12.03,12.03v3.437l19.475,4.165,12.488-4.165v-3.437a12.03,12.03,0,0,0-12.03-12.03Zm0,0" transform="translate(4.833 63.663)" fill="#fbedee"/><path d="M517.988,828.956v3.437l-10.311,2.063v-5.5a12.032,12.032,0,0,0-12.03-12.03h10.311a12.032,12.032,0,0,1,12.03,12.03Zm0,0" transform="translate(16.178 63.663)" fill="#f2dfd9"/><path d="M511.46,839.359h-18.9a1.718,1.718,0,0,1-1.719-1.719v-8.593l22.344-3.437v12.03a1.72,1.72,0,0,1-1.721,1.719Zm0,0" transform="translate(8.614 77.32)" fill="#af6f4a"/><path d="M487.079,835.986H619.75l12.03,5.349,10.309-5.349h3.095a1.716,1.716,0,0,0,1.716-1.718v-6.874a1.716,1.716,0,0,0-1.716-1.719h-2.75L628.528,821.2l-18.058,4.477H597.064l-26.293-3.689-26.293,3.689h-57.4a1.718,1.718,0,0,0-1.719,1.719v6.874a1.718,1.718,0,0,0,1.719,1.718Zm0,0" transform="translate(0 70.382)" fill="#c88659"/><path d="M559.112,824.657v6.874a1.718,1.718,0,0,1-1.719,1.718H547.082a1.72,1.72,0,0,0,1.719-1.718v-6.874a1.72,1.72,0,0,0-1.719-1.719h10.312a1.718,1.718,0,0,1,1.719,1.719Zm0,0" transform="translate(97.07 73.118)" fill="#af6f4a"/><path d="M539.313,837.257h11a1.718,1.718,0,0,0,1.719-1.719v-8.593H537.6v8.593a1.716,1.716,0,0,0,1.716,1.719Zm0,0" transform="translate(82.153 79.421)" fill="#af6f4a"/><path d="M553.635,826.946v8.593a1.72,1.72,0,0,1-1.721,1.719H541.6a1.718,1.718,0,0,0,1.719-1.719v-8.593Zm0,0" transform="translate(88.456 79.421)" fill="#9d6249"/><path d="M538.43,814.649l-7.131-4.142-16.583,4.142-3.437,17.528,19.784,5.156,10.805-5.156Zm0,0" transform="translate(40.761 53.568)" fill="#4a424e"/><path d="M534.245,831.054l-5.2,1.868-5.112-1.868L520.5,813.526l6.342-2.305,3.97,2.305Zm0,0" transform="translate(55.258 54.691)" fill="#3f3a43"/><path d="M608.229,868.217h-109.3a5.157,5.157,0,0,1-5.156-5.156V781.6a5.155,5.155,0,0,1,5.156-5.156h109.3a5.157,5.157,0,0,1,5.158,5.156v81.459a5.159,5.159,0,0,1-5.158,5.156Zm0,0" transform="translate(13.237 0)" fill="#5b525f"/><path d="M557.827,781.6v81.459a5.161,5.161,0,0,1-5.158,5.156H542.357a5.157,5.157,0,0,0,5.156-5.156v-7.579l-13.38-12.135,13.38-55.557V781.6a5.157,5.157,0,0,0-5.156-5.156h10.311a5.161,5.161,0,0,1,5.158,5.156Zm0,0" transform="translate(76.704 0)" fill="#4a424e"/><path d="M550.614,818.93H511.776a3.437,3.437,0,0,0-3.437,3.437v6.874h45.714v-6.874a3.439,3.439,0,0,0-3.44-3.437Zm0,0" transform="translate(36.139 66.815)" fill="#5b525f"/><path d="M537.182,822.367v6.874H526.871v-6.874a3.436,3.436,0,0,0-3.435-3.437h10.309a3.437,3.437,0,0,1,3.437,3.437Zm0,0" transform="translate(59.882 66.815)" fill="#4a424e"/><path d="M603.648,847.432H498.816a1.033,1.033,0,0,1-1.032-1.032V786.593l9.264-3.687,97.629,3.687V846.4a1.031,1.031,0,0,1-1.029,1.032Zm0,0" transform="translate(19.539 10.16)" fill="#c4e6f0"/><path d="M604.676,790.765H497.785v-9.28a1.029,1.029,0,0,1,1.029-1.032H603.646a1.029,1.029,0,0,1,1.029,1.032Zm0,0" transform="translate(19.541 6.303)" fill="#69c4e6"/><path d="M553.946,821.207H511.327a1.718,1.718,0,0,1-1.719-1.719v-27.5a1.718,1.718,0,0,1,1.719-1.718h42.619a1.718,1.718,0,0,1,1.719,1.718v27.5a1.718,1.718,0,0,1-1.719,1.719Zm0,0" transform="translate(38.135 21.746)" fill="#fff"/><path d="M540.626,802.443H515.192a2.578,2.578,0,0,1,0-5.156h25.434a2.578,2.578,0,0,1,0,5.156Zm0,0" transform="translate(42.862 32.777)" fill="#e1ccc7"/><path d="M540.626,798.435H515.192a2.578,2.578,0,1,1,0-5.156h25.434a2.578,2.578,0,1,1,0,5.156Zm0,0" transform="translate(42.862 26.473)" fill="#e1ccc7"/><path d="M557.633,837.859H547.322a2.579,2.579,0,0,1-2.578-2.578v-24.06a2.579,2.579,0,0,1,2.578-2.578h10.312a7.742,7.742,0,0,1,7.734,7.733v13.749a7.744,7.744,0,0,1-7.734,7.734ZM549.9,832.7h7.734a2.579,2.579,0,0,0,2.578-2.578V816.376a2.581,2.581,0,0,0-2.578-2.578H549.9Zm0,0" transform="translate(93.393 50.636)" fill="#f6934c"/><path d="M558.066,805.7H535.041a1.718,1.718,0,0,0-1.719,1.719v40.9a1.718,1.718,0,0,0,1.719,1.719h23.026a1.718,1.718,0,0,0,1.719-1.719v-40.9a1.717,1.717,0,0,0-1.719-1.719Zm0,0" transform="translate(75.43 46.014)" fill="#feb254"/><path d="M554.436,807.423v40.9a1.72,1.72,0,0,1-1.719,1.719H542.406a1.72,1.72,0,0,0,1.719-1.719v-40.9a1.718,1.718,0,0,0-1.719-1.719h10.311a1.718,1.718,0,0,1,1.719,1.719Zm0,0" transform="translate(89.716 46.014)" fill="#f6934c"/></g></svg>