<svg xmlns="http://www.w3.org/2000/svg" width="106" height="106" viewBox="0 0 106 106"><g transform="translate(-339 -4131.62)"><circle cx="53" cy="53" r="53" transform="translate(339 4131.62)" fill="#fff"/><g transform="translate(358 4146.345)"><g transform="translate(17.49 11.309)"><path d="M134.439,92.834V90.559h3.676V89.182h-3.676v-2.1h4.254V85.592h-5.951v8.729H138.8V92.834Z" transform="translate(-132.742 -85.592)"/></g><g transform="translate(12.193 24.008)"><path d="M97.008,183v-1.3H92.655v6.412h1.481v-2.529H96.5v-1.2H94.136V183Z" transform="translate(-92.655 -181.704)"/></g><g transform="translate(25.37 24.008)"><path d="M195.114,181.7h-2.736v6.412h1.481v-2.068c1.173,0,2.066.161,2.786-.668A2.2,2.2,0,0,0,195.114,181.7Zm-.045,3.053h-1.21V183c1.113,0,1.571-.132,1.792.479C195.836,183.993,195.63,184.757,195.069,184.757Z" transform="translate(-192.378 -181.704)"/></g><g transform="translate(9.726 36.395)"><path d="M73.981,275.458v.976h1.177v3.1h1.119v-3.1h1.171v-.976Z" transform="translate(-73.981 -275.458)"/></g><g transform="translate(27.885 36.395)"><path d="M212.823,278.557l1.791-2.267v-.832H211.5v.976h1.819l-1.905,2.267v.832h3.231v-.976Z" transform="translate(-211.417 -275.458)"/></g><g transform="translate(18.295 36.355)"><path d="M140.081,275.343a2.066,2.066,0,1,0,2.3,3.334A2.063,2.063,0,0,0,140.081,275.343Zm1.243,2.875a.946.946,0,0,1-1.354-.978.934.934,0,0,1,1.633-.749A1.229,1.229,0,0,1,141.323,278.218Z" transform="translate(-138.833 -275.156)"/></g><g transform="translate(8.002 32.234)"><path d="M84.779,243.962H61.923a.991.991,0,1,0,0,1.982H84.779a.991.991,0,1,0,0-1.982Z" transform="translate(-60.932 -243.962)"/></g><g transform="translate(0)"><path d="M63.1,40.808,52.351,36.585v-2.3a8.547,8.547,0,0,0,3.281-5.594,3.925,3.925,0,0,0,2.7-6.708v-3.06a11.2,11.2,0,0,0-3.271-7.941.991.991,0,1,0-1.407,1.4c3.006,3.029,2.7,6.321,2.7,8.543a4.522,4.522,0,0,0-.637-.074c0-.834.3-.335-3.277-4.18a.99.99,0,0,0-1.285-.142l-.037.025A17.742,17.742,0,0,1,39.52,19.6a.991.991,0,0,0-.777.242,1.158,1.158,0,0,0-.334,1.01,4.519,4.519,0,0,0-.637.074v-2a9.3,9.3,0,0,1,13.183-8.439.991.991,0,1,0,.831-1.8,11.262,11.262,0,0,0-11.2,1.022V2.8A2.808,2.808,0,0,0,37.78,0H12.413a.991.991,0,1,0,0,1.982H37.78A.823.823,0,0,1,38.6,2.8v8.684a11.224,11.224,0,0,0-2.812,7.437v3.06a3.92,3.92,0,0,0,2.7,6.708,8.546,8.546,0,0,0,3.281,5.594v2.3l-10.74,4.217a8.489,8.489,0,0,0-2.781,2.04H9.362a.991.991,0,1,0,0,1.982H26.938c-.893,1.941-.72,3.021-.72,9.119H3.174a.823.823,0,0,1-.822-.822V2.8a.823.823,0,0,1,.822-.822H8.845A.991.991,0,0,0,8.845,0H3.174a2.808,2.808,0,0,0-2.8,2.8V53.127a2.808,2.808,0,0,0,2.8,2.8H26.218V66.658a.991.991,0,0,0,.991.991H66.93a.991.991,0,0,0,.991-.991V48.245A8.145,8.145,0,0,0,63.1,40.808ZM55.718,22.837a1.941,1.941,0,0,1,0,3.872ZM38.409,26.708a1.941,1.941,0,0,1,0-3.872ZM52.923,38.94l-2.547,4.371c-.036-.022-1.654-1.116-1.689-1.139,3.623-3.19,3.553-3.044,3.646-3.464Zm-5.854,4.532.963.65-.325,1H46.431l-.325-1Zm-3.305-5.427c0-.169-.006-1-.006-2.62a9.074,9.074,0,0,0,6.61,0v2.62l-3.3,2.908ZM46.612,47.1h.915l1.279,13.453-1.736,1.714-1.736-1.714ZM40.392,27.5V21.665a19.621,19.621,0,0,0,11.175-3.022l2.168,2.331V27.5A6.671,6.671,0,0,1,44.7,33.66,6.574,6.574,0,0,1,40.392,27.5ZM41.8,38.71c.094.419.011.261,3.648,3.464-.031.021-1.653,1.117-1.686,1.137L41.216,38.94ZM35.355,65.666V51.347a.991.991,0,0,0-1.982,0V65.667H28.2c0-19.258-.531-19.379,1.71-21.685a6.36,6.36,0,0,1,1.877-1.339l7.142-2.8,2.737,25.829h-6.31Zm25.411,0V51.347a.991.991,0,0,0-1.982,0V65.667h-6.31l1.379-13.014a.991.991,0,1,0-1.971-.209l-1.4,13.222H43.659L41.25,42.936c.687,1.18,1.33,2.944,3.125,2.272l.329,1.016L43.316,60.838a.991.991,0,0,0,.29.8c2.969,2.931,2.921,3.018,3.463,3.018s.507-.1,3.463-3.018a.991.991,0,0,0,.29-.8L49.434,46.224l.33-1.016a1.812,1.812,0,0,0,2.265-.8l.86-1.476-.647,6.105a.991.991,0,0,0,1.971.209l1-9.412c.039.015,7.132,2.8,7.17,2.817a6.2,6.2,0,0,1,3.558,5.59V65.667H60.766Z" transform="translate(-0.369)"/></g></g></g></svg>