<svg xmlns="http://www.w3.org/2000/svg" width="278.9" height="359.431" viewBox="0 0 278.9 359.431"><g transform="translate(228.07 -119.2)"><g transform="translate(-228.07 122.508)"><path d="M-228.07,172.125c0-28.722,21.333-50.751,50.752-50.751,17.709,0,33.324,8.782,41.831,22.586l-19.242,11.156c-4.322-7.531-12.689-11.992-22.589-11.992-17.288,0-28.443,11.573-28.443,29s11.156,29,28.443,29c9.9,0,18.406-4.462,22.589-11.991l19.242,11.156c-8.368,13.8-23.983,22.588-41.831,22.588C-206.737,222.879-228.07,200.848-228.07,172.125Z" transform="translate(228.07 -121.374)" fill="#ffe600"/><path d="M-169.956,172.125A50.317,50.317,0,0,1-119.2,121.374a50.318,50.318,0,0,1,50.752,50.751A50.319,50.319,0,0,1-119.2,222.879,50.318,50.318,0,0,1-169.956,172.125Zm79.2,0c0-17.429-12.548-29-28.443-29s-28.445,11.573-28.445,29,12.549,29,28.445,29S-90.76,189.555-90.76,172.125Z" transform="translate(267.429 -121.374)" fill="#ffe600"/><path d="M-168.409,275.152v21.472h-57.166v-97.6h22.308v76.131Z" transform="translate(229.76 -68.786)" fill="#033bd9"/><path d="M-191.489,248.611a50.317,50.317,0,0,1,50.753-50.753,50.318,50.318,0,0,1,50.754,50.753,50.32,50.32,0,0,1-50.754,50.754A50.318,50.318,0,0,1-191.489,248.611Zm79.2,0c0-17.429-12.549-29-28.445-29s-28.443,11.573-28.443,29,12.549,29,28.443,29S-112.292,266.039-112.292,248.611Z" transform="translate(252.845 -69.574)" fill="#033bd9"/><path d="M-25.88,296.625H-48.19v-56.75l-25.238,41.412h-2.509l-25.238-41.412v56.75h-22.309v-97.6h22.309l26.492,43.364,26.492-43.364H-25.88Z" transform="translate(298.903 -68.786)" fill="#033bd9"/><path d="M-153.073,344.523c0,17.291-14.081,28.584-31.511,28.584h-40.991v-97.6h38.2c17.011,0,30.813,11.013,30.813,27.885a24.436,24.436,0,0,1-8.5,19.1A25.2,25.2,0,0,1-153.073,344.523Zm-50.194-48.1V313.71h15.9a8.237,8.237,0,0,0,8.5-8.645c0-5.018-3.346-8.645-8.5-8.645Zm27.885,46.43c0-5.438-3.625-9.341-9.2-9.341h-18.683v18.683h18.683C-179.007,352.193-175.383,348.289-175.383,342.851Z" transform="translate(229.76 -16.985)" fill="#e20303"/><path d="M-153.386,275.507v97.6H-175.7v-97.6Z" transform="translate(263.542 -16.985)" fill="#e20303"/><path d="M-91.87,357.77h-36.254L-133,373.107h-24.4l33.186-97.6h28.443l33.185,97.6h-24.4Zm-6.692-20.916L-110,301.022l-11.432,35.833Z" transform="translate(275.93 -16.985)" fill="#e20303"/></g><g transform="translate(-222.693 119.7)"><path d="M-224.864,170.451c0-28.722,21.333-50.751,50.753-50.751,17.709,0,33.324,8.784,41.831,22.588l-19.242,11.154c-4.322-7.529-12.689-11.992-22.589-11.992-17.288,0-28.443,11.573-28.443,29s11.156,29,28.443,29c9.9,0,18.406-4.463,22.589-11.991l19.242,11.154c-8.368,13.8-23.983,22.588-41.831,22.588C-203.531,221.2-224.864,199.174-224.864,170.451Z" transform="translate(224.864 -119.7)" fill="none" stroke="#844a30" stroke-linecap="round" stroke-linejoin="round" stroke-width="1"/><path d="M-166.75,170.451A50.317,50.317,0,0,1-116,119.7a50.317,50.317,0,0,1,50.752,50.751A50.318,50.318,0,0,1-116,221.2,50.318,50.318,0,0,1-166.75,170.451Zm79.2,0c0-17.428-12.549-29-28.445-29s-28.443,11.573-28.443,29,12.548,29,28.443,29S-87.553,187.881-87.553,170.451Z" transform="translate(264.223 -119.7)" fill="none" stroke="#844a30" stroke-linecap="round" stroke-linejoin="round" stroke-width="1"/><path d="M-165.2,273.478V294.95h-57.166v-97.6h22.308v76.13Z" transform="translate(226.554 -67.111)" fill="none" stroke="#844a30" stroke-linecap="round" stroke-linejoin="round" stroke-width="1"/><path d="M-188.282,246.936a50.316,50.316,0,0,1,50.751-50.752,50.318,50.318,0,0,1,50.754,50.752,50.32,50.32,0,0,1-50.754,50.754A50.317,50.317,0,0,1-188.282,246.936Zm79.2,0c0-17.428-12.549-29-28.445-29s-28.443,11.573-28.443,29,12.549,29,28.443,29S-109.086,264.365-109.086,246.936Z" transform="translate(249.64 -67.9)" fill="none" stroke="#844a30" stroke-linecap="round" stroke-linejoin="round" stroke-width="1"/><path d="M-22.674,294.95H-44.984V238.2l-25.238,41.41h-2.509L-97.969,238.2V294.95h-22.309v-97.6h22.309l26.492,43.362,26.492-43.362h22.309Z" transform="translate(295.697 -67.111)" fill="none" stroke="#844a30" stroke-linecap="round" stroke-linejoin="round" stroke-width="1"/><path d="M-149.867,342.849c0,17.291-14.081,28.584-31.511,28.584h-40.991v-97.6h38.2c17.011,0,30.813,11.013,30.813,27.885a24.442,24.442,0,0,1-8.5,19.1A25.2,25.2,0,0,1-149.867,342.849Zm-50.194-48.1v17.289h15.9a8.237,8.237,0,0,0,8.5-8.645c0-5.018-3.346-8.645-8.5-8.645Zm27.885,46.43c0-5.438-3.625-9.341-9.2-9.341h-18.683v18.683h18.683C-175.8,350.519-172.177,346.616-172.177,341.177Z" transform="translate(226.554 -15.31)" fill="none" stroke="#844a30" stroke-linecap="round" stroke-linejoin="round" stroke-width="1"/><path d="M-150.18,273.833v97.6h-22.309v-97.6Z" transform="translate(260.336 -15.31)" fill="none" stroke="#844a30" stroke-linecap="round" stroke-linejoin="round" stroke-width="1"/><path d="M-88.664,356.1h-36.253l-4.881,15.337h-24.4l33.185-97.6h28.443l33.185,97.6h-24.4Zm-6.692-20.916-11.436-35.833-11.432,35.833Z" transform="translate(272.725 -15.31)" fill="none" stroke="#844a30" stroke-linecap="round" stroke-linejoin="round" stroke-width="1"/></g></g></svg>