<svg xmlns="http://www.w3.org/2000/svg" width="106" height="106" viewBox="0 0 106 106"><g transform="translate(-667 -4131.62)"><circle cx="53" cy="53" r="53" transform="translate(667 4131.62)" fill="#fff"/><g transform="translate(678 4146.345)"><path d="M361.538,223.448a1.219,1.219,0,1,0-2.295-.824,1.541,1.541,0,0,1-2.176,0,1.219,1.219,0,1,0-2.295.824,3.8,3.8,0,0,0,6.765,0Z" transform="translate(-297.038 -193.56)"/><path d="M141.016,162.875a1.219,1.219,0,0,0-1.219,1.219v2.593a1.629,1.629,0,0,0,1.627,1.628h.855a1.219,1.219,0,1,0,0-2.438h-.043v-1.783A1.22,1.22,0,0,0,141.016,162.875Z" transform="translate(-117.071 -144.2)"/><path d="M127.364,202.232a1.219,1.219,0,0,0-2.061-1.3,3.739,3.739,0,0,1-5.7,0,1.219,1.219,0,0,0-2.061,1.3,6.14,6.14,0,0,0,9.818,0Z" transform="translate(-98.279 -175.592)"/><path d="M177.738,149.254v1.182a1.219,1.219,0,1,0,2.438,0v-1.182a1.219,1.219,0,0,0-2.438,0Z" transform="translate(-148.844 -131.773)"/><path d="M107.125,150.436v-1.182a1.219,1.219,0,0,0-2.438,0v1.182a1.219,1.219,0,1,0,2.438,0Z" transform="translate(-87.668 -131.773)"/><path d="M114.262,103.216h9.159a1.219,1.219,0,0,0,0-2.438h-9.159a1.219,1.219,0,1,0,0,2.438Z" transform="translate(-94.666 -92.198)"/><path d="M133.029,123.473a1.22,1.22,0,0,0-1.219-1.219h-5.118a1.219,1.219,0,1,0,0,2.438h5.118A1.219,1.219,0,0,0,133.029,123.473Z" transform="translate(-105.075 -110.183)"/><path d="M78.761,87.945a39.118,39.118,0,0,0-5.672-2.338l-.006,0c-1.156-.373-2.342-.695-3.525-.957a3.489,3.489,0,0,1-2.347-1.818q.283-.171.556-.356A11.678,11.678,0,0,0,74.695,77.8c1.816-2.641,2.7-6.239,2.7-11a13.37,13.37,0,0,0-2.143-7.212A1.219,1.219,0,1,0,73.2,60.908a10.938,10.938,0,0,1,1.758,5.839A3.965,3.965,0,0,0,72.16,65.6a3.491,3.491,0,0,0-.464-.576,3.451,3.451,0,0,0-2.459-1.018c-5.862,0-6.855-2.764-6.931-3.009a1.171,1.171,0,0,0-.6-.8,1.269,1.269,0,0,0-1.186,0,1.167,1.167,0,0,0-.59.793c-.076.244-1.069,3.009-6.931,3.009A3.478,3.478,0,0,0,50.074,65.6a3.962,3.962,0,0,0-2.794,1.148,11.386,11.386,0,0,1,3.985-8.441,15.475,15.475,0,0,1,9.851-3.8,15.763,15.763,0,0,1,8.429,2.686,1.219,1.219,0,0,0,1.378-2.012,17.471,17.471,0,0,0-3.72-1.933,6.154,6.154,0,0,0-12.173,0,17.066,17.066,0,0,0-5.392,3.244,13.786,13.786,0,0,0-4.8,10.315c0,4.76.883,8.357,2.7,11a11.673,11.673,0,0,0,6.927,4.671q.273.185.556.356a3.489,3.489,0,0,1-2.347,1.818c-1.187.263-2.376.586-3.535.96l-.009,0a39.128,39.128,0,0,0-5.445,2.226c-.06-.032-2.069-1.339-9.144-3.442L31.9,82.331l-.028-.022a2.75,2.75,0,0,0-1.541-.539v-.9a15.627,15.627,0,0,0,1.626-.931A10.218,10.218,0,0,0,37,71.2v-.628a3.984,3.984,0,0,0,3.4-3.937v-1.3a3.972,3.972,0,0,0-1.348-2.983,3.751,3.751,0,0,0,.567-1.013c.971-2.581-.3-7.4-3.461-9.977a11.724,11.724,0,0,0-10.481-2.119,12.529,12.529,0,0,0-3,0,11.724,11.724,0,0,0-10.481,2.119c-3.159,2.581-4.433,7.4-3.461,9.977A3.738,3.738,0,0,0,9.3,62.347,3.97,3.97,0,0,0,7.952,65.33v1.306a3.985,3.985,0,0,0,3.4,3.937V71.2a10.22,10.22,0,0,0,5.04,8.744,15.737,15.737,0,0,0,1.627.931v.9a2.75,2.75,0,0,0-1.539.538l-.022.017-2.692,2.081c-6.34,2.024-7.936,2.837-8.916,3.335A8.815,8.815,0,0,0,0,95.639v16.912a3.1,3.1,0,0,0,3.1,3.1H80.136a3.1,3.1,0,0,0,3.1-3.1V95.231A8.134,8.134,0,0,0,78.761,87.945ZM61.116,50.438a3.724,3.724,0,0,1,3.3,2,14.855,14.855,0,0,0-3.3-.377,15.046,15.046,0,0,0-3.3.378A3.722,3.722,0,0,1,61.116,50.438Zm9.319,39.738a.849.849,0,0,1-.309.759.837.837,0,0,1-.886-.116,1.614,1.614,0,0,0-2.558,1.13.949.949,0,0,1-.647.827l-.029.009a1.082,1.082,0,0,1-1.107-.411,1.619,1.619,0,0,0-2.782.393,1.112,1.112,0,0,1-.98.7H61.1a1.094,1.094,0,0,1-.989-.7,1.619,1.619,0,0,0-2.782-.393,1.083,1.083,0,0,1-1.107.411l-.03-.008a.95.95,0,0,1-.646-.827,1.614,1.614,0,0,0-2.558-1.131.827.827,0,0,1-.9.108A1.035,1.035,0,0,0,52,90.871a.816.816,0,0,1-.179-.816,1.219,1.219,0,0,0-1.1-1.469c-1.009-.073-1.282-.349-1.341-.431a.309.309,0,0,1-.027-.046q.26-.089.522-.173h0c1.18-.366,1.783-.033,3.151.824a13.56,13.56,0,0,0,8.1,2.39,13.3,13.3,0,0,0,8.42-2.471c1.173-.779,1.659-1.1,2.808-.748h0l.011,0q.691.223,1.374.474a.223.223,0,0,1-.013.018c-.133.179-.582.385-1.441.432a3.942,3.942,0,0,1-.533-.008,1.219,1.219,0,0,0-1.309,1.325ZM55.241,80.025a7.579,7.579,0,0,1-3.174-5.163,5.771,5.771,0,0,0,3.34.977c2.653,0,4.731-1.5,4.731-3.424,0-.015,0-.029,0-.044s0-.02,0-.03a.98.98,0,1,1,1.959,0c0,.01,0,.02,0,.03s0,.029,0,.044c0,1.92,2.078,3.424,4.731,3.424a5.768,5.768,0,0,0,3.34-.977,8.132,8.132,0,0,1-3.173,5.163,10.838,10.838,0,0,1-5.878,2.228C59.44,82.253,57.7,81.662,55.241,80.025Zm.166-8.594c1.4,0,2.292.647,2.292.985s-.893.985-2.292.985-2.292-.647-2.292-.985S54.007,71.43,55.406,71.43Zm11.421,0c1.4,0,2.292.647,2.292.985s-.893.985-2.292.985-2.292-.647-2.292-.985S65.428,71.43,66.827,71.43Zm5.224,5.8a9.94,9.94,0,0,0,.626-3,3.718,3.718,0,0,0,1.3-.393A10.044,10.044,0,0,1,72.052,77.227Zm1.505-7.9v1.188a1.3,1.3,0,0,1-.861,1.219l.007-3.623A1.3,1.3,0,0,1,73.557,69.33ZM53,66.444c4.554-.025,6.917-1.5,8.119-2.832,1.2,1.335,3.566,2.785,8.12,2.832a1.03,1.03,0,0,1,1.029,1.018l0,2.576a5.388,5.388,0,0,0-2.519-.984v-.17a1.219,1.219,0,0,0-2.438,0v.283a5.235,5.235,0,0,0-1.763.766,3.414,3.414,0,0,0-4.845,0,5.234,5.234,0,0,0-1.764-.766v-.283a1.219,1.219,0,1,0-2.438,0v.17a5.386,5.386,0,0,0-2.518.984s0-2.569,0-2.575A.955.955,0,0,1,53,66.444ZM48.677,69.33a1.3,1.3,0,0,1,.855-1.217l.007,3.623a1.294,1.294,0,0,1-.862-1.219Zm-.419,4.5a3.716,3.716,0,0,0,1.3.393,9.966,9.966,0,0,0,.627,3A10.037,10.037,0,0,1,48.258,73.834ZM57.212,83.9a10.058,10.058,0,0,0,7.809,0,5.943,5.943,0,0,0,3.046,2.824,10.985,10.985,0,0,1-6.951,1.983,11.142,11.142,0,0,1-6.8-2.017l-.028-.017A5.943,5.943,0,0,0,57.212,83.9Zm-11.3,11.737V113.21H41.1V89.289q.663.306,1.3.627A6.389,6.389,0,0,1,45.913,95.639ZM32.328,85.758l-2.75,3.867-3.343-2.031,3.8-3.307a.312.312,0,0,1,.382-.022ZM24.177,89.2l3.985,2.421-4.2,5.9-3.952-5.793ZM37.962,66.635a1.543,1.543,0,0,1-.956,1.425l.008-4.152a1.543,1.543,0,0,1,.948,1.422ZM37.1,57.05a5.841,5.841,0,0,1,.239,3.424,1.257,1.257,0,0,1-.634.707c-.63-2.163-2.392-6.888-6.363-9.828a8.727,8.727,0,0,1,4.276,1.891A8.214,8.214,0,0,1,37.1,57.05Zm-25.844,0a8.213,8.213,0,0,1,2.483-3.806,8.746,8.746,0,0,1,4.309-1.9,16.3,16.3,0,0,0-4.555,5.382,22.763,22.763,0,0,0-1.84,4.459,1.257,1.257,0,0,1-.635-.708A5.841,5.841,0,0,1,11.254,57.05Zm-.864,9.585V65.33a1.543,1.543,0,0,1,.947-1.422l.008,4.152A1.543,1.543,0,0,1,10.39,66.635Zm3.4,4.559,0-1.8v-.007l-.012-6.7a19.919,19.919,0,0,1,1.868-4.82c1.8-3.275,4.2-5.356,7.129-6.188a10.206,10.206,0,0,1,2.811,0c2.933.831,5.332,2.912,7.129,6.187a19.955,19.955,0,0,1,1.868,4.819L34.562,71.2c0,6.531-7.7,8.82-10.386,8.882C21.487,80.017,13.79,77.729,13.79,71.195ZM24.153,82.518H24.2a13.779,13.779,0,0,0,3.7-.665V82.92l-3.719,3.234-3.721-3.236V81.852A13.745,13.745,0,0,0,24.153,82.518Zm-6.221,1.749a.311.311,0,0,1,.383.021l3.8,3.307-3.482,2.116L15.961,85.79ZM8.467,99.161a1.22,1.22,0,0,0-1.219,1.219v12.83H3.1a.66.66,0,0,1-.659-.659V95.639a6.388,6.388,0,0,1,3.513-5.723q.632-.321,1.3-.627v5.4a1.219,1.219,0,0,0,2.438,0v-6.44a40.631,40.631,0,0,1,4.1-1.333L22.3,99.407a2.006,2.006,0,0,0,3.292.032L34.506,86.9a40.564,40.564,0,0,1,4.159,1.351V113.21H9.686V100.381A1.219,1.219,0,0,0,8.467,99.161ZM80.8,112.551a.66.66,0,0,1-.659.659h-3.82V100.994a1.219,1.219,0,0,0-2.438,0V113.21H48.352V95.639a8.813,8.813,0,0,0-2.475-6.148q.589-.27,1.186-.519a2.71,2.71,0,0,0,.329.606,3.4,3.4,0,0,0,2,1.261,2.951,2.951,0,0,0,1.377,2.139,3.13,3.13,0,0,0,2.652.32,3.34,3.34,0,0,0,2.11,1.826,3.441,3.441,0,0,0,2.9-.481A3.5,3.5,0,0,0,61.088,95.9h.05A3.5,3.5,0,0,0,63.8,94.644a3.443,3.443,0,0,0,2.9.481A3.342,3.342,0,0,0,68.805,93.3a3.127,3.127,0,0,0,2.7-.349l.03-.021a3.231,3.231,0,0,0,1.191-1.659,3.953,3.953,0,0,0,2.947-1.378A2.748,2.748,0,0,0,76,89.328q.842.375,1.662.791A5.706,5.706,0,0,1,80.8,95.231Z" transform="translate(0 -48)"/></g></g></svg>