<svg xmlns="http://www.w3.org/2000/svg" width="106" height="106" viewBox="0 0 106 106"><g transform="translate(-995 -4131.62)"><circle cx="53" cy="53" r="53" transform="translate(995 4131.62)" fill="#fff"/><g transform="translate(1020 4146.345)"><path d="M668.35,39.249c.752.745.771,1.085.107,1.967-1.218,1.618-2.43,3.24-3.659,4.849a1.075,1.075,0,0,0-.176.953c.253,1.533.421,3.081.6,4.626a11.007,11.007,0,0,1,.006,1.165c.225-.19.372-.3.5-.425q3.248-3.151,6.492-6.3c.142-.138.279-.283.432-.408a.986.986,0,0,1,1.373,0,1,1,0,0,1-.012,1.422c-.159.182-.341.344-.514.513q-3.907,3.8-7.822,7.59a1.358,1.358,0,0,0-.471,1.088c.024,1.648.009,3.3.009,4.889a22.6,22.6,0,0,1,2.452.7,6.6,6.6,0,0,1,3.7,3.748c.442,1.077.834,2.176,1.234,3.27a2.955,2.955,0,0,1-1.86,4.085,1.76,1.76,0,0,0-.225.144c.439,1.18.88,2.369,1.323,3.557.284.762.6,1.514.85,2.287a2.961,2.961,0,0,1-2.624,3.942,52.475,52.475,0,0,1-5.479-.012,5.288,5.288,0,0,1-4.744-3.361c-.052-.115-.11-.227-.19-.392-.487.693-.925,1.369-1.416,2a13.491,13.491,0,0,1-3.941,3.468.861.861,0,0,0-.5.886c.033,1.144.008,2.29.015,3.435a1.453,1.453,0,0,0,1.46,1.679c3.073.42,6.156.78,9.22,1.258a1.592,1.592,0,0,0,1.741-.748,18.351,18.351,0,0,0,2.508-4.621,1.528,1.528,0,0,1,.869-.841c.736-.2,1.265.558,1.01,1.368a16.569,16.569,0,0,1-2.647,5.061c-.079.1-.155.212-.263.361.163.084.306.163.453.233a8.924,8.924,0,0,1,5.435,7.752c.152,1.709.223,3.426.322,5.141.048.823-.3,1.3-.93,1.325-.6.021-.99-.4-1.044-1.19-.112-1.6-.224-3.206-.3-4.811a7.033,7.033,0,0,0-6.038-6.889c-2.039-.34-4.1-.566-6.146-.838a3.752,3.752,0,0,0-.467,0,7.058,7.058,0,0,1-4.22,6.326c2.168,0,4.337-.005,6.5,0a5.144,5.144,0,0,1,1.176.11,3.51,3.51,0,0,1,2.738,3.308c.04.967.023,1.938.007,2.906a.985.985,0,1,1-1.964.03c-.033-.858-.006-1.717-.018-2.576a1.624,1.624,0,0,0-1.8-1.8q-4.525-.01-9.05,0a.99.99,0,0,0-.51.077,4.657,4.657,0,0,1-2.735.56c-1.762-.011-3.525.039-5.284-.025a10.319,10.319,0,0,1-1.962-.456,3.112,3.112,0,0,0-.69-.149q-4.525-.017-9.05-.007a1.612,1.612,0,0,0-1.758,1.709c-.021.836,0,1.674-.01,2.51-.013.764-.411,1.215-1.022,1.2-.585-.015-.946-.45-.953-1.185-.009-.925-.031-1.851.008-2.774a3.558,3.558,0,0,1,3.563-3.443c2.285-.021,4.571,0,7.043,0-.312-.172-.469-.264-.631-.348a6.413,6.413,0,0,1-3.73-5.857c-.061-2.194-.036-2.194,2.14-2.481.61-.081,1.225-.141,1.829-.258a1.319,1.319,0,0,0,1.169-1.378q.031-1.915-.007-3.831a.784.784,0,0,0-.307-.572,14.824,14.824,0,0,1-5.414-5.48c-.03-.053-.1-.085-.159-.139a5.541,5.541,0,0,1-5.1,3.771c-1.252.067-2.509.025-3.764.031-.238,0-.477,0-.862,0,.17.98.27,1.891.493,2.769a13.976,13.976,0,0,0,3.145,5.877,1.156,1.156,0,0,0,.829.3c.679-.033,1.353-.159,2.028-.255.749-.106,1.264.2,1.343.811.082.633-.317,1.011-1.065,1.141a32.07,32.07,0,0,0-4.256.846c-3.072.977-4.492,3.283-4.722,6.4-.116,1.58-.2,3.163-.3,4.745-.007.11-.014.22-.031.329a1.015,1.015,0,0,1-1.1.981.98.98,0,0,1-.861-1.132c.075-1.429.156-2.858.278-4.283a16.245,16.245,0,0,1,.387-2.933A8.768,8.768,0,0,1,625.4,92.7c.158-.072.314-.149.513-.244a15.022,15.022,0,0,1-2.753-5.018c-.416-1.447-.607-2.959-.918-4.437a1.208,1.208,0,0,0-.321-.646,3.008,3.008,0,0,1-.974-3.611c.615-1.671,1.25-3.334,1.875-5,.076-.2.142-.408.227-.652l-.491-.213a2.94,2.94,0,0,1-1.685-3.7,40.113,40.113,0,0,1,1.422-3.761,6.839,6.839,0,0,1,5.6-4.087c.13-.018.26-.033.39-.053.018,0,.033-.024.106-.08,0-1.758.015-3.559-.02-5.36,0-.211-.249-.446-.43-.622q-3.97-3.877-7.953-7.739c-.126-.123-.259-.24-.375-.371a1,1,0,0,1-.029-1.422.977.977,0,0,1,1.42.029c.9.844,1.777,1.71,2.661,2.569,1.529,1.485,3.057,2.972,4.725,4.595,0-.433,0-.7,0-.97a15.689,15.689,0,0,1,.627-5.086.994.994,0,0,0-.211-.744c-1.2-1.631-2.426-3.243-3.643-4.861-.664-.882-.644-1.219.107-1.965h.793l4.1,5.24c.132-.177.237-.313.338-.452a11.331,11.331,0,0,1,6.126-4.342c.65-.19,1.323-.3,1.986-.446H655a2.584,2.584,0,0,0,.373.111,11.279,11.279,0,0,1,7.615,4.506c.154.2.312.4.5.634.205-.268.363-.477.524-.684l3.544-4.566Zm-34.107,24.07c0,3.405-.186,6.739.038,10.045a12.586,12.586,0,0,0,25.114-1.274c.033-2.73.01-5.461.01-8.191,0-.189-.029-.378-.045-.58Zm28.984-9.14c0-1.334.035-2.609-.006-3.881a9.333,9.333,0,0,0-9.264-9.057q-7.166-.048-14.333,0a9.141,9.141,0,0,0-6.37,2.627c-3.043,2.857-3.059,6.526-2.8,10.317h1.908c0-.36-.01-.685,0-1.01a29.579,29.579,0,0,1,.192-4.078,7.3,7.3,0,0,1,7.02-5.878c.719,0,1.157.357,1.169.962.013.622-.4.98-1.189,1.024a5.356,5.356,0,0,0-4.891,3.619c-.59,1.752-.223,3.56-.314,5.36h8.158c.02-.162.045-.288.049-.416a17.5,17.5,0,0,1,.1-2.567,4.184,4.184,0,0,1,4.651-3.384,4.227,4.227,0,0,1,3.743,4.173c.014.72,0,1.44,0,2.186h8.217c0-1.1,0-2.152,0-3.2a5.429,5.429,0,0,0-5.794-5.775c-2.906,0-5.813.015-8.718-.02a1.647,1.647,0,0,1-1.075-.453.971.971,0,0,1-.053-.949,1.5,1.5,0,0,1,1.021-.537c3.1-.041,6.208-.033,9.313-.015a6.925,6.925,0,0,1,1.566.2,7.356,7.356,0,0,1,5.719,7.3c.02,1.14,0,2.28,0,3.463Zm-.026,2.069H630.443v5.015h1.729c0-.258,0-.474,0-.691a4.824,4.824,0,0,1,.02-.659.953.953,0,0,1,1.052-.872.905.905,0,0,1,.9.949c.02.411,0,.824,0,1.26h1.933c0-.421-.011-.792,0-1.163a.953.953,0,0,1,.937-1.055.978.978,0,0,1,1.038,1.035c.024.388,0,.779,0,1.2h1.858c.012-.225.027-.417.032-.61.006-.22-.012-.442.009-.66A.975.975,0,0,1,641,59.038a.943.943,0,0,1,.927,1c.018.408,0,.818,0,1.234h1.931c0-.4-.011-.774,0-1.142.025-.7.371-1.085.969-1.09s.965.384,1,1.072c.021.384,0,.769,0,1.141h1.9c0-.446-.02-.843,0-1.237a.971.971,0,0,1,1.02-.981.954.954,0,0,1,.951.977c.021.411,0,.823,0,1.263h1.915c0-.377-.008-.723,0-1.068.022-.754.361-1.156.968-1.167.634-.012.987.4,1.009,1.193.009.341,0,.683,0,1.034h1.913c0-.41-.009-.78,0-1.15a.978.978,0,0,1,.986-1.08.99.99,0,0,1,.99,1.082c.014.384,0,.769,0,1.152H659.4c0-.42-.02-.81,0-1.2a.98.98,0,0,1,1.035-1.039c.573.02.912.39.938,1.053.015.388,0,.778,0,1.182H663.2Zm-6.272,36.587c-1.74-.307-3.734-.114-4.739-2.147-1.747.879-3.326,2-5.35,2.019-2.054.017-3.648-1.129-5.411-2.012-1.007,2.032-3,1.84-4.738,2.142-.348,1.981,1.454,4.712,3.756,4.82a3.292,3.292,0,0,1,3.036-2.154c2.222-.03,4.444-.025,6.666,0a3.144,3.144,0,0,1,2.754,1.653c.112.183.218.369.32.54A4.515,4.515,0,0,0,656.929,92.835Zm8.034-21.759c-.194-.789-.384-1.529-.557-2.273-.178-.764.072-1.284.666-1.422.616-.144,1.075.187,1.265.932.2.766.391,1.532.553,2.3.076.361.216.518.61.5.746-.031,1.495,0,2.242-.012.915-.015,1.342-.589,1.04-1.441-.4-1.138-.808-2.277-1.28-3.386a4.369,4.369,0,0,0-3.282-2.793,40.153,40.153,0,0,0-4.783-.267v7.857Zm-3.454,2.015a40.892,40.892,0,0,0,.047,5.189,3.405,3.405,0,0,0,4.071,2.593c-.183-.744-.37-1.483-.544-2.224-.183-.781.091-1.338.709-1.466.588-.122,1.044.246,1.229.994.226.915.451,1.831.684,2.779.724,0,1.406.026,2.085-.007a1,1,0,0,0,.974-1.5c-.727-1.981-1.489-3.949-2.209-5.933-.136-.375-.351-.431-.693-.428-1.541.013-3.083.006-4.624.006Zm-29.365,0c-2.273,0-4.488-.006-6.7.016-.131,0-.322.206-.38.356-.771,2.008-1.536,4.018-2.271,6.04a1,1,0,0,0,1,1.444c.526.029,1.056-.013,1.582.016.39.021.531-.141.607-.509.16-.773.366-1.537.567-2.3s.661-1.1,1.242-.964.849.667.679,1.414-.358,1.521-.54,2.287a3.531,3.531,0,0,0,4.2-3.014C632.227,76.326,632.144,74.761,632.144,73.094Zm0-9.8c-1.267,0-2.454-.027-3.639.006a4.468,4.468,0,0,0-4.038,2.324,31.659,31.659,0,0,0-1.714,4.268.878.878,0,0,0,.725,1.186c1.022.055,2.049.016,3.055.016.25-1,.47-1.92.709-2.833.185-.705.633-1.013,1.232-.877.578.131.842.645.68,1.346-.179.777-.366,1.552-.55,2.332h3.539Zm19.695,22.55a14.958,14.958,0,0,1-10.044.012c0,.868-.019,1.658.015,2.445a.707.707,0,0,0,.321.482c.835.485,1.68.953,2.539,1.393a4.413,4.413,0,0,0,4.119.069c.927-.449,1.828-.954,2.728-1.458a.639.639,0,0,0,.308-.429C651.85,87.544,651.834,86.733,651.834,85.839Zm-5.01,11.637c-1.034,0-2.068-.011-3.1,0a1.321,1.321,0,1,0-.055,2.634q3.135.039,6.27.006a1.323,1.323,0,1,0-.011-2.64C648.892,97.465,647.858,97.477,646.824,97.476Zm2.247-43.28c0-.8.022-1.545-.005-2.287a2.194,2.194,0,0,0-1.977-2.113,2.155,2.155,0,0,0-2.458,1.7,18.826,18.826,0,0,0-.026,2.7Z" transform="translate(-619.308 -39.249)"/><path d="M759.975,202.122c0-.33-.01-.659,0-.989a2.67,2.67,0,0,1,5.338-.03c.024.7.025,1.407-.009,2.108a2.666,2.666,0,0,1-5.327-.035c-.016-.351,0-.7,0-1.054Zm1.992-.027a3.231,3.231,0,0,0,.027,1.043.938.938,0,0,0,.642.563.862.862,0,0,0,.651-.541,12.448,12.448,0,0,0,.033-2.035.557.557,0,0,0-.693-.6,1.072,1.072,0,0,0-.635.589A2.878,2.878,0,0,0,761.967,202.1Z" transform="translate(-735.141 -170.399)"/><path d="M761.348,254.69a3.1,3.1,0,0,1-2.514-1.511.963.963,0,0,1,.234-1.4,1,1,0,0,1,1.353.235c.848.949,1.4.947,2.259-.01a1,1,0,0,1,1.355-.215.981.981,0,0,1,.218,1.4A3.346,3.346,0,0,1,761.348,254.69Z" transform="translate(-734.041 -214.127)"/><path d="M720.459,222.205c-.729.006-1.161-.331-1.206-.865a.922.922,0,0,1,.77-1.063c.812-.176,1.634-.32,2.459-.419a.978.978,0,0,1,.347,1.92C722,221.96,721.149,222.083,720.459,222.205Z" transform="translate(-701.606 -187.969)"/><path d="M809.607,222.186c-.7-.123-1.547-.238-2.376-.433a.9.9,0,0,1-.7-1.1.96.96,0,0,1,1.1-.809c.8.112,1.6.245,2.393.41a.973.973,0,0,1,.81,1.1C810.75,221.881,810.335,222.2,809.607,222.186Z" transform="translate(-773.47 -187.954)"/><path d="M726.9,194.6a3.836,3.836,0,0,1,0,.59.928.928,0,0,1-.967.881.886.886,0,0,1-.969-.8,4.943,4.943,0,0,1-.006-1.373.9.9,0,0,1,.954-.823.933.933,0,0,1,.987.866A4.355,4.355,0,0,1,726.9,194.6Z" transform="translate(-706.267 -165.927)"/><path d="M815.955,194.529a3.592,3.592,0,0,1-.047.717.924.924,0,0,1-1,.762.905.905,0,0,1-.923-.85,6.457,6.457,0,0,1-.016-1.114.989.989,0,0,1,.963-1.036,1.007,1.007,0,0,1,1.012,1c.014.174,0,.35,0,.525Z" transform="translate(-779.59 -165.865)"/><path d="M809.551,93.822a1.725,1.725,0,0,1,.425-.59,16.042,16.042,0,0,1,1.9-1.044.94.94,0,0,1,1.28.472.915.915,0,0,1-.382,1.255,17.054,17.054,0,0,1-1.856.994C810.236,95.214,809.532,94.719,809.551,93.822Z" transform="translate(-775.969 -82.764)"/><path d="M722.256,91.019a29.77,29.77,0,0,1,2.556,1.623c.17.13.129.8-.053,1.048a1.123,1.123,0,0,1-1,.353,9.069,9.069,0,0,1-2.131-1.147,1.173,1.173,0,0,1-.246-1.043C721.471,91.553,721.887,91.35,722.256,91.019Z" transform="translate(-703.338 -81.88)"/></g></g></svg>