<?xml version="1.0" encoding="utf-8"?>
<!-- Generator: Adobe Illustrator 25.2.1, SVG Export Plug-In . SVG Version: 6.00 Build 0)  -->
<svg version="1.1" id="Capa_1" xmlns="http://www.w3.org/2000/svg" xmlns:xlink="http://www.w3.org/1999/xlink" x="0px" y="0px"
	 viewBox="0 0 768 299.3" style="enable-background:new 0 0 768 299.3;" xml:space="preserve">
<style type="text/css">
	.st0{fill:#205D78;}
	.st1{fill:#FCBF2A;}
	.st2{fill:#6FC5CB;}
	.st3{enable-background:new    ;}
	.st4{fill:none;stroke:#FCBF2A;stroke-width:3;}
	.st5{fill:#FFFFFF;}
</style>
<path class="st0" d="M205,0h162c5,0,9,4,9,9v39c0,5-4,9-9,9H205c-5,0-9-4-9-9V9C196,4,200,0,205,0z"/>
<path class="st1" d="M401,121.1h162c5,0,9,4,9,9v39c0,5-4,9-9,9H401c-5,0-9-4-9-9v-39C392,125.2,396,121.1,401,121.1z"/>
<path class="st1" d="M205,242.3h162c5,0,9,4,9,9v39c0,5-4,9-9,9H205c-5,0-9-4-9-9v-39C196,246.3,200,242.3,205,242.3z"/>
<path class="st2" d="M597,121.1h162c5,0,9,4,9,9v39c0,5-4,9-9,9H597c-5,0-9-4-9-9v-39C588,125.2,592,121.1,597,121.1z"/>
<g class="st3">
	<path class="st0" d="M74,30.4c-0.1,1.2-0.6,2.1-1.3,2.8c-0.7,0.7-1.7,1-3,1c-1.3,0-2.4-0.5-3.2-1.4c-0.8-1-1.2-2.3-1.2-3.9v-1.1
		c0-1.1,0.2-2,0.6-2.8c0.4-0.8,0.9-1.4,1.6-1.8c0.7-0.4,1.5-0.6,2.4-0.6c1.2,0,2.2,0.3,2.9,1c0.7,0.7,1.2,1.6,1.3,2.8h-1.5
		c-0.1-0.9-0.4-1.6-0.8-2c-0.4-0.4-1-0.6-1.8-0.6c-1,0-1.7,0.4-2.3,1.1c-0.5,0.7-0.8,1.7-0.8,3v1.1c0,1.2,0.3,2.2,0.8,2.9
		s1.2,1.1,2.2,1.1c0.8,0,1.5-0.2,1.9-0.6s0.7-1,0.9-2H74z"/>
	<path class="st0" d="M82.3,31h-4.8l-1.1,3h-1.5l4.3-11.4h1.3L84.9,34h-1.5L82.3,31z M78,29.8h3.9l-1.9-5.3L78,29.8z"/>
	<path class="st0" d="M95.2,34h-1.5L88,25.2V34h-1.5V22.6H88l5.7,8.8v-8.8h1.5V34z"/>
	<path class="st0" d="M104.3,31h-4.8l-1.1,3h-1.5l4.3-11.4h1.3l4.4,11.4h-1.5L104.3,31z M100,29.8h3.9l-1.9-5.3L100,29.8z"/>
	<path class="st0" d="M109.9,32.8h5.4V34h-6.9V22.6h1.5V32.8z"/>
</g>
<line class="st4" x1="196" y1="28.3" x2="143" y2="28.3"/>
<line class="st4" x1="90" y1="57.3" x2="90" y2="242.3"/>
<g class="st3">
	<path class="st5" d="M264.5,29.1H260v3.1h5.3V34h-7.6V22.6h7.6v1.9H260v2.7h4.5V29.1z"/>
	<path class="st5" d="M269.7,22.6l2.9,8.2l2.9-8.2h3.1V34h-2.4v-3.1l0.2-5.4l-3.1,8.5h-1.6l-3.1-8.5l0.2,5.4V34h-2.3V22.6H269.7z"/>
	<path class="st5" d="M283.1,34h-2.3V22.6h2.3V34z"/>
	<path class="st5" d="M291.2,31c0-0.4-0.2-0.8-0.5-1s-0.9-0.5-1.7-0.8s-1.5-0.5-1.9-0.8c-1.3-0.7-1.9-1.6-1.9-2.8
		c0-0.6,0.2-1.2,0.5-1.6c0.3-0.5,0.8-0.9,1.5-1.1s1.4-0.4,2.2-0.4c0.8,0,1.5,0.1,2.2,0.4c0.6,0.3,1.1,0.7,1.5,1.2s0.5,1.1,0.5,1.8
		h-2.3c0-0.5-0.2-0.9-0.5-1.2s-0.8-0.4-1.4-0.4c-0.6,0-1,0.1-1.3,0.4c-0.3,0.2-0.5,0.6-0.5,1c0,0.4,0.2,0.7,0.6,0.9
		c0.4,0.2,0.9,0.5,1.6,0.7c1.3,0.4,2.3,0.9,2.9,1.5s0.9,1.3,0.9,2.2c0,1-0.4,1.8-1.1,2.3c-0.7,0.6-1.7,0.8-3,0.8
		c-0.9,0-1.7-0.2-2.4-0.5s-1.3-0.8-1.6-1.3c-0.4-0.6-0.6-1.2-0.6-1.9h2.4c0,1.3,0.8,1.9,2.2,1.9c0.6,0,1-0.1,1.3-0.3
		S291.2,31.4,291.2,31z"/>
	<path class="st5" d="M304.5,28.6c0,1.1-0.2,2.1-0.6,2.9c-0.4,0.8-1,1.5-1.7,2c-0.7,0.5-1.6,0.7-2.5,0.7c-0.9,0-1.8-0.2-2.5-0.7
		c-0.7-0.5-1.3-1.1-1.7-1.9s-0.6-1.8-0.6-2.9v-0.6c0-1.1,0.2-2.1,0.6-3c0.4-0.9,1-1.5,1.7-2c0.7-0.5,1.6-0.7,2.5-0.7
		c0.9,0,1.8,0.2,2.5,0.7c0.7,0.5,1.3,1.1,1.7,2c0.4,0.9,0.6,1.8,0.6,2.9V28.6z M302.1,28.1c0-1.2-0.2-2.1-0.6-2.7
		c-0.4-0.6-1-0.9-1.8-0.9c-0.8,0-1.4,0.3-1.8,0.9c-0.4,0.6-0.6,1.5-0.6,2.7v0.6c0,1.2,0.2,2.1,0.6,2.7c0.4,0.6,1,1,1.8,1
		c0.8,0,1.4-0.3,1.8-0.9s0.6-1.5,0.6-2.7V28.1z"/>
	<path class="st5" d="M310.4,29.8h-1.9V34h-2.3V22.6h4.2c1.3,0,2.4,0.3,3.1,0.9c0.7,0.6,1.1,1.4,1.1,2.5c0,0.8-0.2,1.4-0.5,1.9
		s-0.8,0.9-1.5,1.2l2.5,4.6V34h-2.5L310.4,29.8z M308.5,27.9h1.9c0.6,0,1-0.1,1.4-0.4c0.3-0.3,0.5-0.7,0.5-1.2c0-0.5-0.2-1-0.5-1.3
		s-0.8-0.5-1.4-0.5h-1.9V27.9z"/>
</g>
<g class="st3">
	<path class="st5" d="M251.3,272.1h-1.9v4.2H247v-11.4h4.2c1.3,0,2.4,0.3,3.1,0.9c0.7,0.6,1.1,1.4,1.1,2.5c0,0.8-0.2,1.4-0.5,1.9
		s-0.8,0.9-1.5,1.2l2.5,4.6v0.1h-2.5L251.3,272.1z M249.4,270.2h1.9c0.6,0,1-0.1,1.4-0.4c0.3-0.3,0.5-0.7,0.5-1.2
		c0-0.5-0.2-1-0.5-1.3s-0.8-0.5-1.4-0.5h-1.9V270.2z"/>
	<path class="st5" d="M264.1,271.3h-4.5v3.1h5.3v1.9h-7.6v-11.4h7.6v1.9h-5.3v2.7h4.5V271.3z"/>
	<path class="st5" d="M275.2,272.5c-0.1,1.2-0.5,2.2-1.4,2.9c-0.8,0.7-1.9,1.1-3.2,1.1c-1.5,0-2.6-0.5-3.4-1.5s-1.3-2.3-1.3-4v-0.7
		c0-1.1,0.2-2.1,0.6-2.9c0.4-0.8,0.9-1.5,1.7-1.9c0.7-0.4,1.5-0.7,2.5-0.7c1.3,0,2.4,0.4,3.2,1.1c0.8,0.7,1.3,1.7,1.4,3h-2.3
		c-0.1-0.7-0.3-1.3-0.6-1.6s-0.9-0.5-1.6-0.5c-0.8,0-1.4,0.3-1.8,0.8c-0.4,0.6-0.6,1.4-0.6,2.6v0.9c0,1.2,0.2,2.1,0.6,2.7
		c0.4,0.6,1,0.9,1.8,0.9c0.7,0,1.3-0.2,1.6-0.5c0.4-0.3,0.6-0.8,0.6-1.5H275.2z"/>
	<path class="st5" d="M283.6,271.3h-4.5v3.1h5.3v1.9h-7.6v-11.4h7.6v1.9h-5.3v2.7h4.5V271.3z"/>
	<path class="st5" d="M288.1,272.2v4h-2.3v-11.4h4.4c0.9,0,1.6,0.2,2.3,0.5s1.1,0.8,1.5,1.3c0.3,0.6,0.5,1.2,0.5,2
		c0,1.1-0.4,2-1.1,2.6c-0.8,0.6-1.8,1-3.2,1H288.1z M288.1,270.3h2.1c0.6,0,1.1-0.1,1.4-0.4c0.3-0.3,0.5-0.7,0.5-1.2
		c0-0.6-0.2-1-0.5-1.4s-0.8-0.5-1.4-0.5h-2.1V270.3z"/>
	<path class="st5" d="M304.6,266.8h-3.5v9.5h-2.3v-9.5h-3.4v-1.9h9.3V266.8z"/>
	<path class="st5" d="M315.1,270.8c0,1.1-0.2,2.1-0.6,2.9c-0.4,0.8-1,1.5-1.7,2c-0.7,0.5-1.6,0.7-2.5,0.7c-0.9,0-1.8-0.2-2.5-0.7
		c-0.7-0.5-1.3-1.1-1.7-1.9s-0.6-1.8-0.6-2.9v-0.6c0-1.1,0.2-2.1,0.6-3c0.4-0.9,1-1.5,1.7-2c0.7-0.5,1.6-0.7,2.5-0.7
		c0.9,0,1.8,0.2,2.5,0.7c0.7,0.5,1.3,1.1,1.7,2c0.4,0.9,0.6,1.8,0.6,2.9V270.8z M312.7,270.3c0-1.2-0.2-2.1-0.6-2.7
		c-0.4-0.6-1-0.9-1.8-0.9c-0.8,0-1.4,0.3-1.8,0.9c-0.4,0.6-0.6,1.5-0.6,2.7v0.6c0,1.2,0.2,2.1,0.6,2.7c0.4,0.6,1,1,1.8,1
		c0.8,0,1.4-0.3,1.8-0.9s0.6-1.5,0.6-2.7V270.3z"/>
	<path class="st5" d="M321,272.1h-1.9v4.2h-2.3v-11.4h4.2c1.3,0,2.4,0.3,3.1,0.9c0.7,0.6,1.1,1.4,1.1,2.5c0,0.8-0.2,1.4-0.5,1.9
		s-0.8,0.9-1.5,1.2l2.5,4.6v0.1h-2.5L321,272.1z M319.1,270.2h1.9c0.6,0,1-0.1,1.4-0.4c0.3-0.3,0.5-0.7,0.5-1.2c0-0.5-0.2-1-0.5-1.3
		s-0.8-0.5-1.4-0.5h-1.9V270.2z"/>
</g>
<g class="st3">
	<path class="st0" d="M74,272.6c-0.1,1.2-0.6,2.1-1.3,2.8c-0.7,0.7-1.7,1-3,1c-1.3,0-2.4-0.5-3.2-1.4c-0.8-1-1.2-2.3-1.2-3.9V270
		c0-1.1,0.2-2,0.6-2.8c0.4-0.8,0.9-1.4,1.6-1.8c0.7-0.4,1.5-0.6,2.4-0.6c1.2,0,2.2,0.3,2.9,1c0.7,0.7,1.2,1.6,1.3,2.8h-1.5
		c-0.1-0.9-0.4-1.6-0.8-2c-0.4-0.4-1-0.6-1.8-0.6c-1,0-1.7,0.4-2.3,1.1c-0.5,0.7-0.8,1.7-0.8,3v1.1c0,1.2,0.3,2.2,0.8,2.9
		s1.2,1.1,2.2,1.1c0.8,0,1.5-0.2,1.9-0.6s0.7-1,0.9-2H74z"/>
	<path class="st0" d="M82.3,273.3h-4.8l-1.1,3h-1.5l4.3-11.4h1.3l4.4,11.4h-1.5L82.3,273.3z M78,272.1h3.9l-1.9-5.3L78,272.1z"/>
	<path class="st0" d="M95.2,276.3h-1.5l-5.7-8.8v8.8h-1.5v-11.4H88l5.7,8.8v-8.8h1.5V276.3z"/>
	<path class="st0" d="M104.3,273.3h-4.8l-1.1,3h-1.5l4.3-11.4h1.3l4.4,11.4h-1.5L104.3,273.3z M100,272.1h3.9l-1.9-5.3L100,272.1z"
		/>
	<path class="st0" d="M109.9,275h5.4v1.2h-6.9v-11.4h1.5V275z"/>
</g>
<path class="st1" d="M9,121.1h162c5,0,9,4,9,9v39c0,5-4,9-9,9H9c-5,0-9-4-9-9v-39C0,125.2,4,121.1,9,121.1z"/>
<g class="st3">
	<path class="st5" d="M57.7,143.8l2.9,8.2l2.9-8.2h3.1v11.4h-2.4V152l0.2-5.4l-3.1,8.5h-1.6l-3.1-8.5l0.2,5.4v3.1h-2.3v-11.4H57.7z"
		/>
	<path class="st5" d="M75.4,150.2h-4.5v3.1h5.3v1.9h-7.6v-11.4h7.6v1.9h-5.3v2.7h4.5V150.2z"/>
	<path class="st5" d="M86.9,155.1h-2.3l-4.6-7.5v7.5h-2.3v-11.4h2.3l4.6,7.5v-7.5h2.3V155.1z"/>
	<path class="st5" d="M94.8,152.1c0-0.4-0.2-0.8-0.5-1s-0.9-0.5-1.7-0.8s-1.5-0.5-1.9-0.8c-1.3-0.7-1.9-1.6-1.9-2.8
		c0-0.6,0.2-1.2,0.5-1.6c0.3-0.5,0.8-0.9,1.5-1.1s1.4-0.4,2.2-0.4c0.8,0,1.5,0.1,2.2,0.4c0.6,0.3,1.1,0.7,1.5,1.2s0.5,1.1,0.5,1.8
		h-2.3c0-0.5-0.2-0.9-0.5-1.2s-0.8-0.4-1.4-0.4c-0.6,0-1,0.1-1.3,0.4c-0.3,0.2-0.5,0.6-0.5,1c0,0.4,0.2,0.7,0.6,0.9
		c0.4,0.2,0.9,0.5,1.6,0.7c1.3,0.4,2.3,0.9,2.9,1.5s0.9,1.3,0.9,2.2c0,1-0.4,1.8-1.1,2.3c-0.7,0.6-1.7,0.8-3,0.8
		c-0.9,0-1.7-0.2-2.4-0.5s-1.3-0.8-1.6-1.3c-0.4-0.6-0.6-1.2-0.6-1.9h2.4c0,1.3,0.8,1.9,2.2,1.9c0.6,0,1-0.1,1.3-0.3
		S94.8,152.5,94.8,152.1z"/>
	<path class="st5" d="M105.2,152.8h-4.1l-0.8,2.3h-2.5l4.2-11.4h2.2l4.3,11.4h-2.5L105.2,152.8z M101.7,150.9h2.8l-1.4-4.3
		L101.7,150.9z"/>
	<path class="st5" d="M114.1,143.8h2.3v7.9c0,0.7-0.2,1.4-0.5,1.9s-0.8,1-1.4,1.3c-0.6,0.3-1.2,0.5-2,0.5c-1.2,0-2.1-0.3-2.8-0.9
		s-1-1.5-1-2.6h2.4c0,0.6,0.1,1,0.4,1.2s0.6,0.4,1.1,0.4c0.4,0,0.8-0.2,1.1-0.5s0.4-0.7,0.4-1.3V143.8z"/>
	<path class="st5" d="M125.3,150.2h-4.5v3.1h5.3v1.9h-7.6v-11.4h7.6v1.9h-5.3v2.7h4.5V150.2z"/>
</g>
<line class="st4" x1="196" y1="270.3" x2="143" y2="270.3"/>
<line class="st4" x1="484" y1="28.3" x2="376" y2="28.3"/>
<line class="st4" x1="482" y1="121.3" x2="482" y2="28.3"/>
<g class="st3">
	<path class="st5" d="M450.8,151.3c-0.1,1.2-0.5,2.2-1.4,2.9c-0.8,0.7-1.9,1.1-3.2,1.1c-1.5,0-2.6-0.5-3.4-1.5s-1.3-2.3-1.3-4v-0.7
		c0-1.1,0.2-2.1,0.6-2.9c0.4-0.8,0.9-1.5,1.7-1.9c0.7-0.4,1.5-0.7,2.5-0.7c1.3,0,2.4,0.4,3.2,1.1c0.8,0.7,1.3,1.7,1.4,3h-2.3
		c-0.1-0.7-0.3-1.3-0.6-1.6s-0.9-0.5-1.6-0.5c-0.8,0-1.4,0.3-1.8,0.8c-0.4,0.6-0.6,1.4-0.6,2.6v0.9c0,1.2,0.2,2.1,0.6,2.7
		c0.4,0.6,1,0.9,1.8,0.9c0.7,0,1.3-0.2,1.6-0.5c0.4-0.3,0.6-0.8,0.6-1.5H450.8z"/>
	<path class="st5" d="M461.6,149.7c0,1.1-0.2,2.1-0.6,2.9c-0.4,0.8-1,1.5-1.7,2c-0.7,0.5-1.6,0.7-2.5,0.7c-0.9,0-1.8-0.2-2.5-0.7
		c-0.7-0.5-1.3-1.1-1.7-1.9s-0.6-1.8-0.6-2.9v-0.6c0-1.1,0.2-2.1,0.6-3c0.4-0.9,1-1.5,1.7-2c0.7-0.5,1.6-0.7,2.5-0.7
		c0.9,0,1.8,0.2,2.5,0.7c0.7,0.5,1.3,1.1,1.7,2c0.4,0.9,0.6,1.8,0.6,2.9V149.7z M459.3,149.2c0-1.2-0.2-2.1-0.6-2.7
		c-0.4-0.6-1-0.9-1.8-0.9c-0.8,0-1.4,0.3-1.8,0.9c-0.4,0.6-0.6,1.5-0.6,2.7v0.6c0,1.2,0.2,2.1,0.6,2.7c0.4,0.6,1,1,1.8,1
		c0.8,0,1.4-0.3,1.8-0.9s0.6-1.5,0.6-2.7V149.2z"/>
	<path class="st5" d="M472.6,155.1h-2.3l-4.6-7.5v7.5h-2.3v-11.4h2.3l4.6,7.5v-7.5h2.3V155.1z"/>
	<path class="st5" d="M483,145.7h-3.5v9.5h-2.3v-9.5h-3.4v-1.9h9.3V145.7z"/>
	<path class="st5" d="M491.2,150.2h-4.5v3.1h5.3v1.9h-7.6v-11.4h7.6v1.9h-5.3v2.7h4.5V150.2z"/>
	<path class="st5" d="M497.4,147.7l2.1-3.9h2.7l-3.3,5.6l3.4,5.7h-2.7l-2.2-4l-2.2,4h-2.7l3.4-5.7l-3.3-5.6h2.7L497.4,147.7z"/>
	<path class="st5" d="M512,145.7h-3.5v9.5h-2.3v-9.5h-3.4v-1.9h9.3V145.7z"/>
	<path class="st5" d="M522.5,149.7c0,1.1-0.2,2.1-0.6,2.9c-0.4,0.8-1,1.5-1.7,2c-0.7,0.5-1.6,0.7-2.5,0.7c-0.9,0-1.8-0.2-2.5-0.7
		c-0.7-0.5-1.3-1.1-1.7-1.9s-0.6-1.8-0.6-2.9v-0.6c0-1.1,0.2-2.1,0.6-3c0.4-0.9,1-1.5,1.7-2c0.7-0.5,1.6-0.7,2.5-0.7
		c0.9,0,1.8,0.2,2.5,0.7c0.7,0.5,1.3,1.1,1.7,2c0.4,0.9,0.6,1.8,0.6,2.9V149.7z M520.1,149.2c0-1.2-0.2-2.1-0.6-2.7
		c-0.4-0.6-1-0.9-1.8-0.9c-0.8,0-1.4,0.3-1.8,0.9c-0.4,0.6-0.6,1.5-0.6,2.7v0.6c0,1.2,0.2,2.1,0.6,2.7c0.4,0.6,1,1,1.8,1
		c0.8,0,1.4-0.3,1.8-0.9s0.6-1.5,0.6-2.7V149.2z"/>
</g>
<line class="st4" x1="588" y1="150.3" x2="572" y2="150.3"/>
<line class="st4" x1="482" y1="270.3" x2="376" y2="270.3"/>
<line class="st4" x1="482" y1="271.3" x2="482" y2="178.3"/>
<line class="st4" x1="286" y1="57.3" x2="286" y2="242.3"/>
<g class="st3">
	<path class="st5" d="M640.1,151h-1.9v4.2h-2.3v-11.4h4.2c1.3,0,2.4,0.3,3.1,0.9s1.1,1.4,1.1,2.5c0,0.8-0.2,1.4-0.5,1.9
		s-0.8,0.9-1.5,1.2l2.5,4.6v0.1h-2.5L640.1,151z M638.3,149.1h1.9c0.6,0,1-0.1,1.4-0.4s0.5-0.7,0.5-1.2c0-0.5-0.2-1-0.5-1.3
		s-0.8-0.5-1.4-0.5h-1.9V149.1z"/>
	<path class="st5" d="M653,150.2h-4.5v3.1h5.3v1.9h-7.6v-11.4h7.6v1.9h-5.3v2.7h4.5V150.2z"/>
	<path class="st5" d="M662,150.5h-4.5v4.6h-2.3v-11.4h7.4v1.9h-5.1v2.9h4.5V150.5z"/>
	<path class="st5" d="M670.8,150.2h-4.5v3.1h5.3v1.9h-7.6v-11.4h7.6v1.9h-5.3v2.7h4.5V150.2z"/>
	<path class="st5" d="M677.1,151h-1.9v4.2h-2.3v-11.4h4.2c1.3,0,2.4,0.3,3.1,0.9s1.1,1.4,1.1,2.5c0,0.8-0.2,1.4-0.5,1.9
		s-0.8,0.9-1.5,1.2l2.5,4.6v0.1h-2.5L677.1,151z M675.3,149.1h1.9c0.6,0,1-0.1,1.4-0.4s0.5-0.7,0.5-1.2c0-0.5-0.2-1-0.5-1.3
		s-0.8-0.5-1.4-0.5h-1.9V149.1z"/>
	<path class="st5" d="M690,150.2h-4.5v3.1h5.3v1.9h-7.6v-11.4h7.6v1.9h-5.3v2.7h4.5V150.2z"/>
	<path class="st5" d="M701.4,155.1H699l-4.6-7.5v7.5h-2.3v-11.4h2.3l4.6,7.5v-7.5h2.3V155.1z"/>
	<path class="st5" d="M711.8,145.7h-3.5v9.5h-2.3v-9.5h-3.4v-1.9h9.3V145.7z"/>
	<path class="st5" d="M719.9,150.2h-4.5v3.1h5.3v1.9h-7.6v-11.4h7.6v1.9h-5.3v2.7h4.5V150.2z"/>
</g>
<path class="st1" d="M205,121.1h162c5,0,9,4,9,9v39c0,5-4,9-9,9H205c-5,0-9-4-9-9v-39C196,125.2,200,121.1,205,121.1z"/>
<g class="st3">
	<path class="st5" d="M266.7,151.3c-0.1,1.2-0.5,2.2-1.4,2.9c-0.8,0.7-1.9,1.1-3.2,1.1c-1.5,0-2.6-0.5-3.4-1.5s-1.3-2.3-1.3-4v-0.7
		c0-1.1,0.2-2.1,0.6-2.9c0.4-0.8,0.9-1.5,1.7-1.9c0.7-0.4,1.5-0.7,2.5-0.7c1.3,0,2.4,0.4,3.2,1.1c0.8,0.7,1.3,1.7,1.4,3h-2.3
		c-0.1-0.7-0.3-1.3-0.6-1.6s-0.9-0.5-1.6-0.5c-0.8,0-1.4,0.3-1.8,0.8c-0.4,0.6-0.6,1.4-0.6,2.6v0.9c0,1.2,0.2,2.1,0.6,2.7
		c0.4,0.6,1,0.9,1.8,0.9c0.7,0,1.3-0.2,1.6-0.5c0.4-0.3,0.6-0.8,0.6-1.5H266.7z"/>
	<path class="st5" d="M277.6,149.7c0,1.1-0.2,2.1-0.6,2.9c-0.4,0.8-1,1.5-1.7,2c-0.7,0.5-1.6,0.7-2.5,0.7c-0.9,0-1.8-0.2-2.5-0.7
		c-0.7-0.5-1.3-1.1-1.7-1.9s-0.6-1.8-0.6-2.9v-0.6c0-1.1,0.2-2.1,0.6-3c0.4-0.9,1-1.5,1.7-2c0.7-0.5,1.6-0.7,2.5-0.7
		c0.9,0,1.8,0.2,2.5,0.7c0.7,0.5,1.3,1.1,1.7,2c0.4,0.9,0.6,1.8,0.6,2.9V149.7z M275.2,149.2c0-1.2-0.2-2.1-0.6-2.7
		c-0.4-0.6-1-0.9-1.8-0.9c-0.8,0-1.4,0.3-1.8,0.9c-0.4,0.6-0.6,1.5-0.6,2.7v0.6c0,1.2,0.2,2.1,0.6,2.7c0.4,0.6,1,1,1.8,1
		c0.8,0,1.4-0.3,1.8-0.9s0.6-1.5,0.6-2.7V149.2z M273.2,140.7h2.5l-2.2,2.4h-1.8L273.2,140.7z"/>
	<path class="st5" d="M279.3,155.1v-11.4h3.5c1,0,1.9,0.2,2.7,0.7s1.4,1.1,1.8,1.9c0.4,0.8,0.7,1.8,0.7,2.8v0.5c0,1.1-0.2,2-0.7,2.8
		c-0.4,0.8-1,1.5-1.8,1.9c-0.8,0.5-1.7,0.7-2.7,0.7H279.3z M281.6,145.7v7.6h1.1c0.9,0,1.6-0.3,2.1-0.9s0.7-1.5,0.7-2.6v-0.6
		c0-1.2-0.2-2-0.7-2.6c-0.5-0.6-1.2-0.9-2.1-0.9H281.6z"/>
	<path class="st5" d="M292.2,155.1h-2.3v-11.4h2.3V155.1z"/>
	<path class="st5" d="M303.3,153.7c-0.4,0.5-1,0.9-1.8,1.2c-0.8,0.3-1.6,0.4-2.6,0.4c-1,0-1.8-0.2-2.6-0.6s-1.3-1.1-1.7-1.9
		c-0.4-0.8-0.6-1.8-0.6-2.9v-0.8c0-1.1,0.2-2.1,0.6-2.9s0.9-1.5,1.7-1.9c0.7-0.4,1.6-0.7,2.5-0.7c1.3,0,2.4,0.3,3.2,1
		c0.8,0.6,1.2,1.6,1.4,2.8h-2.3c-0.1-0.7-0.3-1.1-0.7-1.4c-0.4-0.3-0.8-0.5-1.5-0.5c-0.8,0-1.4,0.3-1.8,0.9
		c-0.4,0.6-0.6,1.5-0.6,2.7v0.7c0,1.2,0.2,2.1,0.7,2.7s1.1,0.9,2,0.9c0.9,0,1.5-0.2,1.9-0.6v-2h-2.1v-1.7h4.5V153.7z"/>
	<path class="st5" d="M314.6,149.7c0,1.1-0.2,2.1-0.6,2.9c-0.4,0.8-1,1.5-1.7,2c-0.7,0.5-1.6,0.7-2.5,0.7c-0.9,0-1.8-0.2-2.5-0.7
		c-0.7-0.5-1.3-1.1-1.7-1.9s-0.6-1.8-0.6-2.9v-0.6c0-1.1,0.2-2.1,0.6-3c0.4-0.9,1-1.5,1.7-2c0.7-0.5,1.6-0.7,2.5-0.7
		c0.9,0,1.8,0.2,2.5,0.7c0.7,0.5,1.3,1.1,1.7,2c0.4,0.9,0.6,1.8,0.6,2.9V149.7z M312.2,149.2c0-1.2-0.2-2.1-0.6-2.7
		c-0.4-0.6-1-0.9-1.8-0.9c-0.8,0-1.4,0.3-1.8,0.9c-0.4,0.6-0.6,1.5-0.6,2.7v0.6c0,1.2,0.2,2.1,0.6,2.7c0.4,0.6,1,1,1.8,1
		c0.8,0,1.4-0.3,1.8-0.9s0.6-1.5,0.6-2.7V149.2z"/>
</g>
</svg>
