<svg xmlns="http://www.w3.org/2000/svg" xmlns:xlink="http://www.w3.org/1999/xlink" width="1320" height="506.835" viewBox="0 0 1320 506.835">
  <defs>
    <linearGradient id="linear-gradient" x1="0.5" x2="0.5" y2="1" gradientUnits="objectBoundingBox">
      <stop offset="0" stop-color="#ffa726"/>
      <stop offset="1" stop-color="#fdd835"/>
    </linearGradient>
    <clipPath id="clip-path">
      <path id="Rectangle_652" data-name="Rectangle 652" d="M20.787,0H1299.213C1310.693,0,1320,8.4,1320,18.772V488.063c0,10.367-9.307,18.772-20.787,18.772H20.787C9.307,506.835,0,498.431,0,488.063V18.772C0,8.4,9.307,0,20.787,0Z" transform="translate(140 70)" fill="url(#linear-gradient)"/>
    </clipPath>
  </defs>
  <g id="Grupo_57108" data-name="Grupo 57108" transform="translate(-140 -70)">
    <path id="Rectangle_652-2" data-name="Rectangle 652" d="M20.787,0H1299.213C1310.693,0,1320,8.4,1320,18.772V488.063c0,10.367-9.307,18.772-20.787,18.772H20.787C9.307,506.835,0,498.431,0,488.063V18.772C0,8.4,9.307,0,20.787,0Z" transform="translate(140 70)" fill="url(#linear-gradient)"/>
    <g id="Enmascarar_grupo_56" data-name="Enmascarar grupo 56" clip-path="url(#clip-path)">
      <g id="Grupo_57040" data-name="Grupo 57040" transform="translate(846.439 14.996)">
        <path id="Trazado_107403" data-name="Trazado 107403" d="M59.645,321.58C54.16,259.4,92.333,219.62,164.014,192.249s76.394-102.33,163.627-102.33S432.667,182.04,427.959,232.728s45.233,78.309-59.094,123.784S67.6,411.738,59.645,321.58Z" transform="translate(-921.411 -205)" fill="#f8dd8c"/>
        <path id="Trazado_107404" data-name="Trazado 107404" d="M59.645,321.58C54.16,259.4,92.333,219.62,164.014,192.249s76.394-102.33,163.627-102.33S432.667,182.04,427.959,232.728s45.233,78.309-59.094,123.784S67.6,411.738,59.645,321.58Z" transform="matrix(0.951, 0.309, -0.309, 0.951, -431.533, 341.312)" fill="#f8dd8c"/>
      </g>
    </g>
  </g>
</svg>
