<svg xmlns="http://www.w3.org/2000/svg" width="916" height="383" viewBox="0 0 916 383">
  <g id="Grupo_56056" data-name="Grupo 56056" transform="translate(-340 -744)">
    <g id="Rectángulo_7086" data-name="Rectángulo 7086" transform="translate(340 910)" fill="#fdd835" stroke="#12263f" stroke-width="3">
      <rect width="156" height="68" rx="34" stroke="none"/>
      <rect x="1.5" y="1.5" width="153" height="65" rx="32.5" fill="none"/>
    </g>
    <g id="Rectángulo_7087" data-name="Rectángulo 7087" transform="translate(622 910)" fill="#26c6da" stroke="#12263f" stroke-width="3">
      <rect width="156" height="68" rx="34" stroke="none"/>
      <rect x="1.5" y="1.5" width="153" height="65" rx="32.5" fill="none"/>
    </g>
    <g id="Rectángulo_7088" data-name="Rectángulo 7088" transform="translate(944 910)" fill="#fdd835" stroke="#12263f" stroke-width="3">
      <rect width="156" height="68" rx="34" stroke="none"/>
      <rect x="1.5" y="1.5" width="153" height="65" rx="32.5" fill="none"/>
    </g>
    <g id="Rectángulo_7089" data-name="Rectángulo 7089" transform="translate(1100 1016)" fill="#fdd835" stroke="#12263f" stroke-width="3">
      <rect width="156" height="68" rx="34" stroke="none"/>
      <rect x="1.5" y="1.5" width="153" height="65" rx="32.5" fill="none"/>
    </g>
    <g id="Rectángulo_7090" data-name="Rectángulo 7090" transform="translate(622 1059)" fill="#ffa726" stroke="#12263f" stroke-width="3">
      <rect width="156" height="68" rx="34" stroke="none"/>
      <rect x="1.5" y="1.5" width="153" height="65" rx="32.5" fill="none"/>
    </g>
    <path id="Trazado_108580" data-name="Trazado 108580" d="M-33.8-5.777a6.231,6.231,0,0,1-.961,3.146A5.8,5.8,0,0,1-37.225-.516a8.4,8.4,0,0,1-3.627.75,6.7,6.7,0,0,1-5.3-2.191,9.048,9.048,0,0,1-1.934-6.187v-.844a10.328,10.328,0,0,1,.873-4.389A6.615,6.615,0,0,1-44.7-16.283a7.013,7.013,0,0,1,3.8-1.025,7.354,7.354,0,0,1,4.992,1.635,6.459,6.459,0,0,1,2.145,4.506h-4.1a3.056,3.056,0,0,0-.785-2.238,3.229,3.229,0,0,0-2.25-.68,2.457,2.457,0,0,0-2.25,1.148A7.381,7.381,0,0,0-43.9-9.27v1.207a8.167,8.167,0,0,0,.686,3.9,2.509,2.509,0,0,0,2.361,1.172,3.159,3.159,0,0,0,2.168-.668,2.835,2.835,0,0,0,.8-2.121Zm1.266-.68a7.484,7.484,0,0,1,.738-3.381,5.28,5.28,0,0,1,2.121-2.279,6.388,6.388,0,0,1,3.246-.8,5.83,5.83,0,0,1,4.488,1.764,6.768,6.768,0,0,1,1.641,4.8v.141a6.566,6.566,0,0,1-1.646,4.705A5.846,5.846,0,0,1-26.4.234,5.912,5.912,0,0,1-30.75-1.389a6.348,6.348,0,0,1-1.77-4.4Zm3.949.246a4.718,4.718,0,0,0,.551,2.578,1.835,1.835,0,0,0,1.629.82q2.109,0,2.156-3.246v-.4q0-3.41-2.18-3.41-1.98,0-2.145,2.941ZM-14.93-12.68l.129,1.488a4.3,4.3,0,0,1,3.621-1.723A3.618,3.618,0,0,1-8.221-11.73,5.635,5.635,0,0,1-7.207-8.168V0h-3.961V-8a2.14,2.14,0,0,0-.387-1.412,1.789,1.789,0,0,0-1.406-.451,1.883,1.883,0,0,0-1.723.914V0h-3.949V-12.68ZM-.422-15.832v3.152H1.664v2.742H-.422v5.8a1.481,1.481,0,0,0,.258,1,1.383,1.383,0,0,0,1.02.281,5.793,5.793,0,0,0,.984-.07V-.105A7.288,7.288,0,0,1-.387.234,4.137,4.137,0,0,1-3.4-.727a3.939,3.939,0,0,1-.973-2.918V-9.937H-5.988V-12.68h1.617v-3.152ZM9.352.234a6.518,6.518,0,0,1-4.723-1.74,6.009,6.009,0,0,1-1.8-4.529v-.328A7.787,7.787,0,0,1,3.545-9.8a5.274,5.274,0,0,1,2.1-2.3,6.35,6.35,0,0,1,3.281-.814,5.489,5.489,0,0,1,4.219,1.658A6.516,6.516,0,0,1,14.7-6.633V-5.1H6.844A2.846,2.846,0,0,0,7.77-3.422a2.755,2.755,0,0,0,1.852.609,3.549,3.549,0,0,0,2.93-1.312l1.8,2.133A5.045,5.045,0,0,1,12.264-.369,7.069,7.069,0,0,1,9.352.234Zm-.445-10.1q-1.734,0-2.062,2.3h3.984v-.3a1.956,1.956,0,0,0-.48-1.471A1.912,1.912,0,0,0,8.906-9.867Zm12.516.68,1.84-3.492h4.1L24.023-6.5l3.5,6.5H23.4L21.41-3.75,19.453,0H15.3L18.82-6.5,15.492-12.68h4.148Zm11.813-6.645v3.152H35.32v2.742H33.234v5.8a1.481,1.481,0,0,0,.258,1,1.383,1.383,0,0,0,1.02.281,5.793,5.793,0,0,0,.984-.07V-.105a7.288,7.288,0,0,1-2.227.34,4.137,4.137,0,0,1-3.012-.961,3.939,3.939,0,0,1-.973-2.918V-9.937H27.668V-12.68h1.617v-3.152Zm2.789,9.375a7.484,7.484,0,0,1,.738-3.381,5.28,5.28,0,0,1,2.121-2.279,6.388,6.388,0,0,1,3.246-.8,5.83,5.83,0,0,1,4.488,1.764,6.768,6.768,0,0,1,1.641,4.8v.141a6.566,6.566,0,0,1-1.646,4.705A5.846,5.846,0,0,1,42.152.234,5.912,5.912,0,0,1,37.8-1.389a6.348,6.348,0,0,1-1.77-4.4Zm3.949.246a4.718,4.718,0,0,0,.551,2.578,1.835,1.835,0,0,0,1.629.82q2.109,0,2.156-3.246v-.4q0-3.41-2.18-3.41-1.98,0-2.145,2.941Z" transform="translate(1022 953)" fill="#12263f"/>
    <path id="Trazado_108581" data-name="Trazado 108581" d="M-45.861-6.035h-2.227V0H-52.2V-17.062h6.715a7.5,7.5,0,0,1,4.746,1.346,4.561,4.561,0,0,1,1.711,3.8,5.54,5.54,0,0,1-.721,2.95,5.115,5.115,0,0,1-2.256,1.9l3.563,6.889V0H-42.85ZM-48.088-9.2h2.6a2.335,2.335,0,0,0,1.764-.617,2.384,2.384,0,0,0,.592-1.721,2.412,2.412,0,0,0-.6-1.733,2.313,2.313,0,0,0-1.758-.629h-2.6Zm17.5,9.434a6.518,6.518,0,0,1-4.723-1.74,6.009,6.009,0,0,1-1.8-4.529v-.328A7.787,7.787,0,0,1-36.4-9.8a5.274,5.274,0,0,1,2.1-2.3,6.35,6.35,0,0,1,3.281-.814,5.489,5.489,0,0,1,4.219,1.658,6.516,6.516,0,0,1,1.547,4.623V-5.1H-33.1a2.846,2.846,0,0,0,.926,1.676,2.755,2.755,0,0,0,1.852.609,3.549,3.549,0,0,0,2.93-1.312l1.8,2.133A5.045,5.045,0,0,1-27.68-.369,7.069,7.069,0,0,1-30.592.234Zm-.445-10.1q-1.734,0-2.062,2.3h3.984v-.3a1.956,1.956,0,0,0-.48-1.471A1.912,1.912,0,0,0-31.037-9.867ZM-22.787,0V-9.937h-1.84V-12.68h1.84v-1.008a4.381,4.381,0,0,1,1.277-3.363,5.047,5.047,0,0,1,3.586-1.2A7.853,7.853,0,0,1-16.072-18l.012,2.906a3.608,3.608,0,0,0-.973-.105q-1.793,0-1.793,1.547v.973h2.473v2.742h-2.473V0ZM-9.111.234a6.518,6.518,0,0,1-4.723-1.74,6.009,6.009,0,0,1-1.8-4.529v-.328A7.787,7.787,0,0,1-14.918-9.8a5.274,5.274,0,0,1,2.1-2.3,6.35,6.35,0,0,1,3.281-.814,5.489,5.489,0,0,1,4.219,1.658A6.516,6.516,0,0,1-3.768-6.633V-5.1h-7.852a2.846,2.846,0,0,0,.926,1.676,2.755,2.755,0,0,0,1.852.609,3.549,3.549,0,0,0,2.93-1.312l1.8,2.133A5.045,5.045,0,0,1-6.2-.369,7.069,7.069,0,0,1-9.111.234Zm-.445-10.1q-1.734,0-2.062,2.3h3.984v-.3a1.956,1.956,0,0,0-.48-1.471A1.912,1.912,0,0,0-9.557-9.867ZM5.49-9.105,4.189-9.2A2.336,2.336,0,0,0,1.8-8.027V0H-2.15V-12.68h3.7l.129,1.629a3.058,3.058,0,0,1,2.777-1.863,3.851,3.851,0,0,1,1.1.141ZM12.826.234A6.518,6.518,0,0,1,8.1-1.506,6.009,6.009,0,0,1,6.3-6.035v-.328A7.787,7.787,0,0,1,7.02-9.8a5.274,5.274,0,0,1,2.1-2.3,6.35,6.35,0,0,1,3.281-.814,5.489,5.489,0,0,1,4.219,1.658A6.516,6.516,0,0,1,18.17-6.633V-5.1H10.318a2.846,2.846,0,0,0,.926,1.676,2.755,2.755,0,0,0,1.852.609,3.549,3.549,0,0,0,2.93-1.312l1.8,2.133A5.045,5.045,0,0,1,15.738-.369,7.069,7.069,0,0,1,12.826.234Zm-.445-10.1q-1.734,0-2.062,2.3H14.3v-.3a1.956,1.956,0,0,0-.48-1.471A1.912,1.912,0,0,0,12.381-9.867Zm11-2.812.129,1.488a4.3,4.3,0,0,1,3.621-1.723,3.618,3.618,0,0,1,2.959,1.184,5.635,5.635,0,0,1,1.014,3.563V0H27.146V-8a2.14,2.14,0,0,0-.387-1.412,1.789,1.789,0,0,0-1.406-.451,1.883,1.883,0,0,0-1.723.914V0H19.682V-12.68Zm14.508-3.152v3.152h2.086v2.742H37.893v5.8a1.481,1.481,0,0,0,.258,1,1.383,1.383,0,0,0,1.02.281,5.793,5.793,0,0,0,.984-.07V-.105a7.288,7.288,0,0,1-2.227.34,4.137,4.137,0,0,1-3.012-.961,3.939,3.939,0,0,1-.973-2.918V-9.937H32.326V-12.68h1.617v-3.152ZM47.666.234a6.518,6.518,0,0,1-4.723-1.74,6.009,6.009,0,0,1-1.8-4.529v-.328A7.787,7.787,0,0,1,41.859-9.8a5.274,5.274,0,0,1,2.1-2.3,6.35,6.35,0,0,1,3.281-.814,5.489,5.489,0,0,1,4.219,1.658A6.516,6.516,0,0,1,53.01-6.633V-5.1H45.158a2.846,2.846,0,0,0,.926,1.676,2.755,2.755,0,0,0,1.852.609,3.549,3.549,0,0,0,2.93-1.312l1.8,2.133A5.045,5.045,0,0,1,50.578-.369,7.069,7.069,0,0,1,47.666.234Zm-.445-10.1q-1.734,0-2.062,2.3h3.984v-.3a1.956,1.956,0,0,0-.48-1.471A1.912,1.912,0,0,0,47.221-9.867Z" transform="translate(1178 1059)" fill="#12263f"/>
    <path id="Trazado_108578" data-name="Trazado 108578" d="M-41.484-6.035h-2.227V0h-4.113V-17.062h6.715a7.5,7.5,0,0,1,4.746,1.346,4.561,4.561,0,0,1,1.711,3.8,5.54,5.54,0,0,1-.721,2.95,5.115,5.115,0,0,1-2.256,1.9l3.563,6.889V0h-4.406ZM-43.711-9.2h2.6a2.335,2.335,0,0,0,1.764-.617,2.384,2.384,0,0,0,.592-1.721,2.412,2.412,0,0,0-.6-1.733,2.313,2.313,0,0,0-1.758-.629h-2.6Zm17.5,9.434a6.518,6.518,0,0,1-4.723-1.74,6.009,6.009,0,0,1-1.8-4.529v-.328A7.787,7.787,0,0,1-32.021-9.8a5.274,5.274,0,0,1,2.1-2.3,6.35,6.35,0,0,1,3.281-.814,5.489,5.489,0,0,1,4.219,1.658,6.516,6.516,0,0,1,1.547,4.623V-5.1h-7.852A2.846,2.846,0,0,0-27.8-3.422a2.755,2.755,0,0,0,1.852.609,3.549,3.549,0,0,0,2.93-1.312l1.8,2.133A5.045,5.045,0,0,1-23.3-.369,7.069,7.069,0,0,1-26.215.234Zm-.445-10.1q-1.734,0-2.062,2.3h3.984v-.3a1.956,1.956,0,0,0-.48-1.471A1.912,1.912,0,0,0-26.66-9.867Zm12.738,7.055a1.756,1.756,0,0,0,1.289-.451,1.654,1.654,0,0,0,.445-1.26h3.7A4.384,4.384,0,0,1-9.979-1.1,5.558,5.558,0,0,1-13.828.234,5.627,5.627,0,0,1-18.187-1.5a6.834,6.834,0,0,1-1.594-4.8v-.164a7.723,7.723,0,0,1,.709-3.393,5.162,5.162,0,0,1,2.045-2.262,6.1,6.1,0,0,1,3.164-.791,5.488,5.488,0,0,1,3.926,1.371A4.863,4.863,0,0,1-8.484-7.828h-3.7a2.168,2.168,0,0,0-.48-1.512,1.658,1.658,0,0,0-1.289-.527q-1.535,0-1.793,1.957A13.809,13.809,0,0,0-15.832-6.2a5.424,5.424,0,0,0,.457,2.648A1.582,1.582,0,0,0-13.922-2.812ZM-.68.234A6.518,6.518,0,0,1-5.4-1.506a6.009,6.009,0,0,1-1.8-4.529v-.328A7.787,7.787,0,0,1-6.486-9.8a5.274,5.274,0,0,1,2.1-2.3A6.35,6.35,0,0,1-1.1-12.914a5.489,5.489,0,0,1,4.219,1.658A6.516,6.516,0,0,1,4.664-6.633V-5.1H-3.187a2.846,2.846,0,0,0,.926,1.676A2.755,2.755,0,0,0-.41-2.812,3.549,3.549,0,0,0,2.52-4.125l1.8,2.133A5.045,5.045,0,0,1,2.232-.369,7.069,7.069,0,0,1-.68.234Zm-.445-10.1q-1.734,0-2.062,2.3H.8v-.3a1.956,1.956,0,0,0-.48-1.471A1.912,1.912,0,0,0-1.125-9.867ZM18.023-6.246a7.646,7.646,0,0,1-1.33,4.717A4.264,4.264,0,0,1,13.1.234,3.655,3.655,0,0,1,10.23-1.043V4.875H6.281V-12.68H9.973l.117,1.172a3.656,3.656,0,0,1,2.988-1.406,4.3,4.3,0,0,1,3.645,1.729,7.741,7.741,0,0,1,1.3,4.752Zm-3.949-.246q0-3.375-1.969-3.375A1.859,1.859,0,0,0,10.23-8.859v4.992a1.919,1.919,0,0,0,1.9,1.055q1.887,0,1.945-3.258Zm10.289-9.34v3.152h2.086v2.742H24.363v5.8a1.481,1.481,0,0,0,.258,1,1.383,1.383,0,0,0,1.02.281,5.793,5.793,0,0,0,.984-.07V-.105A7.288,7.288,0,0,1,24.4.234a4.137,4.137,0,0,1-3.012-.961,3.939,3.939,0,0,1-.973-2.918V-9.937H18.8V-12.68h1.617v-3.152Zm2.789,9.375a7.484,7.484,0,0,1,.738-3.381,5.28,5.28,0,0,1,2.121-2.279,6.388,6.388,0,0,1,3.246-.8,5.83,5.83,0,0,1,4.488,1.764,6.768,6.768,0,0,1,1.641,4.8v.141A6.566,6.566,0,0,1,37.74-1.506,5.846,5.846,0,0,1,33.281.234a5.912,5.912,0,0,1-4.348-1.623,6.348,6.348,0,0,1-1.77-4.4Zm3.949.246a4.718,4.718,0,0,0,.551,2.578,1.835,1.835,0,0,0,1.629.82q2.109,0,2.156-3.246v-.4q0-3.41-2.18-3.41-1.98,0-2.145,2.941ZM48.8-9.105,47.5-9.2a2.336,2.336,0,0,0-2.391,1.172V0H41.156V-12.68h3.7l.129,1.629a3.058,3.058,0,0,1,2.777-1.863,3.851,3.851,0,0,1,1.1.141Z" transform="translate(700 1100)" fill="#12263f"/>
    <path id="Trazado_108579" data-name="Trazado 108579" d="M-23.209-5.777a6.231,6.231,0,0,1-.961,3.146A5.8,5.8,0,0,1-26.637-.516a8.4,8.4,0,0,1-3.627.75,6.7,6.7,0,0,1-5.3-2.191,9.048,9.048,0,0,1-1.934-6.187v-.844a10.328,10.328,0,0,1,.873-4.389,6.615,6.615,0,0,1,2.514-2.906,7.013,7.013,0,0,1,3.8-1.025,7.354,7.354,0,0,1,4.992,1.635,6.459,6.459,0,0,1,2.145,4.506h-4.1a3.056,3.056,0,0,0-.785-2.238,3.229,3.229,0,0,0-2.25-.68,2.457,2.457,0,0,0-2.25,1.148,7.381,7.381,0,0,0-.75,3.668v1.207a8.167,8.167,0,0,0,.686,3.9,2.509,2.509,0,0,0,2.361,1.172A3.159,3.159,0,0,0-28.1-3.656a2.835,2.835,0,0,0,.8-2.121Zm1.266-.68a7.484,7.484,0,0,1,.738-3.381,5.28,5.28,0,0,1,2.121-2.279,6.388,6.388,0,0,1,3.246-.8A5.83,5.83,0,0,1-11.35-11.15a6.768,6.768,0,0,1,1.641,4.8v.141a6.566,6.566,0,0,1-1.646,4.705A5.846,5.846,0,0,1-15.814.234a5.912,5.912,0,0,1-4.348-1.623,6.348,6.348,0,0,1-1.77-4.4Zm3.949.246a4.718,4.718,0,0,0,.551,2.578,1.835,1.835,0,0,0,1.629.82q2.109,0,2.156-3.246v-.4q0-3.41-2.18-3.41-1.98,0-2.145,2.941ZM-15.3-18h4.172l-3.258,3.68-3.223-.006ZM-8.467-6.434a7.746,7.746,0,0,1,1.3-4.746,4.282,4.282,0,0,1,3.633-1.734A3.641,3.641,0,0,1-.674-11.578V-18H3.287V0H-.264l-.2-1.359A3.739,3.739,0,0,1-3.557.234,4.274,4.274,0,0,1-7.143-1.5,7.991,7.991,0,0,1-8.467-6.434Zm3.949.246q0,3.375,1.969,3.375a1.944,1.944,0,0,0,1.875-1.1V-8.742A1.892,1.892,0,0,0-2.525-9.867q-1.828,0-1.98,2.953ZM9.7,0H5.736V-12.68H9.7ZM5.5-15.961a1.778,1.778,0,0,1,.609-1.391,2.29,2.29,0,0,1,1.582-.542,2.29,2.29,0,0,1,1.582.542,1.778,1.778,0,0,1,.609,1.391,1.778,1.778,0,0,1-.609,1.391,2.29,2.29,0,0,1-1.582.542,2.29,2.29,0,0,1-1.582-.542A1.778,1.778,0,0,1,5.5-15.961Zm6.164,9.527a8.561,8.561,0,0,1,.633-3.4,5.094,5.094,0,0,1,1.816-2.279,4.788,4.788,0,0,1,2.754-.8,3.807,3.807,0,0,1,3.094,1.336l.141-1.1h3.586V-.48a5.346,5.346,0,0,1-.779,2.912,5,5,0,0,1-2.256,1.9,8.292,8.292,0,0,1-3.422.662,7.153,7.153,0,0,1-2.7-.527,4.876,4.876,0,0,1-2-1.371L14.186.773a3.621,3.621,0,0,0,2.906,1.3q2.625,0,2.625-2.7v-.4A3.708,3.708,0,0,1,16.846.234,4.583,4.583,0,0,1,13.1-1.541a7.356,7.356,0,0,1-1.43-4.752Zm3.961.246a4.511,4.511,0,0,0,.586,2.467,1.849,1.849,0,0,0,1.641.908,2.1,2.1,0,0,0,1.863-.855V-9a2.045,2.045,0,0,0-1.84-.867,1.861,1.861,0,0,0-1.652.943A5.144,5.144,0,0,0,15.627-6.187Zm9.809-.27a7.484,7.484,0,0,1,.738-3.381,5.28,5.28,0,0,1,2.121-2.279,6.388,6.388,0,0,1,3.246-.8,5.83,5.83,0,0,1,4.488,1.764,6.768,6.768,0,0,1,1.641,4.8v.141a6.566,6.566,0,0,1-1.646,4.705A5.846,5.846,0,0,1,31.564.234a5.912,5.912,0,0,1-4.348-1.623,6.348,6.348,0,0,1-1.77-4.4Zm3.949.246a4.718,4.718,0,0,0,.551,2.578,1.835,1.835,0,0,0,1.629.82q2.109,0,2.156-3.246v-.4q0-3.41-2.18-3.41-1.98,0-2.145,2.941Z" transform="translate(700 953)" fill="#12263f"/>
    <path id="Trazado_108576" data-name="Trazado 108576" d="M-39.416-17.062l3.809,11.871,3.8-11.871H-26.4V0h-4.125V-3.984l.4-8.156L-34.248,0h-2.719L-41.1-12.152l.4,8.168V0h-4.113V-17.062ZM-17.83.234a6.518,6.518,0,0,1-4.723-1.74,6.009,6.009,0,0,1-1.8-4.529v-.328A7.787,7.787,0,0,1-23.637-9.8a5.274,5.274,0,0,1,2.1-2.3,6.35,6.35,0,0,1,3.281-.814,5.489,5.489,0,0,1,4.219,1.658,6.516,6.516,0,0,1,1.547,4.623V-5.1h-7.852a2.846,2.846,0,0,0,.926,1.676,2.755,2.755,0,0,0,1.852.609,3.549,3.549,0,0,0,2.93-1.312l1.8,2.133A5.045,5.045,0,0,1-14.918-.369,7.069,7.069,0,0,1-17.83.234Zm-.445-10.1q-1.734,0-2.062,2.3h3.984v-.3a1.956,1.956,0,0,0-.48-1.471A1.912,1.912,0,0,0-18.275-9.867Zm11-2.812.129,1.488a4.3,4.3,0,0,1,3.621-1.723A3.618,3.618,0,0,1-.562-11.73,5.635,5.635,0,0,1,.451-8.168V0H-3.51V-8A2.14,2.14,0,0,0-3.9-9.416,1.789,1.789,0,0,0-5.3-9.867a1.883,1.883,0,0,0-1.723.914V0h-3.949V-12.68ZM9.275-3.562a.912.912,0,0,0-.527-.809,8.021,8.021,0,0,0-2-.633,9.138,9.138,0,0,1-2.437-.861A4.083,4.083,0,0,1,2.842-7.16a3.092,3.092,0,0,1-.5-1.746,3.5,3.5,0,0,1,1.441-2.877,5.938,5.938,0,0,1,3.773-1.131,6.579,6.579,0,0,1,4.031,1.137,3.555,3.555,0,0,1,1.523,2.988H9.146q0-1.523-1.605-1.523A1.591,1.591,0,0,0,6.5-9.967a1.07,1.07,0,0,0-.422.861.982.982,0,0,0,.516.855,4.872,4.872,0,0,0,1.646.539,14.228,14.228,0,0,1,1.986.5q2.859.984,2.859,3.527A3.321,3.321,0,0,1,11.543-.855,6.758,6.758,0,0,1,7.553.234,6.9,6.9,0,0,1,4.646-.352,4.86,4.86,0,0,1,2.654-1.945a3.609,3.609,0,0,1-.715-2.121H5.631a1.526,1.526,0,0,0,.586,1.283,2.41,2.41,0,0,0,1.441.4,1.9,1.9,0,0,0,1.213-.328A1.05,1.05,0,0,0,9.275-3.562ZM22.072,0A4.459,4.459,0,0,1,21.7-1.137,3.672,3.672,0,0,1,18.65.234,4.5,4.5,0,0,1,15.6-.85,3.45,3.45,0,0,1,14.35-3.574a3.546,3.546,0,0,1,1.523-3.117A7.761,7.761,0,0,1,20.3-7.746h1.219v-.671q0-1.755-1.512-1.755A1.236,1.236,0,0,0,18.6-8.782H14.654a3.54,3.54,0,0,1,1.564-2.985,6.575,6.575,0,0,1,3.99-1.147,5.764,5.764,0,0,1,3.832,1.184,4.115,4.115,0,0,1,1.441,3.246v5.613A5.748,5.748,0,0,0,26.021-.2V0ZM19.6-2.578a2.2,2.2,0,0,0,1.225-.316,1.983,1.983,0,0,0,.7-.715V-5.637H20.373q-2.062,0-2.062,1.852a1.131,1.131,0,0,0,.363.873A1.315,1.315,0,0,0,19.6-2.578Zm12.316-10.1V.434A4.6,4.6,0,0,1,30.627,3.9a4.952,4.952,0,0,1-3.562,1.219,8.411,8.411,0,0,1-1.863-.2V1.934a7.556,7.556,0,0,0,1.113.105A1.445,1.445,0,0,0,27.955.41V-12.68Zm-4.254-3.281a1.778,1.778,0,0,1,.609-1.391,2.29,2.29,0,0,1,1.582-.542,2.29,2.29,0,0,1,1.582.542,1.778,1.778,0,0,1,.609,1.391,1.778,1.778,0,0,1-.609,1.391,2.29,2.29,0,0,1-1.582.542,2.29,2.29,0,0,1-1.582-.542A1.778,1.778,0,0,1,27.662-15.961ZM40.283.234a6.518,6.518,0,0,1-4.723-1.74,6.009,6.009,0,0,1-1.8-4.529v-.328A7.787,7.787,0,0,1,34.477-9.8a5.274,5.274,0,0,1,2.1-2.3,6.35,6.35,0,0,1,3.281-.814,5.489,5.489,0,0,1,4.219,1.658,6.516,6.516,0,0,1,1.547,4.623V-5.1H37.775A2.846,2.846,0,0,0,38.7-3.422a2.755,2.755,0,0,0,1.852.609,3.549,3.549,0,0,0,2.93-1.312l1.8,2.133A5.045,5.045,0,0,1,43.2-.369,7.069,7.069,0,0,1,40.283.234Zm-.445-10.1q-1.734,0-2.062,2.3H41.76v-.3a1.956,1.956,0,0,0-.48-1.471A1.912,1.912,0,0,0,39.838-9.867Z" transform="translate(418 953)" fill="#12263f"/>
    <path id="Trazado_108575" data-name="Trazado 108575" d="M-15.586-5.777a6.231,6.231,0,0,1-.961,3.146A5.8,5.8,0,0,1-19.014-.516a8.4,8.4,0,0,1-3.627.75,6.7,6.7,0,0,1-5.3-2.191,9.048,9.048,0,0,1-1.934-6.187v-.844A10.328,10.328,0,0,1-29-13.377a6.615,6.615,0,0,1,2.514-2.906,7.013,7.013,0,0,1,3.8-1.025A7.354,7.354,0,0,1-17.7-15.674a6.459,6.459,0,0,1,2.145,4.506h-4.1a3.056,3.056,0,0,0-.785-2.238,3.229,3.229,0,0,0-2.25-.68,2.457,2.457,0,0,0-2.25,1.148,7.381,7.381,0,0,0-.75,3.668v1.207A8.167,8.167,0,0,0-25-4.16a2.509,2.509,0,0,0,2.361,1.172,3.159,3.159,0,0,0,2.168-.668,2.835,2.835,0,0,0,.8-2.121ZM-6.68,0a4.459,4.459,0,0,1-.375-1.137A3.672,3.672,0,0,1-10.1.234,4.5,4.5,0,0,1-13.148-.85,3.45,3.45,0,0,1-14.4-3.574a3.546,3.546,0,0,1,1.523-3.117,7.761,7.761,0,0,1,4.43-1.055H-7.23v-.671q0-1.755-1.512-1.755a1.236,1.236,0,0,0-1.406,1.39H-14.1a3.54,3.54,0,0,1,1.564-2.985,6.575,6.575,0,0,1,3.99-1.147A5.764,5.764,0,0,1-4.711-11.73,4.115,4.115,0,0,1-3.27-8.484v5.613A5.748,5.748,0,0,0-2.73-.2V0ZM-9.152-2.578a2.2,2.2,0,0,0,1.225-.316,1.983,1.983,0,0,0,.7-.715V-5.637H-8.379q-2.062,0-2.062,1.852a1.131,1.131,0,0,0,.363.873A1.315,1.315,0,0,0-9.152-2.578Zm11.7-10.1.129,1.488a4.3,4.3,0,0,1,3.621-1.723A3.618,3.618,0,0,1,9.252-11.73a5.635,5.635,0,0,1,1.014,3.563V0H6.3V-8a2.14,2.14,0,0,0-.387-1.412,1.789,1.789,0,0,0-1.406-.451,1.883,1.883,0,0,0-1.723.914V0H-1.16V-12.68ZM19.594,0a4.459,4.459,0,0,1-.375-1.137A3.672,3.672,0,0,1,16.172.234,4.5,4.5,0,0,1,13.125-.85a3.45,3.45,0,0,1-1.254-2.725,3.546,3.546,0,0,1,1.523-3.117,7.761,7.761,0,0,1,4.43-1.055h1.219v-.671q0-1.755-1.512-1.755a1.236,1.236,0,0,0-1.406,1.39H12.176a3.54,3.54,0,0,1,1.564-2.985,6.575,6.575,0,0,1,3.99-1.147,5.764,5.764,0,0,1,3.832,1.184A4.115,4.115,0,0,1,23-8.484v5.613A5.748,5.748,0,0,0,23.543-.2V0ZM17.121-2.578a2.2,2.2,0,0,0,1.225-.316,1.983,1.983,0,0,0,.7-.715V-5.637H17.895q-2.062,0-2.062,1.852a1.131,1.131,0,0,0,.363.873A1.315,1.315,0,0,0,17.121-2.578ZM29.355,0H25.395V-18h3.961Z" transform="translate(418 856)" fill="#12263f"/>
    <path id="Trazado_108577" data-name="Trazado 108577" d="M-15.586-5.777a6.231,6.231,0,0,1-.961,3.146A5.8,5.8,0,0,1-19.014-.516a8.4,8.4,0,0,1-3.627.75,6.7,6.7,0,0,1-5.3-2.191,9.048,9.048,0,0,1-1.934-6.187v-.844A10.328,10.328,0,0,1-29-13.377a6.615,6.615,0,0,1,2.514-2.906,7.013,7.013,0,0,1,3.8-1.025A7.354,7.354,0,0,1-17.7-15.674a6.459,6.459,0,0,1,2.145,4.506h-4.1a3.056,3.056,0,0,0-.785-2.238,3.229,3.229,0,0,0-2.25-.68,2.457,2.457,0,0,0-2.25,1.148,7.381,7.381,0,0,0-.75,3.668v1.207A8.167,8.167,0,0,0-25-4.16a2.509,2.509,0,0,0,2.361,1.172,3.159,3.159,0,0,0,2.168-.668,2.835,2.835,0,0,0,.8-2.121ZM-6.68,0a4.459,4.459,0,0,1-.375-1.137A3.672,3.672,0,0,1-10.1.234,4.5,4.5,0,0,1-13.148-.85,3.45,3.45,0,0,1-14.4-3.574a3.546,3.546,0,0,1,1.523-3.117,7.761,7.761,0,0,1,4.43-1.055H-7.23v-.671q0-1.755-1.512-1.755a1.236,1.236,0,0,0-1.406,1.39H-14.1a3.54,3.54,0,0,1,1.564-2.985,6.575,6.575,0,0,1,3.99-1.147A5.764,5.764,0,0,1-4.711-11.73,4.115,4.115,0,0,1-3.27-8.484v5.613A5.748,5.748,0,0,0-2.73-.2V0ZM-9.152-2.578a2.2,2.2,0,0,0,1.225-.316,1.983,1.983,0,0,0,.7-.715V-5.637H-8.379q-2.062,0-2.062,1.852a1.131,1.131,0,0,0,.363.873A1.315,1.315,0,0,0-9.152-2.578Zm11.7-10.1.129,1.488a4.3,4.3,0,0,1,3.621-1.723A3.618,3.618,0,0,1,9.252-11.73a5.635,5.635,0,0,1,1.014,3.563V0H6.3V-8a2.14,2.14,0,0,0-.387-1.412,1.789,1.789,0,0,0-1.406-.451,1.883,1.883,0,0,0-1.723.914V0H-1.16V-12.68ZM19.594,0a4.459,4.459,0,0,1-.375-1.137A3.672,3.672,0,0,1,16.172.234,4.5,4.5,0,0,1,13.125-.85a3.45,3.45,0,0,1-1.254-2.725,3.546,3.546,0,0,1,1.523-3.117,7.761,7.761,0,0,1,4.43-1.055h1.219v-.671q0-1.755-1.512-1.755a1.236,1.236,0,0,0-1.406,1.39H12.176a3.54,3.54,0,0,1,1.564-2.985,6.575,6.575,0,0,1,3.99-1.147,5.764,5.764,0,0,1,3.832,1.184A4.115,4.115,0,0,1,23-8.484v5.613A5.748,5.748,0,0,0,23.543-.2V0ZM17.121-2.578a2.2,2.2,0,0,0,1.225-.316,1.983,1.983,0,0,0,.7-.715V-5.637H17.895q-2.062,0-2.062,1.852a1.131,1.131,0,0,0,.363.873A1.315,1.315,0,0,0,17.121-2.578ZM29.355,0H25.395V-18h3.961Z" transform="translate(418 1049)" fill="#12263f"/>
    <path id="Trazado_106170" data-name="Trazado 106170" d="M-10608-10879v-46.333h602.667l.083,116.083" transform="translate(11026 11700)" fill="none" stroke="#12263f" stroke-width="3"/>
    <g id="Rectángulo_7085" data-name="Rectángulo 7085" transform="translate(622 744)" fill="#f57c00" stroke="#12263f" stroke-width="3">
      <rect width="156" height="68" rx="34" stroke="none"/>
      <rect x="1.5" y="1.5" width="153" height="65" rx="32.5" fill="none"/>
    </g>
    <path id="Trazado_108574" data-name="Trazado 108574" d="M-25.91-7.242h-6.469v4.078h7.641V0H-36.492V-17.062h11.777v3.176h-7.664v3.6h6.469Zm6.4-5.437.129,1.488a4.36,4.36,0,0,1,3.621-1.723A3.21,3.21,0,0,1-12.516-11a4.22,4.22,0,0,1,3.727-1.91q3.855,0,3.961,4.664V0H-8.789V-8a2.417,2.417,0,0,0-.328-1.418,1.4,1.4,0,0,0-1.2-.445,1.871,1.871,0,0,0-1.746,1.043l.012.164V0h-3.961V-7.98a2.541,2.541,0,0,0-.316-1.441,1.393,1.393,0,0,0-1.207-.445,1.894,1.894,0,0,0-1.734,1.043V0h-3.949V-12.68ZM1.594,0H-2.367V-12.68H1.594ZM-2.6-15.961a1.778,1.778,0,0,1,.609-1.391A2.29,2.29,0,0,1-.41-17.895a2.29,2.29,0,0,1,1.582.542,1.778,1.778,0,0,1,.609,1.391,1.778,1.778,0,0,1-.609,1.391,2.29,2.29,0,0,1-1.582.542,2.29,2.29,0,0,1-1.582-.542A1.778,1.778,0,0,1-2.6-15.961Zm13.266,12.4a.912.912,0,0,0-.527-.809,8.021,8.021,0,0,0-2-.633A9.138,9.138,0,0,1,5.7-5.865,4.083,4.083,0,0,1,4.23-7.16a3.092,3.092,0,0,1-.5-1.746,3.5,3.5,0,0,1,1.441-2.877,5.938,5.938,0,0,1,3.773-1.131,6.579,6.579,0,0,1,4.031,1.137A3.555,3.555,0,0,1,14.5-8.789H10.535q0-1.523-1.605-1.523a1.591,1.591,0,0,0-1.043.346,1.07,1.07,0,0,0-.422.861.982.982,0,0,0,.516.855,4.872,4.872,0,0,0,1.646.539,14.228,14.228,0,0,1,1.986.5q2.859.984,2.859,3.527A3.321,3.321,0,0,1,12.932-.855,6.758,6.758,0,0,1,8.941.234,6.9,6.9,0,0,1,6.035-.352,4.86,4.86,0,0,1,4.043-1.945a3.609,3.609,0,0,1-.715-2.121H7.02a1.526,1.526,0,0,0,.586,1.283,2.41,2.41,0,0,0,1.441.4,1.9,1.9,0,0,0,1.213-.328A1.05,1.05,0,0,0,10.664-3.562ZM15.82-6.457a7.484,7.484,0,0,1,.738-3.381,5.28,5.28,0,0,1,2.121-2.279,6.388,6.388,0,0,1,3.246-.8,5.83,5.83,0,0,1,4.488,1.764,6.768,6.768,0,0,1,1.641,4.8v.141a6.566,6.566,0,0,1-1.646,4.705A5.846,5.846,0,0,1,21.949.234,5.912,5.912,0,0,1,17.6-1.389a6.348,6.348,0,0,1-1.77-4.4Zm3.949.246a4.718,4.718,0,0,0,.551,2.578,1.835,1.835,0,0,0,1.629.82q2.109,0,2.156-3.246v-.4q0-3.41-2.18-3.41-1.98,0-2.145,2.941Zm17.7-2.895-1.3-.094a2.336,2.336,0,0,0-2.391,1.172V0H29.824V-12.68h3.7l.129,1.629a3.058,3.058,0,0,1,2.777-1.863,3.851,3.851,0,0,1,1.1.141Z" transform="translate(700 787)" fill="#12263f"/>
    <path id="Trazado_106171" data-name="Trazado 106171" d="M-10608-10838v28.667" transform="translate(11026 11700)" fill="none" stroke="#12263f" stroke-width="3"/>
    <path id="Trazado_106174" data-name="Trazado 106174" d="M-10608-10838v78.668" transform="translate(11308 11650)" fill="none" stroke="#12263f" stroke-width="3"/>
    <path id="Trazado_106176" data-name="Trazado 106176" d="M-10608-10842.667V-10694" transform="translate(11638 -9662.5) rotate(-90)" fill="none" stroke="#12263f" stroke-width="3"/>
    <path id="Trazado_106175" data-name="Trazado 106175" d="M-10608-10838v57" transform="translate(11308 11840)" fill="none" stroke="#12263f" stroke-width="3"/>
    <path id="Trazado_106172" data-name="Trazado 106172" d="M-10608-10838v43" transform="translate(11026 11814.001)" fill="none" stroke="#12263f" stroke-width="3"/>
    <path id="Trazado_106173" data-name="Trazado 106173" d="M-10608-10639.333V-10607h188" transform="translate(11026 11700)" fill="none" stroke="#12263f" stroke-width="3"/>
    <path id="Trazado_106177" data-name="Trazado 106177" d="M-10004-10701.5v94.5h-245" transform="translate(11026 11700)" fill="none" stroke="#12263f" stroke-width="3"/>
    <path id="Polígono_1" data-name="Polígono 1" d="M8.5,0,17,15H0Z" transform="translate(1014 987)" fill="#12263f"/>
    <path id="Polígono_2" data-name="Polígono 2" d="M8.5,0,17,15H0Z" transform="translate(692 988)" fill="#12263f"/>
    <path id="Polígono_8" data-name="Polígono 8" d="M8.5,0,17,15H0Z" transform="translate(783 954) rotate(-90)" fill="#12263f"/>
    <path id="Polígono_3" data-name="Polígono 3" d="M8.5,0,17,15H0Z" transform="translate(709 901) rotate(180)" fill="#12263f"/>
    <path id="Polígono_7" data-name="Polígono 7" d="M8.5,0,17,15H0Z" transform="translate(1029 901) rotate(180)" fill="#12263f"/>
    <path id="Polígono_9" data-name="Polígono 9" d="M8.5,0,17,15H0Z" transform="translate(1183 1011) rotate(180)" fill="#12263f"/>
    <path id="Polígono_6" data-name="Polígono 6" d="M8.5,0,17,15H0Z" transform="translate(617 1084) rotate(90)" fill="#12263f"/>
    <path id="Polígono_4" data-name="Polígono 4" d="M8.5,0,17,15H0Z" transform="translate(427 901) rotate(180)" fill="#12263f"/>
    <path id="Trazado_106178" data-name="Trazado 106178" d="M-9926-10755h74v56.5" transform="translate(11026 11700)" fill="none" stroke="#12263f" stroke-width="3"/>
  </g>
</svg>
