<svg xmlns="http://www.w3.org/2000/svg" width="109" height="124.41" viewBox="0 0 109 124.41">
  <g id="Grupo_55622" data-name="Grupo 55622" transform="translate(-168 -8324.589)">
    <ellipse id="Elipse_4192" data-name="Elipse 4192" cx="54.5" cy="55" rx="54.5" ry="55" transform="translate(168 8339)" fill="#26c6da"/>
    <g id="Graphic_Design-Computer-Office-Art-Design" data-name="Graphic Design-Computer-Office-Art-Design" transform="translate(175.408 8324.59)">
      <path id="Trazado_105524" data-name="Trazado 105524" d="M100.636,18.491V67.181H7V18.491A7.491,7.491,0,0,1,14.491,11H93.145A7.491,7.491,0,0,1,100.636,18.491Z" transform="translate(-7.001 3.982)" fill="#5aaae7"/>
      <path id="Trazado_105525" data-name="Trazado 105525" d="M78.672,17.982V74.163H15V10.491a7.491,7.491,0,1,1,7.491,7.491Z" transform="translate(-0.019 -3)" fill="#e6e7e8"/>
      <path id="Trazado_105526" data-name="Trazado 105526" d="M100.636,41v7.491a7.491,7.491,0,0,1-7.491,7.491H14.491A7.491,7.491,0,0,1,7,48.491V41Z" transform="translate(-7.001 30.163)" fill="#c6c5ca"/>
      <path id="Trazado_105527" data-name="Trazado 105527" d="M75.181,3a7.491,7.491,0,0,1,0,14.982H19A7.491,7.491,0,0,0,19,3Z" transform="translate(3.472 -3)" fill="#d1d3d4"/>
      <path id="Trazado_105528" data-name="Trazado 105528" d="M64.945,58.873v3.745a1.873,1.873,0,0,1-1.873,1.873h-41.2A1.873,1.873,0,0,1,20,62.618V58.873A1.873,1.873,0,0,1,21.873,57h41.2A1.873,1.873,0,0,1,64.945,58.873Z" transform="translate(4.345 44.127)" fill="#898890"/>
      <path id="Trazado_105529" data-name="Trazado 105529" d="M51.473,23V45.473H29V23H51.473Z" transform="translate(12.199 14.454)" fill="#ff9811"/>
      <path id="Trazado_105530" data-name="Trazado 105530" d="M53.963,63.982H24L25.873,49H52.091Z" transform="translate(7.835 37.145)" fill="#acabb1"/>
      <circle id="Elipse_4194" data-name="Elipse 4194" cx="13.179" cy="13.179" r="13.179" transform="translate(28.114 24.273)" fill="#ffd422"/>
      <path id="Trazado_105531" data-name="Trazado 105531" d="M51.9,52.745H24.75L25.218,49H51.436Z" transform="translate(8.49 37.145)" fill="#898890"/>
      <path id="Trazado_105532" data-name="Trazado 105532" d="M49,11h3.745V67.181H49Z" transform="translate(29.653 3.982)" fill="#3d9ae2"/>
      <path id="Trazado_105533" data-name="Trazado 105533" d="M50,44h3.745v3.745H50Z" transform="translate(30.526 32.781)" fill="#898890"/>
    </g>
  </g>
</svg>
