<svg xmlns="http://www.w3.org/2000/svg" xmlns:xlink="http://www.w3.org/1999/xlink" width="149" height="149" viewBox="0 0 149 149">
  <defs>
    <clipPath id="clip-path">
      <rect id="Rectángulo_7002" data-name="Rectángulo 7002" width="149" height="149" transform="translate(253 1365)" fill="#fff" stroke="#707070" stroke-width="1"/>
    </clipPath>
  </defs>
  <g id="Enmascarar_grupo_45" data-name="Enmascarar grupo 45" transform="translate(-253 -1365)" clip-path="url(#clip-path)">
    <g id="conversacion" transform="translate(253 1365)">
      <g id="Grupo_55630" data-name="Grupo 55630">
        <g id="Grupo_55629" data-name="Grupo 55629">
          <path id="Trazado_105575" data-name="Trazado 105575" d="M36.106,70.123H104.4v60.252H36.106Z" fill="#d88a55"/>
        </g>
      </g>
      <g id="Grupo_55632" data-name="Grupo 55632">
        <g id="Grupo_55631" data-name="Grupo 55631">
          <path id="Trazado_105576" data-name="Trazado 105576" d="M95.667,70.122h8.73v60.252h-8.73Z" fill="#c57a44"/>
        </g>
      </g>
      <g id="Grupo_55634" data-name="Grupo 55634">
        <g id="Grupo_55633" data-name="Grupo 55633">
          <path id="Trazado_105577" data-name="Trazado 105577" d="M76.116,27.937h-8.73A28.281,28.281,0,0,1,95.667,56.218v7.826h8.73V56.218A28.281,28.281,0,0,0,76.116,27.937Z" fill="#c57a44"/>
        </g>
      </g>
      <g id="Grupo_55636" data-name="Grupo 55636">
        <g id="Grupo_55635" data-name="Grupo 55635">
          <path id="Trazado_105578" data-name="Trazado 105578" d="M113.146,146.817H27.357a2.761,2.761,0,0,1-2.761-2.761v-5.473a17.5,17.5,0,0,1,11.185-16.324l34.471-13.344,34.471,13.344a17.5,17.5,0,0,1,11.185,16.324v5.473a2.762,2.762,0,0,1-2.762,2.761Z" fill="#97da7b"/>
        </g>
      </g>
      <g id="Grupo_55638" data-name="Grupo 55638">
        <g id="Grupo_55637" data-name="Grupo 55637">
          <path id="Trazado_105579" data-name="Trazado 105579" d="M104.722,122.259,70.252,108.915l-7.833,3.032,34.155,13.221a17.5,17.5,0,0,1,11.185,16.324v5.324h5.387a2.761,2.761,0,0,0,2.761-2.761v-5.473a17.5,17.5,0,0,0-11.185-16.324Z" fill="#80d261"/>
        </g>
      </g>
      <g id="Grupo_55640" data-name="Grupo 55640">
        <g id="Grupo_55639" data-name="Grupo 55639">
          <path id="Trazado_105580" data-name="Trazado 105580" d="M84.98,113.316a7.33,7.33,0,0,1-.649,3.025c-1.336,2.952-5.063,8.571-14.079,8.571s-12.743-5.619-14.079-8.571a7.33,7.33,0,0,1-.649-3.025V88.066H84.979v25.25Z" fill="#feca9c"/>
        </g>
      </g>
      <g id="Grupo_55642" data-name="Grupo 55642">
        <g id="Grupo_55641" data-name="Grupo 55641">
          <path id="Trazado_105581" data-name="Trazado 105581" d="M40.162,64.045a6.018,6.018,0,1,0,0,12.036h4.814V64.045Z" fill="#feca9c"/>
        </g>
      </g>
      <g id="Grupo_55644" data-name="Grupo 55644">
        <g id="Grupo_55643" data-name="Grupo 55643">
          <path id="Trazado_105582" data-name="Trazado 105582" d="M100.342,64.045a6.018,6.018,0,1,1,0,12.036H95.527V64.045Z" fill="#feca9c"/>
        </g>
      </g>
      <g id="Grupo_55646" data-name="Grupo 55646">
        <g id="Grupo_55645" data-name="Grupo 55645">
          <path id="Trazado_105583" data-name="Trazado 105583" d="M70.252,37.083A25.275,25.275,0,0,0,44.977,62.359V80.484a15.356,15.356,0,0,0,6.237,12.355l9.919,7.321a15.356,15.356,0,0,0,18.238,0l9.919-7.321a15.356,15.356,0,0,0,6.237-12.355V62.359A25.275,25.275,0,0,0,70.252,37.083Z" fill="#ffe3cb"/>
        </g>
      </g>
      <g id="Grupo_55648" data-name="Grupo 55648">
        <g id="Grupo_55647" data-name="Grupo 55647">
          <path id="Trazado_105584" data-name="Trazado 105584" d="M78.543,38.476A25.25,25.25,0,0,1,89.707,59.448V77.574A15.356,15.356,0,0,1,83.47,89.929L73.551,97.25a15.353,15.353,0,0,1-12.959,2.511l.541.4a15.356,15.356,0,0,0,18.238,0l9.919-7.321a15.356,15.356,0,0,0,6.237-12.355V62.359A25.285,25.285,0,0,0,78.543,38.476Z" fill="#feca9c"/>
        </g>
      </g>
      <g id="Grupo_55650" data-name="Grupo 55650">
        <g id="Grupo_55649" data-name="Grupo 55649">
          <path id="Trazado_105585" data-name="Trazado 105585" d="M76.117,27.937H64.388A28.281,28.281,0,0,0,36.106,56.218v7.826h1.142A17.483,17.483,0,0,0,54.731,46.562,17.483,17.483,0,0,0,72.214,64.045H104.4V56.218A28.282,28.282,0,0,0,76.117,27.937Z" fill="#d88a55"/>
        </g>
      </g>
      <g id="Grupo_55652" data-name="Grupo 55652">
        <g id="Grupo_55651" data-name="Grupo 55651">
          <path id="Trazado_105586" data-name="Trazado 105586" d="M111.707,2.183H86.052a12.7,12.7,0,0,0-12.7,12.7V27.772a12.7,12.7,0,0,0,12.7,12.7h5A1.36,1.36,0,0,1,92.4,42.016a13.553,13.553,0,0,1-.872,3.309,2.536,2.536,0,0,0,2.368,3.468h3.045a8.327,8.327,0,0,0,8.242-7.141,1.362,1.362,0,0,1,1.342-1.184h5.188a12.7,12.7,0,0,0,12.7-12.7V14.879a12.7,12.7,0,0,0-12.7-12.7Z" fill="#ffe177"/>
        </g>
      </g>
      <g id="Grupo_55654" data-name="Grupo 55654">
        <g id="Grupo_55653" data-name="Grupo 55653">
          <path id="Trazado_105587" data-name="Trazado 105587" d="M118.084,3.9a12.638,12.638,0,0,1,1.372,5.739V22.534a12.7,12.7,0,0,1-12.7,12.7H106.5a8.644,8.644,0,0,0-7.375,4.286A8.322,8.322,0,0,1,92.1,43.553a13.558,13.558,0,0,1-.553,1.719,2.549,2.549,0,0,0,2.346,3.522h3.044a8.327,8.327,0,0,0,8.248-7.184,1.34,1.34,0,0,1,1.336-1.141h5.188a12.7,12.7,0,0,0,12.7-12.7V14.879A12.689,12.689,0,0,0,118.084,3.9Z" fill="#ffd15b"/>
        </g>
      </g>
      <g id="Grupo_55655" data-name="Grupo 55655">
        <path id="Trazado_105588" data-name="Trazado 105588" d="M79.5,84.021A2.183,2.183,0,1,0,75.868,81.6a6.74,6.74,0,0,1-11.232,0A2.183,2.183,0,1,0,61,84.021a11.1,11.1,0,0,0,18.5,0Z"/>
        <path id="Trazado_105589" data-name="Trazado 105589" d="M111.707,0h-3.061a2.183,2.183,0,1,0,0,4.365h3.061a10.526,10.526,0,0,1,10.514,10.514V27.772a10.526,10.526,0,0,1-10.514,10.514h-5.188a3.564,3.564,0,0,0-3.5,3.059,6.167,6.167,0,0,1-6.081,5.266H93.891a.36.36,0,0,1-.309-.166.3.3,0,0,1-.036-.3A15.831,15.831,0,0,0,94.559,42.3a3.543,3.543,0,0,0-3.506-4.013h-5A10.526,10.526,0,0,1,75.539,27.772V14.879A10.526,10.526,0,0,1,86.052,4.365H99.333a2.183,2.183,0,1,0,0-4.365H86.052A14.9,14.9,0,0,0,71.173,14.879V25.755H64.387A30.5,30.5,0,0,0,33.924,56.219V64.75a8.177,8.177,0,0,0,0,10.627V90.021a2.183,2.183,0,0,0,4.365,0V78.045a8.181,8.181,0,0,0,1.874.219h2.632v2.22A17.606,17.606,0,0,0,49.917,94.6l3.424,2.527v16l-15.053,5.827v-20.2a2.183,2.183,0,0,0-4.365,0V120.68a19.821,19.821,0,0,0-11.51,17.9v5.473A4.95,4.95,0,0,0,27.357,149H93.125a2.183,2.183,0,1,0,0-4.365H27.357a.58.58,0,0,1-.579-.579v-5.473a15.419,15.419,0,0,1,9.791-14.289l17.707-6.854C55.712,120.5,60,127.1,70.252,127.1s14.54-6.6,15.976-9.656l17.707,6.854a15.419,15.419,0,0,1,9.791,14.289v5.473a.58.58,0,0,1-.579.579h-11.29a2.183,2.183,0,1,0,0,4.365h11.29a4.95,4.95,0,0,0,4.944-4.944v-5.473a19.821,19.821,0,0,0-11.51-17.9v-45.3a8.176,8.176,0,0,0,0-10.627V56.219A30.449,30.449,0,0,0,105.155,47a10.418,10.418,0,0,0,2.06-4.344h4.492a14.9,14.9,0,0,0,14.879-14.879V14.879A14.9,14.9,0,0,0,111.707,0ZM64.387,30.12h6.973A14.9,14.9,0,0,0,86.052,42.651h4.019a11.419,11.419,0,0,1-.57,1.854,4.678,4.678,0,0,0,.46,4.378,4.733,4.733,0,0,0,3.93,2.093h3.045a10.412,10.412,0,0,0,4.517-1.033,26.168,26.168,0,0,1,.762,6.276v5.862a8.184,8.184,0,0,0-1.874-.219H72.213a15.317,15.317,0,0,1-15.3-15.3,2.183,2.183,0,1,0-4.365,0c0,7-5.955,13.49-12.386,15.3a8.185,8.185,0,0,0-1.874.219V56.219a26.129,26.129,0,0,1,26.1-26.1Zm22.775,67L90.587,94.6A17.607,17.607,0,0,0,97.71,80.484V78.263h2.632a8.186,8.186,0,0,0,1.874-.219v40.9l-15.053-5.827v-16Zm17.014-27.06a3.84,3.84,0,0,1-3.836,3.835H97.71V66.228h2.632A3.84,3.84,0,0,1,104.177,70.063ZM40.162,73.9a3.835,3.835,0,0,1,0-7.671h2.632V73.9Zm7,6.586V63.535a19.8,19.8,0,0,0,7.572-7.973A19.686,19.686,0,0,0,72.214,66.228H93.345V80.484a13.224,13.224,0,0,1-5.351,10.6L78.075,98.4a13.108,13.108,0,0,1-15.646,0L52.51,91.083a13.225,13.225,0,0,1-5.35-10.6Zm35.183,34.958c-1.232,2.722-4.441,7.288-12.091,7.288s-10.859-4.566-12.091-7.288a5.121,5.121,0,0,1-.455-2.126V100.345l2.13,1.572a17.452,17.452,0,0,0,20.831,0l2.13-1.572v12.972a5.111,5.111,0,0,1-.454,2.125Z"/>
        <path id="Trazado_105590" data-name="Trazado 105590" d="M107.063,14.041H90.7a2.183,2.183,0,1,0,0,4.365h16.367a2.183,2.183,0,1,0,0-4.365Z"/>
        <path id="Trazado_105591" data-name="Trazado 105591" d="M107.063,24.13H90.7a2.183,2.183,0,1,0,0,4.365h16.367a2.183,2.183,0,1,0,0-4.365Z"/>
      </g>
    </g>
  </g>
</svg>
