<svg xmlns="http://www.w3.org/2000/svg" xmlns:xlink="http://www.w3.org/1999/xlink" width="149" height="149" viewBox="0 0 149 149">
  <defs>
    <clipPath id="clip-path">
      <rect id="Rectángulo_7003" data-name="Rectángulo 7003" width="149" height="149" transform="translate(578 1365)" fill="#fff" stroke="#707070" stroke-width="1"/>
    </clipPath>
  </defs>
  <g id="Enmascarar_grupo_46" data-name="Enmascarar grupo 46" transform="translate(-578 -1365)" clip-path="url(#clip-path)">
    <g id="charla" transform="translate(578 1365)">
      <g id="Grupo_55659" data-name="Grupo 55659">
        <g id="Grupo_55657" data-name="Grupo 55657">
          <path id="Trazado_105592" data-name="Trazado 105592" d="M146.817,76.079c0-18.019-18.79-32.627-41.969-32.627S62.88,58.06,62.88,76.079s18.79,32.627,41.969,32.627h.171a3.188,3.188,0,0,1,2.777,1.585c5.443,9.433,18.36,11.841,23.431,12.432a.985.985,0,0,0,.946-1.51A45.666,45.666,0,0,1,126,106.981a3.2,3.2,0,0,1,1.693-3.529C139.2,97.634,146.817,87.548,146.817,76.079Z" fill="#ffe07d"/>
          <path id="Trazado_105593" data-name="Trazado 105593" d="M127.692,103.452c11.511-5.818,19.125-15.9,19.125-27.373,0-18.019-18.79-32.627-41.969-32.627a53.7,53.7,0,0,0-9.165.783c18.771,3.251,32.8,16.272,32.8,31.844,0,11.469-7.614,21.556-19.125,27.373a3.2,3.2,0,0,0-1.693,3.529,35.563,35.563,0,0,0,1.741,5.652c6.058,7.5,17.2,9.551,21.817,10.09a.985.985,0,0,0,.946-1.51A45.666,45.666,0,0,1,126,106.981a3.2,3.2,0,0,1,1.693-3.529Z" fill="#ffd064"/>
          <path id="Trazado_105594" data-name="Trazado 105594" d="M57.319,26.27C26.868,26.27,2.183,45.46,2.183,69.133c0,10.094,4.489,19.372,12,26.7a3.415,3.415,0,0,1,.894,3.344c-2.642,9.678-8.758,18.3-11.508,21.85a1.058,1.058,0,0,0,.863,1.707c6.1-.152,23.218-1.518,33.582-11.708a3.435,3.435,0,0,1,3.206-.884A69.814,69.814,0,0,0,57.319,112c30.451,0,55.137-19.191,55.137-42.864S87.77,26.27,57.319,26.27Z" fill="#95d6a4"/>
          <g id="Grupo_55656" data-name="Grupo 55656">
            <path id="Trazado_105595" data-name="Trazado 105595" d="M23.644,107.145c-6.195,6.6-9.746,9.472-18.991,12.439-.4.543-.767,1.026-1.086,1.438a1.058,1.058,0,0,0,.863,1.707c6.1-.152,23.218-1.518,33.582-11.708a3.436,3.436,0,0,1,3.206-.884l-.008-.015a63.769,63.769,0,0,1-11.916-4.077,4.928,4.928,0,0,0-5.649,1.1Z" fill="#78c2a4"/>
            <path id="Trazado_105596" data-name="Trazado 105596" d="M57.319,26.27a71.016,71.016,0,0,0-9.165.593c26.088,3.394,45.972,21.026,45.972,42.271S74.253,108,48.175,111.4a70.914,70.914,0,0,0,9.145.6c30.451,0,55.137-19.191,55.137-42.864S87.77,26.27,57.319,26.27Z" fill="#78c2a4"/>
          </g>
        </g>
        <g id="Grupo_55658" data-name="Grupo 55658">
          <circle id="Elipse_4199" data-name="Elipse 4199" cx="5.382" cy="5.382" r="5.382" transform="translate(17.975 63.509)" fill="#f0f7ff"/>
          <circle id="Elipse_4200" data-name="Elipse 4200" cx="5.382" cy="5.382" r="5.382" transform="translate(39.554 63.509)" fill="#f0f7ff"/>
          <circle id="Elipse_4201" data-name="Elipse 4201" cx="5.382" cy="5.382" r="5.382" transform="translate(61.134 63.509)" fill="#f0f7ff"/>
          <circle id="Elipse_4202" data-name="Elipse 4202" cx="5.382" cy="5.382" r="5.382" transform="translate(82.713 63.509)" fill="#f0f7ff"/>
        </g>
      </g>
      <g id="Grupo_55660" data-name="Grupo 55660">
        <path id="Trazado_105597" data-name="Trazado 105597" d="M114.639,69.133c0-27.211-28.683-45.046-57.319-45.046C28.569,24.087,0,42.007,0,69.133,0,79.4,4.495,89.432,12.657,97.392a1.23,1.23,0,0,1,.312,1.207C10.4,107.99,4.333,116.474,1.842,119.685A3.241,3.241,0,0,0,4.4,124.913h.084c12.192-.3,26.323-3.745,35.058-12.333a1.247,1.247,0,0,1,1.172-.317,72.046,72.046,0,0,0,16.606,1.918c28.742,0,57.319-17.913,57.319-45.047ZM41.721,108.014a5.589,5.589,0,0,0-5.24,1.452c-8.735,8.589-23,10.541-29.752,10.975,3.084-4.258,8.1-12.078,10.451-20.693A5.6,5.6,0,0,0,15.7,94.267C8.286,87.032,4.365,78.341,4.365,69.133c0-22.431,23.755-40.681,52.954-40.681S110.273,46.7,110.273,69.133s-23.755,40.681-52.954,40.681a67.7,67.7,0,0,1-15.6-1.8Z"/>
        <path id="Trazado_105598" data-name="Trazado 105598" d="M128.677,105.4C141.4,98.969,149,88.008,149,76.079c0-16.859-15.24-31.264-36.237-34.253a2.183,2.183,0,0,0-.615,4.322c18.824,2.68,32.486,15.268,32.486,29.932,0,10.247-6.7,19.752-17.927,25.425a5.4,5.4,0,0,0-2.844,5.931,45.456,45.456,0,0,0,5.142,12.771c-12.889-2.145-17.775-8.33-19.319-11.007a5.385,5.385,0,0,0-4.661-2.677h-.177a51.939,51.939,0,0,1-7.2-.5,2.183,2.183,0,0,0-.607,4.323,56.352,56.352,0,0,0,7.81.542h.181a1.008,1.008,0,0,1,.877.494c5.911,10.245,19.5,12.86,25.068,13.509a3.168,3.168,0,0,0,3.036-4.857,43.353,43.353,0,0,1-5.876-13.507,1.026,1.026,0,0,1,.543-1.127Z"/>
        <path id="Trazado_105599" data-name="Trazado 105599" d="M23.356,61.327a7.564,7.564,0,1,0,7.564,7.564,7.573,7.573,0,0,0-7.564-7.564Zm0,10.764a3.2,3.2,0,1,1,3.2-3.2,3.2,3.2,0,0,1-3.2,3.2Z"/>
        <path id="Trazado_105600" data-name="Trazado 105600" d="M44.936,61.327A7.564,7.564,0,1,0,52.5,68.891,7.573,7.573,0,0,0,44.936,61.327Zm0,10.764a3.2,3.2,0,1,1,3.2-3.2A3.2,3.2,0,0,1,44.936,72.09Z"/>
        <path id="Trazado_105601" data-name="Trazado 105601" d="M66.515,61.327a7.564,7.564,0,1,0,7.564,7.564A7.573,7.573,0,0,0,66.515,61.327Zm0,10.764a3.2,3.2,0,1,1,3.2-3.2A3.2,3.2,0,0,1,66.515,72.09Z"/>
        <path id="Trazado_105602" data-name="Trazado 105602" d="M88.1,61.327a7.564,7.564,0,1,0,7.564,7.564A7.573,7.573,0,0,0,88.1,61.327Zm0,10.764a3.2,3.2,0,1,1,3.2-3.2A3.2,3.2,0,0,1,88.1,72.09Z"/>
      </g>
    </g>
  </g>
</svg>
