<svg xmlns="http://www.w3.org/2000/svg" xmlns:xlink="http://www.w3.org/1999/xlink" width="149" height="149" viewBox="0 0 149 149">
  <defs>
    <clipPath id="clip-path">
      <rect id="Rectángulo_7004" data-name="Rectángulo 7004" width="149" height="149" transform="translate(883 1365)" fill="#fff" stroke="#707070" stroke-width="1"/>
    </clipPath>
  </defs>
  <g id="Enmascarar_grupo_47" data-name="Enmascarar grupo 47" transform="translate(-883 -1365)" clip-path="url(#clip-path)">
    <g id="promocion" transform="translate(883 1369.003)">
      <path id="Trazado_105603" data-name="Trazado 105603" d="M36.844,61.2,54.3,91.441,29.1,105.992A17.461,17.461,0,0,1,11.642,75.749Zm0,0" fill="#2bbdc4"/>
      <path id="Trazado_105604" data-name="Trazado 105604" d="M119.158,70.954a5.82,5.82,0,0,1-4.9,8.727l-3.274.643-.073-.369L73.451,15.067l-.244-.192,2.1-2.669a5.82,5.82,0,0,1,10.008.119c58.143,100.7-15.209-26.345,33.849,58.629Zm0,0" fill="#2bbdc4"/>
      <path id="Trazado_105605" data-name="Trazado 105605" d="M60.23,124.988a8.73,8.73,0,0,1-15.121,8.73L29.1,105.992l15.121-8.73L60.23,124.988Zm0,0" fill="#495d85"/>
      <path id="Trazado_105606" data-name="Trazado 105606" d="M109.939,31.7l5.82,10.081-7.171,10.861L96.948,32.481Zm0,0" fill="#e9eef0"/>
      <path id="Trazado_105607" data-name="Trazado 105607" d="M110.913,79.955l.073.369L54.3,91.441,36.844,61.2,73.206,14.875l.244.192Zm0,0" fill="#adf3ff"/>
      <path id="Trazado_105608" data-name="Trazado 105608" d="M39.859,89.7a2.91,2.91,0,1,0-3.975-1.065A2.911,2.911,0,0,0,39.859,89.7Zm0,0"/>
      <path id="Trazado_105609" data-name="Trazado 105609" d="M27.933,109.787l14.655,25.385A11.64,11.64,0,1,0,62.75,123.533l-8.73-15.124,7.561-4.365a2.911,2.911,0,0,0,1.065-3.975l-3.784-6.555L114.6,82.58A8.729,8.729,0,0,0,121.679,69.5l-9.672-16.752,6.181-9.361a2.911,2.911,0,0,0,.092-3.059l-5.82-10.081a2.916,2.916,0,0,0-2.7-1.449l-11.2.672-10.737-18.6a8.654,8.654,0,0,0-7.452-4.364h-.111a8.654,8.654,0,0,0-7.35,4.025L34.9,58.96,10.187,73.229a20.371,20.371,0,0,0,17.746,36.558Zm29.778,16.657a5.82,5.82,0,0,1-10.082,5.819L33.078,107.057l10.081-5.82C60,130.409,57.44,125.977,57.711,126.444Zm-6.6-23.077-2.91-5.04,5.04-2.91,2.91,5.04Zm57.208-68.654,4.022,6.966-3.587,5.432L101.821,35.1ZM77.785,13.722a2.909,2.909,0,0,1,5,.058L116.638,72.41a2.909,2.909,0,0,1-2.449,4.363,10.685,10.685,0,0,0-1.6.271L76.788,15.026c.751-.966.848-1.059,1-1.3Zm-4.87,6.238,33.641,58.268L55.785,88.186,40.348,61.448ZM7.771,98.146A14.541,14.541,0,0,1,13.1,78.27l22.682-13.1,14.551,25.2-22.682,13.1A14.569,14.569,0,0,1,7.771,98.146Zm0,0"/>
      <path id="Trazado_105610" data-name="Trazado 105610" d="M30.843,91.546a2.911,2.911,0,0,0-3.975-1.065l-5.04,2.91a2.914,2.914,0,0,1-3.975-1.065,2.91,2.91,0,0,0-5.04,2.91,8.742,8.742,0,0,0,11.926,3.2l5.04-2.91a2.91,2.91,0,0,0,1.065-3.975Zm0,0"/>
      <path id="Trazado_105611" data-name="Trazado 105611" d="M144.675,12.731l-16.216,9.024a2.91,2.91,0,1,0,2.831,5.086L147.5,17.817a2.91,2.91,0,0,0-2.829-5.086Zm0,0"/>
      <path id="Trazado_105612" data-name="Trazado 105612" d="M142.974,42.871,131.73,39.859a2.91,2.91,0,1,0-1.506,5.621l11.245,3.012a2.91,2.91,0,1,0,1.505-5.621Zm0,0"/>
      <path id="Trazado_105613" data-name="Trazado 105613" d="M114.718,2.158,111.7,13.4a2.911,2.911,0,0,0,5.623,1.507l3.015-11.245a2.91,2.91,0,1,0-5.621-1.507Zm0,0"/>
    </g>
  </g>
</svg>
