<svg xmlns="http://www.w3.org/2000/svg" xmlns:xlink="http://www.w3.org/1999/xlink" width="149" height="149" viewBox="0 0 149 149">
  <defs>
    <clipPath id="clip-path">
      <rect id="Rectángulo_6086" data-name="Rectángulo 6086" width="149" height="149" transform="translate(221 2650)" fill="#fff" stroke="#707070" stroke-width="1"/>
    </clipPath>
  </defs>
  <g id="Enmascarar_grupo_54" data-name="Enmascarar grupo 54" transform="translate(-221 -2650)" clip-path="url(#clip-path)">
    <g id="rgb_1_" data-name="rgb (1)" transform="translate(221 2650)">
      <g id="Grupo_55671" data-name="Grupo 55671">
        <path id="Trazado_105759" data-name="Trazado 105759" d="M55.878,149a3.1,3.1,0,0,1-2.2-.907L40.357,134.764V145.9a3.1,3.1,0,1,1-6.209,0v-37.25a3.1,3.1,0,0,1,3.1-3.1h9.313a12.417,12.417,0,0,1,0,24.834H44.746L58.069,143.7a3.1,3.1,0,0,1-2.191,5.3ZM40.357,124.167h6.208a6.208,6.208,0,0,0,0-12.417H40.357v12.417Z" fill="#546e7a"/>
        <path id="Trazado_105760" data-name="Trazado 105760" d="M108.649,149H99.336a3.1,3.1,0,0,1-3.1-3.1v-37.25a3.1,3.1,0,0,1,3.1-3.1h9.312a12.417,12.417,0,0,1,8.2,21.729,12.417,12.417,0,0,1-8.2,21.729Zm-6.208-6.208h6.208a6.208,6.208,0,0,0,0-12.417H102.44Zm0-18.625h6.208a6.208,6.208,0,0,0,0-12.417H102.44Z" fill="#546e7a"/>
        <path id="Trazado_105761" data-name="Trazado 105761" d="M77.607,149A12.417,12.417,0,0,1,65.19,136.583V117.958a12.417,12.417,0,0,1,24.834,0,3.1,3.1,0,0,1-6.209,0,6.208,6.208,0,0,0-12.416,0v18.625a6.208,6.208,0,0,0,12.416,0h-3.1a3.1,3.1,0,1,1,0-6.209h6.208a3.1,3.1,0,0,1,3.1,3.1v3.1A12.416,12.416,0,0,1,77.607,149Z" fill="#546e7a"/>
      </g>
      <path id="Trazado_105762" data-name="Trazado 105762" d="M59.044,64.5a2.53,2.53,0,0,0-.062.683A34.072,34.072,0,0,0,74.5,93.746a33.57,33.57,0,0,1-18.625,5.588,34.09,34.09,0,0,1-15.459-64.5A33.823,33.823,0,0,0,59.044,64.5Z" fill="#2196f3"/>
      <path id="Trazado_105763" data-name="Trazado 105763" d="M90.024,65.188A34.072,34.072,0,0,1,74.5,93.746,34.071,34.071,0,0,1,58.982,65.188a2.543,2.543,0,0,1,.062-.683,33.445,33.445,0,0,0,30.918,0A2.543,2.543,0,0,1,90.024,65.188Z" fill="#00bcd4"/>
      <path id="Trazado_105764" data-name="Trazado 105764" d="M127.274,65.188A34.208,34.208,0,0,1,93.128,99.333,33.57,33.57,0,0,1,74.5,93.746,34.071,34.071,0,0,0,90.024,65.188a2.543,2.543,0,0,0-.062-.683,33.823,33.823,0,0,0,18.625-29.676A34.09,34.09,0,0,1,127.274,65.188Z" fill="#4caf50"/>
      <path id="Trazado_105765" data-name="Trazado 105765" d="M74.5,36.629A33.966,33.966,0,0,0,59.044,64.5,33.823,33.823,0,0,1,40.419,34.829,33.661,33.661,0,0,1,74.5,36.629Z" fill="#d81b60"/>
      <path id="Trazado_105766" data-name="Trazado 105766" d="M108.587,34.829A33.823,33.823,0,0,1,89.962,64.5,33.966,33.966,0,0,0,74.5,36.629,33.663,33.663,0,0,1,108.587,34.829Z" fill="#ffc107"/>
      <path id="Trazado_105767" data-name="Trazado 105767" d="M89.962,64.5a33.445,33.445,0,0,1-30.917,0A33.966,33.966,0,0,1,74.5,36.629,33.967,33.967,0,0,1,89.962,64.5Z" fill="#fafafa"/>
      <path id="Trazado_105768" data-name="Trazado 105768" d="M108.649,34.146a2.554,2.554,0,0,1-.062.683,33.662,33.662,0,0,0-34.084,1.8,33.662,33.662,0,0,0-34.084-1.8,2.542,2.542,0,0,1-.062-.683,34.146,34.146,0,1,1,68.291,0Z" fill="#f44336"/>
    </g>
  </g>
</svg>
