<svg xmlns="http://www.w3.org/2000/svg" xmlns:xlink="http://www.w3.org/1999/xlink" width="149" height="149" viewBox="0 0 149 149">
  <defs>
    <clipPath id="clip-path">
      <rect id="Rectángulo_7005" data-name="Rectángulo 7005" width="149" height="149" transform="translate(1198 1365)" fill="#fff" stroke="#707070" stroke-width="1"/>
    </clipPath>
  </defs>
  <g id="Enmascarar_grupo_48" data-name="Enmascarar grupo 48" transform="translate(-1198 -1365)" clip-path="url(#clip-path)">
    <g id="comunicacion" transform="translate(1198.122 1365)">
      <path id="Trazado_105614" data-name="Trazado 105614" d="M131.453,111.61c-4.954,3.461-10.57,7.386-14.791,16.315l-.086.181c-3.384,7.163-8.5,17.984-24.175,17.984-10.422,0-16.4-8.291-16.4-22.748V81.874a34.96,34.96,0,0,1,34.92-34.922c10.163,0,19.251,3.53,25.591,9.937,6.209,6.272,9.435,14.911,9.331,24.983-.208,19.829-6.781,24.42-14.392,29.738Zm0,0" fill="#feda9b"/>
      <path id="Trazado_105615" data-name="Trazado 105615" d="M2.91,14.282V55.225A11.373,11.373,0,0,0,14.284,66.6H40.771L61.953,83.231,57.784,66.6H78.539A11.374,11.374,0,0,0,89.912,55.225V14.282A11.373,11.373,0,0,0,78.539,2.91H14.284A11.373,11.373,0,0,0,2.91,14.282Zm0,0" fill="#62cd4d"/>
      <path id="Trazado_105616" data-name="Trazado 105616" d="M138.582,54.842c-6.892-6.965-16.715-10.8-27.66-10.8a37.43,37.43,0,0,0-18.1,4.62V14.282A14.3,14.3,0,0,0,78.539,0H14.284A14.3,14.3,0,0,0,0,14.282V55.225A14.3,14.3,0,0,0,14.284,69.508H39.766L60.156,85.52a2.91,2.91,0,0,0,4.62-3L61.513,69.508H75.165a37.47,37.47,0,0,0-2.072,12.366v41.467C73.093,139.408,80.311,149,92.4,149c17.519,0,23.332-12.3,26.8-19.647l.086-.183c3.892-8.233,8.943-11.761,13.83-15.176,7.923-5.537,15.408-10.768,15.632-32.091.113-10.868-3.4-20.226-10.172-27.061Zm-80.8,8.846a2.91,2.91,0,0,0-2.823,3.617l2.1,8.385L42.569,64.309a2.914,2.914,0,0,0-1.8-.621H14.282A8.472,8.472,0,0,1,5.82,55.225V14.282A8.472,8.472,0,0,1,14.282,5.82H78.539A8.473,8.473,0,0,1,87,14.282V55.225a8.473,8.473,0,0,1-8.463,8.463Zm85.151,18.153c-.192,18.331-5.909,22.325-13.148,27.384-4.99,3.487-11.2,7.827-15.755,17.454l-.086.184c-3.255,6.885-7.711,16.316-21.544,16.316-11.736,0-13.488-12.43-13.488-19.838V81.874a31.645,31.645,0,0,1,2.623-12.685,14.3,14.3,0,0,0,11.28-13.7,31.665,31.665,0,0,1,18.107-5.629c9.378,0,17.733,3.222,23.523,9.074,5.65,5.707,8.585,13.628,8.488,22.9Zm0,0"/>
      <path id="Trazado_105617" data-name="Trazado 105617" d="M123.924,76.965a2.91,2.91,0,1,0,5.2-2.625,20.971,20.971,0,0,0-3.813-5.3,23.8,23.8,0,0,0-17.156-6.7c-6.172,0-12.274,3.04-16.743,8.338-4.337,5.141-6.335,11.664-5.345,17.454.369,2.153,2.42,3.091,4.8,4.177,2.753,1.256,5.874,2.679,7.477,6.367,1.989,4.579,1.08,8.333-3.606,14.877a2.91,2.91,0,1,0,4.732,3.388c4.915-6.864,7.512-12.991,4.211-20.585-2.492-5.736-7.25-7.906-10.4-9.342-.456-.208-1.124-.513-1.595-.763a16.516,16.516,0,0,1,4.175-11.82c3.36-3.984,7.841-6.27,12.293-6.27a18.038,18.038,0,0,1,13.02,4.979,15.116,15.116,0,0,1,2.754,3.83Zm0,0"/>
      <path id="Trazado_105618" data-name="Trazado 105618" d="M127.247,83.091a2.911,2.911,0,0,0-2.91,2.91c0,6.314-1.013,11.226-5.956,14.679a2.91,2.91,0,1,0,3.333,4.771c7.439-5.2,8.443-12.749,8.443-19.45a2.911,2.911,0,0,0-2.91-2.91Zm0,0"/>
      <path id="Trazado_105619" data-name="Trazado 105619" d="M20.414,22.117H74.5a2.91,2.91,0,1,0,0-5.82H20.414a2.91,2.91,0,1,0,0,5.82Zm0,0"/>
      <path id="Trazado_105620" data-name="Trazado 105620" d="M74.5,32.594a2.911,2.911,0,1,0,2.058.853A2.927,2.927,0,0,0,74.5,32.594Zm0,0"/>
      <path id="Trazado_105621" data-name="Trazado 105621" d="M20.414,38.414H62.859a2.91,2.91,0,1,0,0-5.82H20.414a2.91,2.91,0,1,0,0,5.82Zm0,0"/>
      <path id="Trazado_105622" data-name="Trazado 105622" d="M74.5,48.891H32.012a2.91,2.91,0,1,0,0,5.82H74.5a2.91,2.91,0,0,0,0-5.82Zm0,0"/>
      <path id="Trazado_105623" data-name="Trazado 105623" d="M20.615,48.891h-.244a2.91,2.91,0,1,0,0,5.82h.244a2.91,2.91,0,0,0,0-5.82Zm0,0"/>
    </g>
  </g>
</svg>
