<svg xmlns="http://www.w3.org/2000/svg" xmlns:xlink="http://www.w3.org/1999/xlink" width="137.6" height="145.16" viewBox="0 0 137.6 145.16">
  <defs>
    <clipPath id="clip-path">
      <rect id="Rectángulo_7648" data-name="Rectángulo 7648" width="137.6" height="145.16" fill="none"/>
    </clipPath>
  </defs>
  <g id="Grupo_16572" data-name="Grupo 16572" transform="translate(-824.115 -592)">
    <path id="Trazado_34303" data-name="Trazado 34303" d="M847.449,689.094V612.28l31.25-2.921v79.735Zm0,0" transform="translate(26.92 20.027)" fill="#ffc44f"/>
    <rect id="Rectángulo_7646" data-name="Rectángulo 7646" width="8.763" height="76.815" transform="translate(902.699 632.307)" fill="#fbae35"/>
    <path id="Trazado_34304" data-name="Trazado 34304" d="M878.7,620.853h-7.3l-4.874,4.964-5.933-4.964H847.449V607.709l17.6-5.781,13.648,5.781Zm0,0" transform="translate(26.92 11.454)" fill="#c4e6f0"/>
    <path id="Trazado_34305" data-name="Trazado 34305" d="M869.364,607.326V620.47H860.6V607.326l4.006-5.066Zm0,0" transform="translate(42.096 11.837)" fill="#99d5eb"/>
    <path id="Trazado_34306" data-name="Trazado 34306" d="M872.859,592H853.29a5.84,5.84,0,0,0-5.841,5.841v21.322H878.7V597.841A5.84,5.84,0,0,0,872.859,592Zm0,0" transform="translate(26.92 0)" fill="#ea7682"/>
    <path id="Trazado_34307" data-name="Trazado 34307" d="M872.493,597.841v21.322h-8.761V597.841A5.84,5.84,0,0,0,857.891,592h8.761a5.839,5.839,0,0,1,5.841,5.841Zm0,0" transform="translate(38.967 0)" fill="#e55669"/>
    <path id="Trazado_34308" data-name="Trazado 34308" d="M879.959,658.408l-6.065,8.389-9.914.03-8.923.149-6.024-8.6a8.762,8.762,0,0,1-1.585-5.025v-2.4a5.839,5.839,0,0,1,5.839-5.841H860.5l5.716-2.679L871.4,645.1h4.381a5.84,5.84,0,0,1,5.841,5.841v2.33a8.761,8.761,0,0,1-1.661,5.132Zm0,0" transform="translate(26.92 58.176)" fill="#fbedee"/>
    <path id="Trazado_34309" data-name="Trazado 34309" d="M872.564,649.51v2.33a8.761,8.761,0,0,1-1.661,5.132l-6.065,8.389-7.008,6.627,1.647-11.333,2.664-3.683a8.746,8.746,0,0,0,1.661-5.132v-8.171h2.92a5.837,5.837,0,0,1,5.841,5.841Zm0,0" transform="translate(38.897 59.611)" fill="#f2dfd9"/>
    <rect id="Rectángulo_7647" data-name="Rectángulo 7647" width="10.806" height="70.973" transform="translate(887.512 632.307)" fill="#ffd766"/>
    <path id="Trazado_34310" data-name="Trazado 34310" d="M892.559,737.16h-14.6l-3.8-6.132-2.01-135.908L877.957,592h14.6a5.84,5.84,0,0,1,5.841,5.841V731.319a5.841,5.841,0,0,1-5.841,5.841Zm0,0" transform="translate(55.411 0)" fill="#ab9dcc"/>
    <path id="Trazado_34311" data-name="Trazado 34311" d="M895.82,597.841V731.319a5.84,5.84,0,0,1-5.841,5.841h-8.763a5.841,5.841,0,0,0,5.843-5.841V597.841A5.841,5.841,0,0,0,881.216,592h8.763a5.84,5.84,0,0,1,5.841,5.841Zm0,0" transform="translate(65.878 0)" fill="#8d81bc"/>
    <path id="Trazado_34312" data-name="Trazado 34312" d="M888.283,656.39H876.018a2.19,2.19,0,1,1,0-4.381h12.265a2.19,2.19,0,0,1,0,4.381Zm0,0" transform="translate(57.351 69.233)" fill="#8d81bc"/>
    <path id="Trazado_34313" data-name="Trazado 34313" d="M883.9,650.286h-7.885a2.189,2.189,0,1,1,0-4.379H883.9a2.189,2.189,0,1,1,0,4.379Zm0,0" transform="translate(57.351 62.193)" fill="#8d81bc"/>
    <path id="Trazado_34314" data-name="Trazado 34314" d="M883.9,644.185h-7.885a2.19,2.19,0,1,1,0-4.381H883.9a2.19,2.19,0,0,1,0,4.381Zm0,0" transform="translate(57.351 55.152)" fill="#8d81bc"/>
    <path id="Trazado_34315" data-name="Trazado 34315" d="M888.283,638.084H876.018a2.191,2.191,0,1,1,0-4.383h12.265a2.191,2.191,0,0,1,0,4.383Zm0,0" transform="translate(57.351 48.111)" fill="#8d81bc"/>
    <path id="Trazado_34316" data-name="Trazado 34316" d="M883.9,631.981h-7.885a2.191,2.191,0,1,1,0-4.383H883.9a2.191,2.191,0,0,1,0,4.383Zm0,0" transform="translate(57.351 41.07)" fill="#8d81bc"/>
    <path id="Trazado_34317" data-name="Trazado 34317" d="M883.9,625.877h-7.885a2.19,2.19,0,1,1,0-4.381H883.9a2.19,2.19,0,0,1,0,4.381Zm0,0" transform="translate(57.351 34.03)" fill="#8d81bc"/>
    <path id="Trazado_34318" data-name="Trazado 34318" d="M888.283,619.775H876.018a2.19,2.19,0,1,1,0-4.381h12.265a2.19,2.19,0,0,1,0,4.381Zm0,0" transform="translate(57.351 26.99)" fill="#8d81bc"/>
    <path id="Trazado_34319" data-name="Trazado 34319" d="M883.9,613.672h-7.885a2.19,2.19,0,1,1,0-4.381H883.9a2.19,2.19,0,0,1,0,4.381Zm0,0" transform="translate(57.351 19.949)" fill="#8d81bc"/>
    <path id="Trazado_34320" data-name="Trazado 34320" d="M883.9,607.569h-7.885a2.19,2.19,0,1,1,0-4.381H883.9a2.19,2.19,0,0,1,0,4.381Zm0,0" transform="translate(57.351 12.908)" fill="#8d81bc"/>
    <path id="Trazado_34321" data-name="Trazado 34321" d="M888.283,601.465H876.018a2.189,2.189,0,1,1,0-4.379h12.265a2.189,2.189,0,1,1,0,4.379Zm0,0" transform="translate(57.351 5.868)" fill="#8d81bc"/>
    <path id="Trazado_34322" data-name="Trazado 34322" d="M879.538,592V737.16h-2.921a5.841,5.841,0,0,1-5.843-5.841V597.841A5.841,5.841,0,0,1,876.617,592Zm0,0" transform="translate(53.831 0)" fill="#fbedee"/>
    <path id="Trazado_34323" data-name="Trazado 34323" d="M828.123,651.066V640.842a4.383,4.383,0,0,1,4.383-4.381l6.455-4.521,4.646,4.521-2.922,4.381v10.224Zm0,0" transform="translate(4.624 46.08)" fill="#c88659"/>
    <path id="Trazado_34324" data-name="Trazado 34324" d="M844.385,638.421v10.224h-8.761V638.421a4.384,4.384,0,0,0-4.381-4.381H840a4.383,4.383,0,0,1,4.381,4.381Zm0,0" transform="translate(8.223 48.502)" fill="#af6f4a"/>
    <path id="Trazado_34325" data-name="Trazado 34325" d="M851.785,673.5l-9.214,8.628-4.279-.095c-.17-.155-.332-.319-.487-.491l-7.172-8.042a25.679,25.679,0,0,1-6.511-17.088,18.555,18.555,0,0,1,14.165-18.026c1.4-.34,5.354.663,5.354.663s11.731,7.12,11.731,17.363c0,6.3.605,12.384-3.588,17.088Zm0,0" transform="translate(0.009 53.437)" fill="#5b525f"/>
    <path id="Trazado_34326" data-name="Trazado 34326" d="M853.627,656.656a25.66,25.66,0,0,1-6.511,17.086l-7.172,8.044a6.521,6.521,0,0,1-9.244.489c.168-.153.33-.317.485-.489l7.17-8.044a25.69,25.69,0,0,0,6.511-17.086A18.56,18.56,0,0,0,830.7,638.631a18.549,18.549,0,0,1,22.926,18.024Zm0,0" transform="translate(7.598 53.195)" fill="#4a424e"/>
    <g id="Grupo_16571" data-name="Grupo 16571" transform="translate(824.115 592)">
      <g id="Grupo_16570" data-name="Grupo 16570" clip-path="url(#clip-path)">
        <path id="Trazado_34327" data-name="Trazado 34327" d="M867.771,658.114l-10.458,8.016-6.33-9.039a12.858,12.858,0,0,1,16.394-4.885c1.355.635.394,5.908.394,5.908Zm0,0" transform="translate(-793.118 -523.94)" fill="#5b525f"/>
        <path id="Trazado_34328" data-name="Trazado 34328" d="M869.346,656.262l-7.493,10.368a4.4,4.4,0,0,1-7.163-.052l-.767-1.1,10.062-13.924a12.76,12.76,0,0,1,3.627,2.55,12.572,12.572,0,0,1,1.734,2.156Zm0,0" transform="translate(-789.726 -523.29)" fill="#4a424e"/>
      </g>
    </g>
    <path id="Trazado_34329" data-name="Trazado 34329" d="M835.542,592a4.152,4.152,0,0,0-4.152,4.088l-1.09,67.471,5.242,6.793,5.244-6.793L839.7,596.088A4.157,4.157,0,0,0,835.542,592Zm0,0" transform="translate(7.135 0)" fill="#feb254"/>
    <path id="Trazado_34330" data-name="Trazado 34330" d="M841.256,644.209h-11.1l.306-18.983H840.95Zm0,0" transform="translate(6.972 38.333)" fill="#fbedee"/>
  </g>
</svg>
