<svg xmlns="http://www.w3.org/2000/svg" width="280.43" height="282.653" viewBox="0 0 280.43 282.653">
  <g id="Grupo_57619" data-name="Grupo 57619" transform="translate(-30.691 -29.968)">
    <g id="Floor" transform="translate(30.691 166.122)">
      <path id="Floor-2" data-name="Floor" d="M71.759,368.017c54.757,28.606,143.537,28.606,198.293,0s54.757-74.986,0-103.591-143.537-28.606-198.294,0S17,339.412,71.759,368.017Z" transform="translate(-30.691 -242.973)" fill="#f5f5f5"/>
    </g>
    <g id="Shadow" transform="translate(234.188 229.694)">
      <ellipse id="Elipse_3651" data-name="Elipse 3651" cx="30.692" cy="17.72" rx="30.692" ry="17.72" fill="#e0e0e0"/>
    </g>
    <g id="Pen_tool" data-name="Pen tool" transform="translate(49.407 29.968)">
      <g id="Grupo_57589" data-name="Grupo 57589">
        <g id="Grupo_57587" data-name="Grupo 57587" transform="translate(30.168)">
          <g id="Grupo_57584" data-name="Grupo 57584" transform="translate(0 32.039)">
            <path id="Trazado_92681" data-name="Trazado 92681" d="M136.13,121.9c-3,1.736-5.45,6.4-5.45,10.409,0,3.574,1.946,5.427,4.492,4.555v75.849L107.53,154.7a4.867,4.867,0,0,1-.056-3.539,176.916,176.916,0,0,0,13.889-53.021,4.217,4.217,0,0,1,1.856-2.912l25.825-14.91a1.162,1.162,0,0,1,1.877.965c1.733,16.151,6.676,28.138,13.378,36.2a3.964,3.964,0,0,1,.707,3.328l-27.917,90.791V135.757a13.568,13.568,0,0,0,4.493-9.74C141.581,122,139.143,120.161,136.13,121.9Z" transform="translate(-107.168 -80.091)" fill="#27debf"/>
          </g>
          <path id="Trazado_92682" data-name="Trazado 92682" d="M177.656,128.021,149.74,218.812l-1.908-1.107v2.21l-12.659-7.3L107.53,154.607a4.866,4.866,0,0,1-.056-3.539,176.916,176.916,0,0,0,13.889-53.021,4.217,4.217,0,0,1,1.856-2.912l25.825-14.91a3.726,3.726,0,0,1,3.372,0l9.28,5.357a4.284,4.284,0,0,1,1.877,2.91c1.733,16.158,6.676,28.146,13.379,36.2A3.962,3.962,0,0,1,177.656,128.021Z" transform="translate(-107.168 -47.955)" fill="#27debf"/>
          <path id="Trazado_92683" data-name="Trazado 92683" d="M174.65,160.671a13.542,13.542,0,0,1-4.492,9.74V246.26l-1.908-1.106V171.517c-2.554.872-4.492-.974-4.492-4.547,0-4.017,2.437-8.681,5.45-10.417S174.65,156.661,174.65,160.671Z" transform="translate(-127.585 -75.403)" opacity="0.15"/>
          <g id="Grupo_57585" data-name="Grupo 57585" transform="translate(12.652 39.342)">
            <path id="Trazado_92684" data-name="Trazado 92684" d="M184.8,132.241l-27.916,90.791V147.182a13.542,13.542,0,0,0,4.492-9.74c0-4.009-2.437-5.854-5.442-4.118s-5.451,6.4-5.451,10.417c0,3.574,1.939,5.419,4.492,4.547v75.846l-27.65-58a4.862,4.862,0,0,1-.056-3.539,176.946,176.946,0,0,0,13.9-53.03,4.214,4.214,0,0,1,1.855-2.912l25.818-14.909a1.161,1.161,0,0,1,1.876.963c1.733,16.158,6.676,28.146,13.379,36.2A3.962,3.962,0,0,1,184.8,132.241Z" transform="translate(-126.961 -91.516)" fill="#27debf"/>
          </g>
          <path id="Trazado_92685" data-name="Trazado 92685" d="M134.543,113.306a3.689,3.689,0,0,0-.522,1.487,176.737,176.737,0,0,1-13.9,53.028,4.665,4.665,0,0,0-.3,1.939l-12.652-7.3a4.71,4.71,0,0,1,.3-1.946,176.759,176.759,0,0,0,13.89-53.021,3.726,3.726,0,0,1,.529-1.494Z" transform="translate(-107.169 -57.398)" fill="#fff" opacity="0.25"/>
          <path id="Trazado_92686" data-name="Trazado 92686" d="M171.831,88.221a1.125,1.125,0,0,0-1.822-.693l-25.826,14.909a3.869,3.869,0,0,0-1.331,1.425L130.2,96.552a3.952,3.952,0,0,1,1.324-1.417l25.825-14.91a3.746,3.746,0,0,1,3.379,0L170,85.582A4.273,4.273,0,0,1,171.831,88.221Z" transform="translate(-115.478 -47.955)" opacity="0.15"/>
          <g id="Grupo_57586" data-name="Grupo 57586" transform="translate(6.828)">
            <path id="Trazado_92687" data-name="Trazado 92687" d="M119.536,53.994l40.9-23.619a3.725,3.725,0,0,1,3.371,0l9.283,5.36a3.725,3.725,0,0,1,1.686,2.92V56.675a3.725,3.725,0,0,1-1.686,2.92l-40.9,23.619a3.723,3.723,0,0,1-3.371,0l-9.283-5.36a3.727,3.727,0,0,1-1.686-2.919V56.914A3.727,3.727,0,0,1,119.536,53.994Z" transform="translate(-117.85 -29.969)" fill="#27debf"/>
            <path id="Trazado_92688" data-name="Trazado 92688" d="M175.04,38.382c-.116-.873-.825-1.191-1.674-.7L132.468,61.3a3.385,3.385,0,0,0-1.191,1.261l-12.659-7.3a3.466,3.466,0,0,1,1.2-1.262l40.9-23.622a3.729,3.729,0,0,1,3.371,0l9.281,5.364A3.761,3.761,0,0,1,175.04,38.382Z" transform="translate(-118.127 -29.968)" fill="#fff" opacity="0.4"/>
            <path id="Trazado_92689" data-name="Trazado 92689" d="M131.919,97.618c-.016.008-.024.008-.039.015-.031.008-.063.023-.1.031a.48.48,0,0,1-.109.047.664.664,0,0,1-.164.047l-.2.047q-.058.012-.14.023c-.093.016-.195.031-.288.039a3.537,3.537,0,0,1-2.055-.382l-9.281-5.357a3.719,3.719,0,0,1-1.689-2.919V71.185a3.446,3.446,0,0,1,.49-1.658L131,76.83a3.379,3.379,0,0,0-.5,1.658V96.512c0,.763.381,1.207.934,1.207a.884.884,0,0,0,.242-.031A1.693,1.693,0,0,0,131.919,97.618Z" transform="translate(-117.85 -44.241)" opacity="0.15"/>
          </g>
          <path id="Trazado_92690" data-name="Trazado 92690" d="M147.836,261.227l-12.659-7.3-27.639-58a4.372,4.372,0,0,1-.359-1.6l12.652,7.3a4.249,4.249,0,0,0,.358,1.6Z" transform="translate(-107.172 -89.268)" opacity="0.15"/>
          <path id="Trazado_92691" data-name="Trazado 92691" d="M170.156,176.521V252.37l-1.908-1.107V177.627c-2.554.872-4.5-.97-4.5-4.543,0-.086,0-.164.008-.249Z" transform="translate(-127.583 -81.513)" opacity="0.15"/>
        </g>
        <g id="Grupo_57588" data-name="Grupo 57588" transform="translate(0 70.374)">
          <path id="Trazado_92692" data-name="Trazado 92692" d="M192.1,143.175c0-2.06-1.447-2.895-3.231-1.865a7.142,7.142,0,0,0-3.231,5.6c0,1.669.956,2.514,2.264,2.235-1.819,38.1-28.491,83-61.027,101.788-16.166,9.333-31.322,10.865-42.672,4.312-10.719-6.19-16.885-18.929-17.538-36.05a7.223,7.223,0,0,0,2.307-4.889c0-2.06-1.447-2.895-3.231-1.865a7.142,7.142,0,0,0-3.231,5.6c0,1.759,1.057,2.613,2.476,2.189.871,17.252,7.31,30.131,18.357,36.508a32.507,32.507,0,0,0,16.467,4.236c8.584,0,18.088-2.869,27.925-8.548,33.281-19.215,60.512-65.379,61.927-104.23A7.238,7.238,0,0,0,192.1,143.175Z" transform="translate(-60.886 -140.354)" fill="#455a64"/>
          <path id="Trazado_92693" data-name="Trazado 92693" d="M188.865,252.775a7.231,7.231,0,0,0-3.1,4.529L68.8,324.833c-.417-1.264-1.623-1.664-3.064-.832a7.142,7.142,0,0,0-3.231,5.6c0,2.061,1.447,2.9,3.231,1.866a7.243,7.243,0,0,0,3.137-4.687l116.891-67.487c.378,1.356,1.616,1.8,3.1.947a7.141,7.141,0,0,0,3.231-5.6C192.1,252.58,190.649,251.745,188.865,252.775Z" transform="translate(-60.886 -180.57)" fill="#455a64"/>
          <path id="Trazado_92694" data-name="Trazado 92694" d="M69.43,256a4.593,4.593,0,1,1-4.593-4.593A4.593,4.593,0,0,1,69.43,256Z" transform="translate(-60.07 -180.235)" fill="#455a64"/>
          <circle id="Elipse_3652" data-name="Elipse 3652" cx="4.593" cy="4.593" r="4.593" transform="translate(0 142.48)" fill="#455a64"/>
          <path id="Trazado_92695" data-name="Trazado 92695" d="M262.592,256.453A4.593,4.593,0,1,1,258,251.86,4.593,4.593,0,0,1,262.592,256.453Z" transform="translate(-129.762 -180.399)" fill="#455a64"/>
          <path id="Trazado_92696" data-name="Trazado 92696" d="M261.931,144.657a4.593,4.593,0,1,1-4.593-4.593A4.593,4.593,0,0,1,261.931,144.657Z" transform="translate(-129.523 -140.064)" fill="#455a64"/>
        </g>
      </g>
    </g>
    <g id="Character" transform="translate(113.925 78.583)">
      <g id="Character-2" data-name="Character">
        <g id="Grupo_57590" data-name="Grupo 57590" transform="translate(0 170.512)">
          <path id="Trazado_92697" data-name="Trazado 92697" d="M255.082,378.252c-.949,2.093-4.416,2.574-6.428,2.642-3.069.1-5.891-1.277-8.619-2.517-1.918-.872-3.777-1.867-5.667-2.8a27.027,27.027,0,0,0-5.821-2.46c-2.446-.548-6.75-.816-7.6,2.3-.918,3.363,3.692,6.189,5.868,7.807,2.114,1.572,5.156,3.394,6.218,5.961,1.293,3.128-2.951,4.113-5.187,4.232-6.357.341-12.6-1.747-18.443-4.022-8.381-3.263-16.721-6.844-25.491-8.961-7.334-1.771-18.75-3.528-22.988,4.635-.084.163.177.465.291.279,4.6-7.545,15.114-5.984,22.361-4.232,8.864,2.142,17.275,5.785,25.751,9.068,5.668,2.2,11.618,4.1,17.765,3.994,2.809-.05,8.471-1.238,6.719-5.311-.908-2.114-3.068-3.681-4.834-5.037-2.171-1.668-4.635-3.209-6.349-5.39-1.092-1.39-1.436-3.415.43-4.385,1.592-.827,3.789-.546,5.459-.136,2.555.628,4.979,2.1,7.316,3.283,2.16,1.089,4.334,2.136,6.57,3.063a14.266,14.266,0,0,0,7.991,1.195c1.844-.308,4.6-.981,5.355-2.942.15-.388-.507-.623-.668-.267Z" transform="translate(-160.906 -372.78)" fill="#263238"/>
        </g>
        <g id="Grupo_57618" data-name="Grupo 57618" transform="translate(91.616)">
          <g id="Grupo_57591" data-name="Grupo 57591" transform="translate(32.917 41.394)">
            <path id="Trazado_92698" data-name="Trazado 92698" d="M369.957,176.8c-3.27,3.909-8.673,9.189-11.739,13.037a11.187,11.187,0,0,0-2.486,7.107c.027,1.916.548,3.516,2.422,2.7,1.353-.589,2.214-1.292,4.189-3.239,1.777-1.751,10.369-9.8,10.369-9.8s1.61-9.9,4.265-10.7,4.915-5.042,4.915-5.042C377.559,170.42,374.108,171.839,369.957,176.8Z" transform="translate(-355.731 -170.782)" fill="#9a4a4d"/>
          </g>
          <g id="Grupo_57598" data-name="Grupo 57598">
            <path id="Trazado_92699" data-name="Trazado 92699" d="M304.331,261.828c.007-.026.019-.051.027-.077l40.226-149.162c.005-.005.005-.005.005-.015l.01-.04c.01-.031.02-.071.036-.106a2.325,2.325,0,0,1,.29-.6,3.108,3.108,0,0,1,.461-.58,5.213,5.213,0,0,1,2.4-1.268,12.83,12.83,0,0,1,11.21,3.03,4.641,4.641,0,0,1,1.544,3.071,2.6,2.6,0,0,1-.1.793L320.6,264.592l-.418,1.546h0l0,.007c-.3,1.158-1.392,2.1-3.167,2.581a12.873,12.873,0,0,1-11.232-3.032C304.482,264.388,304.013,263,304.331,261.828Z" transform="translate(-304.235 -107.341)" fill="#e6e6e6"/>
            <g id="Grupo_57597" data-name="Grupo 57597" transform="translate(0.035 2.837)">
              <g id="Grupo_57592" data-name="Grupo 57592" transform="translate(1.378 168.391)">
                <path id="Trazado_92700" data-name="Trazado 92700" d="M306.478,378.409h0l1.013-4.008h0a.657.657,0,0,1,.529-.453,2.116,2.116,0,0,1,1.848.5.673.673,0,0,1,.238.637h0l-1,4h0a1.362,1.362,0,0,1-2.635-.683Z" transform="translate(-306.445 -373.9)" fill="#455a64"/>
                <path id="Trazado_92701" data-name="Trazado 92701" d="M306.447,381.212v-.01a1.912,1.912,0,0,1,.029-.238c.005,0,0-.01.005-.015a1.935,1.935,0,0,0,2.6.764.339.339,0,0,1-.026.075.518.518,0,0,1-.026.073,1.11,1.11,0,0,1-.258.361,1.363,1.363,0,0,1-1.925-.01A1.33,1.33,0,0,1,306.447,381.212Z" transform="translate(-306.445 -376.443)" fill="#263238"/>
              </g>
              <path id="Trazado_92702" data-name="Trazado 92702" d="M305.662,362.268A7.328,7.328,0,0,0,312.07,364a2.631,2.631,0,0,0,1.615-1.032l5.946-9.212a4.974,4.974,0,0,1-2.6,1.5,12.861,12.861,0,0,1-11.231-3.03,4.9,4.9,0,0,1-1.509-2.712l.487,10.936a1.65,1.65,0,0,0,.015.217A2.735,2.735,0,0,0,305.662,362.268Z" transform="translate(-304.29 -196.709)" fill="#e0e0e0"/>
              <path id="Trazado_92703" data-name="Trazado 92703" d="M306.444,359.222a9.111,9.111,0,0,0,7.949,2.146,2.511,2.511,0,0,0,1.236-4.581,9.057,9.057,0,0,0-7.939-2.156,2.511,2.511,0,0,0-1.246,4.591Z" transform="translate(-304.673 -198.479)" opacity="0.1"/>
              <g id="Grupo_57595" data-name="Grupo 57595" transform="translate(0 152.802)">
                <g id="Grupo_57593" data-name="Grupo 57593">
                  <path id="Trazado_92704" data-name="Trazado 92704" d="M305.662,362.268A7.328,7.328,0,0,0,312.07,364a2.631,2.631,0,0,0,1.615-1.032l5.946-9.212a4.974,4.974,0,0,1-2.6,1.5,12.861,12.861,0,0,1-11.231-3.03,4.9,4.9,0,0,1-1.509-2.712l.487,10.936a1.65,1.65,0,0,0,.015.217A2.735,2.735,0,0,0,305.662,362.268Z" transform="translate(-304.29 -349.511)" fill="#e0e0e0"/>
                  <path id="Trazado_92705" data-name="Trazado 92705" d="M305.844,367.242h-.01l-.447-9.979a1.742,1.742,0,0,1-.013-.268c0-1.055.81-1.949,2.33-2.354a9.069,9.069,0,0,1,7.921,2.144c1.066,1.072,1.331,2.2.883,3.1-.013.023-.023.041-.032.059l-.151.232-5.47,8.472h-.006a1.5,1.5,0,0,1-.913.586,4.126,4.126,0,0,1-3.605-.976A1.445,1.445,0,0,1,305.844,367.242Z" transform="translate(-304.68 -351.284)" fill="#27debf"/>
                  <path id="Trazado_92706" data-name="Trazado 92706" d="M305.844,367.242h-.01l-.447-9.979a1.742,1.742,0,0,1-.013-.268c0-1.055.81-1.949,2.33-2.354a9.069,9.069,0,0,1,7.921,2.144c1.066,1.072,1.331,2.2.883,3.1-.013.023-.023.041-.032.059l-.151.232-5.47,8.472h-.006a1.5,1.5,0,0,1-.913.586,4.126,4.126,0,0,1-3.605-.976A1.445,1.445,0,0,1,305.844,367.242Z" transform="translate(-304.68 -351.284)" opacity="0.1"/>
                  <path id="Trazado_92707" data-name="Trazado 92707" d="M306.444,359.222a9.111,9.111,0,0,0,7.949,2.146,2.511,2.511,0,0,0,1.236-4.581,9.057,9.057,0,0,0-7.939-2.156,2.511,2.511,0,0,0-1.246,4.591Z" transform="translate(-304.673 -351.281)" fill="#27debf"/>
                  <path id="Trazado_92708" data-name="Trazado 92708" d="M306.444,359.222a9.111,9.111,0,0,0,7.949,2.146,2.511,2.511,0,0,0,1.236-4.581,9.057,9.057,0,0,0-7.939-2.156,2.511,2.511,0,0,0-1.246,4.591Z" transform="translate(-304.673 -351.281)" fill="#27debf"/>
                  <path id="Trazado_92709" data-name="Trazado 92709" d="M305.419,356.712a2.6,2.6,0,0,1,1.72-1.672,13.435,13.435,0,0,0,8.908,2.453,2.55,2.55,0,0,1,.588,2.273,2.862,2.862,0,0,1-2.241,1.826,9.111,9.111,0,0,1-7.949-2.146A2.9,2.9,0,0,1,305.419,356.712Z" transform="translate(-304.673 -351.506)" opacity="0.05"/>
                </g>
                <g id="Grupo_57594" data-name="Grupo 57594" transform="translate(0.936 11.074)">
                  <path id="Trazado_92710" data-name="Trazado 92710" d="M306.468,372.739a4.129,4.129,0,0,0,3.611.975,1.488,1.488,0,0,0,.906-.589h.01l2.643-4.091a2.583,2.583,0,0,1-1.326.754,6.622,6.622,0,0,1-5.782-1.556,2.506,2.506,0,0,1-.775-1.4l.215,4.887h.01A1.447,1.447,0,0,0,306.468,372.739Z" transform="translate(-305.755 -366.835)" fill="#27debf"/>
                </g>
              </g>
              <g id="Grupo_57596" data-name="Grupo 57596" transform="translate(34.401 19.596)">
                <path id="Trazado_92711" data-name="Trazado 92711" d="M364.668,142.151a1.432,1.432,0,0,1,1.134-.927,4.519,4.519,0,0,1,3.964,1.076,1.425,1.425,0,0,1,.512,1.376h0l-6.55,24.2a1.523,1.523,0,0,0-.538-1.219,4.586,4.586,0,0,0-3.989-1.082,1.5,1.5,0,0,0-1.093.816Z" transform="translate(-358.108 -141.118)" fill="#fafafa"/>
                <path id="Trazado_92712" data-name="Trazado 92712" d="M368.863,143.517a4.547,4.547,0,0,0,3.969,1.071,1.254,1.254,0,0,0,.617-2.287,4.519,4.519,0,0,0-3.964-1.076,1.432,1.432,0,0,0-1.134.927A1.446,1.446,0,0,0,368.863,143.517Z" transform="translate(-361.792 -141.118)" fill="#e0e0e0"/>
              </g>
              <path id="Trazado_92713" data-name="Trazado 92713" d="M365.515,120.321h0l.02-.074c.009-.034.018-.067.027-.1l1.885-6.954c.017-.075.037-.149.061-.222l.014-.052h0a3.763,3.763,0,0,1,2.819-2.185,11.549,11.549,0,0,1,10.087,2.731,3.66,3.66,0,0,1,1.294,3.495h0l-1.914,7.073-.013.052-.016.057h0a3.721,3.721,0,0,1-2.852,2.264,11.55,11.55,0,0,1-10.087-2.731A3.747,3.747,0,0,1,365.515,120.321Z" transform="translate(-326.359 -110.461)" fill="#27debf"/>
              <path id="Trazado_92714" data-name="Trazado 92714" d="M365.515,120.321h0l.02-.074c.009-.034.018-.067.027-.1l1.885-6.954c.017-.075.037-.149.061-.222l.014-.052h0a3.763,3.763,0,0,1,2.819-2.185,11.549,11.549,0,0,1,10.087,2.731,3.66,3.66,0,0,1,1.294,3.495h0l-1.914,7.073-.013.052-.016.057h0a3.721,3.721,0,0,1-2.852,2.264,11.55,11.55,0,0,1-10.087-2.731A3.747,3.747,0,0,1,365.515,120.321Z" transform="translate(-326.359 -110.461)" opacity="0.05"/>
            </g>
            <path id="Trazado_92715" data-name="Trazado 92715" d="M309.931,294.065l2.729-10.084,27.917-103.7a.04.04,0,0,1,.01-.041l.056-.217a1.5,1.5,0,0,1,1.094-.816,4.583,4.583,0,0,1,3.989,1.081,1.523,1.523,0,0,1,.538,1.22.007.007,0,0,1,0,.01l-.077.277-27.921,103.7-2.724,10.1a1.427,1.427,0,0,1-1.119.911,4.494,4.494,0,0,1-3.021-.412c-.131-.061-.253-.132-.373-.2a3.256,3.256,0,0,1-.575-.456A1.456,1.456,0,0,1,309.931,294.065Z" transform="translate(-306.278 -132.389)" fill="#455a64"/>
            <path id="Trazado_92716" data-name="Trazado 92716" d="M358.458,181.5a4.546,4.546,0,0,0,3.969,1.071,1.254,1.254,0,0,0,.617-2.287,4.523,4.523,0,0,0-3.964-1.076,1.254,1.254,0,0,0-.622,2.292Z" transform="translate(-323.601 -132.389)" fill="#263238"/>
            <path id="Trazado_92717" data-name="Trazado 92717" d="M309.931,358.1l.413-1.526a13.986,13.986,0,0,0,5.611,1.516l-.414,1.536a1.427,1.427,0,0,1-1.119.912,4.494,4.494,0,0,1-3.021-.412,3.451,3.451,0,0,1-.949-.659A1.456,1.456,0,0,1,309.931,358.1Z" transform="translate(-306.278 -196.419)" fill="#263238"/>
            <path id="Trazado_92718" data-name="Trazado 92718" d="M368.743,116.48a12.867,12.867,0,0,0,11.228,3.03c1.774-.481,2.863-1.422,3.166-2.579.346-1.171-.094-2.559-1.42-3.891a12.793,12.793,0,0,0-11.213-3.045c-1.8.481-2.906,1.436-3.209,2.622S367.445,115.176,368.743,116.48Z" transform="translate(-326.952 -107.347)" fill="#e0e0e0"/>
            <path id="Trazado_92719" data-name="Trazado 92719" d="M369.083,114.369a12.869,12.869,0,0,0,11.228,3.03c1.774-.481,2.862-1.422,3.165-2.579l.021-.051.428-1.546a.478.478,0,0,1,.02-.091c.02-.081.031-.162.046-.247a1.953,1.953,0,0,0,.026-.339c0-.07,0-.141,0-.217a.054.054,0,0,0,0-.04,1.762,1.762,0,0,0-.025-.217,3.464,3.464,0,0,0-.27-.95c-.04-.091-.08-.182-.125-.268a.556.556,0,0,0-.07-.131,1.674,1.674,0,0,0-.136-.228,6.049,6.049,0,0,0-.906-1.134,12.844,12.844,0,0,0-11.205-3.036,5.243,5.243,0,0,0-2.4,1.273l-.015.015a2.879,2.879,0,0,0-.238.267l-.2.277a1.655,1.655,0,0,0-.1.182l-.061.111a1.65,1.65,0,0,0-.1.238l-.02.05c-.026.075-.056.157-.076.237l-.373,1.348a1.322,1.322,0,0,0-.058.184C367.318,111.678,367.786,113.065,369.083,114.369Z" transform="translate(-327.075 -106.023)" fill="#27debf"/>
            <path id="Trazado_92720" data-name="Trazado 92720" d="M369.77,112.814A12.865,12.865,0,0,0,381,115.844c1.774-.481,2.862-1.422,3.165-2.579.346-1.171-.094-2.559-1.42-3.891a12.787,12.787,0,0,0-11.211-3.045c-1.8.481-2.9,1.436-3.208,2.621S368.473,111.51,369.77,112.814Z" transform="translate(-327.323 -106.025)" fill="#fff" opacity="0.3"/>
          </g>
          <g id="Grupo_57616" data-name="Grupo 57616" transform="translate(43.77 13.427)">
            <g id="Grupo_57615" data-name="Grupo 57615">
              <g id="Grupo_57614" data-name="Grupo 57614">
                <g id="Grupo_57599" data-name="Grupo 57599" transform="translate(6.129)">
                  <path id="Trazado_92721" data-name="Trazado 92721" d="M395.137,151.459h0a12.838,12.838,0,0,0,12.838-12.838v-.71a10.881,10.881,0,0,0-10.881-10.881H393.18A10.881,10.881,0,0,0,382.3,137.911v.71A12.839,12.839,0,0,0,395.137,151.459Z" transform="translate(-382.298 -127.03)" fill="#263238"/>
                </g>
                <path id="Trazado_92722" data-name="Trazado 92722" d="M427.334,157.453h0a5.831,5.831,0,0,1-5.831-5.831V140.029h0a5.831,5.831,0,0,1,5.831,5.831Z" transform="translate(-390.314 -131.72)" fill="#263238"/>
                <g id="Grupo_57600" data-name="Grupo 57600" transform="translate(0 144.53)">
                  <path id="Trazado_92723" data-name="Trazado 92723" d="M378.464,360.042a34.022,34.022,0,0,1-4.9,4.261,2.079,2.079,0,0,0-.681.7c-.231.48-.59,1.67,1.6,2.434a8.143,8.143,0,0,0,6.759-.648c1.8-1.126,1.88-3.469,3.576-4.8,1.259-.99,2.829-1.244,3.845-2.537.708-.9.523-2.1.154-3.582-.4-1.62-.588-2.845-1.124-2.72l.088.745c-.669,1.067-4.135,1.383-5.677.646A63.307,63.307,0,0,1,378.464,360.042Z" transform="translate(-372.71 -353.139)" fill="#263238"/>
                </g>
                <g id="Grupo_57601" data-name="Grupo 57601" transform="translate(2.802 139.897)">
                  <path id="Trazado_92724" data-name="Trazado 92724" d="M378.526,358.941v-.012c.52-.478,1.031-.969,1.52-1.5a42.2,42.2,0,0,0,2.828-4.17,6.412,6.412,0,0,0,1.209-3.046c.036-1.432-.1-3.98-.1-3.98l5.133-.337.251,5.385h0c.133,1.221-.876,2.3-2.663,3.844s-4.057,5.132-5.675,6.035-2.775.87-3.464.408C376.854,361.087,376.783,360.722,378.526,358.941Z" transform="translate(-377.094 -345.891)" fill="#b16668"/>
                </g>
                <g id="Grupo_57602" data-name="Grupo 57602" transform="translate(17.094 149.661)">
                  <path id="Trazado_92725" data-name="Trazado 92725" d="M405.207,368.07a33.984,33.984,0,0,1-4.9,4.261,2.076,2.076,0,0,0-.681.7c-.231.48-.59,1.67,1.6,2.434a8.145,8.145,0,0,0,6.759-.649c1.8-1.126,1.88-3.468,3.577-4.8,1.258-.99,2.828-1.245,3.845-2.537.708-.9.523-2.1.154-3.583-.4-1.619-.588-2.844-1.124-2.72l.088.745c-.669,1.067-4.135,1.382-5.677.646A63.316,63.316,0,0,1,405.207,368.07Z" transform="translate(-399.453 -361.166)" fill="#263238"/>
                </g>
                <g id="Grupo_57603" data-name="Grupo 57603" transform="translate(19.896 145.421)">
                  <path id="Trazado_92726" data-name="Trazado 92726" d="M405.27,367.191v-.012c.52-.477,1.031-.969,1.52-1.5a42.283,42.283,0,0,0,2.828-4.17,7.246,7.246,0,0,0,1.2-3.1c.093-1.258.028-3.873.028-3.873l5.133.027.128,4.965h0c.132,1.221-.876,2.3-2.664,3.844s-4.057,5.132-5.674,6.035-2.775.87-3.465.408C403.6,369.337,403.527,368.971,405.27,367.191Z" transform="translate(-403.837 -354.533)" fill="#b16668"/>
                </g>
                <g id="Grupo_57604" data-name="Grupo 57604" transform="translate(3.373 60.792)">
                  <path id="Trazado_92727" data-name="Trazado 92727" d="M406.718,223.6c4.475,9.773-.615,46.83-.615,46.83.135,1.586,1.533,4.049,1.7,8.895.21,6.218-.893,29.182-.893,29.182a6.484,6.484,0,0,1-5.856.117s-5.3-31.171-6.333-39.371c-.9-7.157-2.635-23.979-2.635-23.979l-3.563,23.94a23.107,23.107,0,0,1,1.926,7.6c.127,4.845-.587,27.327-.587,27.327a13.559,13.559,0,0,1-5.949.2s-5.39-30.424-5.9-36.229c-.3-3.468,2.289-45.983,2.289-45.983Z" transform="translate(-377.988 -222.136)" fill="#37474f"/>
                </g>
                <g id="Grupo_57605" data-name="Grupo 57605" transform="translate(7.082 72.045)">
                  <path id="Trazado_92728" data-name="Trazado 92728" d="M394.176,251.625l-1.453-7.991s-6.146-1.273-8.933-3.894a15.9,15.9,0,0,0,7.268,4.829l1.632,6.989-1.613,20.887Z" transform="translate(-383.79 -239.74)" fill="#263238"/>
                </g>
                <g id="Grupo_57606" data-name="Grupo 57606" transform="translate(5.535 28.041)">
                  <path id="Trazado_92729" data-name="Trazado 92729" d="M399.2,171.127h0c3.925.543,6.031,1.409,7.3,5.1a14.392,14.392,0,0,1-.229,8.377l-3.432,10.028a54,54,0,0,1,5.1,10.484c-10.032,5.6-23.4,2.621-26.416-1.464-.128-.867.685-5.057.442-9.5-.259-4.74-1.02-10.184-.275-13.113a13.6,13.6,0,0,1,9.454-10.136Z" transform="translate(-381.37 -170.899)" fill="#f5f5f5"/>
                </g>
                <g id="Grupo_57607" data-name="Grupo 57607" transform="translate(7.468 5.192)">
                  <path id="Trazado_92730" data-name="Trazado 92730" d="M387.272,135.153c-1.356.8-3.032,4.212-2.867,11.363.14,6.06,2.1,7.557,3.091,7.989s2.889.169,4.738-.139V158s-2.556,2.968-2.4,4.636,3.691,2.062,6.083.433a15.485,15.485,0,0,0,3.925-4.109v-8.791a2.322,2.322,0,0,0,3.291.311c2.042-1.356,2.12-4.713.933-5.918s-3.746-.824-4.223.841a14.609,14.609,0,0,1-6.877-2.05A11.036,11.036,0,0,1,387.272,135.153Z" transform="translate(-384.394 -135.153)" fill="#b16668"/>
                </g>
                <g id="Grupo_57608" data-name="Grupo 57608" transform="translate(14.245 14.277)">
                  <path id="Trazado_92731" data-name="Trazado 92731" d="M395,150.121a.762.762,0,1,0,.8-.754A.775.775,0,0,0,395,150.121Z" transform="translate(-394.995 -149.366)" fill="#263238"/>
                </g>
                <g id="Grupo_57609" data-name="Grupo 57609" transform="translate(12.272 20.169)">
                  <path id="Trazado_92732" data-name="Trazado 92732" d="M393.68,158.584l-1.771.564a.913.913,0,0,0,1.151.635A.973.973,0,0,0,393.68,158.584Z" transform="translate(-391.909 -158.584)" fill="#9a4a4d"/>
                </g>
                <g id="Grupo_57610" data-name="Grupo 57610" transform="translate(7.844 11.198)">
                  <path id="Trazado_92733" data-name="Trazado 92733" d="M385.135,146.044l1.542-1.069a.9.9,0,0,0-1.28-.263A.985.985,0,0,0,385.135,146.044Z" transform="translate(-384.982 -144.549)" fill="#263238"/>
                </g>
                <g id="Grupo_57611" data-name="Grupo 57611" transform="translate(8.352 13.726)">
                  <path id="Trazado_92734" data-name="Trazado 92734" d="M385.777,149.259a.762.762,0,1,0,.8-.754A.774.774,0,0,0,385.777,149.259Z" transform="translate(-385.776 -148.504)" fill="#263238"/>
                </g>
                <g id="Grupo_57612" data-name="Grupo 57612" transform="translate(9.412 14.045)">
                  <path id="Trazado_92735" data-name="Trazado 92735" d="M389.971,149l-.121,4.587-2.414-.748Z" transform="translate(-387.435 -149.003)" fill="#9a4a4d"/>
                </g>
                <g id="Grupo_57613" data-name="Grupo 57613" transform="translate(15.308 21.412)">
                  <path id="Trazado_92736" data-name="Trazado 92736" d="M396.659,163.52c1.949-.256,5.959-1.408,6.583-2.992a4.105,4.105,0,0,1-1.406,2.022c-1.2,1.027-5.178,2.183-5.178,2.183Z" transform="translate(-396.659 -160.528)" fill="#9a4a4d"/>
                </g>
              </g>
            </g>
          </g>
          <g id="Grupo_57617" data-name="Grupo 57617" transform="translate(21.169 42.615)">
            <path id="Trazado_92737" data-name="Trazado 92737" d="M344.418,201.309a33.7,33.7,0,0,1,4.012,1.248,7.588,7.588,0,0,0,3.509,1c1.6.077,6.065-1.828,9.995-3.655a41.533,41.533,0,0,0,11.463-8.2,83.527,83.527,0,0,0,8.836-12.7c1.4-2.4,2.84-5.873,5.045-6.311,3.863.4,5.431,7.132,2.926,11.288a78.026,78.026,0,0,1-11.71,14.2c-2.3,2.233-6.521,4.651-12.561,7.236a82.137,82.137,0,0,1-12.2,4.2c-1.211.316-2.065.764-4.336,1.544a10.09,10.09,0,0,1-2.878.714,12.841,12.841,0,0,1-3.654-.391,8.686,8.686,0,0,1-4-2.26,5.469,5.469,0,0,1-1.337-2.153,3.64,3.64,0,0,1,.086-2.5,1,1,0,0,1,.293-.421,1.21,1.21,0,0,1,.905-.107,52.37,52.37,0,0,0,5.288.846c1.468.056,2.511-.107,2.327-.335s-1.05-.2-2.164-.833c-1.064-.6-1.749-1.829-1.363-2.4S343.227,200.859,344.418,201.309Z" transform="translate(-337.352 -172.692)" fill="#b16668"/>
          </g>
          <path id="Trazado_92738" data-name="Trazado 92738" d="M345.308,189.994a6.1,6.1,0,0,1,4.632-.771c1.468.241.906,5.8-3.819,7.349-3.075,1.007-3.7.488-4.691,3.018,0,0-1.856-.386-1.4-3.213a15.8,15.8,0,0,1,3.746-7.838c1.355-1.6,1.446-2.945,2.111-2.49.752.515.291,1.836.291,1.836Z" transform="translate(-317.123 -134.864)" fill="#b16668"/>
        </g>
      </g>
    </g>
  </g>
</svg>
