<svg xmlns="http://www.w3.org/2000/svg" xmlns:xlink="http://www.w3.org/1999/xlink" width="137.53" height="138.25" viewBox="0 0 137.53 138.25">
  <defs>
    <clipPath id="clip-path">
      <rect id="Rectángulo_7645" data-name="Rectángulo 7645" width="137.53" height="138.25" fill="none"/>
    </clipPath>
  </defs>
  <g id="Grupo_16569" data-name="Grupo 16569" transform="translate(-1141.536 -758)">
    <path id="Trazado_34280" data-name="Trazado 34280" d="M1234.438,896.25h-78.446l-6.258-69.125L1155.992,758h78.446a5.563,5.563,0,0,1,5.563,5.563V890.687a5.564,5.564,0,0,1-5.562,5.563Zm0,0" transform="translate(8.618 0)" fill="#feb254"/>
    <path id="Trazado_34281" data-name="Trazado 34281" d="M1218.956,763.563V890.687a5.561,5.561,0,0,1-5.563,5.563h-8.346a5.563,5.563,0,0,0,5.565-5.563v-4.164l-34.772-57.989,34.772-60.857v-4.115a5.563,5.563,0,0,0-5.565-5.563h8.346a5.561,5.561,0,0,1,5.563,5.563Zm0,0" transform="translate(36.06 0)" fill="#f6934c"/>
    <path id="Trazado_34282" data-name="Trazado 34282" d="M1151.429,883.667h83.453a1.39,1.39,0,0,0,1.391-1.391V763.431a1.39,1.39,0,0,0-1.391-1.391h-83.453Zm0,0" transform="translate(10.4 4.247)" fill="#fff"/>
    <path id="Trazado_34283" data-name="Trazado 34283" d="M1181.1,792.325h-20.534a1.391,1.391,0,0,1-1.245-2.012l10.268-20.535a1.391,1.391,0,0,1,2.488,0l10.266,20.535a1.39,1.39,0,0,1-1.243,2.012Zm0,0" transform="translate(18.538 11.572)" fill="#e1ccc7"/>
    <path id="Trazado_34284" data-name="Trazado 34284" d="M1186.966,791.779a11.126,11.126,0,1,1,11.128-11.128,11.126,11.126,0,0,1-11.128,11.128Zm0,0" transform="translate(36.06 12.118)" fill="#e1ccc7"/>
    <path id="Trazado_34285" data-name="Trazado 34285" d="M1176.969,808.732H1163.06a4.173,4.173,0,0,1-4.172-4.172V790.651a4.172,4.172,0,0,1,4.172-4.172h13.909a4.173,4.173,0,0,1,4.174,4.172V804.56a4.175,4.175,0,0,1-4.174,4.172Zm0,0" transform="translate(18.241 29.937)" fill="#e1ccc7"/>
    <path id="Trazado_34286" data-name="Trazado 34286" d="M1159.2,896.25h-6.954a5.563,5.563,0,0,1-5.563-5.563V763.563a5.562,5.562,0,0,1,5.563-5.563h6.954Zm0,0" transform="translate(5.411 0)" fill="#c88659"/>
    <path id="Trazado_34287" data-name="Trazado 34287" d="M1158.286,795.977a2.086,2.086,0,0,1-4.172,0,4.167,4.167,0,0,0-2.086-3.61,4.106,4.106,0,0,0-2.086-.562,4.172,4.172,0,1,0,0,8.344h2.086v4.174h-2.086a8.347,8.347,0,1,1,8.344-8.346Zm0,0" transform="translate(0.066 31.148)" fill="#5b525f"/>
    <path id="Trazado_34288" data-name="Trazado 34288" d="M1158.286,820.385a2.086,2.086,0,1,1-4.172,0,4.172,4.172,0,1,0-4.172,4.174h2.086v4.172h-2.086a8.344,8.344,0,1,1,0-16.688,8.236,8.236,0,0,1,2.086.265,8.358,8.358,0,0,1,6.258,8.078Zm0,0" transform="translate(0.066 56.809)" fill="#5b525f"/>
    <path id="Trazado_34289" data-name="Trazado 34289" d="M1158.286,808.181a2.086,2.086,0,0,1-4.172,0,4.166,4.166,0,0,0-2.086-3.61,4.1,4.1,0,0,0-2.086-.562,4.172,4.172,0,0,0,0,8.344h2.086v4.172h-2.086a8.344,8.344,0,1,1,8.344-8.344Zm0,0" transform="translate(0.066 43.979)" fill="#5b525f"/>
    <path id="Trazado_34290" data-name="Trazado 34290" d="M1158.286,771.567a2.086,2.086,0,0,1-4.172,0,4.17,4.17,0,0,0-2.086-3.612,4.105,4.105,0,0,0-2.086-.562,4.173,4.173,0,0,0,0,8.346h2.086v4.172h-2.086a8.346,8.346,0,1,1,8.344-8.344Zm0,0" transform="translate(0.066 5.488)" fill="#5b525f"/>
    <path id="Trazado_34291" data-name="Trazado 34291" d="M1158.286,783.771a2.086,2.086,0,1,1-4.172,0,4.167,4.167,0,0,0-2.086-3.61,4.106,4.106,0,0,0-2.086-.562,4.172,4.172,0,0,0,0,8.344h2.086v4.172h-2.086a8.344,8.344,0,0,1,0-16.688,8.23,8.23,0,0,1,2.086.265,8.358,8.358,0,0,1,6.258,8.079Zm0,0" transform="translate(0.066 18.319)" fill="#5b525f"/>
    <path id="Trazado_34292" data-name="Trazado 34292" d="M1172.016,829.211l43.229-43.227,14.687-3.711-3.708,14.689-43.229,43.227Zm0,0" transform="translate(32.041 25.517)" fill="#ffd766"/>
    <path id="Trazado_34293" data-name="Trazado 34293" d="M1225.537,797.4l-43.227,43.227-5.9-5.9,49.118-49.118Zm0,0" transform="translate(36.659 29.018)" fill="#ffc44f"/>
    <path id="Trazado_34294" data-name="Trazado 34294" d="M1225.1,782.166l-49.116,49.116-5.889-5.889,43.227-43.227Zm0,0" transform="translate(30.026 25.403)" fill="#ffc44f"/>
    <path id="Trazado_34295" data-name="Trazado 34295" d="M1171.955,804.169a12.484,12.484,0,0,0-3.586,7.46l-.223,2,11.831,11.421,8.849-11.866-9.019-9.019a5.552,5.552,0,0,0-7.852,0Zm0,0" transform="translate(27.973 46.822)" fill="#fbedee"/>
    <path id="Trazado_34296" data-name="Trazado 34296" d="M1186.048,817.56a12.519,12.519,0,0,1-7.46,3.585l-2,.222-3.916-4.5a16.971,16.971,0,0,0,1.7-1.924,12.521,12.521,0,0,0,5.778-3.28l3.924-3.928,1.977,1.977a5.554,5.554,0,0,1,0,7.852Zm0,0" transform="translate(32.726 52.277)" fill="#f2dfd9"/>
    <g id="Grupo_16568" data-name="Grupo 16568" transform="translate(1141.536 758)">
      <g id="Grupo_16567" data-name="Grupo 16567" clip-path="url(#clip-path)">
        <path id="Trazado_34297" data-name="Trazado 34297" d="M1208.366,799.177l-10.008-4.119-4.314-10.2,9.226-9.224a5.555,5.555,0,0,1,7.854,0l6.468,6.469a5.553,5.553,0,0,1,0,7.852Zm0,0" transform="translate(-1086.339 -741.177)" fill="#ea7682"/>
        <path id="Trazado_34298" data-name="Trazado 34298" d="M1215.483,791.032l-9.226,9.226-5.294-.607-.607-5.294,9.226-9.226a5.552,5.552,0,0,0,0-7.852l5.9,5.9a5.555,5.555,0,0,1,0,7.854Zm0,0" transform="translate(-1079.705 -737.734)" fill="#e55669"/>
      </g>
    </g>
    <path id="Trazado_34299" data-name="Trazado 34299" d="M1197.059,779.286l14.516,14.516-5.889,5.889-14.516-14.516Zm0,0" transform="translate(52.175 22.376)" fill="#c4e6f0"/>
    <path id="Trazado_34300" data-name="Trazado 34300" d="M1197.475,791.5l5.887-5.887,5.9,5.9-5.887,5.889Zm0,0" transform="translate(58.803 29.022)" fill="#99d5eb"/>
    <path id="Trazado_34301" data-name="Trazado 34301" d="M1170.974,819.009l-3.271-2.861.908-8.2a14.765,14.765,0,0,1,10.978,6.757c-1.37,4.213-8.615,4.3-8.615,4.3Zm0,0" transform="translate(27.506 52.506)" fill="#5b525f"/>
    <path id="Trazado_34302" data-name="Trazado 34302" d="M1182.086,817.678l-13.115,1.452a1.384,1.384,0,0,1-1.53-1.53l.548-4.915,10.2-1.132a12.143,12.143,0,0,0,1.682-.31,14.666,14.666,0,0,1,2.213,6.435Zm0,0" transform="translate(27.222 55.968)" fill="#4a424e"/>
  </g>
</svg>
