<svg xmlns="http://www.w3.org/2000/svg" width="260" height="260" viewBox="0 0 260 260">
  <g id="Grupo_57344" data-name="Grupo 57344" transform="translate(-58.974 -50.237)">
    <g id="Grupo_57308" data-name="Grupo 57308" transform="translate(118.22 220.418)">
      <g id="Grupo_57307" data-name="Grupo 57307">
        <path id="Trazado_92554" data-name="Trazado 92554" d="M154.949,122.684H84.2l70.753,41.172L225.7,122.684Z" transform="translate(-84.195 -122.684)" fill="#7421b0"/>
      </g>
    </g>
    <g id="Grupo_57310" data-name="Grupo 57310" transform="translate(188.974 98.884)">
      <g id="Grupo_57309" data-name="Grupo 57309">
        <path id="Trazado_92555" data-name="Trazado 92555" d="M149.694,131.206l35.377,61.274-.4-81.047L114.316,70.946Z" transform="translate(-114.316 -70.946)" fill="#ffa100"/>
      </g>
    </g>
    <g id="Grupo_57312" data-name="Grupo 57312" transform="translate(118.218 98.884)">
      <g id="Grupo_57311" data-name="Grupo 57311">
        <path id="Trazado_92556" data-name="Trazado 92556" d="M119.571,131.206,84.195,192.48l.4-81.047L154.95,70.946Z" transform="translate(-84.195 -70.946)" fill="#00b500"/>
      </g>
    </g>
    <g id="Grupo_57337" data-name="Grupo 57337" transform="translate(58.974 50.237)">
      <g id="Grupo_57314" data-name="Grupo 57314" transform="translate(187.525 38.078)">
        <g id="Grupo_57313" data-name="Grupo 57313">
          <path id="Trazado_92557" data-name="Trazado 92557" d="M159.878,137.308l47-12.593A129.837,129.837,0,0,0,173.2,66.447l-34.4,34.4A81.283,81.283,0,0,1,159.878,137.308Z" transform="translate(-138.805 -66.447)" fill="#f69f23"/>
        </g>
      </g>
      <g id="Grupo_57316" data-name="Grupo 57316" transform="translate(96.345 208.599)">
        <g id="Grupo_57315" data-name="Grupo 57315">
          <path id="Trazado_92558" data-name="Trazado 92558" d="M133.644,141.794a81.468,81.468,0,0,1-21.059-2.753l-12.6,47a130.958,130.958,0,0,0,67.311,0l-12.6-47A81.4,81.4,0,0,1,133.644,141.794Z" transform="translate(-99.989 -139.039)" fill="#7421b0"/>
        </g>
      </g>
      <g id="Grupo_57318" data-name="Grupo 57318" transform="translate(38.075 187.525)">
        <g id="Grupo_57317" data-name="Grupo 57317">
          <path id="Trazado_92559" data-name="Trazado 92559" d="M109.582,130.068l-34.4,34.4a129.87,129.87,0,0,0,58.27,33.678l12.6-47A81.261,81.261,0,0,1,109.582,130.068Z" transform="translate(-75.183 -130.068)" fill="#3a48ba"/>
        </g>
      </g>
      <g id="Grupo_57320" data-name="Grupo 57320" transform="translate(151.061 187.523)">
        <g id="Grupo_57319" data-name="Grupo 57319">
          <path id="Trazado_92560" data-name="Trazado 92560" d="M123.282,151.143l12.6,47a129.854,129.854,0,0,0,58.268-33.678l-34.4-34.4A81.241,81.241,0,0,1,123.282,151.143Z" transform="translate(-123.282 -130.067)" fill="#d2298e"/>
        </g>
      </g>
      <g id="Grupo_57322" data-name="Grupo 57322" transform="translate(4.397 151.061)">
        <g id="Grupo_57321" data-name="Grupo 57321">
          <path id="Trazado_92561" data-name="Trazado 92561" d="M107.848,114.545l-47,12.593a129.871,129.871,0,0,0,33.678,58.27l34.4-34.4A81.262,81.262,0,0,1,107.848,114.545Z" transform="translate(-60.846 -114.545)" fill="#006fc4"/>
        </g>
      </g>
      <g id="Grupo_57324" data-name="Grupo 57324" transform="translate(187.525 151.061)">
        <g id="Grupo_57323" data-name="Grupo 57323">
          <path id="Trazado_92562" data-name="Trazado 92562" d="M159.878,114.545a81.263,81.263,0,0,1-21.073,36.462l34.4,34.4a129.837,129.837,0,0,0,33.676-58.268Z" transform="translate(-138.805 -114.545)" fill="#ff2600"/>
        </g>
      </g>
      <g id="Grupo_57326" data-name="Grupo 57326" transform="translate(151.061 4.4)">
        <g id="Grupo_57325" data-name="Grupo 57325">
          <path id="Trazado_92563" data-name="Trazado 92563" d="M159.746,120.185l34.4-34.4A129.854,129.854,0,0,0,135.878,52.11l-12.6,47A81.258,81.258,0,0,1,159.746,120.185Z" transform="translate(-123.282 -52.11)" fill="#fac712"/>
        </g>
      </g>
      <g id="Grupo_57328" data-name="Grupo 57328" transform="translate(96.345)">
        <g id="Grupo_57327" data-name="Grupo 57327">
          <path id="Trazado_92564" data-name="Trazado 92564" d="M133.644,98.883a81.4,81.4,0,0,1,21.061,2.755l12.6-47a130.958,130.958,0,0,0-67.311,0c3.047,11.372,6.333,23.634,12.6,47A81.468,81.468,0,0,1,133.644,98.883Z" transform="translate(-99.989 -50.237)" fill="#feef00"/>
        </g>
      </g>
      <g id="Grupo_57330" data-name="Grupo 57330" transform="translate(208.599 96.345)">
        <g id="Grupo_57329" data-name="Grupo 57329">
          <path id="Trazado_92565" data-name="Trazado 92565" d="M150.529,124.907a81.4,81.4,0,0,1-2.753,21.061l47,12.593a130.915,130.915,0,0,0,0-67.309l-47,12.593A81.4,81.4,0,0,1,150.529,124.907Z" transform="translate(-147.776 -91.252)" fill="#fb6312"/>
        </g>
      </g>
      <g id="Grupo_57332" data-name="Grupo 57332" transform="translate(0 96.345)">
        <g id="Grupo_57331" data-name="Grupo 57331">
          <path id="Trazado_92566" data-name="Trazado 92566" d="M107.62,124.907a81.5,81.5,0,0,1,2.753-21.061l-47-12.593a130.983,130.983,0,0,0,0,67.309l47-12.593A81.5,81.5,0,0,1,107.62,124.907Z" transform="translate(-58.974 -91.252)" fill="#00afcf"/>
        </g>
      </g>
      <g id="Grupo_57334" data-name="Grupo 57334" transform="translate(38.075 4.397)">
        <g id="Grupo_57333" data-name="Grupo 57333">
          <path id="Trazado_92567" data-name="Trazado 92567" d="M146.049,99.111c-6.263-23.368-9.549-35.63-12.6-47a129.871,129.871,0,0,0-58.27,33.678l34.4,34.4A81.261,81.261,0,0,1,146.049,99.111Z" transform="translate(-75.183 -52.109)" fill="#7fd200"/>
        </g>
      </g>
      <g id="Grupo_57336" data-name="Grupo 57336" transform="translate(4.397 38.075)">
        <g id="Grupo_57335" data-name="Grupo 57335">
          <path id="Trazado_92568" data-name="Trazado 92568" d="M128.923,100.845l-34.4-34.4a129.871,129.871,0,0,0-33.678,58.27l47,12.593A81.262,81.262,0,0,1,128.923,100.845Z" transform="translate(-60.846 -66.446)" fill="#00b500"/>
        </g>
      </g>
    </g>
    <g id="Grupo_57339" data-name="Grupo 57339" transform="translate(159.04 98.883)">
      <g id="Grupo_57338" data-name="Grupo 57338">
        <path id="Trazado_92569" data-name="Trazado 92569" d="M161.44,122.366l-29.934-51.42-29.934,51.42L131.509,152.3Z" transform="translate(-101.573 -70.946)" fill="#feef00"/>
      </g>
    </g>
    <g id="Grupo_57341" data-name="Grupo 57341" transform="translate(118.224 150.303)">
      <g id="Grupo_57340" data-name="Grupo 57340">
        <path id="Trazado_92570" data-name="Trazado 92570" d="M125.014,92.836,84.2,162.95H154.95V122.77Z" transform="translate(-84.197 -92.836)" fill="#006fc4"/>
      </g>
    </g>
    <g id="Grupo_57343" data-name="Grupo 57343" transform="translate(188.975 150.304)">
      <g id="Grupo_57342" data-name="Grupo 57342">
        <path id="Trazado_92571" data-name="Trazado 92571" d="M144.25,92.836l-29.933,29.933V162.95h70.752Z" transform="translate(-114.317 -92.836)" fill="#ff2600"/>
      </g>
    </g>
  </g>
</svg>
