<svg id="Grupo_57370" data-name="Grupo 57370" xmlns="http://www.w3.org/2000/svg" width="144.738" height="144.737" viewBox="0 0 144.738 144.737">
  <g id="Grupo_57369" data-name="Grupo 57369">
    <g id="Grupo_57346" data-name="Grupo 57346" transform="translate(104.509 21.397)">
      <g id="Grupo_57345" data-name="Grupo 57345">
        <path id="Trazado_92572" data-name="Trazado 92572" d="M150.591,232.537l26.091-6.991A72.092,72.092,0,0,0,157.987,193.2L138.894,212.3A45.1,45.1,0,0,1,150.591,232.537Z" transform="translate(-138.894 -193.202)" fill="#c6c2c2"/>
      </g>
    </g>
    <g id="Grupo_57348" data-name="Grupo 57348" transform="translate(53.634 116.123)">
      <g id="Grupo_57347" data-name="Grupo 57347">
        <path id="Trazado_92573" data-name="Trazado 92573" d="M118.724,267.175A45.351,45.351,0,0,1,107,265.642l-7.012,26.165a72.9,72.9,0,0,0,37.471,0l-7.012-26.165A45.312,45.312,0,0,1,118.724,267.175Z" transform="translate(-99.989 -265.641)" fill="#c6c2c2"/>
      </g>
    </g>
    <g id="Grupo_57350" data-name="Grupo 57350" transform="translate(21.196 104.392)">
      <g id="Grupo_57349" data-name="Grupo 57349">
        <path id="Trazado_92574" data-name="Trazado 92574" d="M94.332,256.67,75.183,275.819a72.3,72.3,0,0,0,32.438,18.748l7.012-26.165A45.236,45.236,0,0,1,94.332,256.67Z" transform="translate(-75.183 -256.67)" fill="#c6c2c2"/>
      </g>
    </g>
    <g id="Grupo_57352" data-name="Grupo 57352" transform="translate(84.093 104.392)">
      <g id="Grupo_57351" data-name="Grupo 57351">
        <path id="Trazado_92575" data-name="Trazado 92575" d="M123.282,268.4l7.012,26.165a72.287,72.287,0,0,0,32.437-18.748L143.581,256.67A45.236,45.236,0,0,1,123.282,268.4Z" transform="translate(-123.282 -256.67)" fill="#c6c2c2"/>
      </g>
    </g>
    <g id="Grupo_57354" data-name="Grupo 57354" transform="translate(2.448 84.093)">
      <g id="Grupo_57353" data-name="Grupo 57353">
        <path id="Trazado_92576" data-name="Trazado 92576" d="M87.011,241.147l-26.165,7.01A72.3,72.3,0,0,0,79.594,280.6l19.149-19.149A45.238,45.238,0,0,1,87.011,241.147Z" transform="translate(-60.846 -241.147)" fill="#006fc4"/>
      </g>
    </g>
    <g id="Grupo_57356" data-name="Grupo 57356" transform="translate(104.392 84.093)">
      <g id="Grupo_57355" data-name="Grupo 57355">
        <path id="Trazado_92577" data-name="Trazado 92577" d="M150.536,241.147a45.249,45.249,0,0,1-11.731,20.3l19.149,19.148A72.271,72.271,0,0,0,176.7,248.157Z" transform="translate(-138.805 -241.147)" fill="#ff2600"/>
      </g>
    </g>
    <g id="Grupo_57358" data-name="Grupo 57358" transform="translate(84.093 2.449)">
      <g id="Grupo_57357" data-name="Grupo 57357">
        <path id="Trazado_92578" data-name="Trazado 92578" d="M143.581,216.609,162.73,197.46a72.3,72.3,0,0,0-32.437-18.748l-7.012,26.165A45.225,45.225,0,0,1,143.581,216.609Z" transform="translate(-123.282 -178.712)" fill="#c6c2c2"/>
      </g>
    </g>
    <g id="Grupo_57360" data-name="Grupo 57360" transform="translate(53.634)">
      <g id="Grupo_57359" data-name="Grupo 57359">
        <path id="Trazado_92579" data-name="Trazado 92579" d="M118.724,203.919a45.313,45.313,0,0,1,11.725,1.534l7.012-26.165a72.9,72.9,0,0,0-37.471,0c1.7,6.33,3.525,13.158,7.012,26.165A45.351,45.351,0,0,1,118.724,203.919Z" transform="translate(-99.989 -176.839)" fill="#feef00"/>
      </g>
    </g>
    <g id="Grupo_57362" data-name="Grupo 57362" transform="translate(116.206 53.741)">
      <g id="Grupo_57361" data-name="Grupo 57361">
        <path id="Trazado_92580" data-name="Trazado 92580" d="M149.368,236.617a45.221,45.221,0,0,1-1.529,11.691L173.93,255.3a72.694,72.694,0,0,0,0-37.363l-26.091,6.991A45.228,45.228,0,0,1,149.368,236.617Z" transform="translate(-147.839 -217.936)" fill="#c6c2c2"/>
      </g>
    </g>
    <g id="Grupo_57364" data-name="Grupo 57364" transform="translate(0 53.634)">
      <g id="Grupo_57363" data-name="Grupo 57363">
        <path id="Trazado_92581" data-name="Trazado 92581" d="M86.054,236.589a45.37,45.37,0,0,1,1.533-11.725l-26.165-7.01a72.916,72.916,0,0,0,0,37.47l26.165-7.01A45.37,45.37,0,0,1,86.054,236.589Z" transform="translate(-58.974 -217.854)" fill="#c6c2c2"/>
      </g>
    </g>
    <g id="Grupo_57366" data-name="Grupo 57366" transform="translate(21.196 2.448)">
      <g id="Grupo_57365" data-name="Grupo 57365">
        <path id="Trazado_92582" data-name="Trazado 92582" d="M114.633,204.876c-3.486-13.007-5.316-19.835-7.012-26.165a72.3,72.3,0,0,0-32.438,18.748l19.149,19.149A45.236,45.236,0,0,1,114.633,204.876Z" transform="translate(-75.183 -178.711)" fill="#c6c2c2"/>
      </g>
    </g>
    <g id="Grupo_57368" data-name="Grupo 57368" transform="translate(2.448 21.196)">
      <g id="Grupo_57367" data-name="Grupo 57367">
        <path id="Trazado_92583" data-name="Trazado 92583" d="M98.743,212.2,79.594,193.048a72.3,72.3,0,0,0-18.748,32.438l26.165,7.01A45.237,45.237,0,0,1,98.743,212.2Z" transform="translate(-60.846 -193.048)" fill="#c6c2c2"/>
      </g>
    </g>
  </g>
</svg>
