<svg id="Grupo_57396" data-name="Grupo 57396" xmlns="http://www.w3.org/2000/svg" width="144.738" height="144.739" viewBox="0 0 144.738 144.739">
  <g id="Grupo_57395" data-name="Grupo 57395">
    <g id="Grupo_57372" data-name="Grupo 57372" transform="translate(104.392 21.197)">
      <g id="Grupo_57371" data-name="Grupo 57371">
        <path id="Trazado_92584" data-name="Trazado 92584" d="M141.572,365.853l26.165-7.01a72.3,72.3,0,0,0-18.748-32.438L129.84,345.554A45.249,45.249,0,0,1,141.572,365.853Z" transform="translate(-129.84 -326.405)" fill="#f69f23"/>
      </g>
    </g>
    <g id="Grupo_57374" data-name="Grupo 57374" transform="translate(53.634 116.125)">
      <g id="Grupo_57373" data-name="Grupo 57373">
        <path id="Trazado_92585" data-name="Trazado 92585" d="M109.759,400.531A45.351,45.351,0,0,1,98.036,399l-7.012,26.165a72.883,72.883,0,0,0,37.471,0L121.483,399A45.368,45.368,0,0,1,109.759,400.531Z" transform="translate(-91.024 -398.998)" fill="#7421b0"/>
      </g>
    </g>
    <g id="Grupo_57376" data-name="Grupo 57376" transform="translate(21.196 104.394)">
      <g id="Grupo_57375" data-name="Grupo 57375">
        <path id="Trazado_92586" data-name="Trazado 92586" d="M85.367,390.027,66.218,409.176a72.289,72.289,0,0,0,32.438,18.747l7.012-26.165A45.246,45.246,0,0,1,85.367,390.027Z" transform="translate(-66.218 -390.027)" fill="#c6c2c2"/>
      </g>
    </g>
    <g id="Grupo_57378" data-name="Grupo 57378" transform="translate(84.093 104.392)">
      <g id="Grupo_57377" data-name="Grupo 57377">
        <path id="Trazado_92587" data-name="Trazado 92587" d="M114.317,401.758l7.012,26.165a72.292,72.292,0,0,0,32.437-18.748l-19.149-19.149A45.237,45.237,0,0,1,114.317,401.758Z" transform="translate(-114.317 -390.026)" fill="#c6c2c2"/>
      </g>
    </g>
    <g id="Grupo_57380" data-name="Grupo 57380" transform="translate(2.441 84.006)">
      <g id="Grupo_57379" data-name="Grupo 57379">
        <path id="Trazado_92588" data-name="Trazado 92588" d="M77.965,374.436l-26.089,6.991A72.066,72.066,0,0,0,70.57,413.771l19.093-19.093A45.115,45.115,0,0,1,77.965,374.436Z" transform="translate(-51.876 -374.436)" fill="#c6c2c2"/>
      </g>
    </g>
    <g id="Grupo_57382" data-name="Grupo 57382" transform="translate(104.392 84.093)">
      <g id="Grupo_57381" data-name="Grupo 57381">
        <path id="Trazado_92589" data-name="Trazado 92589" d="M141.572,374.5a45.25,45.25,0,0,1-11.732,20.3l19.149,19.149a72.3,72.3,0,0,0,18.748-32.438Z" transform="translate(-129.84 -374.503)" fill="#c6c2c2"/>
      </g>
    </g>
    <g id="Grupo_57384" data-name="Grupo 57384" transform="translate(84.093 2.449)">
      <g id="Grupo_57383" data-name="Grupo 57383">
        <path id="Trazado_92590" data-name="Trazado 92590" d="M134.616,349.965l19.149-19.149a72.293,72.293,0,0,0-32.437-18.748l-7.012,26.165A45.237,45.237,0,0,1,134.616,349.965Z" transform="translate(-114.317 -312.068)" fill="#c6c2c2"/>
      </g>
    </g>
    <g id="Grupo_57386" data-name="Grupo 57386" transform="translate(53.634)">
      <g id="Grupo_57385" data-name="Grupo 57385">
        <path id="Trazado_92591" data-name="Trazado 92591" d="M109.759,337.277a45.37,45.37,0,0,1,11.725,1.533l7.012-26.165a72.885,72.885,0,0,0-37.471,0l7.012,26.165A45.3,45.3,0,0,1,109.759,337.277Z" transform="translate(-91.024 -310.195)" fill="#c6c2c2"/>
      </g>
    </g>
    <g id="Grupo_57388" data-name="Grupo 57388" transform="translate(116.125 53.635)">
      <g id="Grupo_57387" data-name="Grupo 57387">
        <path id="Trazado_92592" data-name="Trazado 92592" d="M140.343,369.945a45.369,45.369,0,0,1-1.531,11.725l26.165,7.01a72.912,72.912,0,0,0,0-37.469l-26.165,7.01A45.367,45.367,0,0,1,140.343,369.945Z" transform="translate(-138.812 -351.211)" fill="#c6c2c2"/>
      </g>
    </g>
    <g id="Grupo_57390" data-name="Grupo 57390" transform="translate(0 53.634)">
      <g id="Grupo_57389" data-name="Grupo 57389">
        <path id="Trazado_92593" data-name="Trazado 92593" d="M77.011,369.891A45.228,45.228,0,0,1,78.54,358.2L52.45,351.21a72.694,72.694,0,0,0,0,37.363l26.089-6.991A45.221,45.221,0,0,1,77.011,369.891Z" transform="translate(-50.009 -351.21)" fill="#c6c2c2"/>
      </g>
    </g>
    <g id="Grupo_57392" data-name="Grupo 57392" transform="translate(21.196 2.449)">
      <g id="Grupo_57391" data-name="Grupo 57391">
        <path id="Trazado_92594" data-name="Trazado 92594" d="M105.668,338.233l-7.012-26.165a72.289,72.289,0,0,0-32.438,18.747l19.149,19.149A45.247,45.247,0,0,1,105.668,338.233Z" transform="translate(-66.218 -312.068)" fill="#c6c2c2"/>
      </g>
    </g>
    <g id="Grupo_57394" data-name="Grupo 57394" transform="translate(2.448 21.196)">
      <g id="Grupo_57393" data-name="Grupo 57393">
        <path id="Trazado_92595" data-name="Trazado 92595" d="M89.778,345.553,70.629,326.4a72.3,72.3,0,0,0-18.748,32.438l26.165,7.012A45.242,45.242,0,0,1,89.778,345.553Z" transform="translate(-51.881 -326.404)" fill="#00b500"/>
      </g>
    </g>
  </g>
</svg>
