<svg xmlns="http://www.w3.org/2000/svg" width="144.738" height="144.737" viewBox="0 0 144.738 144.737">
  <g id="Grupo_57422" data-name="Grupo 57422" transform="translate(0 -158)">
    <g id="Grupo_57421" data-name="Grupo 57421" transform="translate(0 158)">
      <g id="Grupo_57398" data-name="Grupo 57398" transform="translate(104.394 21.197)">
        <g id="Grupo_57397" data-name="Grupo 57397">
          <path id="Trazado_92596" data-name="Trazado 92596" d="M559.405,257.149l26.165-7.012A72.292,72.292,0,0,0,566.822,217.7L547.674,236.85A45.235,45.235,0,0,1,559.405,257.149Z" transform="translate(-547.674 -217.701)" fill="#c6c2c2"/>
        </g>
      </g>
      <g id="Grupo_57400" data-name="Grupo 57400" transform="translate(53.635 116.123)">
        <g id="Grupo_57399" data-name="Grupo 57399">
          <path id="Trazado_92597" data-name="Trazado 92597" d="M527.592,291.827a45.366,45.366,0,0,1-11.723-1.533l-7.01,26.165a72.9,72.9,0,0,0,37.47,0l-7.01-26.165A45.323,45.323,0,0,1,527.592,291.827Z" transform="translate(-508.858 -290.293)" fill="#c6c2c2"/>
        </g>
      </g>
      <g id="Grupo_57402" data-name="Grupo 57402" transform="translate(21.197 104.392)">
        <g id="Grupo_57401" data-name="Grupo 57401">
          <path id="Trazado_92598" data-name="Trazado 92598" d="M503.2,281.322l-19.149,19.149a72.3,72.3,0,0,0,32.438,18.748l7.01-26.165A45.225,45.225,0,0,1,503.2,281.322Z" transform="translate(-484.052 -281.322)" fill="#3a48ba"/>
        </g>
      </g>
      <g id="Grupo_57404" data-name="Grupo 57404" transform="translate(84.095 104.392)">
        <g id="Grupo_57403" data-name="Grupo 57403">
          <path id="Trazado_92599" data-name="Trazado 92599" d="M532.151,293.053l7.01,26.165A72.273,72.273,0,0,0,571.6,300.47L552.45,281.322A45.249,45.249,0,0,1,532.151,293.053Z" transform="translate(-532.151 -281.322)" fill="#d2298e"/>
        </g>
      </g>
      <g id="Grupo_57406" data-name="Grupo 57406" transform="translate(2.449 84.093)">
        <g id="Grupo_57405" data-name="Grupo 57405">
          <path id="Trazado_92600" data-name="Trazado 92600" d="M495.88,265.8l-26.165,7.01a72.285,72.285,0,0,0,18.748,32.438L507.612,286.1A45.224,45.224,0,0,1,495.88,265.8Z" transform="translate(-469.715 -265.799)" fill="#c6c2c2"/>
        </g>
      </g>
      <g id="Grupo_57408" data-name="Grupo 57408" transform="translate(104.394 84.093)">
        <g id="Grupo_57407" data-name="Grupo 57407">
          <path id="Trazado_92601" data-name="Trazado 92601" d="M559.405,265.8a45.249,45.249,0,0,1-11.731,20.3l19.148,19.148a72.285,72.285,0,0,0,18.748-32.437Z" transform="translate(-547.674 -265.799)" fill="#c6c2c2"/>
        </g>
      </g>
      <g id="Grupo_57410" data-name="Grupo 57410" transform="translate(84.095 2.449)">
        <g id="Grupo_57409" data-name="Grupo 57409">
          <path id="Trazado_92602" data-name="Trazado 92602" d="M552.45,241.261,571.6,222.112a72.286,72.286,0,0,0-32.437-18.748l-7.01,26.165A45.239,45.239,0,0,1,552.45,241.261Z" transform="translate(-532.151 -203.364)" fill="#fac712"/>
        </g>
      </g>
      <g id="Grupo_57412" data-name="Grupo 57412" transform="translate(53.635)">
        <g id="Grupo_57411" data-name="Grupo 57411">
          <path id="Trazado_92603" data-name="Trazado 92603" d="M527.592,228.571a45.325,45.325,0,0,1,11.726,1.534l7.01-26.165a72.9,72.9,0,0,0-37.47,0l7.01,26.165A45.367,45.367,0,0,1,527.592,228.571Z" transform="translate(-508.858 -201.491)" fill="#c6c2c2"/>
        </g>
      </g>
      <g id="Grupo_57414" data-name="Grupo 57414" transform="translate(116.125 53.634)">
        <g id="Grupo_57413" data-name="Grupo 57413">
          <path id="Trazado_92604" data-name="Trazado 92604" d="M558.178,261.241a45.371,45.371,0,0,1-1.533,11.725l26.165,7.01a72.915,72.915,0,0,0,0-37.47l-26.165,7.012A45.354,45.354,0,0,1,558.178,261.241Z" transform="translate(-556.645 -242.506)" fill="#fb6312"/>
        </g>
      </g>
      <g id="Grupo_57416" data-name="Grupo 57416" transform="translate(0 53.634)">
        <g id="Grupo_57415" data-name="Grupo 57415">
          <path id="Trazado_92605" data-name="Trazado 92605" d="M494.924,261.241a45.313,45.313,0,0,1,1.533-11.725l-26.165-7.01a72.88,72.88,0,0,0,0,37.47l26.165-7.01A45.313,45.313,0,0,1,494.924,261.241Z" transform="translate(-467.842 -242.506)" fill="#00afcf"/>
        </g>
      </g>
      <g id="Grupo_57418" data-name="Grupo 57418" transform="translate(21.197 2.448)">
        <g id="Grupo_57417" data-name="Grupo 57417">
          <path id="Trazado_92606" data-name="Trazado 92606" d="M523.5,229.528l-7.01-26.165a72.3,72.3,0,0,0-32.438,18.748L503.2,241.26A45.226,45.226,0,0,1,523.5,229.528Z" transform="translate(-484.052 -203.363)" fill="#7fd200"/>
        </g>
      </g>
      <g id="Grupo_57420" data-name="Grupo 57420" transform="translate(2.449 21.196)">
        <g id="Grupo_57419" data-name="Grupo 57419">
          <path id="Trazado_92607" data-name="Trazado 92607" d="M507.612,236.849,488.463,217.7a72.285,72.285,0,0,0-18.748,32.438l26.165,7.01A45.225,45.225,0,0,1,507.612,236.849Z" transform="translate(-469.715 -217.7)" fill="#c6c2c2"/>
        </g>
      </g>
    </g>
  </g>
</svg>
