<svg id="Grupo_57448" data-name="Grupo 57448" xmlns="http://www.w3.org/2000/svg" width="172.243" height="172.242" viewBox="0 0 172.243 172.242">
  <g id="Grupo_57447" data-name="Grupo 57447">
    <g id="Grupo_57424" data-name="Grupo 57424" transform="translate(124.231 25.225)">
      <g id="Grupo_57423" data-name="Grupo 57423">
        <path id="Trazado_92608" data-name="Trazado 92608" d="M283.193,115.573l31.137-8.344a86.036,86.036,0,0,0-22.309-38.6L269.233,91.416A53.831,53.831,0,0,1,283.193,115.573Z" transform="translate(-269.233 -68.628)" fill="#f69f23"/>
      </g>
    </g>
    <g id="Grupo_57426" data-name="Grupo 57426" transform="translate(63.827 138.192)">
      <g id="Grupo_57425" data-name="Grupo 57425" transform="translate(0 0)">
        <path id="Trazado_92609" data-name="Trazado 92609" d="M252.712,143.045a53.97,53.97,0,0,1-13.951-1.824l-8.344,31.137a86.771,86.771,0,0,0,44.59,0l-8.343-31.137A54,54,0,0,1,252.712,143.045Z" transform="translate(-230.417 -141.221)" fill="#7421b0"/>
      </g>
    </g>
    <g id="Grupo_57428" data-name="Grupo 57428" transform="translate(25.225 124.231)">
      <g id="Grupo_57427" data-name="Grupo 57427">
        <path id="Trazado_92610" data-name="Trazado 92610" d="M228.4,132.25l-22.788,22.787a86.035,86.035,0,0,0,38.6,22.311l8.344-31.137A53.836,53.836,0,0,1,228.4,132.25Z" transform="translate(-205.611 -132.25)" fill="#3a48ba"/>
      </g>
    </g>
    <g id="Grupo_57430" data-name="Grupo 57430" transform="translate(100.075 124.23)">
      <g id="Grupo_57429" data-name="Grupo 57429" transform="translate(0 0)">
        <path id="Trazado_92611" data-name="Trazado 92611" d="M253.71,146.211l8.343,31.137a86.035,86.035,0,0,0,38.6-22.311l-22.788-22.788A53.848,53.848,0,0,1,253.71,146.211Z" transform="translate(-253.71 -132.249)" fill="#d2298e"/>
      </g>
    </g>
    <g id="Grupo_57432" data-name="Grupo 57432" transform="translate(2.915 100.073)">
      <g id="Grupo_57431" data-name="Grupo 57431">
        <path id="Trazado_92612" data-name="Trazado 92612" d="M222.411,116.726l-31.137,8.344a86.03,86.03,0,0,0,22.311,38.6l22.788-22.787A53.848,53.848,0,0,1,222.411,116.726Z" transform="translate(-191.274 -116.726)" fill="#006fc4"/>
      </g>
    </g>
    <g id="Grupo_57434" data-name="Grupo 57434" transform="translate(124.231 100.073)">
      <g id="Grupo_57433" data-name="Grupo 57433">
        <path id="Trazado_92613" data-name="Trazado 92613" d="M283.193,116.726a53.848,53.848,0,0,1-13.96,24.156l22.788,22.788a86.02,86.02,0,0,0,22.309-38.6Z" transform="translate(-269.233 -116.726)" fill="#ff2600"/>
      </g>
    </g>
    <g id="Grupo_57436" data-name="Grupo 57436" transform="translate(100.075 2.915)">
      <g id="Grupo_57435" data-name="Grupo 57435">
        <path id="Trazado_92614" data-name="Trazado 92614" d="M277.866,99.39,300.655,76.6a86.035,86.035,0,0,0-38.6-22.311L253.71,85.428A53.82,53.82,0,0,1,277.866,99.39Z" transform="translate(-253.71 -54.291)" fill="#fac712"/>
      </g>
    </g>
    <g id="Grupo_57438" data-name="Grupo 57438" transform="translate(63.827)">
      <g id="Grupo_57437" data-name="Grupo 57437">
        <path id="Trazado_92615" data-name="Trazado 92615" d="M252.712,84.646a53.933,53.933,0,0,1,13.952,1.824l8.343-31.137a86.749,86.749,0,0,0-44.59,0c2.018,7.533,4.2,15.658,8.344,31.137A53.97,53.97,0,0,1,252.712,84.646Z" transform="translate(-230.417 -52.418)" fill="#feef00"/>
      </g>
    </g>
    <g id="Grupo_57440" data-name="Grupo 57440" transform="translate(138.191 63.826)">
      <g id="Grupo_57439" data-name="Grupo 57439">
        <path id="Trazado_92616" data-name="Trazado 92616" d="M280.028,115.728a53.925,53.925,0,0,1-1.824,13.952l31.137,8.343a86.729,86.729,0,0,0,0-44.59L278.2,101.777A53.914,53.914,0,0,1,280.028,115.728Z" transform="translate(-278.204 -93.433)" fill="#fb6312"/>
      </g>
    </g>
    <g id="Grupo_57442" data-name="Grupo 57442" transform="translate(0 63.826)">
      <g id="Grupo_57441" data-name="Grupo 57441">
        <path id="Trazado_92617" data-name="Trazado 92617" d="M221.629,115.728a54,54,0,0,1,1.824-13.953l-31.137-8.343a86.734,86.734,0,0,0,0,44.592l31.137-8.344A53.99,53.99,0,0,1,221.629,115.728Z" transform="translate(-189.401 -93.433)" fill="#00afcf"/>
      </g>
    </g>
    <g id="Grupo_57444" data-name="Grupo 57444" transform="translate(25.225 2.913)">
      <g id="Grupo_57443" data-name="Grupo 57443">
        <path id="Trazado_92618" data-name="Trazado 92618" d="M252.557,85.427c-4.149-15.479-6.326-23.6-8.344-31.137a86.035,86.035,0,0,0-38.6,22.311L228.4,99.389A53.839,53.839,0,0,1,252.557,85.427Z" transform="translate(-205.611 -54.29)" fill="#7fd200"/>
      </g>
    </g>
    <g id="Grupo_57446" data-name="Grupo 57446" transform="translate(2.915 25.224)">
      <g id="Grupo_57445" data-name="Grupo 57445">
        <path id="Trazado_92619" data-name="Trazado 92619" d="M236.373,91.415,213.585,68.627a86.036,86.036,0,0,0-22.311,38.6l31.137,8.343A53.842,53.842,0,0,1,236.373,91.415Z" transform="translate(-191.274 -68.627)" fill="#00b500"/>
      </g>
    </g>
  </g>
  <ellipse id="Elipse_3632" data-name="Elipse 3632" cx="8.412" cy="8.412" rx="8.412" ry="8.412" transform="translate(77.429 8.4)" fill="none" stroke="#000" stroke-miterlimit="10" stroke-width="1"/>
  <ellipse id="Elipse_3633" data-name="Elipse 3633" cx="8.412" cy="8.412" rx="8.412" ry="8.412" transform="translate(77.429 146.805)" fill="none" stroke="#000" stroke-miterlimit="10" stroke-width="1"/>
</svg>
