<svg xmlns="http://www.w3.org/2000/svg" xmlns:xlink="http://www.w3.org/1999/xlink" width="316.5" height="307.492" viewBox="0 0 316.5 307.492">
  <defs>
    <clipPath id="clip-path">
      <path id="Trazado_33934" data-name="Trazado 33934" d="M199.081,148.9c-7.3,0-14.11-1.612-19.178-4.537-4.475-2.584-6.941-5.814-6.941-9.094s-11.025-83.1-11.025-83.1l26.434-21.738,52.5,19.057S225.6,131.99,225.6,135.27s-2.767,6.681-7.242,9.264C213.287,147.461,206.381,148.9,199.081,148.9Z" transform="translate(-161.937 -30.432)" fill="none"/>
    </clipPath>
  </defs>
  <g id="Grupo_16125" data-name="Grupo 16125" transform="translate(-24.963 -30.432)">
    <g id="Floor" transform="translate(24.963 172.581)">
      <path id="Floor-2" data-name="Floor" d="M71.314,373.7c61.8,32.285,162,32.285,223.8,0s61.8-84.63,0-116.915-162-32.285-223.8,0S9.513,341.416,71.314,373.7Z" transform="translate(-24.963 -232.574)" fill="#f5f5f5"/>
    </g>
    <g id="Shadows" transform="translate(45.276 252.981)">
      <ellipse id="Shadow" cx="28.406" cy="13.539" rx="28.406" ry="13.539" fill="#e0e0e0"/>
    </g>
    <g id="Draw" transform="translate(106.571 223.49)">
      <g id="Draw-2" data-name="Draw">
        <g id="Grupo_16068" data-name="Grupo 16068">
          <path id="Trazado_33811" data-name="Trazado 33811" d="M213.763,401.311l-71.91-41.517a1.858,1.858,0,0,1-.84-1.456v-1.094a1.858,1.858,0,0,1,.84-1.456l87.678-50.62a1.859,1.859,0,0,1,1.681,0l71.909,41.517a1.858,1.858,0,0,1,.84,1.456v1.094a1.859,1.859,0,0,1-.84,1.456l-87.678,50.62A1.858,1.858,0,0,1,213.763,401.311Z" transform="translate(-141.013 -304.967)" fill="#ebebeb"/>
          <path id="Trazado_33812" data-name="Trazado 33812" d="M303.329,347.655l-87.679,50.62a1.858,1.858,0,0,1-1.681,0l-71.909-41.517a.512.512,0,0,1,0-.97l87.678-50.62a1.859,1.859,0,0,1,1.681,0l71.909,41.517A.512.512,0,0,1,303.329,347.655Z" transform="translate(-141.221 -304.967)" fill="#fafafa"/>
          <path id="Trazado_33813" data-name="Trazado 33813" d="M303.329,347.655l-87.679,50.62a1.858,1.858,0,0,1-1.681,0l-71.909-41.517a.512.512,0,0,1,0-.97l87.678-50.62a1.859,1.859,0,0,1,1.681,0l71.909,41.517A.512.512,0,0,1,303.329,347.655Z" transform="translate(-141.221 -304.967)" fill="#fafafa"/>
          <path id="Trazado_33814" data-name="Trazado 33814" d="M214.6,420.258v2.75a1.774,1.774,0,0,1-.841-.2l-71.91-41.519a1.848,1.848,0,0,1-.841-1.456v-1.093a1.856,1.856,0,0,1,.686-1.346c-.3.265-.252.628.155.861l71.91,41.519a.837.837,0,0,0,.22.091Z" transform="translate(-141.013 -326.462)" fill="#e0e0e0"/>
        </g>
        <g id="Rocket" transform="translate(19.012 26.42)">
          <g id="Grupo_16069" data-name="Grupo 16069" transform="translate(0 21.045)">
            <path id="Trazado_33815" data-name="Trazado 33815" d="M179.28,372.594a.238.238,0,0,1-.032.108.458.458,0,0,1-.076.1l-.4.165-9.351.477a.991.991,0,0,0-.721.473c-.148.253-.068.459.177.471l8.816.45.207.166a.305.305,0,0,1-.042.1.516.516,0,0,1-.4.24l-8.894-.455c-.5-.025-.665-.452-.366-.973a2.052,2.052,0,0,1,1.488-.976l9.434-.482C179.224,372.459,179.282,372.512,179.28,372.594Z" transform="translate(-168.049 -372.464)" fill="#455a64"/>
          </g>
          <g id="Grupo_16070" data-name="Grupo 16070" transform="translate(86.431 14.739)">
            <path id="Trazado_33816" data-name="Trazado 33816" d="M298.145,364.268a.285.285,0,0,1-.057.149.5.5,0,0,1-.406.222c-.023,0-2.335-.276-6.6-.641-.131-.013-.163-.135-.074-.272a.508.508,0,0,1,.4-.23c4.273.366,6.591.64,6.614.643A.121.121,0,0,1,298.145,364.268Z" transform="translate(-290.957 -363.496)" fill="#455a64"/>
          </g>
          <g id="Grupo_16071" data-name="Grupo 16071" transform="translate(77.916 28.86)">
            <path id="Trazado_33817" data-name="Trazado 33817" d="M286.788,383.707a.244.244,0,0,1-.024.094.535.535,0,0,1-.383.278c-.025,0-2.664.284-7.366.663-.146.012-.207-.093-.14-.229a.528.528,0,0,1,.387-.272c4.693-.379,7.325-.66,7.351-.662C286.724,383.567,286.79,383.621,286.788,383.707Z" transform="translate(-278.848 -383.577)" fill="#455a64"/>
          </g>
          <g id="Grupo_16072" data-name="Grupo 16072" transform="translate(8.237 12.981)">
            <path id="Trazado_33818" data-name="Trazado 33818" d="M247.421,362.076a.276.276,0,0,1-.049.136.509.509,0,0,1-.4.236c-3.907-.239-7.993-.447-12.146-.617-18.955-.773-25.261-.074-31.015.847-6.24,1-22.126,6.783-23.488,7.827.159,1.044,9.4,6.791,14.5,7.772,4.7.905,10.216,1.587,30.093.757,4.343-.181,8.676-.4,12.877-.653.143-.008.2.1.131.236a.532.532,0,0,1-.39.267c-4.2.252-8.54.472-12.887.654-19.927.832-25.465.146-30.2-.764-4.574-.88-15.4-6.98-14.654-8.266s18.613-7.43,24.209-8.325c5.786-.925,12.123-1.628,31.127-.853,4.155.169,8.245.378,12.155.617A.123.123,0,0,1,247.421,362.076Z" transform="translate(-179.762 -360.996)" fill="#455a64"/>
          </g>
          <g id="Grupo_16073" data-name="Grupo 16073" transform="translate(27.028 16.571)">
            <path id="Trazado_33819" data-name="Trazado 33819" d="M219.819,367.8a3.139,3.139,0,0,0-3.151-1.7,10.075,10.075,0,0,0-5.157,1.728,13.813,13.813,0,0,0-2.381,1.908,11.459,11.459,0,0,0-1.74,2.252,5.538,5.538,0,0,0-.873,3.416c.22,1.546,1.482,2.465,3.378,2.458a10.02,10.02,0,0,0,5.157-1.727,12.58,12.58,0,0,0,4.122-4.16,6.06,6.06,0,0,0,.9-2.815A3.136,3.136,0,0,0,219.819,367.8Zm-1.152,4.18a11.443,11.443,0,0,1-3.772,3.8,9.221,9.221,0,0,1-4.71,1.585c-1.74,0-2.892-.841-3.086-2.252a2.994,2.994,0,0,1-.032-.544,5.613,5.613,0,0,1,.828-2.582,11.533,11.533,0,0,1,3.766-3.8,9.185,9.185,0,0,1,4.716-1.579,2.883,2.883,0,0,1,2.886,1.546A4.333,4.333,0,0,1,218.667,371.976Z" transform="translate(-206.485 -366.101)" fill="#455a64"/>
            <path id="Trazado_33820" data-name="Trazado 33820" d="M219.508,368.365a2.883,2.883,0,0,0-2.886-1.546,9.185,9.185,0,0,0-4.716,1.579,11.533,11.533,0,0,0-3.766,3.8,5.613,5.613,0,0,0-.828,2.581,2.992,2.992,0,0,0,.032.544c.194,1.411,1.346,2.252,3.086,2.252a9.221,9.221,0,0,0,4.71-1.585,11.443,11.443,0,0,0,3.772-3.8A4.333,4.333,0,0,0,219.508,368.365Zm-1.857,3.824c-1.314,2.271-4.225,4.128-6.5,4.128h-.013c-2.258,0-3.041-1.851-1.734-4.115s4.225-4.122,6.5-4.128c1.559,0,2.42.867,2.381,2.141A4.254,4.254,0,0,1,217.651,372.189Z" transform="translate(-206.729 -366.314)" fill="#27debf"/>
          </g>
          <g id="Grupo_16074" data-name="Grupo 16074" transform="translate(8.231 16.589)">
            <path id="Trazado_33821" data-name="Trazado 33821" d="M195.019,366.15a.239.239,0,0,0-.193-.006c-4.458,1.409-14.432,4.848-15.03,5.887s5.423,4.451,8.262,5.849a.262.262,0,0,0,.2-.008.564.564,0,0,0,.217-.148c3.478-3.814,5.7-7.658,6.589-11.427a.21.21,0,0,0,.006-.041A.117.117,0,0,0,195.019,366.15Z" transform="translate(-179.754 -366.127)" fill="#455a64"/>
            <path id="Trazado_33822" data-name="Trazado 33822" d="M194.674,366.957a25.678,25.678,0,0,1-6.12,10.6c-4.309-2.141-7.907-4.633-8-5.286C181.4,371.622,187.881,369.118,194.674,366.957Z" transform="translate(-179.992 -366.373)" fill="#27debf"/>
          </g>
          <g id="Grupo_16075" data-name="Grupo 16075" transform="translate(86.49 14.879)">
            <path id="Trazado_33823" data-name="Trazado 33823" d="M298.259,365a8.73,8.73,0,0,1-.787,2.98.529.529,0,0,1-.375.288c-.149.022-.226-.07-.169-.207.925-2.235.76-3.157.693-3.375-.366-.042-1.908-.215-4.49-.451a14.3,14.3,0,0,1-1.537,4.554.531.531,0,0,1-.385.274c-.146.013-.208-.091-.143-.228a12.442,12.442,0,0,0,1.509-4.766v0a.385.385,0,0,1,.158-.257.446.446,0,0,1,.3-.115c3.247.293,5,.5,5.018.5a.126.126,0,0,1,.1.062A1.558,1.558,0,0,1,298.259,365Z" transform="translate(-291.041 -363.695)" fill="#455a64"/>
          </g>
          <g id="Grupo_16076" data-name="Grupo 16076" transform="translate(79.675 24.523)">
            <path id="Trazado_33824" data-name="Trazado 33824" d="M290.953,378.322a.293.293,0,0,1-.065.162,14.2,14.2,0,0,1-3.589,3.7.444.444,0,0,1-.175.063c-.02,0-2.015.215-5.605.518-.1.008-.162-.035-.168-.114a.357.357,0,0,1,.141-.259,24.057,24.057,0,0,0,3.973-4.754.507.507,0,0,1,.405-.229c.132.013.162.136.071.274a26.783,26.783,0,0,1-3.7,4.54c2.859-.244,4.6-.423,5.019-.466a14.723,14.723,0,0,0,3.178-3.356.487.487,0,0,1,.409-.207A.118.118,0,0,1,290.953,378.322Z" transform="translate(-281.349 -377.41)" fill="#455a64"/>
          </g>
          <g id="Grupo_16077" data-name="Grupo 16077" transform="translate(65.851 29)">
            <path id="Trazado_33825" data-name="Trazado 33825" d="M294.062,390l-17.939,1.21-1.786-6.821a.106.106,0,0,0-.091-.077c-3.418-.928-7.531-.64-12.222.851a.635.635,0,0,0-.26.176.265.265,0,0,0-.063.232l4.093,10.773a.12.12,0,0,0,.127.077l7.018.12a.485.485,0,0,0,.091-.014l20.85-6.034a.526.526,0,0,0,.331-.288.383.383,0,0,0,.021-.07C294.23,390.047,294.167,389.99,294.062,390Zm-20.871,6.034-6.863-.113-3.959-10.429c4.36-1.322,8.2-1.561,11.413-.71l1.793,6.849c.014.056.077.091.162.084l16.111-1.083Z" transform="translate(-261.692 -383.776)" fill="#455a64"/>
            <path id="Trazado_33826" data-name="Trazado 33826" d="M292.132,390.843l-18.656,5.4-6.863-.113L262.653,385.7c4.36-1.322,8.2-1.561,11.413-.71l1.793,6.849c.014.056.077.091.162.084Z" transform="translate(-261.977 -383.989)" fill="#27debf"/>
          </g>
          <g id="Grupo_16078" data-name="Grupo 16078" transform="translate(75.312 2.986)">
            <path id="Trazado_33827" data-name="Trazado 33827" d="M313.265,352.781,299.334,346.8a.252.252,0,0,0-.077-.014l-7.166.141a.411.411,0,0,0-.218.077l-16.519,10.8a.509.509,0,0,0-.2.232.138.138,0,0,0,.056.183c2.982,1.477,6.765,1.751,11.259.816a.6.6,0,0,0,.183-.084l9.648-6.835,16.582,1.16a.506.506,0,0,0,.38-.2.281.281,0,0,0,.07-.169A.109.109,0,0,0,313.265,352.781ZM296.5,351.607a.405.405,0,0,0-.26.091l-9.7,6.863c-4.2.858-7.757.633-10.6-.682l15.984-10.457,7.011-.134,12.461,5.351Z" transform="translate(-275.146 -346.783)" fill="#455a64"/>
            <path id="Trazado_33828" data-name="Trazado 33828" d="M311.729,352.854l-14.894-1.034a.405.405,0,0,0-.26.091l-9.7,6.863c-4.2.858-7.756.633-10.6-.682l15.984-10.457,7.011-.134Z" transform="translate(-275.48 -346.997)" fill="#27debf"/>
          </g>
          <g id="Grupo_16079" data-name="Grupo 16079" transform="translate(68.743 18.627)">
            <path id="Trazado_33829" data-name="Trazado 33829" d="M309.818,372.427l-17.482-3.4a.143.143,0,0,0-.077,0l-26.054,3.5a.561.561,0,0,0-.359.246c-.077.127-.042.232.07.253l22.018,3.509h.084l21.518-3.615a.533.533,0,0,0,.352-.253.286.286,0,0,0,.035-.12A.122.122,0,0,0,309.818,372.427Zm-21.561,3.607-20.421-3.256L292,369.537l16.216,3.15Z" transform="translate(-265.804 -369.025)" fill="#455a64"/>
            <path id="Trazado_33830" data-name="Trazado 33830" d="M309.072,372.9l-19.957,3.347-20.421-3.256,24.163-3.242Z" transform="translate(-266.662 -369.241)" fill="#27debf"/>
          </g>
          <g id="Grupo_16083" data-name="Grupo 16083" transform="translate(80.032 37.517)">
            <g id="Grupo_16082" data-name="Grupo 16082">
              <g id="Grupo_16080" data-name="Grupo 16080">
                <path id="Trazado_33831" data-name="Trazado 33831" d="M291.959,395.919h-.014l-2.018.591-2.039.6-2.278.661a5.689,5.689,0,0,0-3.664,3.368c-.394,1.4.563,2.229,2.187,1.885l2.152-.457a.194.194,0,0,0,.063-.007l1.99-.422c.007,0,.021-.007.028-.007l1.955-.415c1.062-.267,1.885-1.927,2.264-3.263a6.254,6.254,0,0,0,.246-1.449C292.853,396.264,292.628,395.751,291.959,395.919Zm.056,2.672c-.373,1.336-1.076,2.518-1.547,2.637l-1.4.3-.668.141-1.392.3-.64.141-2.075.436c-1.139.239-1.878-.232-1.856-1.1a1.829,1.829,0,0,1,.077-.45,4.619,4.619,0,0,1,2.989-2.743l2.131-.626.654-.19,1.428-.415.682-.2,1.428-.415C292.3,396.285,292.4,397.27,292.016,398.592Z" transform="translate(-281.857 -395.887)" fill="#455a64"/>
              </g>
              <g id="Grupo_16081" data-name="Grupo 16081" transform="translate(4.279 0.608)">
                <path id="Trazado_33832" data-name="Trazado 33832" d="M292.2,397.069a.568.568,0,0,0-.316-.309.3.3,0,0,0-.155.007l-2.039.6a.548.548,0,0,0-.3.218c-.07.1-.07.2-.007.239a.19.19,0,0,1,.049.056,2.861,2.861,0,0,1-.07,2.1,6.019,6.019,0,0,1-1.2,2.384.561.561,0,0,1-.091.091.361.361,0,0,0-.141.274.136.136,0,0,0,.148.1.193.193,0,0,0,.063-.007l1.99-.422c.007,0,.021-.007.028-.007a.458.458,0,0,0,.155-.077,2.578,2.578,0,0,0,.548-.527,7.174,7.174,0,0,0,1.2-2.489,5.736,5.736,0,0,0,.246-1.442A1.823,1.823,0,0,0,292.2,397.069Zm-.689,2.363a5.691,5.691,0,0,1-1.308,2.489l-1.392.3a7.521,7.521,0,0,0,1.118-2.384,4.158,4.158,0,0,0,.162-2.145l1.428-.415C291.817,397.47,291.817,398.349,291.515,399.432Z" transform="translate(-287.942 -396.752)" fill="#455a64"/>
                <path id="Trazado_33833" data-name="Trazado 33833" d="M291.883,399.652a5.691,5.691,0,0,1-1.308,2.489l-1.392.3a7.52,7.52,0,0,0,1.118-2.384,4.158,4.158,0,0,0,.162-2.145l1.428-.415C292.186,397.69,292.186,398.569,291.883,399.652Z" transform="translate(-288.31 -396.972)" fill="#27debf"/>
              </g>
            </g>
          </g>
          <g id="Grupo_16087" data-name="Grupo 16087" transform="translate(102.633)">
            <g id="Grupo_16086" data-name="Grupo 16086">
              <g id="Grupo_16084" data-name="Grupo 16084">
                <path id="Trazado_33834" data-name="Trazado 33834" d="M324.022,343.9l-1.491-.408-1.512-.415-1.681-.464c-1.224-.338-3.143.5-4.36,1.9s-1.315,2.876-.211,3.361l1.512.654,1.357.591,1.343.584a.007.007,0,0,1,.007.007c.246.084.738.028,1.681-.71a15,15,0,0,0,1.871-1.828,12.242,12.242,0,0,0,1.442-1.983,2.18,2.18,0,0,0,.3-.872A.374.374,0,0,0,324.022,343.9Zm-.556,1.3a11.182,11.182,0,0,1-1.329,1.828,13.57,13.57,0,0,1-1.723,1.681c-.478.38-.844.563-1,.513l-.942-.408-.464-.2-.942-.408h-.007l-.429-.19-1.421-.619c-.9-.394-.83-1.6.169-2.743a4.036,4.036,0,0,1,3.565-1.547l1.582.436.471.127,1.062.288.506.141,1.048.288C323.769,344.44,323.713,344.735,323.466,345.2Z" transform="translate(-313.997 -342.537)" fill="#455a64"/>
              </g>
              <g id="Grupo_16085" data-name="Grupo 16085" transform="translate(2.212 0.53)">
                <path id="Trazado_33835" data-name="Trazado 33835" d="M323.549,343.792a.106.106,0,0,0-.084-.077l-1.512-.415a.464.464,0,0,0-.485.366v.007c0,.028-.007.056-.007.091a7.437,7.437,0,0,1-1.554,2.37,10.063,10.063,0,0,1-2.342,2.1c-.042.021-.084.042-.12.056a.544.544,0,0,0-.274.239c-.049.1-.035.183.042.218l1.357.591a.229.229,0,0,0,.155.007,2.586,2.586,0,0,0,.682-.309,12.676,12.676,0,0,0,2.426-2.229,9.123,9.123,0,0,0,1.667-2.489,1.235,1.235,0,0,0,.07-.359A.43.43,0,0,0,323.549,343.792Zm-2.117,2.876a8.745,8.745,0,0,1-2.489,2.166l-.942-.408a13.462,13.462,0,0,0,2.307-2.152,9.843,9.843,0,0,0,1.624-2.384l1.062.288A6.125,6.125,0,0,1,321.432,346.668Z" transform="translate(-317.142 -343.291)" fill="#455a64"/>
                <path id="Trazado_33836" data-name="Trazado 33836" d="M323.356,344.431a6.125,6.125,0,0,1-1.561,2.489,8.744,8.744,0,0,1-2.489,2.166l-.942-.408a13.465,13.465,0,0,0,2.307-2.152,9.841,9.841,0,0,0,1.624-2.384Z" transform="translate(-317.505 -343.544)" fill="#27debf"/>
              </g>
            </g>
          </g>
          <g id="Grupo_16089" data-name="Grupo 16089" transform="translate(29.067 18.331)">
            <g id="Grupo_16088" data-name="Grupo 16088">
              <path id="Trazado_33837" data-name="Trazado 33837" d="M216.513,368.6c-2.271.006-5.189,1.857-6.5,4.128s-.524,4.115,1.734,4.115h.013c2.278,0,5.189-1.857,6.5-4.128a4.255,4.255,0,0,0,.628-1.974C218.933,369.471,218.072,368.6,216.513,368.6Zm1.248,4.115a7.5,7.5,0,0,1-5.707,3.623c-1.992.006-2.685-1.617-1.533-3.61a7.524,7.524,0,0,1,5.7-3.623C218.221,369.109,218.907,370.726,217.761,372.719Z" transform="translate(-209.384 -368.604)" fill="#455a64"/>
            </g>
          </g>
        </g>
      </g>
    </g>
    <g id="Character_2" data-name="Character 2" transform="translate(232.018 88.592)">
      <g id="Grupo_16101" data-name="Grupo 16101">
        <path id="Trazado_33838" data-name="Trazado 33838" d="M392.9,179.359c-2.939,3.9-8.857,10.9-11.8,14.591a10.733,10.733,0,0,0-2.383,6.815c.026,1.838.525,3.371,2.322,2.588,1.3-.565,2.123-1.238,4.017-3.105,1.7-1.68,11.554-14.133,11.554-14.133s.809-6.972,3.354-7.745-.918-2.87-.918-2.87C397.974,175.643,395.855,175.433,392.9,179.359Z" transform="translate(-337.007 -131.646)" fill="#9a4a4d"/>
        <g id="Pencil">
          <g id="Grupo_16091" data-name="Grupo 16091">
            <g id="Grupo_16090" data-name="Grupo 16090">
              <path id="Trazado_33839" data-name="Trazado 33839" d="M339.273,310.487,320.89,331.471a.849.849,0,0,1-1.485-.615l1.835-28Z" transform="translate(-319.403 -169.444)" fill="#ffa8a7"/>
              <path id="Trazado_33840" data-name="Trazado 33840" d="M319.405,340.145a.849.849,0,0,0,1.485.615l3.589-4.1h0a4.7,4.7,0,0,1-4.42-2.106l-.262-.4Z" transform="translate(-319.403 -178.732)" fill="#263238"/>
              <path id="Trazado_33841" data-name="Trazado 33841" d="M366.989,148.213,366,150.6l-1.2,2.875L322.013,256.959a12.457,12.457,0,0,0,6.156,6.718c4.193,2.252,9.274,2.66,11.868.909l42.473-102.721,2.275-5.5C383.113,159.842,365.361,151.728,366.989,148.213Z" transform="translate(-320.178 -123.548)" fill="#27debf"/>
              <path id="Trazado_33842" data-name="Trazado 33842" d="M379.618,161.114l-2.193,5.332c-.688,1.525,2.2,3.875,5.857,5.784,4.854,2.55,11.073,4.322,11.987,2.3l1.624-3.928.556-1.414c-.914,2.018-7.135.25-11.99-2.3-3.5-1.835-6.3-4.089-5.894-5.606l.006-.016A.35.35,0,0,1,379.618,161.114Z" transform="translate(-336.593 -127.377)" fill="#ebebeb"/>
              <path id="Trazado_33843" data-name="Trazado 33843" d="M379.783,160.763c-1.6,3.538,16.23,11.619,17.833,8.082l2.213-5.331c-1.6,3.538-19.434-4.544-17.831-8.081Z" transform="translate(-337.293 -125.691)" fill="#27debf"/>
              <path id="Trazado_33844" data-name="Trazado 33844" d="M385,148.213l-2.186,5.261c-1.6,3.463,15.538,11.432,17.707,8.39a.812.812,0,0,0,.115-.187l2.16-5.317C401.128,159.842,383.375,151.728,385,148.213Z" transform="translate(-338.192 -123.548)" fill="#ebebeb"/>
              <path id="Trazado_33845" data-name="Trazado 33845" d="M382.362,164.926l2.275-5.5c-.755,1.573-4.8.775-8.846-.893h0l-44.36,109.587-9.91,20.52L339.9,267.653l-.012,0h0Z" transform="translate(-320.031 -126.609)" opacity="0.1"/>
              <path id="Trazado_33846" data-name="Trazado 33846" d="M395.187,115.47,385.925,137.8c-.7,1.5,2.144,3.845,5.765,5.759,4.848,2.566,11.079,4.384,12.031,2.388.011-.006.011-.006.017-.022l8.9-21.484c2.489-4.84-6.1-10.928-12.266-11.286C398.068,113.009,396.117,113.658,395.187,115.47Z" transform="translate(-339.114 -113.138)" fill="#ffa8a7"/>
              <path id="Trazado_33847" data-name="Trazado 33847" d="M407.543,126.925,398.7,149.144c3.607,1.485,7.19,2.277,8.468,1.325a2.079,2.079,0,0,0,.25-.252,1.128,1.128,0,0,0,.126-.174L416.72,127.9C415.553,130.556,407.543,126.925,407.543,126.925Z" transform="translate(-342.937 -117.23)" fill="#f28f8f"/>
            </g>
          </g>
        </g>
        <g id="Girl" transform="translate(45.661 16.69)">
          <g id="Grupo_16100" data-name="Grupo 16100">
            <path id="Trazado_33848" data-name="Trazado 33848" d="M447.626,333.023l-5.072,1.507-2.195-7.387,5.184-1.777Z" transform="translate(-400.962 -192.814)" fill="#b16668"/>
            <path id="Trazado_33849" data-name="Trazado 33849" d="M440.176,333.886l-.215-.725c-.423.356-.556,4.844-1.739,7.427-1.3,2.828-2.67,4.842-3.245,6.112-.77,1.7,2.236,2.6,5.561.962,1.65-.814,4.292-2.941,4.711-4.3s.275-3.136.642-4.149,1.508-2.361,1.553-3.422a6.39,6.39,0,0,0-1.081-2.576c-.5-.828-1.05-1.738-1.331-1.563.032.11.165.553.165.553a5.226,5.226,0,0,1-2.125,2.07C442.293,334.668,440.444,334.768,440.176,333.886Z" transform="translate(-399.328 -194.673)" fill="#263238"/>
            <path id="Trazado_33850" data-name="Trazado 33850" d="M426.826,215.873c3.058,3.923,3.608,7.976,2.941,19.448s-.877,21.066-.708,21.709,3.768,5.252,4.936,9.446,4.311,27.981,4.311,27.981a7.058,7.058,0,0,1-5.765,2.616s-12.761-34.753-13.619-37.336-6.3-29.762-6.3-29.762l.827-15.344Z" transform="translate(-392.729 -159.95)" fill="#37474f"/>
            <path id="Trazado_33851" data-name="Trazado 33851" d="M409.671,159.009h4.24A10.009,10.009,0,0,0,423.919,149h0a12.129,12.129,0,0,0-12.128-12.128h0A12.129,12.129,0,0,0,399.662,149h0A10.009,10.009,0,0,0,409.671,159.009Z" transform="translate(-388.884 -136.872)" fill="#263238"/>
            <rect id="Rect치ngulo_7427" data-name="Rect치ngulo 7427" width="5.291" height="7.706" transform="translate(9.156 130.412) rotate(0.756)" fill="#b16668"/>
            <path id="Trazado_33852" data-name="Trazado 33852" d="M398.581,228.72c.465-5.3,1.6-14.474,1.6-14.474l13.544-.8c2.195,3.418,1.24,9.106.643,14.244l-7.745,30.328c.157,1.451,1.494,4.531,0,12.337-1.669,8.719-4.142,21.216-4.142,21.216s-3.86,1.946-5.764-.172c0,0-1.025-28.343-.307-35.887C397.184,247.355,398.261,232.344,398.581,228.72Z" transform="translate(-387.842 -159.599)" fill="#37474f"/>
            <path id="Trazado_33853" data-name="Trazado 33853" d="M393.424,329.246l.01-.757c-.509.214-1.971,4.459-3.869,6.574-2.079,2.315-3.99,3.829-4.917,4.871-1.24,1.393,1.361,3.148,5.023,2.572,1.818-.286,4.973-1.531,5.778-2.7s1.2-2.912,1.847-3.771,2.141-1.806,2.5-2.8a6.4,6.4,0,0,0-.266-2.781c-.233-.939-.485-1.971-.806-1.888,0,.115-.008.577-.008.577a5.221,5.221,0,0,1-2.644,1.344C395.212,330.622,393.417,330.168,393.424,329.246Z" transform="translate(-384.335 -193.741)" fill="#263238"/>
            <g id="Grupo_16092" data-name="Grupo 16092" transform="translate(11.615 26.873)">
              <path id="Trazado_33854" data-name="Trazado 33854" d="M403.182,192.248c-.333,3.091-2.33,16.53-2.33,16.53,10.21,5.449,22.873,1.839,24.811-.407-1.756-5.778-3.645-9.067-5.089-10.605l2.2-8.493s-4.918-5.249-.537-13.511l-5.413-.442-7.951-.233c-1.9.106-3.255.29-3.255.29a50.414,50.414,0,0,0-3.723,7.562C401.092,184.992,400.243,187.994,403.182,192.248Z" transform="translate(-400.852 -175.086)" fill="#f0f0f0"/>
            </g>
            <g id="Grupo_16093" data-name="Grupo 16093" transform="translate(12.391 5.283)">
              <path id="Trazado_33855" data-name="Trazado 33855" d="M404.675,144.384c-1.281.757-2.864,3.98-2.708,10.734.132,5.725,1.988,7.139,2.92,7.547s2.728.16,4.476-.132v3.436s-2.415,2.8-2.263,4.38,3.487,1.948,5.746.409a18.25,18.25,0,0,0,4.163-4.539l-.04-7.9s1.029,1,2.772-.526c1.439-1.258,1.924-3.38.8-4.519a2.507,2.507,0,0,0-3.989.8,13.813,13.813,0,0,1-6.5-1.937A10.429,10.429,0,0,1,404.675,144.384Z" transform="translate(-401.956 -144.384)" fill="#b16668"/>
            </g>
            <g id="Grupo_16094" data-name="Grupo 16094" transform="translate(18.793 13.865)">
              <path id="Trazado_33856" data-name="Trazado 33856" d="M411.06,157.3a.72.72,0,1,0,.757-.713A.733.733,0,0,0,411.06,157.3Z" transform="translate(-411.059 -156.588)" fill="#263238"/>
            </g>
            <g id="Grupo_16095" data-name="Grupo 16095" transform="translate(16.929 19.431)">
              <path id="Trazado_33857" data-name="Trazado 33857" d="M410.081,164.5l-1.672.533a.862.862,0,0,0,1.087.6A.919.919,0,0,0,410.081,164.5Z" transform="translate(-408.409 -164.504)" fill="#9a4a4d"/>
            </g>
            <g id="Grupo_16096" data-name="Grupo 16096" transform="translate(12.746 10.956)">
              <path id="Trazado_33858" data-name="Trazado 33858" d="M402.605,153.863l1.457-1.009a.851.851,0,0,0-1.21-.248A.932.932,0,0,0,402.605,153.863Z" transform="translate(-402.461 -152.452)" fill="#263238"/>
            </g>
            <g id="Grupo_16097" data-name="Grupo 16097" transform="translate(13.226 13.344)">
              <path id="Trazado_33859" data-name="Trazado 33859" d="M403.144,156.562a.72.72,0,1,0,.757-.713A.732.732,0,0,0,403.144,156.562Z" transform="translate(-403.143 -155.848)" fill="#263238"/>
            </g>
            <g id="Grupo_16098" data-name="Grupo 16098" transform="translate(14.228 13.646)">
              <path id="Trazado_33860" data-name="Trazado 33860" d="M406.963,156.277l-.115,4.334-2.281-.707Z" transform="translate(-404.568 -156.277)" fill="#9a4a4d"/>
            </g>
            <g id="Grupo_16099" data-name="Grupo 16099" transform="translate(19.798 20.605)">
              <path id="Trazado_33861" data-name="Trazado 33861" d="M412.488,169c1.841-.241,5.629-1.33,6.219-2.827a3.872,3.872,0,0,1-1.328,1.911c-1.131.97-4.891,2.063-4.891,2.063Z" transform="translate(-412.488 -166.173)" fill="#9a4a4d"/>
            </g>
            <path id="Trazado_33862" data-name="Trazado 33862" d="M433.91,155.7l2.575-1.887a1.549,1.549,0,0,0-2.206-.4A1.677,1.677,0,0,0,433.91,155.7Z" transform="translate(-398.96 -141.693)" fill="#263238"/>
            <path id="Trazado_33863" data-name="Trazado 33863" d="M412.731,247.571l-2.211-11.126a23.975,23.975,0,0,1-5.526-2.818,16.724,16.724,0,0,0,3.868,3.565Z" transform="translate(-390.466 -165.587)" fill="#263238"/>
          </g>
          <path id="Trazado_33864" data-name="Trazado 33864" d="M431.243,164.654c-2.352-1.186-2.027-3.413-.842-5.766s2.783-3.939,5.136-2.754a4.77,4.77,0,1,1-4.293,8.52Z" transform="translate(-397.736 -142.469)" fill="#263238"/>
        </g>
        <g id="Arm" transform="translate(35.018 44.239)">
          <path id="Trazado_33865" data-name="Trazado 33865" d="M375.474,205.861a32.136,32.136,0,0,1,3.955.769,7.277,7.277,0,0,0,3.449.585c1.531-.094,5.535-1.992,9.088-4.145a40.615,40.615,0,0,0,10.117-9.406c3.214-4.551,6.774-11.725,8.475-14.469a13.256,13.256,0,0,1,2.286-3.146c2.221.094,4.427,2.124,2.951,7.552-1.222,4.491-4.509,10.307-8.553,15.2a43.209,43.209,0,0,1-10.791,9.171,50.439,50.439,0,0,1-11.223,4.83c-1.137.381-1.887.945-3.97,1.927a9.656,9.656,0,0,1-2.667.982,12.3,12.3,0,0,1-3.524.012,8.33,8.33,0,0,1-4.05-1.733,5.252,5.252,0,0,1-1.5-1.912,3.489,3.489,0,0,1-.181-2.394.961.961,0,0,1,.236-.432,1.157,1.157,0,0,1,.851-.2,50.221,50.221,0,0,0,5.129.25c1.4-.1,2.383-.365,2.182-.563s-1.022-.082-2.15-.567c-1.078-.464-1.859-1.56-1.552-2.144S374.292,205.557,375.474,205.861Z" transform="translate(-369.201 -176.047)" fill="#b16668"/>
        </g>
        <path id="Hand" d="M364.908,192.09a9.257,9.257,0,0,1,5.173-.648c1.408.232,1.415,4.933-3.116,6.418-2.947.966-4.717.54-5.669,2.965,0,0-1.909-.255-1.476-2.965a15.147,15.147,0,0,1,3.593-7.515c1.3-1.534,1.385-2.824,2.023-2.387.721.494.387,1.919.387,1.919Z" transform="translate(-331.379 -135.318)" fill="#b16668"/>
      </g>
    </g>
    <g id="Character_1" data-name="Character 1" transform="translate(54.702 100.686)">
      <g id="Grupo_16113" data-name="Grupo 16113">
        <g id="Back_Arm" data-name="Back Arm" transform="translate(15.385 42.692)">
          <path id="Trazado_33866" data-name="Trazado 33866" d="M102.668,197.487c3.136,3.748,8.856,10.9,11.8,14.592a10.725,10.725,0,0,1,2.383,6.814c-.026,1.838-.525,3.371-2.322,2.589-1.3-.565-2.122-1.238-4.017-3.106-1.7-1.679-7.737-8.932-7.737-8.932S98.147,197.271,95.6,196.5a11.781,11.781,0,0,0-4.31-.575C94.363,194.875,98.689,192.731,102.668,197.487Z" transform="translate(-89.772 -192.077)" fill="#f28f8f"/>
          <path id="Trazado_33867" data-name="Trazado 33867" d="M89.131,192.452c3.141-2.363,8.465-1.747,11.408,1.813,2.155,2.607,7.287,8.971,7.287,8.971a10.949,10.949,0,0,1-6.61,5.92Z" transform="translate(-89.131 -191.044)" fill="#e0e0e0"/>
        </g>
        <g id="Brush" transform="translate(15.228)">
          <g id="Grupo_16102" data-name="Grupo 16102">
            <path id="Trazado_33868" data-name="Trazado 33868" d="M149.223,258.4l0,0a615.778,615.778,0,0,0-21.29-62.167c-12.351-29.9-31.406-60.226-34.593-64.806l-.038-.056c-.015-.021-.036-.051-.05-.072l-.007,0a2.407,2.407,0,0,0-4.276,1.994l0,0s8.472,41.4,20.63,70.807,28.8,58.823,28.8,58.823h0a3.092,3.092,0,0,0,2.386,1.314,9.2,9.2,0,0,0,7.691-3.186A3.062,3.062,0,0,0,149.223,258.4Z" transform="translate(-88.907 -130.335)" fill="#27debf"/>
            <path id="Trazado_33869" data-name="Trazado 33869" d="M88.907,132.753a2.4,2.4,0,0,0,.067.545l0,0s8.472,41.4,20.63,70.807c8.178,19.778,18.384,39.562,24.189,50.4l6.369-4.038S89.434,131.248,91.325,130.335A2.418,2.418,0,0,0,88.907,132.753Z" transform="translate(-88.907 -130.335)" opacity="0.1"/>
          </g>
          <g id="Grupo_16103" data-name="Grupo 16103" transform="translate(48.078 128.069)">
            <path id="Trazado_33870" data-name="Trazado 33870" d="M158.689,316.983c-1.02,5.168-2.795,11.8.437,20.425,3.667,9.789,14.735,12.487,20.1,12.5a25.591,25.591,0,0,0,12.139-2.759s-3.847-1.473-5.436-7.031a18.624,18.624,0,0,1-.58-3.7c-.341-4.5-.49-9.4-4.42-14.836a26.071,26.071,0,0,0-11.409-9.124Z" transform="translate(-157.276 -312.453)" fill="#ebebeb"/>
            <path id="Trazado_33871" data-name="Trazado 33871" d="M187.267,350.227a18.615,18.615,0,0,1-.579-3.7c-.008.035-1.343,5.868-4.625,5.526s-4.223-3.842-8.583-3.842c-5.311,0-7.143,4.461-11.693,2.058,4.56,7.657,13.949,9.742,18.777,9.752a25.591,25.591,0,0,0,12.139-2.759S188.856,355.785,187.267,350.227Z" transform="translate(-158.615 -322.565)" fill="#27debf"/>
            <path id="Trazado_33872" data-name="Trazado 33872" d="M172.046,343.908c-8.6-5.961-6.978-21.831-6.726-24.385l-6.632-.628c-1.02,5.168-2.795,11.8.437,20.425,3.667,9.789,14.735,12.487,20.1,12.5a25.591,25.591,0,0,0,12.139-2.759S182.109,350.885,172.046,343.908Z" transform="translate(-157.276 -314.365)" opacity="0.1"/>
          </g>
          <g id="Grupo_16104" data-name="Grupo 16104" transform="translate(42.315 113.744)">
            <path id="Trazado_33873" data-name="Trazado 33873" d="M156.256,310.938a3.1,3.1,0,0,0,2.387,1.309,9.2,9.2,0,0,0,7.691-3.186,3.073,3.073,0,0,0,.752-2.653c-1.246-4.444-2.688-9.263-4.255-14.325a3.827,3.827,0,0,1-.925,3.431,11.617,11.617,0,0,1-9.712,4.023,3.78,3.78,0,0,1-3.114-1.838C151.825,302.853,154.409,307.67,156.256,310.938Z" transform="translate(-149.08 -292.083)" fill="#455a64"/>
            <path id="Trazado_33874" data-name="Trazado 33874" d="M158.016,300.84a10.991,10.991,0,0,1-5.822,1.067,3.78,3.78,0,0,1-3.114-1.838c2.745,5.155,5.329,9.971,7.176,13.239a3.1,3.1,0,0,0,2.387,1.309,8.526,8.526,0,0,0,4.245-.681l.079-.132-4.952-12.963Z" transform="translate(-149.08 -294.453)" fill="#37474f"/>
          </g>
        </g>
        <g id="Boy" transform="translate(0 16.024)">
          <g id="Grupo_16111" data-name="Grupo 16111">
            <circle id="Elipse_889" data-name="Elipse 889" cx="7.627" cy="7.627" r="7.627" transform="matrix(0.973, -0.23, 0.23, 0.973, 10.652, 3.816)" fill="#263238"/>
            <g id="Grupo_16110" data-name="Grupo 16110">
              <g id="Grupo_16109" data-name="Grupo 16109">
                <g id="Grupo_16108" data-name="Grupo 16108">
                  <rect id="Rect치ngulo_7428" data-name="Rect치ngulo 7428" width="5.373" height="9.197" transform="translate(6.935 147.74) rotate(180)" fill="#ffa8a7"/>
                  <path id="Trazado_33875" data-name="Trazado 33875" d="M95.963,345.329l5.369.185.269-9.733-5.369-.185Z" transform="translate(-75.774 -207.277)" fill="#ffa8a7"/>
                  <path id="Trazado_33876" data-name="Trazado 33876" d="M69.168,246.461c0,5.131-.663,36.22-.663,36.22-.125,1.476-1.509,4.2-1.21,9.868.407,7.7,1.072,27.725,1.072,27.725s2.52,2.5,6.076,0c0,0,4.865-27.7,5.828-35.331.84-6.662,2.265-24.758,2.265-24.758l4.979,21.3s-.876,5.007-1.069,8.541.912,22.033.912,22.033a5.87,5.87,0,0,0,5.846.223s4.316-27.911,4.87-31.1-3.778-34.72-3.778-34.72Z" transform="translate(-67.253 -180.823)" fill="#37474f"/>
                  <path id="Trazado_33877" data-name="Trazado 33877" d="M75.138,192.957a5.876,5.876,0,0,0-4.72,4.511,18.93,18.93,0,0,0-.442,4.079V230.07c3.768,4.1,16.9,6.008,25.128,0,0,0-.161-25.193-.777-29.333-1.07-7.19-4.513-9.755-7.97-9.487l-8.292,1.186Z" transform="translate(-68.061 -164.432)" fill="#f0f0f0"/>
                  <g id="Grupo_16107" data-name="Grupo 16107" transform="translate(4.299)">
                    <g id="Grupo_16105" data-name="Grupo 16105">
                      <path id="Trazado_33878" data-name="Trazado 33878" d="M76.7,174.324a65.9,65.9,0,0,0,1.732,6.761,2.627,2.627,0,0,0,1.52,1.225l-.086-4.084Z" transform="translate(-74.355 -159.414)" fill="#263238"/>
                      <path id="Trazado_33879" data-name="Trazado 33879" d="M77.684,162.486a2.862,2.862,0,0,0-2.368.833c-1.018,1.041-.449,4.3.817,7.486l2.328.267Z" transform="translate(-73.789 -155.895)" fill="#263238"/>
                      <path id="Trazado_33880" data-name="Trazado 33880" d="M78.737,169.571c-.467.278-1.133-.618-1.709-1.221a2.026,2.026,0,0,0-3.392.55c-.956,2.013.828,4.674,2.307,5.138,2.55.8,2.932-.835,2.932-.835l.195,9.2a8.206,8.206,0,0,0,6.19,4.7c4.521.613,3.59-3.114,2.105-4.941l-.007-2.8a16.064,16.064,0,0,0,3.437.177c1.875-.29,3.055-1.769,3.624-3.8.913-3.26,1.26-5.893.485-12.3-.849-7.028-9.024-7.1-13.438-4.323S78.737,169.571,78.737,169.571Z" transform="translate(-73.366 -154.392)" fill="#ffa8a7"/>
                      <path id="Trazado_33881" data-name="Trazado 33881" d="M80.153,169.086c-.235,0-1.128-1.477-1.709-2.006-.805-.732.233-7.367.233-7.367a3.142,3.142,0,0,1,.777-3.356c1.1-1.214,2.946-1.349,6.094-1.844,1.651-.259,4.155-.722,5.8-1.028,1.969-.366,3.6-.754,4.989.454a3.5,3.5,0,0,1,.966,3.912,3.636,3.636,0,0,1-1.976,1.811s-.859.762-3.846,1.126a44.2,44.2,0,0,1-8.275-.157c-.866-.119-1.051.721-1.518,3.014C81.282,165.659,80.942,169.071,80.153,169.086Z" transform="translate(-74.782 -153.122)" fill="#263238"/>
                      <path id="Trazado_33882" data-name="Trazado 33882" d="M77.721,162.213,74.9,160.7a1.555,1.555,0,0,1,2.136-.707A1.684,1.684,0,0,1,77.721,162.213Z" transform="translate(-73.821 -155.106)" fill="#263238"/>
                      <path id="Trazado_33883" data-name="Trazado 33883" d="M90.026,187.1a32.109,32.109,0,0,1-5.65-1.621,4.823,4.823,0,0,1-2.023-2,6.592,6.592,0,0,0,1.15,2.361c1.07,1.368,6.523,2.375,6.523,2.375Z" transform="translate(-76.033 -162.13)" fill="#f28f8f"/>
                    </g>
                    <g id="Grupo_16106" data-name="Grupo 16106" transform="translate(10.182 9.977)">
                      <path id="Trazado_33884" data-name="Trazado 33884" d="M91.125,172.85a.84.84,0,1,1-.839-.874A.853.853,0,0,1,91.125,172.85Z" transform="translate(-88.321 -168.694)" fill="#263238"/>
                      <path id="Trazado_33885" data-name="Trazado 33885" d="M89.76,168.478l-1.795.99a1.075,1.075,0,0,1,.418-1.428A1,1,0,0,1,89.76,168.478Z" transform="translate(-87.845 -167.489)" fill="#263238"/>
                      <path id="Trazado_33886" data-name="Trazado 33886" d="M92.7,181.459l1.915.718a1,1,0,0,1-1.3.635A1.07,1.07,0,0,1,92.7,181.459Z" transform="translate(-89.268 -171.509)" fill="#f28f8f"/>
                      <path id="Trazado_33887" data-name="Trazado 33887" d="M101.779,169l-1.636-1.26a.991.991,0,0,1,1.423-.218A1.084,1.084,0,0,1,101.779,169Z" transform="translate(-91.495 -167.309)" fill="#263238"/>
                      <path id="Trazado_33888" data-name="Trazado 33888" d="M101.046,172.51a.84.84,0,1,1-.839-.874A.852.852,0,0,1,101.046,172.51Z" transform="translate(-91.265 -168.593)" fill="#263238"/>
                      <path id="Trazado_33889" data-name="Trazado 33889" d="M95.677,171.748l.275,5.045,2.634-.9Z" transform="translate(-90.17 -168.626)" fill="#f28f8f"/>
                    </g>
                  </g>
                  <path id="Trazado_33890" data-name="Trazado 33890" d="M74.332,359.115v-.769c.514.224,1.708,4.781,3.84,6.726,1.695,1.546,4.007,3.33,4.595,5.054.611,1.792-3.219,2.781-4.8,2.5-1.84-.326-5.028-1.622-5.828-2.822s-1.175-2.973-1.826-3.852-2.15-1.862-2.5-2.881a6.5,6.5,0,0,1,.308-2.82c.249-.95.519-1.994.843-1.906,0,.116,0,.586,0,.586a4.246,4.246,0,0,0,2.686.908C72.431,359.871,74.338,359.715,74.332,359.115Z" transform="translate(-67.396 -214.028)" fill="#263238"/>
                  <path id="Trazado_33891" data-name="Trazado 33891" d="M100.707,347.213c.278.01.506.4,1.121,1.07a11.751,11.751,0,0,0,3.161,2.273c2.011,1.008,5.922,2.556,7.693,3.354,1.106.5,1.054,1.834-.089,2.594s-3.9,1.308-7.217.567c-1.805-.4-4.155-2.071-5.643-1.981s-4.271.068-5.368-.688-.658-2.373-.348-3.762c.338-1.515.823-3.835,1.325-3.731l-.016.477c.646.978,3.935,1.377,5.353.658Z" transform="translate(-75.091 -210.633)" fill="#263238"/>
                </g>
              </g>
            </g>
            <path id="Trazado_33892" data-name="Trazado 33892" d="M88.986,264.166a19.9,19.9,0,0,0,7.482-4.29s-1.444,2.7-5.736,5.219l1.613,13.736Z" transform="translate(-73.703 -184.805)" fill="#263238"/>
          </g>
        </g>
        <g id="Arm-2" data-name="Arm" transform="translate(1.914 44.933)">
          <g id="Grupo_16112" data-name="Grupo 16112" transform="translate(0.541 0.781)">
            <path id="Trazado_33893" data-name="Trazado 33893" d="M113.647,224.973a32.128,32.128,0,0,0-3.955.769,7.278,7.278,0,0,1-3.449.585c-1.531-.094-5.535-1.992-9.088-4.145a40.61,40.61,0,0,1-10.116-9.406c-3.214-4.55-6.774-11.725-8.475-14.469s-3.316-3.033-5.206-2.954c-2.22.094-3.643,2.129-1.691,6.353a86.276,86.276,0,0,0,10.213,16.2,43.2,43.2,0,0,0,10.79,9.171,50.459,50.459,0,0,0,11.224,4.83c1.137.381,1.887.945,3.97,1.927a9.657,9.657,0,0,0,2.667.982,12.3,12.3,0,0,0,3.524.012,8.33,8.33,0,0,0,4.05-1.733,5.253,5.253,0,0,0,1.5-1.912,3.489,3.489,0,0,0,.181-2.394.971.971,0,0,0-.236-.432,1.158,1.158,0,0,0-.851-.2,50.222,50.222,0,0,1-5.129.25c-1.4-.1-2.382-.365-2.182-.563s1.022-.082,2.15-.567c1.077-.463,1.859-1.56,1.551-2.144S114.829,224.669,113.647,224.973Z" transform="translate(-70.744 -195.341)" fill="#ffa8a7"/>
          </g>
          <path id="Trazado_33894" data-name="Trazado 33894" d="M73.855,194.235a3.82,3.82,0,0,0-3.879,4.044c.042,2.918,4.523,11.391,7.979,16.231,0,0,5.388-.346,8.221-4.408,0,0-5.037-8.01-6.4-10.567C78.547,197.242,76.351,194.114,73.855,194.235Z" transform="translate(-69.975 -194.231)" fill="#e0e0e0"/>
        </g>
        <path id="Hand-2" data-name="Hand" d="M136.519,209.745a8.7,8.7,0,0,0-4.951-.55c-1.408.231-1.415,4.933,3.115,6.418,2.948.966,4.718.539,5.669,2.965,0,0,1.909-.255,1.476-2.965a15.144,15.144,0,0,0-3.592-7.515c-1.3-1.534-1.385-2.824-2.023-2.387-.721.494-.616,2-.616,2Z" transform="translate(-86.094 -152.679)" fill="#ffa8a7"/>
      </g>
    </g>
    <g id="Paint_Pot" data-name="Paint Pot" transform="translate(199.281 169.567)">
      <g id="Paint_Pot-2" data-name="Paint Pot">
        <path id="Trazado_33895" data-name="Trazado 33895" d="M303.614,239.033l-25.812-.351-.225,21.079h0c-.022,1.908,1.217,3.83,3.722,5.312,5.008,2.965,13.18,3.053,18.253.2,2.56-1.441,3.837-3.356,3.835-5.28Z" transform="translate(-274.253 -231.372)" fill="#37474f"/>
        <path id="Trazado_33896" data-name="Trazado 33896" d="M281.74,230.374c-5.07,2.856-5.122,7.575-.113,10.539s13.18,3.053,18.253.2,5.124-7.574.114-10.54S286.811,227.517,281.74,230.374Z" transform="translate(-274.35 -228.288)" fill="#455a64"/>
        <path id="Trazado_33897" data-name="Trazado 33897" d="M303.073,236.341a3.2,3.2,0,0,1-.183,1.011,6.245,6.245,0,0,1-3.089,3.258,19.1,19.1,0,0,1-17.132-.182,6.273,6.273,0,0,1-2.992-3.258,3.178,3.178,0,0,1-.182-1.082c.027-1.572,1.179-3.089,3.271-4.255a19.1,19.1,0,0,1,17.133.183C301.963,233.237,303.087,234.768,303.073,236.341Z" transform="translate(-274.822 -228.764)" fill="#263238"/>
        <path id="Trazado_33898" data-name="Trazado 33898" d="M302.967,238.229a6.245,6.245,0,0,1-3.089,3.258,19.1,19.1,0,0,1-17.132-.182,6.272,6.272,0,0,1-2.992-3.258,6.175,6.175,0,0,1,3.089-3.244,18.979,18.979,0,0,1,17.133.183A6.309,6.309,0,0,1,302.967,238.229Z" transform="translate(-274.899 -229.642)" fill="#27debf"/>
        <path id="Trazado_33899" data-name="Trazado 33899" d="M303.636,250.355c.565-.319,1.018-.051,1.011.6a2.254,2.254,0,0,1-1.038,1.754c-.566.319-1.019.051-1.011-.6A2.253,2.253,0,0,1,303.636,250.355Z" transform="translate(-281.679 -234.797)" fill="#263238"/>
        <g id="Grupo_16114" data-name="Grupo 16114" transform="translate(0 8.939)">
          <path id="Trazado_33900" data-name="Trazado 33900" d="M276.357,243.077c-1.418,2.795-4.241,9.451-.576,12.161.155.113.3.211.449.309l-.014,1.348c-.365-.225-.744-.478-1.109-.745-5.477-4.058.7-14.479.969-14.914a.52.52,0,0,1,.309-.238Z" transform="translate(-272.85 -240.999)" fill="#e0e0e0"/>
          <path id="Trazado_33901" data-name="Trazado 33901" d="M296.708,252.114c-.154.323-4.143,7.949-10.7,9.479a9.546,9.546,0,0,1-2.261.267,11.405,11.405,0,0,1-6.109-1.909l.014-1.348a9.963,9.963,0,0,0,8.1,1.909c6.053-1.418,9.929-8.847,9.956-8.917a.562.562,0,0,1,.759-.239A.546.546,0,0,1,296.708,252.114Z" transform="translate(-274.271 -244.054)" fill="#e0e0e0"/>
        </g>
      </g>
    </g>
    <g id="Pencils" transform="translate(121.285 30.432)">
      <g id="Pencil_Can" data-name="Pencil Can">
        <g id="Can" transform="translate(7.992 87.779)">
          <path id="Trazado_33902" data-name="Trazado 33902" d="M232.346,179.516H173.3l6.6,54.35h.025c.3,3.146,2.508,6.242,6.67,8.645,8.975,5.182,23.527,5.182,32.5,0,4.163-2.4,6.369-5.5,6.671-8.645h.025Z" transform="translate(-173.302 -162.456)" fill="#37474f"/>
          <path id="Trazado_33903" data-name="Trazado 33903" d="M181.957,160.253c11.54-6.662,30.248-6.662,41.787,0s11.539,17.464,0,24.126-30.247,6.663-41.787,0S170.418,166.915,181.957,160.253Z" transform="translate(-173.302 -155.256)" fill="#455a64"/>
          <path id="Trazado_33904" data-name="Trazado 33904" d="M204.3,187.394c-7.3,0-14.11-1.612-19.178-4.537-4.475-2.584-6.941-5.814-6.941-9.094s2.465-6.509,6.94-9.093c5.067-2.925,11.879-4.537,19.179-4.537s14.111,1.612,19.18,4.537c4.475,2.584,6.941,5.813,6.941,9.093s-2.465,6.51-6.941,9.093C218.408,185.782,211.6,187.394,204.3,187.394Z" transform="translate(-174.749 -156.703)" fill="#263238"/>
        </g>
        <g id="Grupo_16124" data-name="Grupo 16124">
          <g id="Grupo_16123" data-name="Grupo 16123" clip-path="url(#clip-path)">
            <g id="Pencil-2" data-name="Pencil" transform="translate(37.669 25.992)">
              <path id="Trazado_33905" data-name="Trazado 33905" d="M231.733,241.831l-10.9,20.747a.713.713,0,0,1-1.334-.211l-3.994-23.23Z" transform="translate(-215.504 -118.364)" fill="#ffa8a7"/>
              <path id="Trazado_33906" data-name="Trazado 33906" d="M231.733,241.831l-10.9,20.747a.713.713,0,0,1-1.334-.211l-3.994-23.23Z" transform="translate(-215.504 -118.364)" fill="#ffa8a7"/>
              <path id="Trazado_33907" data-name="Trazado 33907" d="M220.825,270.074a.713.713,0,0,0,1.334.211l2.128-4.051h0a3.948,3.948,0,0,1-4.024-.854l-.293-.276Z" transform="translate(-216.829 -126.071)" fill="#263238"/>
              <g id="Grupo_16116" data-name="Grupo 16116" transform="translate(0 23.12)">
                <path id="Trazado_33908" data-name="Trazado 33908" d="M230.9,100.271l-.336,2.143L230.151,105,215.5,197.922a10.47,10.47,0,0,0,6.347,4.28c3.867,1.017,8.1.352,9.872-1.587l14.539-92.239.779-4.942C246.357,106.606,230.264,103.462,230.9,100.271Z" transform="translate(-215.503 -100.271)" fill="#27debf"/>
                <g id="Grupo_16115" data-name="Grupo 16115" transform="translate(13.327)">
                  <path id="Trazado_33909" data-name="Trazado 33909" d="M235.217,111.865l-.746,4.786c-.262,1.38,2.555,2.733,5.919,3.576,4.465,1.13,9.893,1.357,10.244-.471l.556-3.527.177-1.264c-.351,1.828-5.78,1.6-10.245.474-3.222-.811-5.952-2.1-5.915-3.423V112A.288.288,0,0,1,235.217,111.865Z" transform="translate(-234.454 -103.712)" fill="#ebebeb"/>
                  <path id="Trazado_33910" data-name="Trazado 33910" d="M235.282,111.545c-.615,3.2,15.537,6.306,16.152,3.1l.762-4.788c-.615,3.2-16.765.1-16.149-3.1Z" transform="translate(-234.695 -102.196)" fill="#27debf"/>
                  <path id="Trazado_33911" data-name="Trazado 33911" d="M237.078,100.271,236.325,105c-.627,3.141,14.934,6.29,16.109,3.378a.654.654,0,0,0,.057-.175l.722-4.767C252.532,106.606,236.438,103.462,237.078,100.271Z" transform="translate(-235.004 -100.271)" fill="#ebebeb"/>
                </g>
                <path id="Trazado_33912" data-name="Trazado 33912" d="M248.51,109.711l.778-4.942c-.308,1.434-3.765,1.574-7.4,1.006h0l-14.733,98.218-4.07,18.706,10.9-20.747-.011,0h0Z" transform="translate(-217.753 -101.606)" opacity="0.1"/>
              </g>
              <path id="Trazado_33913" data-name="Trazado 33913" d="M240.58,70.453,237.4,90.513c-.275,1.364,2.506,2.72,5.839,3.573,4.463,1.145,9.909,1.407,10.3-.41.008-.006.008-.006.01-.02l3.058-19.3c1.084-4.442-7.123-7.73-12.234-6.812C242.45,67.878,240.984,68.791,240.58,70.453Z" transform="translate(-221.995 -67.393)" fill="#ffa8a7"/>
            </g>
            <g id="Pencil-3" data-name="Pencil" transform="translate(5.004 23.264)">
              <path id="Trazado_33914" data-name="Trazado 33914" d="M182.759,194.158l-.3-2.148-.373-2.591L169.053,96.255c1.2,1.242,4.339,1.906,7.751,1.537,3.976-.429,7.638-2.058,8.512-3.949l12.938,92.477.692,4.955C198.32,188.092,182.174,190.957,182.759,194.158Z" transform="translate(-169.053 -72.515)" fill="#27debf"/>
              <g id="Grupo_16117" data-name="Grupo 16117" transform="translate(11.859 104.43)">
                <path id="Trazado_33915" data-name="Trazado 33915" d="M186.594,221.056l-.662-4.8c-.238-1.385,2.6-2.689,5.98-3.472,4.484-1.053,9.915-1.186,10.233.648l.5,3.536.155,1.267c-.319-1.834-5.751-1.7-10.235-.652-3.236.755-5.988,2-5.974,3.32v.014A.3.3,0,0,0,186.594,221.056Z" transform="translate(-185.917 -212.018)" fill="#ebebeb"/>
                <path id="Trazado_33916" data-name="Trazado 33916" d="M186.653,221.376c-.56-3.214,15.644-6.036,16.2-2.821l.679,4.8c-.56-3.214-16.761-.392-16.2,2.822Z" transform="translate(-186.131 -213.537)" fill="#27debf"/>
                <path id="Trazado_33917" data-name="Trazado 33917" d="M188.253,232.672l-.672-4.739c-.572-3.153,15.042-6.03,16.166-3.1a.67.67,0,0,1,.053.176l.639,4.779C203.814,226.606,187.669,229.471,188.253,232.672Z" transform="translate(-186.407 -215.46)" fill="#ebebeb"/>
              </g>
              <g id="Grupo_16118" data-name="Grupo 16118" transform="translate(0.001)">
                <path id="Trazado_33918" data-name="Trazado 33918" d="M175.712,71.213c-2.36.612-3.2.12-3.2.12l-3.456,18.2c1.885,2.7,6.477,3.269,10.367,2.141l-.12-.908Z" transform="translate(-169.055 -65.799)" fill="#ffa8a7"/>
                <path id="Trazado_33919" data-name="Trazado 33919" d="M188.615,86.73H188.6l0,.015.008-.018-8.48-16.846h0Z" transform="translate(-172.343 -65.405)" fill="#fafafa"/>
                <path id="Trazado_33920" data-name="Trazado 33920" d="M179.267,68.159l-2.057-4.087,2.057,4.087Z" transform="translate(-171.475 -63.68)" fill="#e0e0e0"/>
                <path id="Trazado_33921" data-name="Trazado 33921" d="M174.911,64.094l-.941,4.954s.805.563,3.2-.12l-.922-5.021h0a.71.71,0,0,0-.94-.327A.7.7,0,0,0,174.911,64.094Z" transform="translate(-170.514 -63.514)" fill="#455a64"/>
                <path id="Trazado_33922" data-name="Trazado 33922" d="M202.629,186.327,189.693,93.865c-.916,2.206-3.242,3.765-5.9,4.535l12.14,91.746h0c3.645-.5,7.1-.3,7.383,1.134Z" transform="translate(-173.43 -72.522)" opacity="0.1"/>
                <path id="Trazado_33923" data-name="Trazado 33923" d="M188.128,86.748l0-.015h0l.011,0-8.48-16.846a2.246,2.246,0,0,1-1.135.935l3.59,19.556.12.908C184.886,90.513,187.211,88.954,188.128,86.748Z" transform="translate(-171.864 -65.405)" fill="#f28f8f"/>
                <path id="Trazado_33924" data-name="Trazado 33924" d="M178.132,69.094a1.719,1.719,0,0,0,1.135-.935l-2.057-4.086Z" transform="translate(-171.475 -63.68)" fill="#37474f"/>
              </g>
              <path id="Trazado_33925" data-name="Trazado 33925" d="M191.372,254.806l-2.835-20.112c-.251-1.369,2.553-2.676,5.9-3.472,4.482-1.067,9.932-1.235,10.286.589.008.006.008.006.01.021l2.724,19.346c1.006,4.459-7.256,7.605-12.351,6.6C193.2,257.414,191.747,256.475,191.372,254.806Z" transform="translate(-174.831 -113.051)" fill="#f28f8f"/>
            </g>
            <g id="Brush-2" data-name="Brush" transform="translate(26.434 7.587)">
              <g id="Grupo_16119" data-name="Grupo 16119" transform="translate(2.688 28.583)">
                <path id="Trazado_33926" data-name="Trazado 33926" d="M206.521,84.285h0a471.118,471.118,0,0,0-3.168,50.189c-.03,24.757,4.553,51.781,5.463,55.953l.011.05c0,.019.01.047.014.065h.006a1.845,1.845,0,0,0,3.495.248,1.8,1.8,0,0,0,.113-.405h0s6.144-31.753,6.167-56.1a473.1,473.1,0,0,0-3.12-50.024h0a2.367,2.367,0,0,0-1.3-1.628,7.043,7.043,0,0,0-6.371,0A2.348,2.348,0,0,0,206.521,84.285Z" transform="translate(-203.35 -81.866)" fill="#27debf"/>
                <path id="Trazado_33927" data-name="Trazado 33927" d="M215.112,194.882a1.806,1.806,0,0,0,.113-.405h0s6.144-31.753,6.167-56.1c.015-16.379-1.4-33.356-2.33-42.717l-5.686.988s.92,99.147-.684,99.238A1.849,1.849,0,0,0,215.112,194.882Z" transform="translate(-206.123 -85.959)" opacity="0.1"/>
              </g>
              <g id="Grupo_16120" data-name="Grupo 16120" transform="translate(0 6.631)">
                <path id="Trazado_33928" data-name="Trazado 33928" d="M209.863,72.6c.788-1.471,5.087-9.452,3.7-15.948a7.108,7.108,0,0,1-2.522-.533c-3.082-1.278-2.716-4.024-4.942-5.231s-4.866,2.518-4.888,2.55h0c-1.077,3.279-2.408,6.787-1.224,11.784a19.956,19.956,0,0,0,5.392,9.794l8.984-.029c.559-.839,1.179-1.729,1.8-2.7-.617.973-1.237,1.862-1.8,2.7Z" transform="translate(-199.527 -50.651)" fill="#f0f0f0"/>
                <path id="Trazado_33929" data-name="Trazado 33929" d="M224.275,60.575c-1.908-2.3-3.868-1.349-6.345-1.438,1.383,6.5-2.917,14.477-3.7,15.948l4.5,2.387c.559-.839,1.179-1.729,1.8-2.7q.232-.365.463-.745c.307-.508.61-1.039.9-1.6a23.2,23.2,0,0,0,1.2-2.7,20.862,20.862,0,0,0,.639-2.044,22.135,22.135,0,0,0,.676-4.776A12.9,12.9,0,0,0,224.275,60.575Z" transform="translate(-203.889 -53.133)" opacity="0.1"/>
              </g>
              <g id="Grupo_16121" data-name="Grupo 16121" transform="translate(0.58)">
                <path id="Trazado_33930" data-name="Trazado 33930" d="M220.152,55.258q-.089-.6-.229-1.176c-.01-.039-.022-.076-.032-.115-.073-.29-.16-.572-.252-.852-.036-.108-.069-.217-.107-.323-.031-.084-.065-.165-.1-.248-.057-.151-.116-.3-.178-.449-.075-.177-.153-.354-.235-.527-.187-.4-.392-.78-.61-1.153s-.452-.732-.7-1.079-.5-.684-.768-1.006a20.124,20.124,0,0,0-5.983-4.852c-.17-.089-.338-.176-.5-.255l-.141-.066c-.2-.094-.395-.183-.579-.259a22.241,22.241,0,0,0-3.683-1.175c-.563-.127-1.1-.224-1.6-.3s-.963-.122-1.386-.154c-.211-.015-.412-.027-.6-.036s-.369-.013-.537-.015c-.335,0-.622,0-.857.012-.47.02-.729.057-.729.057s2.288,2.169,1.782,6.564a14.194,14.194,0,0,1-.674,2.786c.022-.032,2.672-3.753,4.888-2.55s1.86,3.953,4.942,5.231a7.108,7.108,0,0,0,2.522.533c2.477.089,4.437-.864,6.345,1.438Z" transform="translate(-200.352 -41.221)" fill="#27debf"/>
                <path id="Trazado_33931" data-name="Trazado 33931" d="M200.352,41.291s7.079,1.421,12.147,9.3a9.726,9.726,0,0,1,1.313,3.262c2.477.089,4.437-.864,6.345,1.438l-.006-.035q-.089-.6-.229-1.176c-.01-.039-.022-.076-.032-.115-.073-.29-.16-.572-.252-.852-.036-.108-.069-.217-.108-.323-.03-.084-.065-.165-.1-.248-.057-.151-.116-.3-.178-.449-.075-.177-.153-.354-.235-.527-.187-.4-.392-.78-.61-1.153s-.452-.732-.7-1.079-.5-.684-.768-1.006a20.124,20.124,0,0,0-5.983-4.852c-.17-.089-.338-.176-.5-.255l-.141-.066c-.2-.094-.395-.183-.579-.259a22.241,22.241,0,0,0-3.683-1.175c-.563-.127-1.1-.224-1.6-.3s-.963-.122-1.385-.154q-.317-.023-.6-.036c-.191-.008-.369-.013-.537-.015-.335,0-.622,0-.857.012-.47.02-.729.057-.729.057Z" transform="translate(-200.352 -41.221)" opacity="0.1"/>
              </g>
              <g id="Grupo_16122" data-name="Grupo 16122" transform="translate(4.666 28.583)">
                <path id="Trazado_33932" data-name="Trazado 33932" d="M216.336,84.254a2.37,2.37,0,0,0-1.3-1.625,7.043,7.043,0,0,0-6.371,0,2.355,2.355,0,0,0-1.309,1.656c-.421,3.506-.815,7.336-1.19,11.374a2.928,2.928,0,0,1,1.66-2.155,8.892,8.892,0,0,1,8.046,0,2.893,2.893,0,0,1,1.662,2.212C217.1,91.268,216.685,87.106,216.336,84.254Z" transform="translate(-206.163 -81.866)" fill="#455a64"/>
                <path id="Trazado_33933" data-name="Trazado 33933" d="M213.666,92.552a8.414,8.414,0,0,1,4.429.952,2.893,2.893,0,0,1,1.662,2.212c-.43-4.449-.845-8.611-1.194-11.462a2.37,2.37,0,0,0-1.3-1.625,6.513,6.513,0,0,0-3.2-.762l-.095.07-.3,10.616Z" transform="translate(-208.39 -81.867)" fill="#37474f"/>
              </g>
            </g>
          </g>
        </g>
      </g>
    </g>
  </g>
</svg>
