<svg xmlns="http://www.w3.org/2000/svg" width="219.901" height="212.012" viewBox="0 0 219.901 212.012">
  <g id="Grupo_57831" data-name="Grupo 57831" transform="translate(-39.693 -57.585)">
    <g id="Floor" transform="translate(39.693 154.662)">
      <path id="Floor-2" data-name="Floor" d="M71.9,342.1c42.938,22.442,112.555,22.442,155.493,0s42.939-58.829,0-81.271-112.555-22.442-155.494,0S28.958,319.657,71.9,342.1Z" transform="translate(-39.693 -243.997)" fill="#f5f5f5"/>
    </g>
    <g id="Shadows" transform="translate(146.593 197.052)">
      <path id="Shadow" d="M245.433,357.419l1.976,1.141a2.493,2.493,0,0,0,2.255,0l52.745-30.452a.687.687,0,0,0,0-1.3l-1.976-1.141a2.493,2.493,0,0,0-2.255,0l-52.746,30.452A.687.687,0,0,0,245.433,357.419Z" transform="translate(-244.966 -325.396)" fill="#e0e0e0"/>
      <path id="Shadow-2" data-name="Shadow" d="M384.605,364.612c-6.531,3.494-17.12,3.494-23.651,0s-6.531-9.158,0-12.652,17.12-3.493,23.651,0S391.136,361.119,384.605,364.612Z" transform="translate(-298.204 -336.871)" fill="#e0e0e0"/>
    </g>
    <g id="Plants" transform="translate(228.952 187.517)">
      <g id="Plants-2" data-name="Plants" transform="translate(0)">
        <g id="Grupo_57795" data-name="Grupo 57795">
          <g id="Grupo_57793" data-name="Grupo 57793">
            <path id="Trazado_93400" data-name="Trazado 93400" d="M403.115,323.444a25.2,25.2,0,0,1,3.235-9.4c2.634-4.109,6.252-6.673,9.628-6.94s6.1,2.839,2.49,4.972-10.03,4.31-12.983,12.288Z" transform="translate(-403.115 -307.086)" fill="#27debf"/>
            <path id="Trazado_93401" data-name="Trazado 93401" d="M403.115,323.444a25.2,25.2,0,0,1,3.235-9.4c2.634-4.109,6.252-6.673,9.628-6.94s6.1,2.839,2.49,4.972-10.03,4.31-12.983,12.288Z" transform="translate(-403.115 -307.086)" opacity="0.1"/>
          </g>
          <g id="Grupo_57794" data-name="Grupo 57794" transform="translate(0.842 1.584)">
            <path id="Trazado_93402" data-name="Trazado 93402" d="M404.879,323.527a.168.168,0,0,1-.036-.01.18.18,0,0,1-.1-.235c3.563-8.774,10.345-12.438,13.434-13.149a.18.18,0,0,1,.081.352c-3.026.7-9.674,4.3-13.181,12.934A.18.18,0,0,1,404.879,323.527Z" transform="translate(-404.731 -310.128)" fill="#fff"/>
          </g>
        </g>
        <g id="Grupo_57800" data-name="Grupo 57800" transform="translate(1.016 10.544)">
          <g id="Grupo_57797" data-name="Grupo 57797" transform="translate(0.242)">
            <g id="Grupo_57796" data-name="Grupo 57796">
              <path id="Trazado_93403" data-name="Trazado 93403" d="M423.3,331.876a2.983,2.983,0,0,1-1.759,1.33,3.455,3.455,0,0,0-1.837,1.236c-.762,1.316.489,3.167-.329,4.448a2.356,2.356,0,0,1-1.609.933,15.69,15.69,0,0,1-1.582.141,6.245,6.245,0,0,1-.751-.058,3.419,3.419,0,0,0-2.178.232c-1.046.588-1.368,1.909-2,2.927a4.965,4.965,0,0,1-3.524,2.21,3.452,3.452,0,0,1-1.824-.12.849.849,0,0,1-.1-.062.019.019,0,0,1-.008-.009c-.066-.074-.148-.169-.184-.22a.084.084,0,0,1-.019-.031,7.563,7.563,0,0,1,.129-2.1c0-.045,0-.086,0-.128-.029-.819-.053-1.634-.071-2.452q-.058-2.256-.045-4.517a7.376,7.376,0,0,1,.306-2.969c.458-1.013,1.6-1.035,2.028-2.029.172-.4.264-.821.431-1.222a3.5,3.5,0,0,1,2.982-2.081c1.988-.1,3.773,1.509,5.76,1.362a14.809,14.809,0,0,0,1.523-.29,4.308,4.308,0,0,1,4.379,1.52A2.087,2.087,0,0,1,423.3,331.876Z" transform="translate(-405.532 -327.333)" fill="#27debf"/>
            </g>
          </g>
          <g id="Grupo_57798" data-name="Grupo 57798" transform="translate(0 2.527)">
            <path id="Trazado_93404" data-name="Trazado 93404" d="M405.206,344.027l-.014,0a.169.169,0,0,1-.12-.207c2.747-10.31,13.61-11.8,16.152-11.616a.172.172,0,0,1,.157.182.17.17,0,0,1-.182.157c-2.486-.179-13.111,1.278-15.8,11.365A.17.17,0,0,1,405.206,344.027Z" transform="translate(-405.067 -332.186)" fill="#fff"/>
          </g>
          <g id="Grupo_57799" data-name="Grupo 57799" transform="translate(4.532 6.568)">
            <path id="Trazado_93405" data-name="Trazado 93405" d="M421.445,342.521a.167.167,0,0,1-.09-.047,9.026,9.026,0,0,0-7.392-2.083.17.17,0,1,1-.05-.335,9.377,9.377,0,0,1,7.683,2.179.17.17,0,0,1-.152.286Z" transform="translate(-413.769 -339.945)" fill="#fff"/>
          </g>
        </g>
      </g>
    </g>
    <g id="Folder" transform="translate(62.964 57.585)">
      <g id="Folder-2" data-name="Folder">
        <g id="Grupo_57801" data-name="Grupo 57801" transform="translate(0 19.125)">
          <path id="Trazado_93406" data-name="Trazado 93406" d="M179.127,172.47v5.187L89.258,229.535v.005l-2.765,1.594a4.831,4.831,0,0,1-2.114-3.822v-87.38a.942.942,0,0,1,.13-.443.962.962,0,0,1,.323-.339l20.482-11.827c.25-.141,1.708.469,1.948.615l.156.089a1.546,1.546,0,0,1,.359.318,1.276,1.276,0,0,1,.26.432l1.854,5.354,66.669-39.714a1.028,1.028,0,0,1,.875-.016l1.239.719a.933.933,0,0,1,.318.333.9.9,0,0,1,.13.448v18.248Z" transform="translate(-84.378 -94.311)" fill="#263238"/>
          <path id="Trazado_93407" data-name="Trazado 93407" d="M181.072,178.707,88.438,232.185v-90.5L109.722,129.4a1.276,1.276,0,0,1,.26.432l1.854,5.354.354,1.015L180.937,96.5a.9.9,0,0,1,.13.448Z" transform="translate(-86.324 -95.362)" fill="#37474f"/>
          <path id="Trazado_93408" data-name="Trazado 93408" d="M107.9,158.628,86.612,170.913l-1.984-1.141a.963.963,0,0,1,.323-.338l20.482-11.827a.976.976,0,0,1,.891.005l1.213.7A1.545,1.545,0,0,1,107.9,158.628Z" transform="translate(-84.498 -124.594)" fill="#455a64"/>
          <path id="Trazado_93409" data-name="Trazado 93409" d="M202.469,95.453l-68.747,39.693-.354-1.015,66.669-39.714a1.028,1.028,0,0,1,.875-.016l1.239.719A.933.933,0,0,1,202.469,95.453Z" transform="translate(-107.856 -94.31)" fill="#455a64"/>
        </g>
        <g id="Document" transform="translate(29.615)">
          <g id="Grupo_57802" data-name="Grupo 57802">
            <path id="Trazado_93410" data-name="Trazado 93410" d="M142.2,176.731a2.193,2.193,0,0,1-.96-1.735V88.933a2.262,2.262,0,0,1,1.023-1.772l50.838-29.32a1.922,1.922,0,0,1,2.943,1.7V145.6a2.261,2.261,0,0,1-1.023,1.772l-50.839,29.32A2.193,2.193,0,0,1,142.2,176.731Z" transform="translate(-141.245 -57.585)" fill="#fafafa"/>
          </g>
          <g id="Grupo_57803" data-name="Grupo 57803" transform="translate(1.919 1.224)">
            <path id="Trazado_93411" data-name="Trazado 93411" d="M145.954,177.821l50.839-29.32a2.261,2.261,0,0,0,1.023-1.772V60.667c0-.653-.458-.917-1.023-.591L145.953,89.4a2.261,2.261,0,0,0-1.023,1.772v86.062C144.931,177.883,145.389,178.148,145.954,177.821Z" transform="translate(-144.93 -59.936)" fill="#f0f0f0"/>
          </g>
          <path id="Trazado_93412" data-name="Trazado 93412" d="M156.763,102.558l38.388-22.163c.5-.287.9-.054.9.521v.36a2,2,0,0,1-.9,1.562L156.762,105c-.5.287-.9.054-.9-.521v-.359A2,2,0,0,1,156.763,102.558Z" transform="translate(-148.249 -68.457)" fill="#e0e0e0"/>
          <path id="Trazado_93413" data-name="Trazado 93413" d="M156.763,114.271l38.388-22.163c.5-.288.9-.055.9.521v.359a1.994,1.994,0,0,1-.9,1.562l-38.388,22.163c-.5.288-.9.055-.9-.521v-.359A1.994,1.994,0,0,1,156.763,114.271Z" transform="translate(-148.249 -74.07)" fill="#e0e0e0"/>
          <path id="Trazado_93414" data-name="Trazado 93414" d="M156.763,125.983l38.388-22.163c.5-.287.9-.055.9.521v.359a1.994,1.994,0,0,1-.9,1.562l-38.388,22.164c-.5.287-.9.054-.9-.521v-.36A2,2,0,0,1,156.763,125.983Z" transform="translate(-148.249 -79.683)" fill="#e0e0e0"/>
          <path id="Trazado_93415" data-name="Trazado 93415" d="M156.763,137.7l38.388-22.163c.5-.288.9-.055.9.521v.359a1.994,1.994,0,0,1-.9,1.562l-38.388,22.163c-.5.288-.9.055-.9-.521v-.359A1.994,1.994,0,0,1,156.763,137.7Z" transform="translate(-148.249 -85.296)" fill="#e0e0e0"/>
          <path id="Trazado_93416" data-name="Trazado 93416" d="M156.763,149.408l38.388-22.163c.5-.287.9-.055.9.521v.359a1.994,1.994,0,0,1-.9,1.562l-38.388,22.164c-.5.287-.9.054-.9-.521v-.36A2,2,0,0,1,156.763,149.408Z" transform="translate(-148.249 -90.909)" fill="#e0e0e0"/>
          <path id="Trazado_93417" data-name="Trazado 93417" d="M156.763,161.206l38.388-22.163c.5-.287.9-.055.9.521v.359a1.994,1.994,0,0,1-.9,1.562l-38.388,22.164c-.5.287-.9.054-.9-.521v-.36A2,2,0,0,1,156.763,161.206Z" transform="translate(-148.249 -96.563)" fill="#e0e0e0"/>
          <path id="Trazado_93418" data-name="Trazado 93418" d="M156.763,172.919l38.388-22.163c.5-.288.9-.055.9.521v.359a1.994,1.994,0,0,1-.9,1.562l-38.388,22.163c-.5.288-.9.055-.9-.521v-.359A1.994,1.994,0,0,1,156.763,172.919Z" transform="translate(-148.249 -102.176)" fill="#e0e0e0"/>
          <path id="Trazado_93419" data-name="Trazado 93419" d="M156.763,184.631l38.388-22.163c.5-.287.9-.055.9.521v.359a1.994,1.994,0,0,1-.9,1.562l-38.388,22.164c-.5.287-.9.054-.9-.521v-.36A2,2,0,0,1,156.763,184.631Z" transform="translate(-148.249 -107.789)" fill="#e0e0e0"/>
          <path id="Trazado_93420" data-name="Trazado 93420" d="M156.763,196.344l38.388-22.164c.5-.287.9-.054.9.521v.36a2,2,0,0,1-.9,1.562l-38.388,22.163c-.5.288-.9.055-.9-.521v-.359A1.994,1.994,0,0,1,156.763,196.344Z" transform="translate(-148.249 -113.402)" fill="#e0e0e0"/>
          <path id="Trazado_93421" data-name="Trazado 93421" d="M156.763,208.056l38.388-22.163c.5-.287.9-.055.9.521v.359a1.994,1.994,0,0,1-.9,1.562L156.762,210.5c-.5.287-.9.054-.9-.521v-.36A2,2,0,0,1,156.763,208.056Z" transform="translate(-148.249 -119.015)" fill="#e0e0e0"/>
          <path id="Trazado_93422" data-name="Trazado 93422" d="M156.763,219.82l38.388-22.163c.5-.287.9-.055.9.521v.359a1.994,1.994,0,0,1-.9,1.562l-38.388,22.164c-.5.287-.9.054-.9-.521v-.36A2,2,0,0,1,156.763,219.82Z" transform="translate(-148.249 -124.653)" fill="#e0e0e0"/>
          <path id="Trazado_93423" data-name="Trazado 93423" d="M156.763,231.533l38.388-22.164c.5-.287.9-.054.9.521v.36a2,2,0,0,1-.9,1.562l-38.388,22.163c-.5.287-.9.055-.9-.521v-.359A1.994,1.994,0,0,1,156.763,231.533Z" transform="translate(-148.249 -130.266)" fill="#e0e0e0"/>
          <path id="Trazado_93424" data-name="Trazado 93424" d="M156.763,243.245l38.388-22.163c.5-.288.9-.055.9.521v.359a1.994,1.994,0,0,1-.9,1.562l-38.388,22.163c-.5.288-.9.055-.9-.521v-.359A2,2,0,0,1,156.763,243.245Z" transform="translate(-148.249 -135.879)" fill="#e0e0e0"/>
          <g id="Grupo_57804" data-name="Grupo 57804" transform="translate(0.003 30.341)">
            <path id="Trazado_93425" data-name="Trazado 93425" d="M144.057,204.682a1.912,1.912,0,0,1-2.807-1.765V116.856a2.125,2.125,0,0,1,.3-1.01l1.922,1.109a2.052,2.052,0,0,0-.3,1v86.066C143.166,204.625,143.557,204.9,144.057,204.682Z" transform="translate(-141.25 -115.846)" fill="#e0e0e0"/>
          </g>
        </g>
        <g id="Document-2" data-name="Document" transform="translate(36.811 4.083)">
          <g id="Grupo_57805" data-name="Grupo 57805">
            <path id="Trazado_93426" data-name="Trazado 93426" d="M156.024,184.572a2.194,2.194,0,0,1-.96-1.736V96.774A2.263,2.263,0,0,1,156.087,95l50.838-29.32a1.923,1.923,0,0,1,2.943,1.7v86.062a2.261,2.261,0,0,1-1.023,1.772l-50.839,29.321A2.2,2.2,0,0,1,156.024,184.572Z" transform="translate(-155.064 -65.425)" fill="#fafafa"/>
          </g>
          <g id="Grupo_57806" data-name="Grupo 57806" transform="translate(1.919 1.225)">
            <path id="Trazado_93427" data-name="Trazado 93427" d="M159.773,185.662l50.839-29.321a2.261,2.261,0,0,0,1.023-1.772V68.507c0-.653-.458-.917-1.023-.591l-50.839,29.32a2.261,2.261,0,0,0-1.023,1.772v86.062C158.75,185.723,159.208,185.988,159.773,185.662Z" transform="translate(-158.749 -67.776)" fill="#f0f0f0"/>
          </g>
          <path id="Trazado_93428" data-name="Trazado 93428" d="M170.582,110.4,208.97,88.235c.5-.287.9-.054.9.521v.36a2,2,0,0,1-.9,1.562l-38.388,22.163c-.5.287-.9.055-.9-.521v-.359A1.993,1.993,0,0,1,170.582,110.4Z" transform="translate(-162.068 -76.297)" fill="#e0e0e0"/>
          <path id="Trazado_93429" data-name="Trazado 93429" d="M170.582,122.111,208.97,99.948c.5-.287.9-.055.9.521v.359a1.994,1.994,0,0,1-.9,1.562l-38.388,22.163c-.5.288-.9.055-.9-.521v-.359A1.994,1.994,0,0,1,170.582,122.111Z" transform="translate(-162.068 -81.91)" fill="#e0e0e0"/>
          <path id="Trazado_93430" data-name="Trazado 93430" d="M170.582,133.824,208.97,111.66c.5-.287.9-.054.9.521v.36a2,2,0,0,1-.9,1.562l-38.388,22.163c-.5.287-.9.055-.9-.521v-.359A1.993,1.993,0,0,1,170.582,133.824Z" transform="translate(-162.068 -87.523)" fill="#e0e0e0"/>
          <path id="Trazado_93431" data-name="Trazado 93431" d="M170.582,145.536l38.387-22.163c.5-.287.9-.055.9.521v.359a1.994,1.994,0,0,1-.9,1.562l-38.388,22.163c-.5.288-.9.055-.9-.521V147.1A1.993,1.993,0,0,1,170.582,145.536Z" transform="translate(-162.068 -93.136)" fill="#e0e0e0"/>
          <path id="Trazado_93432" data-name="Trazado 93432" d="M170.582,157.248l38.387-22.163c.5-.287.9-.054.9.521v.36a2,2,0,0,1-.9,1.562l-38.388,22.163c-.5.287-.9.054-.9-.521v-.36A2,2,0,0,1,170.582,157.248Z" transform="translate(-162.068 -98.749)" fill="#e0e0e0"/>
          <path id="Trazado_93433" data-name="Trazado 93433" d="M170.582,169.047l38.387-22.164c.5-.287.9-.054.9.521v.36a2,2,0,0,1-.9,1.562l-38.388,22.163c-.5.287-.9.055-.9-.521v-.359A1.993,1.993,0,0,1,170.582,169.047Z" transform="translate(-162.068 -104.403)" fill="#e0e0e0"/>
          <path id="Trazado_93434" data-name="Trazado 93434" d="M170.582,180.759,208.97,158.6c.5-.287.9-.055.9.521v.359a1.994,1.994,0,0,1-.9,1.562L170.581,183.2c-.5.288-.9.055-.9-.521v-.359A1.993,1.993,0,0,1,170.582,180.759Z" transform="translate(-162.068 -110.016)" fill="#e0e0e0"/>
          <path id="Trazado_93435" data-name="Trazado 93435" d="M170.582,192.471l38.387-22.163c.5-.287.9-.054.9.521v.36a2,2,0,0,1-.9,1.562l-38.388,22.163c-.5.287-.9.054-.9-.521v-.36A2,2,0,0,1,170.582,192.471Z" transform="translate(-162.068 -115.629)" fill="#e0e0e0"/>
          <path id="Trazado_93436" data-name="Trazado 93436" d="M170.582,204.184,208.97,182.02c.5-.288.9-.055.9.521v.359a1.994,1.994,0,0,1-.9,1.562l-38.388,22.163c-.5.288-.9.055-.9-.521v-.359A1.993,1.993,0,0,1,170.582,204.184Z" transform="translate(-162.068 -121.242)" fill="#e0e0e0"/>
          <path id="Trazado_93437" data-name="Trazado 93437" d="M170.582,215.9l38.387-22.163c.5-.287.9-.054.9.521v.36a2,2,0,0,1-.9,1.562l-38.388,22.163c-.5.287-.9.054-.9-.521v-.36A2,2,0,0,1,170.582,215.9Z" transform="translate(-162.068 -126.855)" fill="#e0e0e0"/>
          <path id="Trazado_93438" data-name="Trazado 93438" d="M170.582,227.66,208.97,205.5c.5-.287.9-.054.9.521v.36a2,2,0,0,1-.9,1.562L170.581,230.1c-.5.287-.9.054-.9-.521v-.36A2,2,0,0,1,170.582,227.66Z" transform="translate(-162.068 -132.493)" fill="#e0e0e0"/>
          <path id="Trazado_93439" data-name="Trazado 93439" d="M170.582,239.373l38.387-22.163c.5-.288.9-.055.9.521v.359a1.994,1.994,0,0,1-.9,1.562l-38.388,22.163c-.5.288-.9.055-.9-.521v-.359A1.993,1.993,0,0,1,170.582,239.373Z" transform="translate(-162.068 -138.106)" fill="#e0e0e0"/>
          <path id="Trazado_93440" data-name="Trazado 93440" d="M170.582,251.085l38.387-22.163c.5-.287.9-.054.9.521v.36a2,2,0,0,1-.9,1.562l-38.388,22.163c-.5.287-.9.054-.9-.521v-.36A2,2,0,0,1,170.582,251.085Z" transform="translate(-162.068 -143.719)" fill="#e0e0e0"/>
          <g id="Grupo_57807" data-name="Grupo 57807" transform="translate(0.003 30.341)">
            <path id="Trazado_93441" data-name="Trazado 93441" d="M157.875,212.522a1.912,1.912,0,0,1-2.806-1.765V124.7a2.127,2.127,0,0,1,.3-1.01l1.922,1.109a2.055,2.055,0,0,0-.3,1.005v86.066C156.985,212.465,157.375,212.736,157.875,212.522Z" transform="translate(-155.069 -123.686)" fill="#e0e0e0"/>
          </g>
        </g>
        <g id="Grupo_57808" data-name="Grupo 57808" transform="translate(0 29.345)">
          <path id="Trazado_93442" data-name="Trazado 93442" d="M199.992,115.512l-14.852,64.315-1.37,5.916a6.838,6.838,0,0,1-2.838,3.838L92.807,240.46a4.621,4.621,0,0,1-2.083.557,4.281,4.281,0,0,1-2.286-.479l.453-1.963c.016-.062.031-.125.047-.193l.495-2.151,2.156-9.332,13.655-59.128a.94.94,0,0,1,.083-.219c.036-.068.078-.135.12-.2.005-.01.016-.021.021-.031a1.326,1.326,0,0,1,.344-.323l75.256-43.448,16.472-9.509a.993.993,0,0,1,.906,0l1.213.7A.763.763,0,0,1,199.992,115.512Z" transform="translate(-86.324 -113.934)" fill="#37474f"/>
          <path id="Trazado_93443" data-name="Trazado 93443" d="M215.678,115.382c-.01-.182-.146-.24-.349-.12L123.6,168.224a1.174,1.174,0,0,0-.344.323l-2.114-1.224a1.326,1.326,0,0,1,.344-.323l91.728-52.957a.993.993,0,0,1,.906,0l1.213.7A.776.776,0,0,1,215.678,115.382Z" transform="translate(-101.995 -113.934)" fill="#455a64"/>
          <path id="Trazado_93444" data-name="Trazado 93444" d="M107.581,217.678a1.681,1.681,0,0,0-.156.255,1.185,1.185,0,0,0-.068.188L94.3,274.666H94.3l-2.75,11.915L91.2,288.07v.005l-.479,2.073a4.282,4.282,0,0,1-2.286-.479l.453-1.963c.016-.062.031-.125.047-.193l.495-2.151,2.156-9.332L105.243,216.9a.94.94,0,0,1,.083-.219c.036-.068.078-.135.12-.2.005-.01.016-.021.021-.031Z" transform="translate(-86.324 -163.065)" fill="#263238"/>
          <path id="Trazado_93445" data-name="Trazado 93445" d="M89.723,344.113a.587.587,0,0,1,.278.639l-.744,3.223v.005l-.373,1.615a.592.592,0,0,1-.605.456,3.993,3.993,0,0,1-1.787-.478,4.831,4.831,0,0,1-2.114-3.822v-3.708a.586.586,0,0,1,.88-.508l.942.544a.589.589,0,0,1,.293.509v1.843a.586.586,0,0,0,1.157.132l.158-.682a.586.586,0,0,1,.864-.375Z" transform="translate(-84.378 -222.969)" fill="#263238"/>
        </g>
      </g>
    </g>
    <g id="Character" transform="translate(148.145 114.957)">
      <g id="Character-2" data-name="Character">
        <path id="Trazado_93446" data-name="Trazado 93446" d="M360.548,204.072l-6.085-.169c-.409-.35-6.8-7.563-6.8-7.563s-2.3,3.629-2.338,3.86,6.266,6.973,6.889,7.653a1.874,1.874,0,0,0,1.487.727c1.649.1,7.823.533,7.823.533Z" transform="translate(-294.614 -181.453)" fill="#b16668"/>
        <g id="Document-3" data-name="Document">
          <g id="Grupo_57809" data-name="Grupo 57809">
            <path id="Trazado_93447" data-name="Trazado 93447" d="M248.907,281.778a2.195,2.195,0,0,1-.96-1.736V199.1a2.261,2.261,0,0,1,1.023-1.772l50.838-29.321a1.922,1.922,0,0,1,2.943,1.7v80.941a2.261,2.261,0,0,1-1.023,1.772l-50.838,29.32A2.194,2.194,0,0,1,248.907,281.778Z" transform="translate(-247.947 -167.753)" fill="#27debf"/>
            <path id="Trazado_93448" data-name="Trazado 93448" d="M250.609,309.776a.464.464,0,0,0,.1-.031.182.182,0,0,1-.073.031,1.581,1.581,0,0,1-.187.062c-.031.01-.068.016-.1.026a1.83,1.83,0,0,1-.234.036,2.363,2.363,0,0,1-.271.016,1.912,1.912,0,0,1-.932-.219,1.733,1.733,0,0,1-.536-.516,2.195,2.195,0,0,1-.422-1.219V227.02a1.727,1.727,0,0,1,.078-.505,2.136,2.136,0,0,1,.094-.255,2.235,2.235,0,0,1,.125-.25l1.916,1.109h.005l-.047.078a2.072,2.072,0,0,0-.255.927v80.948a1.1,1.1,0,0,0,.042.307.636.636,0,0,0,.2.312.591.591,0,0,0,.208.1.849.849,0,0,0,.12.01.438.438,0,0,0,.141-.021A.034.034,0,0,0,250.609,309.776Z" transform="translate(-247.95 -195.672)" opacity="0.15"/>
            <path id="Trazado_93449" data-name="Trazado 93449" d="M303.011,169.517c-.083-.51-.5-.693-1.005-.4l-50.843,29.319a2.183,2.183,0,0,0-.724.766l-1.916-1.109a2.039,2.039,0,0,1,.724-.76l50.837-29.324a2.22,2.22,0,0,1,1.984-.036A2.181,2.181,0,0,1,303.011,169.517Z" transform="translate(-248.223 -167.754)" fill="#fff" opacity="0.3"/>
          </g>
          <g id="Grupo_57811" data-name="Grupo 57811" transform="translate(7.612 11.814)">
            <g id="Grupo_57810" data-name="Grupo 57810">
              <path id="Trazado_93450" data-name="Trazado 93450" d="M263.465,212.727l38.387-22.164c.5-.287.9-.054.9.521v.36a1.993,1.993,0,0,1-.9,1.562l-38.388,22.163c-.5.287-.9.055-.9-.521v-.359A2,2,0,0,1,263.465,212.727Z" transform="translate(-262.563 -190.44)" fill="#fafafa"/>
              <path id="Trazado_93451" data-name="Trazado 93451" d="M263.465,227.057l38.387-22.163c.5-.287.9-.055.9.521v.359a1.993,1.993,0,0,1-.9,1.562L263.464,229.5c-.5.287-.9.054-.9-.521v-.36A2,2,0,0,1,263.465,227.057Z" transform="translate(-262.563 -197.307)" fill="#fafafa"/>
              <path id="Trazado_93452" data-name="Trazado 93452" d="M263.465,241.388l38.387-22.164c.5-.287.9-.054.9.521v.36a1.993,1.993,0,0,1-.9,1.562L263.464,243.83c-.5.287-.9.055-.9-.521v-.359A2,2,0,0,1,263.465,241.388Z" transform="translate(-262.563 -204.175)" fill="#fafafa"/>
              <path id="Trazado_93453" data-name="Trazado 93453" d="M263.465,255.718l38.387-22.163c.5-.287.9-.055.9.521v.359a1.993,1.993,0,0,1-.9,1.562L263.464,258.16c-.5.288-.9.055-.9-.521v-.359A2,2,0,0,1,263.465,255.718Z" transform="translate(-262.563 -211.043)" fill="#fafafa"/>
              <path id="Trazado_93454" data-name="Trazado 93454" d="M263.465,270.049l38.387-22.164c.5-.287.9-.054.9.521v.36a1.993,1.993,0,0,1-.9,1.562l-38.388,22.163c-.5.287-.9.055-.9-.521v-.359A1.994,1.994,0,0,1,263.465,270.049Z" transform="translate(-262.563 -217.91)" fill="#fafafa"/>
              <path id="Trazado_93455" data-name="Trazado 93455" d="M263.465,284.379l38.387-22.163c.5-.288.9-.055.9.521v.359a1.993,1.993,0,0,1-.9,1.562l-38.388,22.163c-.5.288-.9.055-.9-.521v-.359A1.994,1.994,0,0,1,263.465,284.379Z" transform="translate(-262.563 -224.778)" fill="#fafafa"/>
              <path id="Trazado_93456" data-name="Trazado 93456" d="M263.465,298.709l38.387-22.163c.5-.287.9-.054.9.521v.36a1.994,1.994,0,0,1-.9,1.562l-38.388,22.163c-.5.287-.9.055-.9-.521v-.36A2,2,0,0,1,263.465,298.709Z" transform="translate(-262.563 -231.645)" fill="#fafafa"/>
              <path id="Trazado_93457" data-name="Trazado 93457" d="M263.465,313.04l38.387-22.163c.5-.288.9-.055.9.521v.359a1.993,1.993,0,0,1-.9,1.562l-38.388,22.163c-.5.288-.9.055-.9-.521V314.6A1.994,1.994,0,0,1,263.465,313.04Z" transform="translate(-262.563 -238.513)" fill="#fafafa"/>
              <path id="Trazado_93458" data-name="Trazado 93458" d="M263.465,327.371l38.387-22.164c.5-.287.9-.054.9.521v.36a1.994,1.994,0,0,1-.9,1.562l-38.388,22.163c-.5.287-.9.054-.9-.521v-.359A2,2,0,0,1,263.465,327.371Z" transform="translate(-262.563 -245.381)" fill="#fafafa"/>
              <path id="Trazado_93459" data-name="Trazado 93459" d="M263.465,341.7l38.387-22.163c.5-.288.9-.055.9.521v.359a1.993,1.993,0,0,1-.9,1.562l-38.388,22.163c-.5.288-.9.055-.9-.521v-.359A1.994,1.994,0,0,1,263.465,341.7Z" transform="translate(-262.563 -252.248)" fill="#fafafa"/>
            </g>
          </g>
        </g>
        <g id="Grupo_57829" data-name="Grupo 57829" transform="translate(61.854 3.936)">
          <g id="Grupo_57812" data-name="Grupo 57812" transform="translate(5.215)">
            <path id="Trazado_93460" data-name="Trazado 93460" d="M376.735,192.939h7.225A9.344,9.344,0,0,0,393.3,183.6h0a8.285,8.285,0,0,0-8.285-8.284h0a8.284,8.284,0,0,0-8.284,8.284Z" transform="translate(-376.735 -175.311)" fill="#263238"/>
          </g>
          <path id="Trazado_93461" data-name="Trazado 93461" d="M404.856,180.006l2.005-1.076a1.105,1.105,0,0,0-1.518-.5A1.2,1.2,0,0,0,404.856,180.006Z" transform="translate(-384.937 -176.741)" fill="#263238"/>
          <path id="Trazado_93462" data-name="Trazado 93462" d="M404.731,181.329l2.132.8a1.105,1.105,0,0,0-.624-1.472A1.2,1.2,0,0,0,404.731,181.329Z" transform="translate(-384.936 -177.837)" fill="#263238"/>
          <g id="Grupo_57813" data-name="Grupo 57813" transform="translate(1.937 18.59)">
            <path id="Trazado_93463" data-name="Trazado 93463" d="M381.161,216.938,371.1,216.5c-.892-1.223-.867-4.459.029-5.493l11.141.3Z" transform="translate(-370.44 -211.009)" fill="#27debf"/>
          </g>
          <g id="Grupo_57828" data-name="Grupo 57828" transform="translate(0 4.056)">
            <g id="Grupo_57827" data-name="Grupo 57827">
              <g id="Grupo_57814" data-name="Grupo 57814" transform="translate(0 82.914)">
                <path id="Trazado_93464" data-name="Trazado 93464" d="M379.251,342.313a19.779,19.779,0,0,1,.082,2.023V348.3h3.449v-2.326a19.26,19.26,0,0,1,.257-3.138Z" transform="translate(-372.726 -342.313)" fill="#b16668"/>
                <path id="Trazado_93465" data-name="Trazado 93465" d="M373.326,350.09V349.6c-.1.752-2.24,3.572-3.609,4.82-1.088.992-2.572,2.138-2.95,3.244-.392,1.151,1.753,1.606,3.16,1.465a5.675,5.675,0,0,0,3.54-1.852A17.491,17.491,0,0,0,375,355c.417-.565,2.292-1.721,2.517-2.374a4.16,4.16,0,0,0-.2-1.811c-.16-.61-.333-1.281-.541-1.223,0,.074,0,.376,0,.376a2.726,2.726,0,0,1-1.725.583C374.546,350.574,373.322,350.474,373.326,350.09Z" transform="translate(-366.721 -345.802)" fill="#263238"/>
                <path id="Trazado_93466" data-name="Trazado 93466" d="M378.48,349.975a2.725,2.725,0,0,1-1.724.583c-.5.02-1.728-.08-1.724-.465V349.6c-.1.752-2.24,3.572-3.609,4.82-.26.237-.544.484-.829.736-.579.645-.414,1.207.945,1.324s2.555-.7,3.587-1.97S378.48,349.975,378.48,349.975Z" transform="translate(-368.426 -345.805)" fill="#b16668"/>
              </g>
              <g id="Grupo_57815" data-name="Grupo 57815" transform="translate(10.533 88.754)">
                <path id="Trazado_93467" data-name="Trazado 93467" d="M399.478,353.527c.067.834.07,1.706.082,2.078v3.965h3.449v-2.326a19.257,19.257,0,0,1,.257-3.138Z" transform="translate(-392.952 -353.527)" fill="#b16668"/>
                <path id="Trazado_93468" data-name="Trazado 93468" d="M393.553,361.409v-.493c-.1.752-2.24,3.572-3.608,4.82-1.088.993-2.572,2.139-2.95,3.245-.393,1.15,1.753,1.606,3.16,1.465a5.675,5.675,0,0,0,3.54-1.852,17.49,17.49,0,0,0,1.528-2.27c.417-.565,2.292-1.721,2.517-2.375a4.158,4.158,0,0,0-.2-1.81c-.16-.61-.333-1.281-.542-1.223,0,.074,0,.376,0,.376a2.725,2.725,0,0,1-1.724.583C394.773,361.894,393.548,361.794,393.553,361.409Z" transform="translate(-386.947 -357.066)" fill="#263238"/>
                <path id="Trazado_93469" data-name="Trazado 93469" d="M398.707,361.295a2.725,2.725,0,0,1-1.724.583c-.5.02-1.729-.081-1.724-.466v-.493c-.1.752-2.24,3.572-3.609,4.82-.26.238-.544.484-.829.737-.579.645-.415,1.207.945,1.324s2.555-.7,3.587-1.97S398.707,361.295,398.707,361.295Z" transform="translate(-388.653 -357.069)" fill="#b16668"/>
              </g>
              <g id="Grupo_57816" data-name="Grupo 57816" transform="translate(4.147 38.599)">
                <path id="Trazado_93470" data-name="Trazado 93470" d="M377.063,303.168c-.738-6.079-1.949-16.587-2.3-18.883-.329-2.128.5-20.329,1-26.105l17.963-.962c1.368,5.854.036,13.748-.432,18.679-.456,4.8-1.02,10.407-1.02,10.407a28.51,28.51,0,0,1,1.032,8.782c-.236,2.45-1.337,9.854-1.861,13.018a4.235,4.235,0,0,1-3.941-.052c.06.672-.64-8.2-1.054-11.779-.575-4.974-.792-8.6-1.3-11.5-.642-3.623-.864-17.821-.864-17.821l-2.07,16.105a39.222,39.222,0,0,1,.327,5.233c0,3.595-1.327,11.772-1.745,14.826A3.578,3.578,0,0,1,377.063,303.168Z" transform="translate(-374.685 -257.218)" fill="#455a64"/>
              </g>
              <path id="Trazado_93471" data-name="Trazado 93471" d="M388.375,273.262a17.828,17.828,0,0,1-5.152-2.868,9.2,9.2,0,0,0,3.85,3.366l.027,9.43,1.275-9.927" transform="translate(-374.629 -224.934)" fill="#37474f"/>
              <g id="Grupo_57817" data-name="Grupo 57817" transform="translate(4.613 14.761)">
                <path id="Trazado_93472" data-name="Trazado 93472" d="M387.326,211.6s4.879.561,5.463.823a3.992,3.992,0,0,0,.191,5.953l-2.261,9.965a14.778,14.778,0,0,1,3.533,7.4c-2.09,3.683-13.835,4.2-18.139,1.45.374-5.141,1.21-8.822.932-10.366-2.051-6.313-1.412-7.637-1.22-9.078.376-2.816,3.171-5.272,4.769-6.3h1.49Z" transform="translate(-375.578 -211.443)" fill="#f0f0f0"/>
              </g>
              <g id="Grupo_57818" data-name="Grupo 57818" transform="translate(6.079)">
                <path id="Trazado_93473" data-name="Trazado 93473" d="M380.251,183.1c-.875.517-1.957,2.718-1.85,7.332.091,3.91,1.358,4.876,1.995,5.155a6.731,6.731,0,0,0,3.057-.09v2.347s-1.649,1.915-1.546,2.991,2.382,1.331,3.925.279a12.456,12.456,0,0,0,2.843-3.1l-.027-5.4s.7.682,1.893-.359c.983-.86,1.314-2.309.548-3.087a1.713,1.713,0,0,0-2.725.543,5.2,5.2,0,0,0-3.412-2.74C382.47,186.163,381.12,185.228,380.251,183.1Z" transform="translate(-378.394 -183.099)" fill="#b16668"/>
              </g>
              <g id="Grupo_57819" data-name="Grupo 57819" transform="translate(10.717 5.862)">
                <path id="Trazado_93474" data-name="Trazado 93474" d="M387.3,194.843a.492.492,0,1,0,.517-.487A.5.5,0,0,0,387.3,194.843Z" transform="translate(-387.3 -194.356)" fill="#263238"/>
              </g>
              <g id="Grupo_57820" data-name="Grupo 57820" transform="translate(9.444 9.664)">
                <path id="Trazado_93475" data-name="Trazado 93475" d="M386,201.657l-1.142.364a.589.589,0,0,0,.743.41A.628.628,0,0,0,386,201.657Z" transform="translate(-384.856 -201.657)" fill="#9a4a4d"/>
              </g>
              <g id="Grupo_57821" data-name="Grupo 57821" transform="translate(6.587 3.875)">
                <path id="Trazado_93476" data-name="Trazado 93476" d="M379.468,191.5l.995-.689a.581.581,0,0,0-.826-.17A.636.636,0,0,0,379.468,191.5Z" transform="translate(-379.369 -190.541)" fill="#263238"/>
              </g>
              <g id="Grupo_57822" data-name="Grupo 57822" transform="translate(11.154 4.24)">
                <path id="Trazado_93477" data-name="Trazado 93477" d="M389.133,192.2l-1-.689a.581.581,0,0,1,.826-.169A.636.636,0,0,1,389.133,192.2Z" transform="translate(-388.138 -191.24)" fill="#263238"/>
              </g>
              <g id="Grupo_57823" data-name="Grupo 57823" transform="translate(6.914 5.507)">
                <path id="Trazado_93478" data-name="Trazado 93478" d="M380,194.16a.492.492,0,1,0,.517-.487A.5.5,0,0,0,380,194.16Z" transform="translate(-379.998 -193.673)" fill="#263238"/>
              </g>
              <g id="Grupo_57824" data-name="Grupo 57824" transform="translate(7.599 5.712)">
                <path id="Trazado_93479" data-name="Trazado 93479" d="M382.948,194.068l-.078,2.96-1.558-.482Z" transform="translate(-381.312 -194.068)" fill="#9a4a4d"/>
              </g>
              <g id="Grupo_57825" data-name="Grupo 57825" transform="translate(11.138 10.466)">
                <path id="Trazado_93480" data-name="Trazado 93480" d="M388.109,205.127c1.257-.165,3.844-.908,4.248-1.931a2.652,2.652,0,0,1-.907,1.306,13.638,13.638,0,0,1-3.341,1.408Z" transform="translate(-388.109 -203.196)" fill="#9a4a4d"/>
              </g>
              <g id="Grupo_57826" data-name="Grupo 57826" transform="translate(16.602 27.206)">
                <path id="Trazado_93481" data-name="Trazado 93481" d="M402.762,235.341l-4.162,6.076,3.152-1.626Z" transform="translate(-398.6 -235.341)" fill="#e0e0e0"/>
              </g>
            </g>
          </g>
        </g>
        <g id="Grupo_57830" data-name="Grupo 57830" transform="translate(48.349 23.56)">
          <path id="Trazado_93482" data-name="Trazado 93482" d="M373.13,214.533l-9.763,10.1s-9.588-.946-12.844-1.877c-1.025-.294-1.856-1.7-2.082-2.881a1.485,1.485,0,0,0-1.14-1.307v2.364c-.083.6-.375.909-1.232.928-3.292.072-4.817-.928-5.218.86-.256,1.14.24,2.44,2.415,3.036,3.05.836,4.734.418,6.592.879,1.433.355,11.422,2.255,13.386,2.685a2.782,2.782,0,0,0,2.958-.961c1.128-1.117,9.606-9.026,9.606-9.026,2.589-2.587,1.832-5.276.384-6.072C375.285,212.761,374.279,213.344,373.13,214.533Z" transform="translate(-340.789 -213.036)" fill="#b16668"/>
          <path id="Trazado_93483" data-name="Trazado 93483" d="M401.512,213.164c.633.256,1.4.925,1.463,2.667s-1.223,3.321-2.738,5.133-1.972,2.291-1.972,2.291-3.837-1.393-4.485-4.245c0,0,2.888-3.058,3.755-4.039S399.993,212.489,401.512,213.164Z" transform="translate(-366.184 -212.995)" fill="#27debf"/>
        </g>
      </g>
    </g>
    <g id="Clouds" transform="translate(195.315 70.809)">
      <path id="Trazado_93484" data-name="Trazado 93484" d="M369.133,84.955l3.62,2.09a4.3,4.3,0,0,1-.031-.48V85.518c0-1.866,1.311-2.623,2.927-1.69a5.66,5.66,0,0,1,1.745,1.677c.265-2.347,2.106-3.221,4.342-1.93a9.679,9.679,0,0,1,4.379,7.583v1.569a4.132,4.132,0,0,1-.371,1.818l3.007,1.736a3.589,3.589,0,0,1,1.623,2.812c0,1.035-.727,1.455-1.623.937L369.133,88.7a3.589,3.589,0,0,1-1.623-2.812C367.51,84.858,368.237,84.438,369.133,84.955Z" transform="translate(-352.416 -82.978)" fill="#ebebeb"/>
      <path id="Trazado_93485" data-name="Trazado 93485" d="M339.75,105.657l2.732,1.577a3.291,3.291,0,0,1-.023-.361v-.792c0-1.409.989-1.979,2.209-1.275a4.268,4.268,0,0,1,1.317,1.266c.2-1.771,1.589-2.431,3.277-1.457a7.3,7.3,0,0,1,3.3,5.723v1.184a3.113,3.113,0,0,1-.28,1.372l2.27,1.31a2.708,2.708,0,0,1,1.225,2.122c0,.782-.548,1.1-1.225.708l-14.805-8.548a2.707,2.707,0,0,1-1.225-2.122C338.525,105.583,339.073,105.266,339.75,105.657Z" transform="translate(-338.525 -93.131)" fill="#ebebeb"/>
    </g>
  </g>
</svg>
