<svg xmlns="http://www.w3.org/2000/svg" width="262" height="254.065" viewBox="0 0 262 254.065">
  <g id="Grupo_57709" data-name="Grupo 57709" transform="translate(-238 -2156.469)">
    <g id="Grupo_57708" data-name="Grupo 57708" transform="translate(238 2156.469)">
      <g id="Floor" transform="translate(0 102.799)">
        <ellipse id="Floor-2" data-name="Floor" cx="131" cy="75.633" rx="131" ry="75.633" fill="#f0f0f0"/>
      </g>
      <g id="Shadows" transform="translate(7.962 113.219)">
        <path id="Shadow" d="M52.432,321.83l-22.6-13.046c-1.274-.736-1.274-1.928,0-2.664L161.27,230.237a5.1,5.1,0,0,1,4.613,0l22.6,13.046c1.274.735,1.274,1.928,0,2.663L57.046,321.83A5.1,5.1,0,0,1,52.432,321.83Z" transform="translate(-28.88 -229.686)" fill="#e0e0e0"/>
        <path id="Shadow-2" data-name="Shadow" d="M202.594,348.891l-54.269-31.332,67.82-39.082,54.2,31.3Z" transform="translate(-81.913 -251.349)" fill="#e0e0e0"/>
        <ellipse id="Shadow-3" data-name="Shadow" cx="25.656" cy="14.812" rx="25.656" ry="14.812" transform="translate(169.952 81.889)" fill="#e0e0e0"/>
        <path id="Shadow-4" data-name="Shadow" d="M432.893,370.566c2.781,1.605,2.781,4.208,0,5.814a11.131,11.131,0,0,1-10.072,0c-2.781-1.606-2.781-4.208,0-5.814A11.131,11.131,0,0,1,432.893,370.566Z" transform="translate(-202.861 -291.701)" fill="#e0e0e0"/>
      </g>
      <g id="Device" transform="translate(24.748 0)">
        <g id="Device-2" data-name="Device">
          <g id="Grupo_57622" data-name="Grupo 57622" transform="translate(54.403 125.329)">
            <g id="Grupo_57620" data-name="Grupo 57620" transform="translate(0.003)">
              <path id="Trazado_92739" data-name="Trazado 92739" d="M190.5,308.249l19.426-11.232c2-1.156,3-2.671,3-4.186s.008-2.7.008-2.7l-20.155-11.365a4.274,4.274,0,0,1-1.934-3.349v-23.95l-33.929,19.606,0,23.95a4.274,4.274,0,0,0,1.934,3.349L176,308.249A16.027,16.027,0,0,0,190.5,308.249Z" transform="translate(-156.923 -251.465)" fill="#27debf"/>
            </g>
            <g id="Grupo_57621" data-name="Grupo 57621" transform="translate(0.003)" opacity="0.6">
              <path id="Trazado_92740" data-name="Trazado 92740" d="M190.5,308.249l19.426-11.232c2-1.156,3-2.671,3-4.186s.008-2.7.008-2.7l-20.155-11.365a4.274,4.274,0,0,1-1.934-3.349v-23.95l-33.929,19.606,0,23.95a4.274,4.274,0,0,0,1.934,3.349L176,308.249A16.027,16.027,0,0,0,190.5,308.249Z" transform="translate(-156.923 -251.465)"/>
            </g>
            <path id="Trazado_92741" data-name="Trazado 92741" d="M165.067,311.941v2.691l-6.218-3.583a4.28,4.28,0,0,1-1.932-3.349V283.751l6.464-3.729c.134,1.641.279,3.338.413,4.991l-4.533,2.624v18.711a4.248,4.248,0,0,0,1.932,3.349Z" transform="translate(-156.917 -264.144)" opacity="0.3"/>
            <path id="Trazado_92742" data-name="Trazado 92742" d="M161.132,296.777a4.274,4.274,0,0,0,1.934,3.349l14.8,8.526a16.033,16.033,0,0,0,14.5,0l19.435-11.231c4.005-2.311,4.006-6.059,0-8.371L197,280.519a4.272,4.272,0,0,1-1.934-3.349V258.457l-33.93,19.606Z" transform="translate(-158.788 -254.569)" fill="#27debf"/>
            <path id="Trazado_92743" data-name="Trazado 92743" d="M161.132,296.777a4.274,4.274,0,0,0,1.934,3.349l14.8,8.526a16.033,16.033,0,0,0,14.5,0l19.435-11.231c4.005-2.311,4.006-6.059,0-8.371L197,280.519a4.272,4.272,0,0,1-1.934-3.349V258.457l-33.93,19.606Z" transform="translate(-158.788 -254.569)" opacity="0.3"/>
            <path id="Trazado_92744" data-name="Trazado 92744" d="M200.935,282.8v0L197,280.519a4.272,4.272,0,0,1-1.934-3.349V258.457l-33.93,19.606v18.714a4.274,4.274,0,0,0,1.934,3.349l3.871,2.235Z" transform="translate(-158.788 -254.569)" opacity="0.5"/>
            <path id="Trazado_92745" data-name="Trazado 92745" d="M234.228,321.007v2.7c0,1.518-1,3.026-3,4.187L211.8,339.121a14.552,14.552,0,0,1-6.922,1.719V338.15a14.546,14.546,0,0,0,6.922-1.72l19.429-11.236C233.224,324.044,234.228,322.525,234.228,321.007Z" transform="translate(-178.21 -282.341)" fill="#27debf"/>
            <path id="Trazado_92746" data-name="Trazado 92746" d="M234.228,321.007v2.7c0,1.518-1,3.026-3,4.187L211.8,339.121a14.552,14.552,0,0,1-6.922,1.719V338.15a14.546,14.546,0,0,0,6.922-1.72l19.429-11.236C233.224,324.044,234.228,322.525,234.228,321.007Z" transform="translate(-178.21 -282.341)" opacity="0.5"/>
          </g>
          <path id="Trazado_92747" data-name="Trazado 92747" d="M61.34,216.854a5.185,5.185,0,0,0,4.685-.087l131.216-75.756a5.342,5.342,0,0,0,2.416-4.186V30.676a5.184,5.184,0,0,0-2.267-4.1,5.185,5.185,0,0,0-4.685.087L61.492,102.418a5.344,5.344,0,0,0-2.417,4.187l0,106.149A5.183,5.183,0,0,0,61.34,216.854Z" transform="translate(-59.072 -26.057)" fill="#27debf"/>
          <path id="Trazado_92748" data-name="Trazado 92748" d="M69.648,219.072l131.216-75.756a5.343,5.343,0,0,0,2.417-4.187V32.98c0-1.541-1.082-2.166-2.417-1.4L69.65,107.341a5.342,5.342,0,0,0-2.417,4.187l0,106.149C67.231,219.218,68.313,219.843,69.648,219.072Z" transform="translate(-62.694 -28.365)" fill="#27debf"/>
          <path id="Trazado_92749" data-name="Trazado 92749" d="M69.648,219.072l131.216-75.756a5.343,5.343,0,0,0,2.417-4.187V32.98c0-1.541-1.082-2.166-2.417-1.4L69.65,107.341a5.342,5.342,0,0,0-2.417,4.187l0,106.149C67.231,219.218,68.313,219.843,69.648,219.072Z" transform="translate(-62.694 -28.365)" opacity="0.5"/>
          <path id="Trazado_92750" data-name="Trazado 92750" d="M65.669,362.943a5.218,5.218,0,0,1-4.331-.09,5.189,5.189,0,0,1-2.267-4.108V349.08L63.6,351.7v9.665C63.6,362.776,64.5,363.412,65.669,362.943Z" transform="translate(-59.071 -169.477)" fill="#27debf"/>
          <path id="Trazado_92751" data-name="Trazado 92751" d="M65.669,362.943a5.218,5.218,0,0,1-4.331-.09,5.189,5.189,0,0,1-2.267-4.108V349.08L63.6,351.7v9.665C63.6,362.776,64.5,363.412,65.669,362.943Z" transform="translate(-59.071 -169.477)" opacity="0.5"/>
          <path id="Trazado_92752" data-name="Trazado 92752" d="M67.224,291.06l0,9.662c0,1.541,1.082,2.166,2.417,1.4l131.216-75.756a5.342,5.342,0,0,0,2.417-4.186v-9.683Z" transform="translate(-62.691 -108.833)" fill="#27debf"/>
          <path id="Trazado_92753" data-name="Trazado 92753" d="M67.231,291.039v9.682c0,1.541,1.082,2.166,2.417,1.4l131.216-75.756a5.342,5.342,0,0,0,2.417-4.186v-9.683Z" transform="translate(-62.694 -108.833)" opacity="0.3"/>
          <path id="Trazado_92754" data-name="Trazado 92754" d="M75.385,204.4V118.967a3.206,3.206,0,0,1,1.45-2.512L200.913,44.82c.8-.463,1.451-.088,1.451.837l0,85.435a3.206,3.206,0,0,1-1.45,2.512L76.835,205.238C76.034,205.7,75.385,205.326,75.385,204.4Z" transform="translate(-66.314 -34.299)" fill="#27debf"/>
          <path id="Trazado_92755" data-name="Trazado 92755" d="M75.385,204.4V118.967a3.206,3.206,0,0,1,1.45-2.512L200.913,44.82c.8-.463,1.451-.088,1.451.837l0,85.435a3.206,3.206,0,0,1-1.45,2.512L76.835,205.238C76.034,205.7,75.385,205.326,75.385,204.4Z" transform="translate(-66.314 -34.299)" fill="#263238"/>
          <path id="Trazado_92756" data-name="Trazado 92756" d="M64.319,169.241a5.134,5.134,0,0,0-.714,2.389V270.7l-4.533-2.624,0-99.056a5,5,0,0,1,.712-2.389Z" transform="translate(-59.071 -88.469)" opacity="0.7"/>
          <path id="Trazado_92757" data-name="Trazado 92757" d="M200.2,30.275c-.171-1.247-1.177-1.7-2.395-1L66.6,105.035a4.982,4.982,0,0,0-1.709,1.795l-4.533-2.618a4.97,4.97,0,0,1,1.709-1.795L193.274,26.662a5.175,5.175,0,0,1,4.687-.086A5.2,5.2,0,0,1,200.2,30.275Z" transform="translate(-59.641 -26.057)" opacity="0.3"/>
        </g>
      </g>
      <g id="Window" transform="translate(42.819 15.883)">
        <g id="Window-2" data-name="Window">
          <path id="Trazado_92758" data-name="Trazado 92758" d="M92.7,139.763a2.582,2.582,0,0,1-1.129-2.042l0-9.4a2.661,2.661,0,0,1,1.2-2.085L216.284,54.925a2.259,2.259,0,0,1,3.459,2v9.4a2.652,2.652,0,0,1-1.2,2.084L95.037,139.719A2.582,2.582,0,0,1,92.7,139.763Z" transform="translate(-91.573 -54.624)" fill="#27debf"/>
          <path id="Trazado_92759" data-name="Trazado 92759" d="M220.016,56.728c-.083-.623-.589-.851-1.19-.5L95.32,127.54a2.571,2.571,0,0,0-.851.9l-2.257-1.307a2.489,2.489,0,0,1,.85-.9L216.569,54.926a2.248,2.248,0,0,1,3.447,1.8Z" transform="translate(-91.856 -54.624)" fill="#fff" opacity="0.4"/>
          <path id="Trazado_92760" data-name="Trazado 92760" d="M95.036,286.447a2.064,2.064,0,0,1-.946.287,2.374,2.374,0,0,1-1.384-.243,2.568,2.568,0,0,1-1.129-2.041l-.006-71.634,2.262,1.307v71.628c0,.545.274.86.669.86A1.183,1.183,0,0,0,95.036,286.447Z" transform="translate(-91.572 -124.86)" fill="#f0f0f0"/>
          <path id="Trazado_92761" data-name="Trazado 92761" d="M94.185,186.344a2.444,2.444,0,0,0-.35,1.184V201.79l-2.262-1.307V186.226c0-.05,0-.1.006-.146a1.993,1.993,0,0,1,.046-.3,2.727,2.727,0,0,1,.3-.745Z" transform="translate(-91.572 -112.526)" opacity="0.1"/>
          <path id="Trazado_92762" data-name="Trazado 92762" d="M221.55,58.071V64.5l-88.573,51.146c-.662.384-1.2.073-1.2-.7V112.52c0-.767-.539-1.078-1.206-.7l-29.207,16.864a2.659,2.659,0,0,0-1.207,2.085v2.435a2.666,2.666,0,0,1-1.2,2.085l-3.314,1.913v-6.434a2.669,2.669,0,0,1,1.2-2.085L220.349,57.376C221.01,56.993,221.55,57.3,221.55,58.071Z" transform="translate(-93.378 -55.773)" fill="#27debf"/>
          <g id="Grupo_57623" data-name="Grupo 57623" transform="translate(2.263 8.732)">
            <g id="Trazado_92763" data-name="Trazado 92763" transform="translate(-95.641 -70.328)" fill="#fafafa" stroke-linecap="round" stroke-linejoin="round">
              <path d="M 96.30724334716797 222.8475799560547 C 96.16258239746094 222.8475799560547 96.14098358154297 222.6222229003906 96.14098358154297 222.4878845214844 L 96.14098358154297 143.3197479248047 L 99.205322265625 141.5508422851563 C 99.66836547851563 141.2827453613281 99.96524810791016 140.3535461425781 100.6354446411133 137.9613647460938 C 100.9410095214844 136.8706970214844 101.4000930786133 135.2320098876953 101.6460037231445 134.9263153076172 L 130.1561431884766 118.4652481079102 C 130.4036254882813 118.7304229736328 130.8306274414063 119.4817352294922 131.0991516113281 119.9541397094727 C 131.8625640869141 121.2973785400391 132.288818359375 121.9982986450195 132.8878021240234 121.9982986450195 C 133.0072326660156 121.9982986450195 133.1250457763672 121.9665374755859 133.2285461425781 121.9064407348633 L 221.0506439208984 71.19410705566406 L 221.0506439208984 78.15660095214844 L 221.0506439208984 149.7848663330078 C 221.0506439208984 150.3738555908203 220.6061096191406 151.1461334228516 220.0993194580078 151.4375152587891 L 96.59250640869141 222.7504272460938 C 96.44662475585938 222.8350219726563 96.35120391845703 222.8475799560547 96.30724334716797 222.8475799560547 Z" stroke="none"/>
              <path d="M 96.64098358154297 222.1450653076172 L 219.8500823974609 151.0040588378906 C 220.2036437988281 150.80078125 220.5506439208984 150.1968841552734 220.5506439208984 149.7848663330078 L 220.5506439208984 78.15660095214844 L 220.5506439208984 72.06020355224609 L 133.4795227050781 122.3388824462891 C 133.2998657226563 122.4431838989258 133.0952606201172 122.4982986450195 132.8878021240234 122.4982986450195 C 131.9700012207031 122.4982986450195 131.4506225585938 121.5844802856445 130.6644439697266 120.2012176513672 C 130.4869232177734 119.8888702392578 130.2295989990234 119.4361267089844 130.0217895507813 119.1202011108398 L 102.0083160400391 135.2944793701172 C 101.7775650024414 135.7380981445313 101.368034362793 137.1998596191406 101.1169052124023 138.0962371826172 C 100.3775863647461 140.7351837158203 100.0856628417969 141.618896484375 99.45530700683594 141.9838562011719 L 96.64098358154297 143.6084442138672 L 96.64098358154297 222.1450653076172 M 96.30724334716797 223.3475799560547 C 95.91283416748047 223.3475799560547 95.64098358154297 223.0324249267578 95.64098358154297 222.4878845214844 L 95.64098358154297 143.0310363769531 L 98.95536804199219 141.1177978515625 C 99.61702728271484 140.7347259521484 100.695686340332 134.8966369628906 101.3628845214844 134.5124206542969 L 130.0812225341797 117.9311599731445 C 130.1096954345703 117.914794921875 130.1398468017578 117.9069595336914 130.1714477539063 117.9069595336914 C 130.8489074707031 117.9069595336914 132.2148284912109 121.4983062744141 132.8878173828125 121.4983062744141 C 132.9192962646484 121.4983062744141 132.9491729736328 121.490478515625 132.9774780273438 121.4740371704102 L 221.5506439208984 70.3280029296875 L 221.5506439208984 78.15660095214844 L 221.5506439208984 149.7848663330078 C 221.5506439208984 150.5521392822266 221.0157470703125 151.4873657226563 220.3485412597656 151.8709869384766 L 96.84252166748047 223.1834259033203 C 96.65045928955078 223.2947998046875 96.46855926513672 223.3475799560547 96.30724334716797 223.3475799560547 Z" stroke="none" fill="#e0e0e0"/>
            </g>
          </g>
          <g id="Grupo_57628" data-name="Grupo 57628" transform="translate(22.587 106.562)">
            <path id="Trazado_92764" data-name="Trazado 92764" d="M133,255.892l16.459-9.5c.443-.256.8-.048.8.463v27.715a1.773,1.773,0,0,1-.8,1.389L133,285.46c-.443.256-.8.048-.8-.463V257.282A1.774,1.774,0,0,1,133,255.892Z" transform="translate(-132.195 -246.279)" fill="#f0f0f0"/>
            <g id="Grupo_57625" data-name="Grupo 57625" transform="translate(3.01 5.208)">
              <path id="Trazado_92765" data-name="Trazado 92765" d="M138.412,261.789l10.439-6.027c.443-.256.8-.074.8.406a1.722,1.722,0,0,1-.8,1.332l-10.44,6.027c-.443.256-.8.074-.8-.406A1.72,1.72,0,0,1,138.412,261.789Z" transform="translate(-137.609 -255.646)" fill="#e0e0e0"/>
              <g id="Grupo_57624" data-name="Grupo 57624" transform="translate(0 3.477)">
                <path id="Trazado_92766" data-name="Trazado 92766" d="M137.609,273.811v.627c0,.307.216.431.482.278l.543-.314a1.064,1.064,0,0,0,.481-.833v-.627c0-.307-.215-.431-.482-.278l-.543.313A1.065,1.065,0,0,0,137.609,273.811Z" transform="translate(-137.609 -266.65)" fill="#27debf"/>
                <path id="Trazado_92767" data-name="Trazado 92767" d="M143.025,267.636c0,.48.359.662.8.406l7.428-4.289a1.72,1.72,0,0,0,.8-1.332c0-.48-.359-.662-.8-.406l-7.428,4.288A1.721,1.721,0,0,0,143.025,267.636Z" transform="translate(-140.014 -261.9)" fill="#e0e0e0"/>
                <path id="Trazado_92768" data-name="Trazado 92768" d="M137.609,280.071v.627c0,.307.216.431.482.278l.543-.314a1.063,1.063,0,0,0,.481-.833V279.2c0-.307-.215-.431-.482-.278l-.543.313A1.066,1.066,0,0,0,137.609,280.071Z" transform="translate(-137.609 -269.429)" fill="#27debf"/>
                <path id="Trazado_92769" data-name="Trazado 92769" d="M143.025,273.9c0,.48.359.662.8.406l7.428-4.288a1.72,1.72,0,0,0,.8-1.332c0-.48-.359-.662-.8-.406l-7.428,4.288A1.722,1.722,0,0,0,143.025,273.9Z" transform="translate(-140.014 -264.679)" fill="#e0e0e0"/>
                <path id="Trazado_92770" data-name="Trazado 92770" d="M137.609,286.319v.627c0,.307.216.431.482.278l.543-.314a1.064,1.064,0,0,0,.481-.834v-.627c0-.307-.215-.432-.482-.278l-.543.314A1.065,1.065,0,0,0,137.609,286.319Z" transform="translate(-137.609 -272.203)" fill="#27debf"/>
                <path id="Trazado_92771" data-name="Trazado 92771" d="M143.025,280.144c0,.48.359.662.8.406l7.428-4.289a1.72,1.72,0,0,0,.8-1.333c0-.48-.359-.662-.8-.406l-7.428,4.288A1.72,1.72,0,0,0,143.025,280.144Z" transform="translate(-140.014 -267.453)" fill="#e0e0e0"/>
                <path id="Trazado_92772" data-name="Trazado 92772" d="M137.609,292.565v.626c0,.307.216.432.482.278l.543-.313a1.065,1.065,0,0,0,.481-.834V291.7c0-.307-.215-.431-.482-.278l-.543.314A1.064,1.064,0,0,0,137.609,292.565Z" transform="translate(-137.609 -274.976)" fill="#27debf"/>
                <path id="Trazado_92773" data-name="Trazado 92773" d="M143.025,286.389c0,.48.359.662.8.406l7.428-4.288a1.72,1.72,0,0,0,.8-1.333c0-.48-.359-.662-.8-.406l-7.428,4.288A1.72,1.72,0,0,0,143.025,286.389Z" transform="translate(-140.014 -270.226)" fill="#e0e0e0"/>
              </g>
            </g>
            <g id="Grupo_57627" data-name="Grupo 57627" transform="translate(2.947 24.365)">
              <path id="Trazado_92774" data-name="Trazado 92774" d="M138.3,296.242l10.439-6.027c.443-.256.8-.074.8.406a1.722,1.722,0,0,1-.8,1.333L138.3,297.981c-.443.256-.8.074-.8-.406A1.721,1.721,0,0,1,138.3,296.242Z" transform="translate(-137.495 -290.1)" fill="#e0e0e0"/>
              <g id="Grupo_57626" data-name="Grupo 57626" transform="translate(0 3.477)">
                <path id="Trazado_92775" data-name="Trazado 92775" d="M137.495,308.265v.627c0,.307.215.431.481.278l.543-.313a1.065,1.065,0,0,0,.482-.834V307.4c0-.307-.216-.431-.482-.278l-.543.314A1.063,1.063,0,0,0,137.495,308.265Z" transform="translate(-137.495 -301.103)" fill="#27debf"/>
                <path id="Trazado_92776" data-name="Trazado 92776" d="M142.91,302.089c0,.48.359.662.8.406l7.428-4.288a1.72,1.72,0,0,0,.8-1.332c0-.48-.359-.662-.8-.406l-7.428,4.288A1.72,1.72,0,0,0,142.91,302.089Z" transform="translate(-139.899 -296.353)" fill="#e0e0e0"/>
              </g>
            </g>
          </g>
          <g id="Grupo_57629" data-name="Grupo 57629" transform="translate(109.478 6.126)">
            <path id="Trazado_92777" data-name="Trazado 92777" d="M310.732,65.849c.836-.483,1.515-.092,1.515.875a3.349,3.349,0,0,1-1.515,2.623c-.837.483-1.515.092-1.515-.875A3.347,3.347,0,0,1,310.732,65.849Z" transform="translate(-297.682 -65.642)" fill="#fff"/>
            <path id="Trazado_92778" data-name="Trazado 92778" d="M300.924,71.5c.837-.483,1.515-.092,1.515.875A3.346,3.346,0,0,1,300.924,75c-.837.483-1.515.092-1.515-.875A3.346,3.346,0,0,1,300.924,71.5Z" transform="translate(-293.328 -68.152)" fill="#fff"/>
            <ellipse id="Elipse_3653" data-name="Elipse 3653" cx="2.142" cy="1.237" rx="2.142" ry="1.237" transform="translate(0 9.481) rotate(-60.001)" fill="#fff"/>
          </g>
          <g id="Grupo_57630" data-name="Grupo 57630" transform="translate(0 8.732)">
            <path id="Trazado_92779" data-name="Trazado 92779" d="M221.551,70.328v7.829l-125.91,72.7v-7.829l2.475-1.433c.662-.384.884-.967,1.2-2.085l.839-2.915a3.014,3.014,0,0,1,1.207-2.085l28.718-16.581c.667-.384,1.188-.426,1.695.413l1.03,1.869c.378.653.567,1.036,1.228.653Z" transform="translate(-93.378 -70.328)" fill="#e6e6e6"/>
            <path id="Trazado_92780" data-name="Trazado 92780" d="M93.834,200.048v7.829l-2.263-1.307v-7.823Z" transform="translate(-91.571 -127.345)" fill="#e0e0e0"/>
          </g>
          <g id="Grupo_57635" data-name="Grupo 57635" transform="translate(5.339 11.585)">
            <path id="Trazado_92781" data-name="Trazado 92781" d="M103.619,201.572l-1.89,1.091.721-1.386a.347.347,0,0,0,.014-.339c-.056-.066-.152-.019-.215.1l-1.025,1.972,0,.008a.4.4,0,0,0-.027.073c0,.008-.007.016-.009.024a.429.429,0,0,0-.013.1.266.266,0,0,0,.013.087.119.119,0,0,0,.009.014.114.114,0,0,0,.027.042l0,0,1.025.788a.086.086,0,0,0,.1,0,.305.305,0,0,0,.115-.146c.055-.13.049-.274-.014-.322l-.721-.554,1.89-1.091a.4.4,0,0,0,.152-.322C103.771,201.589,103.7,201.523,103.619,201.572Z" transform="translate(-101.173 -131.158)" fill="#455a64" opacity="0.5"/>
            <path id="Trazado_92782" data-name="Trazado 92782" d="M108.291,198.762l1.89-1.091-.721-.554c-.063-.048-.07-.192-.014-.322s.152-.194.215-.146l1.025.788,0,0a.113.113,0,0,1,.027.041.071.071,0,0,1,.008.014.266.266,0,0,1,.013.087.422.422,0,0,1-.013.1.173.173,0,0,1-.008.024.436.436,0,0,1-.027.073l0,.008-1.025,1.972a.284.284,0,0,1-.1.116.084.084,0,0,1-.115-.014.344.344,0,0,1,.014-.338l.721-1.386-1.89,1.091c-.084.048-.152-.017-.152-.147A.4.4,0,0,1,108.291,198.762Z" transform="translate(-104.266 -129.26)" fill="#455a64" opacity="0.5"/>
            <path id="Trazado_92783" data-name="Trazado 92783" d="M117.878,190.613c-.012-.114-.111-.1-.161.024l-.259.633c-.441-.048-.976.383-1.337,1.148a2.557,2.557,0,0,0,0,2.614.667.667,0,0,0,.848.05,2.316,2.316,0,0,0,.849-1.03.325.325,0,0,0,0-.331c-.059-.057-.156,0-.215.124-.349.739-.918,1.069-1.268.732a1.911,1.911,0,0,1,0-1.952c.249-.527.607-.838.919-.857l-.2.477c-.051.123,0,.239.075.187l.771-.5a.25.25,0,0,0,.086-.211Z" transform="translate(-107.654 -126.552)" fill="#455a64" opacity="0.5"/>
            <path id="Trazado_92784" data-name="Trazado 92784" d="M155.022,160.819l.689-1.458a.443.443,0,0,0,0-.454c-.081-.078-.214,0-.295.17l-.689,1.458-.689-.663c-.081-.078-.214,0-.295.17a.443.443,0,0,0,0,.454l.689.663-.689,1.458a.442.442,0,0,0,0,.454.115.115,0,0,0,.147.009.4.4,0,0,0,.147-.179l.689-1.458.689.663a.117.117,0,0,0,.147.009.405.405,0,0,0,.147-.18.442.442,0,0,0,0-.454Z" transform="translate(-124.487 -112.495)" fill="#455a64" opacity="0.5"/>
            <path id="Trazado_92785" data-name="Trazado 92785" d="M124.072,143.647v-2.436a2.66,2.66,0,0,1,1.2-2.085L226.2,80.881c.664-.384,1.2-.073,1.2.7v2.436a2.661,2.661,0,0,1-1.2,2.085l-100.92,58.245C124.611,144.726,124.072,144.415,124.072,143.647Z" transform="translate(-111.34 -77.793)" fill="#fafafa"/>
            <path id="Trazado_92786" data-name="Trazado 92786" d="M305.294,83.289l.316.672a.076.076,0,0,0,.1.041l.707-.271c.112-.043.157.115.076.267l-.512.96a.318.318,0,0,0-.039.184l.121.869c.019.138-.1.32-.2.307l-.632-.078a.155.155,0,0,0-.127.073l-.633.808c-.1.128-.217.083-.2-.077l.121-1.009a.147.147,0,0,0-.039-.139l-.512-.37c-.081-.058-.036-.269.076-.355l.707-.545a.325.325,0,0,0,.1-.159l.316-1.037C305.1,83.266,305.244,83.182,305.294,83.289Z" transform="translate(-191.14 -78.914)" fill="none" stroke="#e0e0e0" stroke-miterlimit="10" stroke-width="0.75"/>
            <g id="Grupo_57634" data-name="Grupo 57634" transform="translate(117.062)" opacity="0.5">
              <g id="Grupo_57631" data-name="Grupo 57631">
                <path id="Trazado_92787" data-name="Trazado 92787" d="M312.13,78.249a.417.417,0,0,1-.208-.778l3.387-1.956a.417.417,0,1,1,.417.722l-3.387,1.956A.418.418,0,0,1,312.13,78.249Z" transform="translate(-311.712 -75.459)" fill="#455a64"/>
              </g>
              <g id="Grupo_57632" data-name="Grupo 57632" transform="translate(0 1.956)">
                <path id="Trazado_92788" data-name="Trazado 92788" d="M312.13,81.768a.417.417,0,0,1-.208-.778l3.387-1.956a.417.417,0,1,1,.417.722l-3.387,1.956A.418.418,0,0,1,312.13,81.768Z" transform="translate(-311.712 -78.978)" fill="#455a64"/>
              </g>
              <g id="Grupo_57633" data-name="Grupo 57633" transform="translate(0 3.913)">
                <path id="Trazado_92789" data-name="Trazado 92789" d="M312.13,85.287a.417.417,0,0,1-.208-.778l3.387-1.956a.417.417,0,1,1,.417.722l-3.387,1.956A.418.418,0,0,1,312.13,85.287Z" transform="translate(-311.712 -82.497)" fill="#455a64"/>
              </g>
            </g>
          </g>
          <g id="Grupo_57656" data-name="Grupo 57656" transform="translate(2.258 16.56)">
            <path id="Trazado_92790" data-name="Trazado 92790" d="M95.638,157.111l0,7.818,125.9-72.688.014-7.833Z" transform="translate(-95.633 -84.408)" fill="#455a64"/>
            <g id="Grupo_57655" data-name="Grupo 57655" transform="translate(9.034 5.829)">
              <g id="Grupo_57637" data-name="Grupo 57637" transform="translate(5.074 48.574)">
                <g id="Grupo_57636" data-name="Grupo 57636">
                  <path id="Trazado_92791" data-name="Trazado 92791" d="M121.007,196.8v1.512c0,.309.219.435.487.281l18.916-10.929v-2.635l-18.916,10.929A1.078,1.078,0,0,0,121.007,196.8Z" transform="translate(-121.007 -183.485)" fill="#fafafa"/>
                  <path id="Trazado_92792" data-name="Trazado 92792" d="M158.462,182.32c.269-.155.487-.029.487.281v1.512a1.075,1.075,0,0,1-.487.842l-2.557,1.476V183.8Z" transform="translate(-136.501 -182.253)" fill="#27debf"/>
                  <path id="Trazado_92793" data-name="Trazado 92793" d="M158.977,185.212l-.285-.089a1.555,1.555,0,0,0,.046-.367.672.672,0,0,0-.26-.609.4.4,0,0,0-.416.021,1.457,1.457,0,0,0-.57,1.185.673.673,0,0,0,.26.609.359.359,0,0,0,.181.048.465.465,0,0,0,.235-.069,1.2,1.2,0,0,0,.461-.616l.286.089a.1.1,0,0,0,.031,0,.106.106,0,0,0,.032-.207Zm-.915.547a.2.2,0,0,1-.2.02.5.5,0,0,1-.154-.426,1.271,1.271,0,0,1,.464-1,.264.264,0,0,1,.128-.041.148.148,0,0,1,.076.021.5.5,0,0,1,.155.426A1.27,1.27,0,0,1,158.062,185.758Z" transform="translate(-137.206 -183.072)" fill="#fafafa"/>
                </g>
              </g>
              <path id="Trazado_92794" data-name="Trazado 92794" d="M113.655,208.578l-1.293.746a1.065,1.065,0,0,0-.482.834v1.5c0,.307.216.432.482.278l1.293-.746a1.064,1.064,0,0,0,.482-.834v-1.5C114.137,208.549,113.922,208.425,113.655,208.578Z" transform="translate(-111.881 -145.338)" fill="#fafafa"/>
              <g id="Grupo_57644" data-name="Grupo 57644" transform="translate(44.878 11.899)">
                <g id="Grupo_57641" data-name="Grupo 57641" transform="translate(0 24.585)">
                  <path id="Trazado_92795" data-name="Trazado 92795" d="M194.321,160.745a3.814,3.814,0,0,0-1.725,2.989c0,1.1.773,1.546,1.726,1a3.812,3.812,0,0,0,1.725-2.989C196.046,160.641,195.274,160.194,194.321,160.745Z" transform="translate(-192.596 -160.509)" fill="#27debf"/>
                  <g id="Grupo_57640" data-name="Grupo 57640" transform="translate(0.773 0.75)">
                    <g id="Grupo_57638" data-name="Grupo 57638" transform="translate(0.432)">
                      <path id="Trazado_92796" data-name="Trazado 92796" d="M195.082,163.1a.3.3,0,0,1-.153-.04.375.375,0,0,1-.166-.345.99.99,0,0,1,.454-.787h0a.34.34,0,0,1,.548.317.99.99,0,0,1-.454.787A.463.463,0,0,1,195.082,163.1Z" transform="translate(-194.763 -161.858)" fill="#fff"/>
                    </g>
                    <g id="Grupo_57639" data-name="Grupo 57639" transform="translate(0 1.292)">
                      <path id="Trazado_92797" data-name="Trazado 92797" d="M195.62,164.245a.6.6,0,0,0-.607.047l-.251.144a1.7,1.7,0,0,0-.776,1.346v.177a.963.963,0,0,0,.952-.1,2.77,2.77,0,0,0,.953-1v-.043A.627.627,0,0,0,195.62,164.245Z" transform="translate(-193.986 -164.182)" fill="#fff"/>
                    </g>
                  </g>
                </g>
                <path id="Trazado_92798" data-name="Trazado 92798" d="M202.107,152.98l11.818-6.823c.479-.276.867-.067.867.468a1.886,1.886,0,0,1-.866,1.47l-11.818,6.823c-.479.276-.867.067-.867-.468A1.885,1.885,0,0,1,202.107,152.98Z" transform="translate(-196.434 -129.498)" fill="#e0e0e0"/>
                <path id="Trazado_92799" data-name="Trazado 92799" d="M234.55,136.313l7.33-4.273c.479-.276.867-.067.867.468a1.887,1.887,0,0,1-.866,1.47l-7.33,4.273c-.479.276-.867.067-.867-.468A1.885,1.885,0,0,1,234.55,136.313Z" transform="translate(-210.839 -123.23)" fill="#e0e0e0"/>
                <path id="Trazado_92800" data-name="Trazado 92800" d="M258.949,123.361l5.057-2.938c.479-.276.867-.067.867.468a1.886,1.886,0,0,1-.867,1.47L258.95,125.3c-.479.276-.867.067-.867-.468A1.885,1.885,0,0,1,258.949,123.361Z" transform="translate(-221.672 -118.072)" fill="#e0e0e0"/>
                <g id="Grupo_57642" data-name="Grupo 57642" transform="translate(20.408 14.343)">
                  <path id="Trazado_92801" data-name="Trazado 92801" d="M229.509,145.114a.208.208,0,0,1-.208-.208V142.3a.208.208,0,1,1,.417,0v2.608A.209.209,0,0,1,229.509,145.114Z" transform="translate(-229.301 -142.089)" fill="#263238"/>
                </g>
                <g id="Grupo_57643" data-name="Grupo 57643" transform="translate(33.959)">
                  <path id="Trazado_92802" data-name="Trazado 92802" d="M253.882,131.044a.208.208,0,0,1-.209-.209v-2.608a.209.209,0,1,1,.417,0v2.608A.209.209,0,0,1,253.882,131.044Z" transform="translate(-253.673 -121.499)" fill="#263238"/>
                  <path id="Trazado_92803" data-name="Trazado 92803" d="M274.191,119.317a.208.208,0,0,1-.208-.209V116.5a.209.209,0,0,1,.417,0v2.608A.209.209,0,0,1,274.191,119.317Z" transform="translate(-262.69 -116.292)" fill="#263238"/>
                </g>
              </g>
              <g id="Grupo_57654" data-name="Grupo 57654" transform="translate(92.885)">
                <g id="Grupo_57645" data-name="Grupo 57645" transform="translate(0 9.772)">
                  <path id="Trazado_92804" data-name="Trazado 92804" d="M280.736,113.6v-.48c0-.547-.332-.8-.743-.562h0a1.78,1.78,0,0,0-.743,1.42v.428a1.7,1.7,0,0,1-.25.837v0a.468.468,0,0,0-.061.219h0c0,.138.083.2.187.142l1.736-1a.451.451,0,0,0,.187-.358h0a.175.175,0,0,0-.055-.145l0,0A.508.508,0,0,1,280.736,113.6Z" transform="translate(-278.938 -112.466)" fill="#27debf"/>
                  <path id="Trazado_92805" data-name="Trazado 92805" d="M280.906,117.1a.854.854,0,0,1-.356.681c-.2.114-.357-.007-.357-.27Z" transform="translate(-279.495 -114.525)" fill="#27debf"/>
                </g>
                <g id="Grupo_57652" data-name="Grupo 57652" transform="translate(4.124 6.113)">
                  <g id="Grupo_57648" data-name="Grupo 57648" transform="translate(0 1.287)">
                    <g id="Grupo_57646" data-name="Grupo 57646" transform="translate(0.488)">
                      <path id="Trazado_92806" data-name="Trazado 92806" d="M287.592,109.6a.345.345,0,0,1-.173-.045.424.424,0,0,1-.187-.39,1.117,1.117,0,0,1,.513-.888h0a.384.384,0,0,1,.619.358,1.119,1.119,0,0,1-.513.888A.524.524,0,0,1,287.592,109.6Z" transform="translate(-287.232 -108.2)" fill="#27debf"/>
                    </g>
                    <g id="Grupo_57647" data-name="Grupo 57647" transform="translate(0 1.459)">
                      <path id="Trazado_92807" data-name="Trazado 92807" d="M288.2,110.9a.672.672,0,0,0-.686.053l-.283.162a1.914,1.914,0,0,0-.876,1.518v.2a1.086,1.086,0,0,0,1.075-.114,3.124,3.124,0,0,0,1.075-1.126v-.048A.707.707,0,0,0,288.2,110.9Z" transform="translate(-286.355 -110.824)" fill="#27debf"/>
                    </g>
                  </g>
                  <g id="Grupo_57651" data-name="Grupo 57651" transform="translate(1.538)">
                    <g id="Grupo_57649" data-name="Grupo 57649" transform="translate(0.326)">
                      <path id="Trazado_92808" data-name="Trazado 92808" d="M290.069,107.285a.345.345,0,0,1-.173-.045.424.424,0,0,1-.187-.39,1.119,1.119,0,0,1,.513-.888h0a.384.384,0,0,1,.619.358,1.118,1.118,0,0,1-.513.888A.519.519,0,0,1,290.069,107.285Z" transform="translate(-289.709 -105.885)" fill="#27debf"/>
                    </g>
                    <g id="Grupo_57650" data-name="Grupo 57650" transform="translate(0 1.458)">
                      <path id="Trazado_92809" data-name="Trazado 92809" d="M290.807,108.58a.678.678,0,0,0-.689.05l-.278.167a1.794,1.794,0,0,0-.717.845.634.634,0,0,1,.606-.011.7.7,0,0,1,.306.645v.122a3.086,3.086,0,0,0,1.079-1.123v-.05A.7.7,0,0,0,290.807,108.58Z" transform="translate(-289.122 -108.508)" fill="#27debf"/>
                    </g>
                  </g>
                </g>
                <path id="Trazado_92810" data-name="Trazado 92810" d="M297.2,102.084a3.133,3.133,0,0,0-1.414,2.457,1.07,1.07,0,0,0,.317.841l-.177.838c-.023.107.049.152.117.072l.636-.744a1.358,1.358,0,0,0,.522-.182,3.134,3.134,0,0,0,1.414-2.457C298.612,102,297.979,101.633,297.2,102.084Z" transform="translate(-286.417 -97.999)" fill="#27debf"/>
                <g id="Grupo_57653" data-name="Grupo 57653" transform="translate(16.657)">
                  <path id="Trazado_92811" data-name="Trazado 92811" d="M309.819,95.017a.866.866,0,0,1,.35-.123.468.468,0,0,1,.286.054.477.477,0,0,1,.19.222.9.9,0,0,1,.07.381,1.427,1.427,0,0,1-.039.345,2.224,2.224,0,0,1-.1.309,2.75,2.75,0,0,1-.135.28c-.048.088-.1.173-.141.258s-.087.168-.123.252a1.038,1.038,0,0,0-.075.25.514.514,0,0,1-.032.116.143.143,0,0,1-.057.074l-.405.234a.048.048,0,0,1-.063,0,.11.11,0,0,1-.027-.082,1.215,1.215,0,0,1,.044-.327,2.412,2.412,0,0,1,.111-.307c.044-.1.093-.194.145-.285s.1-.178.144-.26a2.329,2.329,0,0,0,.112-.236.59.59,0,0,0,.044-.215c0-.1-.025-.162-.073-.191s-.123-.013-.226.046A.588.588,0,0,0,309.6,96a.869.869,0,0,0-.094.205c-.02.067-.037.127-.052.181a.181.181,0,0,1-.085.118l-.406.234a.042.042,0,0,1-.051,0,.089.089,0,0,1-.021-.07,1.722,1.722,0,0,1,.066-.414,2.508,2.508,0,0,1,.181-.468,2.4,2.4,0,0,1,.288-.44A1.425,1.425,0,0,1,309.819,95.017Zm.289,3.325a.253.253,0,0,1-.027.113.168.168,0,0,1-.063.077l-.419.242a.048.048,0,0,1-.063-.005.108.108,0,0,1-.027-.082v-.516a.262.262,0,0,1,.027-.113.171.171,0,0,1,.063-.077l.419-.241a.048.048,0,0,1,.063,0,.107.107,0,0,1,.027.082Z" transform="translate(-308.896 -94.891)" fill="#27debf"/>
                </g>
              </g>
            </g>
          </g>
          <g id="Grupo_57664" data-name="Grupo 57664" transform="translate(22.585 39.252)">
            <g id="Grupo_57657" data-name="Grupo 57657">
              <path id="Trazado_92812" data-name="Trazado 92812" d="M132.192,175.319v23.292c0,.768.539,1.079,1.2.7l82.857-47.848a2.66,2.66,0,0,0,1.2-2.085V126.08c0-.768-.539-1.079-1.2-.7L133.4,173.234A2.661,2.661,0,0,0,132.192,175.319Z" transform="translate(-132.192 -125.22)" fill="#27debf"/>
              <path id="Trazado_92813" data-name="Trazado 92813" d="M132.192,175.319v23.292c0,.768.539,1.079,1.2.7l82.857-47.848a2.66,2.66,0,0,0,1.2-2.085V126.08c0-.768-.539-1.079-1.2-.7L133.4,173.234A2.661,2.661,0,0,0,132.192,175.319Z" transform="translate(-132.192 -125.22)" fill="#fff" opacity="0.7"/>
            </g>
            <g id="Grupo_57661" data-name="Grupo 57661" transform="translate(2.258 52.873)">
              <path id="Trazado_92814" data-name="Trazado 92814" d="M140.77,220.931a9.985,9.985,0,0,0-4.517,7.825c0,2.881,2.023,4.048,4.518,2.608a9.978,9.978,0,0,0,4.516-7.825C145.285,220.659,143.262,219.491,140.77,220.931Z" transform="translate(-136.253 -220.315)" fill="#27debf"/>
              <g id="Grupo_57660" data-name="Grupo 57660" transform="translate(2.023 1.963)">
                <g id="Grupo_57658" data-name="Grupo 57658" transform="translate(1.131)">
                  <path id="Trazado_92815" data-name="Trazado 92815" d="M142.761,227.094a.8.8,0,0,1-.4-.1.982.982,0,0,1-.435-.9,2.594,2.594,0,0,1,1.189-2.06h0a.891.891,0,0,1,1.436.83,2.6,2.6,0,0,1-1.189,2.06A1.217,1.217,0,0,1,142.761,227.094Z" transform="translate(-141.925 -223.846)" fill="#fff"/>
                </g>
                <g id="Grupo_57659" data-name="Grupo 57659" transform="translate(0 3.383)">
                  <path id="Trazado_92816" data-name="Trazado 92816" d="M144.169,230.095a1.561,1.561,0,0,0-1.59.122l-.656.378a4.441,4.441,0,0,0-2.032,3.522v.464a2.519,2.519,0,0,0,2.494-.264,7.249,7.249,0,0,0,2.494-2.613v-.112A1.642,1.642,0,0,0,144.169,230.095Z" transform="translate(-139.891 -229.929)" fill="#fff"/>
                </g>
              </g>
            </g>
            <g id="Grupo_57662" data-name="Grupo 57662" transform="translate(13.55 46.884)">
              <path id="Trazado_92817" data-name="Trazado 92817" d="M157.43,215.2,167,209.674c.479-.276.867-.1.867.389a1.816,1.816,0,0,1-.867,1.389l-9.568,5.526c-.479.276-.867.1-.867-.389A1.818,1.818,0,0,1,157.43,215.2Z" transform="translate(-156.563 -209.543)" fill="#455a64"/>
              <path id="Trazado_92818" data-name="Trazado 92818" d="M157.073,223.712l5.625-3.248c.282-.162.51-.061.51.228a1.066,1.066,0,0,1-.51.817l-5.625,3.249c-.281.163-.51.06-.51-.229A1.07,1.07,0,0,1,157.073,223.712Z" transform="translate(-156.563 -214.358)" fill="#455a64"/>
            </g>
            <path id="Trazado_92819" data-name="Trazado 92819" d="M133.4,215.6l82.857-47.848a2.662,2.662,0,0,0,1.2-2.085v-3.816l-85.264,49.227v3.826C132.192,215.677,132.731,215.988,133.4,215.6Z" transform="translate(-132.192 -141.486)" fill="#f5f5f5"/>
            <g id="Grupo_57663" data-name="Grupo 57663" transform="translate(11.614 28.914)">
              <path id="Trazado_92820" data-name="Trazado 92820" d="M172.645,231.878a.209.209,0,0,1-.208-.209v-2.608a.208.208,0,0,1,.417,0v2.608A.208.208,0,0,1,172.645,231.878Z" transform="translate(-161.674 -200.147)" fill="#ebebeb"/>
              <path id="Trazado_92821" data-name="Trazado 92821" d="M153.946,236.96l7.33-4.273c.479-.276.867-.067.867.469a1.885,1.885,0,0,1-.866,1.469l-7.33,4.273c-.479.277-.867.067-.867-.468A1.885,1.885,0,0,1,153.946,236.96Z" transform="translate(-153.08 -201.795)" fill="#e0e0e0"/>
              <path id="Trazado_92822" data-name="Trazado 92822" d="M196.453,218.042a.209.209,0,0,1-.208-.209v-2.608a.208.208,0,1,1,.417,0v2.608A.209.209,0,0,1,196.453,218.042Z" transform="translate(-172.245 -194.004)" fill="#ebebeb"/>
              <path id="Trazado_92823" data-name="Trazado 92823" d="M177.755,223.125l7.33-4.273c.479-.276.867-.067.867.468a1.887,1.887,0,0,1-.866,1.47l-7.33,4.273c-.479.276-.867.067-.867-.468A1.885,1.885,0,0,1,177.755,223.125Z" transform="translate(-163.651 -195.652)" fill="#e0e0e0"/>
              <path id="Trazado_92824" data-name="Trazado 92824" d="M220.262,204.207a.209.209,0,0,1-.208-.208v-2.608a.209.209,0,1,1,.417,0V204A.209.209,0,0,1,220.262,204.207Z" transform="translate(-182.816 -187.861)" fill="#ebebeb"/>
              <path id="Trazado_92825" data-name="Trazado 92825" d="M201.564,209.29l7.33-4.273c.479-.276.867-.067.867.468a1.886,1.886,0,0,1-.866,1.469l-7.33,4.273c-.479.276-.867.067-.867-.468A1.885,1.885,0,0,1,201.564,209.29Z" transform="translate(-174.222 -189.51)" fill="#e0e0e0"/>
              <path id="Trazado_92826" data-name="Trazado 92826" d="M244.072,190.372a.209.209,0,0,1-.208-.208v-2.608a.209.209,0,1,1,.417,0v2.608A.209.209,0,0,1,244.072,190.372Z" transform="translate(-193.387 -181.718)" fill="#ebebeb"/>
              <path id="Trazado_92827" data-name="Trazado 92827" d="M225.373,195.454l7.33-4.273c.479-.276.867-.067.867.469a1.885,1.885,0,0,1-.867,1.469l-7.33,4.273c-.479.276-.867.067-.867-.468A1.883,1.883,0,0,1,225.373,195.454Z" transform="translate(-184.793 -183.367)" fill="#e0e0e0"/>
              <path id="Trazado_92828" data-name="Trazado 92828" d="M249.182,181.619l7.33-4.273c.478-.276.867-.067.867.468a1.886,1.886,0,0,1-.867,1.47l-7.33,4.273c-.479.276-.867.067-.867-.468A1.883,1.883,0,0,1,249.182,181.619Z" transform="translate(-195.364 -177.224)" fill="#e0e0e0"/>
            </g>
          </g>
        </g>
      </g>
      <g id="Plants" transform="translate(39.393 157.646)">
        <g id="Plants-2" data-name="Plants">
          <path id="Trazado_92829" data-name="Trazado 92829" d="M122.97,359.242l7.392-4.258s4.585-13.5,3.424-25.932c-1.443-15.45-8.738-20.88-13.026-19.156s-3.4,7.879,1.142,16.134C125.5,332.576,125.512,347.656,122.97,359.242Z" transform="translate(-99.869 -309.589)" fill="#27debf"/>
          <path id="Trazado_92830" data-name="Trazado 92830" d="M122.97,359.242l7.392-4.258s4.585-13.5,3.424-25.932c-1.443-15.45-8.738-20.88-13.026-19.156s-3.4,7.879,1.142,16.134C125.5,332.576,125.512,347.656,122.97,359.242Z" transform="translate(-99.869 -309.589)" opacity="0.1"/>
          <g id="Grupo_57666" data-name="Grupo 57666" transform="translate(22.349 3.36)">
            <g id="Grupo_57665" data-name="Grupo 57665">
              <path id="Trazado_92831" data-name="Trazado 92831" d="M129.909,360.231a.336.336,0,0,0,.319-.231c4.759-14.573,4.958-35.04-4.048-44.266a.335.335,0,0,0-.48.469c8.5,8.71,8.655,29,3.89,43.589a.336.336,0,0,0,.215.423A.341.341,0,0,0,129.909,360.231Z" transform="translate(-125.605 -315.633)" fill="#fff"/>
            </g>
          </g>
          <g id="Grupo_57670" data-name="Grupo 57670" transform="translate(0 16.741)">
            <path id="Trazado_92832" data-name="Trazado 92832" d="M95.233,380.275c-.765.439-2.342-.522-2.947-.927a7.3,7.3,0,0,1-2.429-2.788,6.837,6.837,0,0,1-.608-4.111,16.175,16.175,0,0,1,.52-2.186l.61-2.122a5.369,5.369,0,0,0,.311-2.14c-.185-1.451-1.473-2.468-2.644-3.345-1.295-.969-2.643-2.25-2.636-4A6.148,6.148,0,0,1,86.948,355c.835-1.058,1.826-1.993,2.582-3.109a4.291,4.291,0,0,0,.879-2.715,4.482,4.482,0,0,0-.591-1.7,24.026,24.026,0,0,1-1.857-3.4,3.421,3.421,0,0,1,.589-3.616,4,4,0,0,1,3.006-.748,6.891,6.891,0,0,1,2.8.984c2.773,1.542,4.356,4.827,7.3,6.013a29.311,29.311,0,0,0,3.562.871,4.4,4.4,0,0,1,2.938,2.012c1.08,2.158-.925,4.817-.165,7.107.672,2.027,2.642,2.8,3.748,4.63a4.334,4.334,0,0,1,.517,2.653,12.741,12.741,0,0,1-1.119,4.484,31.908,31.908,0,0,1-2.461,4.039C108.626,372.557,95.35,380.208,95.233,380.275Z" transform="translate(-85.409 -339.699)" fill="#27debf"/>
            <g id="Grupo_57667" data-name="Grupo 57667" transform="translate(5.499 1.909)">
              <path id="Trazado_92833" data-name="Trazado 92833" d="M107.552,377.518a.3.3,0,0,0,.3-.262c1.429-11.322-3.976-26.594-12.047-34.043a.3.3,0,1,0-.405.439c7.946,7.334,13.266,22.375,11.859,33.529a.3.3,0,0,0,.259.334Z" transform="translate(-95.3 -343.133)" fill="#fff"/>
            </g>
            <g id="Grupo_57668" data-name="Grupo 57668" transform="translate(4.731 18.48)">
              <path id="Trazado_92834" data-name="Trazado 92834" d="M105.558,376.262a.3.3,0,0,0,.18-.538c-4.454-3.342-11.261-2.759-11.548-2.733a.3.3,0,0,0-.27.325.3.3,0,0,0,.325.27c.068-.007,6.866-.586,11.135,2.616A.3.3,0,0,0,105.558,376.262Z" transform="translate(-93.918 -372.936)" fill="#fff"/>
            </g>
            <g id="Grupo_57669" data-name="Grupo 57669" transform="translate(15.401 9.856)">
              <path id="Trazado_92835" data-name="Trazado 92835" d="M113.407,366.6a.3.3,0,0,0,.3-.287,12.1,12.1,0,0,1,4.16-8.352.3.3,0,0,0-.369-.471,12.481,12.481,0,0,0-4.389,8.8.3.3,0,0,0,.287.311Z" transform="translate(-113.108 -357.426)" fill="#fff"/>
            </g>
          </g>
        </g>
      </g>
      <g id="Post" transform="translate(85.73 86.885)">
        <g id="Post-2" data-name="Post">
          <g id="Grupo_57671" data-name="Grupo 57671">
            <path id="Trazado_92836" data-name="Trazado 92836" d="M211.662,330.139a37.9,37.9,0,0,1-18.528-27.179l-3.942-26.17a37.9,37.9,0,0,0-15.3-25.089l-5.144-3.712v2.934l2.789,2.013a37.9,37.9,0,0,1,15.292,25.024l4.018,26.351a37.9,37.9,0,0,0,18.517,27.112l2.3,1.325v-2.608Z" transform="translate(-168.749 -211.478)" fill="#ebebeb"/>
            <g id="Trazado_92837" data-name="Trazado 92837" transform="translate(-168.749 -182.323)" fill="#fafafa" stroke-linecap="round" stroke-linejoin="round">
              <path d="M 211.6633453369141 300.4054565429688 C 209.3188629150391 299.0276794433594 207.1235504150391 297.392333984375 205.1347045898438 295.541748046875 C 203.1004791259766 293.6488952636719 201.2750091552734 291.5244445800781 199.7090759277344 289.2274169921875 C 198.1431121826172 286.9303894042969 196.8326110839844 284.454833984375 195.8140106201172 281.8695678710938 C 194.7829284667969 279.252685546875 194.0475463867188 276.5141906738281 193.6282653808594 273.7301940917969 L 189.6867370605469 247.560546875 C 188.1578063964844 237.4114227294922 182.5079345703125 228.1461029052734 174.185791015625 222.1402740478516 L 169.6681671142578 218.8804779052734 L 231.9579620361328 182.9177856445313 L 236.8392028808594 186.4408874511719 C 240.8988494873047 189.3705902099609 244.2787628173828 193.0232086181641 246.8851013183594 197.2973022460938 C 249.4915618896484 201.5715637207031 251.1911010742188 206.2488250732422 251.9365234375 211.1991729736328 L 255.8780364990234 237.3688354492188 C 257.5858154296875 248.7073211669922 264.1400756835938 258.5370178222656 273.9103088378906 264.4677124023438 L 211.6633453369141 300.4054565429688 Z" stroke="none"/>
              <path d="M 231.9277191162109 183.5125732421875 L 170.5873413085938 218.9271545410156 L 174.4783935546875 221.7348327636719 C 182.9088745117188 227.8188629150391 188.6323394775391 237.2048187255859 190.18115234375 247.4860687255859 L 194.1226654052734 273.6557312011719 C 194.5363464355469 276.4025268554688 195.2619018554688 279.1043701171875 196.2791900634766 281.686279296875 C 197.2841796875 284.2369995117188 198.5771484375 286.679443359375 200.1221923828125 288.94580078125 C 201.6672058105469 291.2120971679688 203.46826171875 293.3081665039063 205.4753112792969 295.1756896972656 C 207.3667449951172 296.9356384277344 209.4473571777344 298.4982299804688 211.6667175292969 299.8261413574219 L 272.937744140625 264.4518432617188 C 263.433837890625 258.404296875 257.0718383789063 248.6520385742188 255.3836059570313 237.4432983398438 L 251.4421081542969 211.2736206054688 C 250.7066497802734 206.3894653320313 249.0298309326172 201.7747497558594 246.4582061767578 197.5576171875 C 243.88671875 193.3406677246094 240.5519714355469 189.7368774414063 236.5465698242188 186.8463134765625 L 231.9277191162109 183.5125732421875 M 231.9882049560547 182.3229675292969 L 237.1318054199219 186.0354614257813 C 245.3980255126953 192.0008850097656 250.9130401611328 201.0443420410156 252.4309539794922 211.1247253417969 L 256.3724365234375 237.2943725585938 C 258.090576171875 248.7014465332031 264.9105529785156 258.7051391601563 274.90087890625 264.47314453125 L 211.6622467041016 300.9834289550781 C 201.6719055175781 295.2159423828125 194.8518829345703 285.2122497558594 193.1338195800781 273.8046569824219 L 189.1923065185547 247.635009765625 C 187.673828125 237.55517578125 182.1593322753906 228.5111389160156 173.8931884765625 222.5457153320313 L 168.7489929199219 218.8338012695313 L 231.9882049560547 182.3229675292969 Z" stroke="none" fill="#e0e0e0"/>
            </g>
            <path id="Trazado_92838" data-name="Trazado 92838" d="M245.93,366.583l63.239-36.511v2.608L245.93,369.191Z" transform="translate(-203.017 -247.923)" fill="#f5f5f5"/>
          </g>
          <g id="Grupo_57675" data-name="Grupo 57675" transform="translate(9.998 34.043)">
            <path id="Trazado_92839" data-name="Trazado 92839" d="M188.552,244.054c-2.2.939-2.441,2.867-.525,4.309a8.308,8.308,0,0,0,7.462.911c2.206-.938,2.444-2.867.525-4.308A8.313,8.313,0,0,0,188.552,244.054Z" transform="translate(-186.731 -243.55)" fill="#27debf"/>
            <g id="Grupo_57674" data-name="Grupo 57674" transform="translate(2.13 1.134)">
              <g id="Grupo_57672" data-name="Grupo 57672">
                <path id="Trazado_92840" data-name="Trazado 92840" d="M192.639,247.305a3.036,3.036,0,0,1-.578-.017,2.439,2.439,0,0,1-1.153-.414c-.512-.385-.451-.883.138-1.134h0a2.763,2.763,0,0,1,2.371.29c.512.385.451.884-.138,1.134A1.99,1.99,0,0,1,192.639,247.305Z" transform="translate(-190.561 -245.591)" fill="#fff"/>
              </g>
              <g id="Grupo_57673" data-name="Grupo 57673" transform="translate(1.864 1.625)">
                <path id="Trazado_92841" data-name="Trazado 92841" d="M197.258,248.552a3.874,3.874,0,0,0-1.935.2l-.58.246c-1.006.429-1.11,1.281-.235,1.939l.309.232a7.089,7.089,0,0,0,3.145-.25c.952-.369,1.538-.792,1.625-1.4l-.432-.284A4.053,4.053,0,0,0,197.258,248.552Z" transform="translate(-193.914 -248.514)" fill="#fff"/>
              </g>
            </g>
          </g>
          <g id="Grupo_57676" data-name="Grupo 57676" transform="translate(21.567 19.459)">
            <path id="Trazado_92842" data-name="Trazado 92842" d="M208.054,228.306l18.571-10.722a2.273,2.273,0,0,1,2.329.12l.17.134a.9.9,0,0,1-.131,1.582l-18.554,10.748a2.157,2.157,0,0,1-2.267-.2l-.2-.154A.838.838,0,0,1,208.054,228.306Z" transform="translate(-207.538 -217.32)" fill="#455a64"/>
            <path id="Trazado_92843" data-name="Trazado 92843" d="M214.69,239.589l9.294-5.367a.492.492,0,0,0,.1-.827l-.169-.161a.977.977,0,0,0-1.1-.129l-9.244,5.406a.5.5,0,0,0-.1.832l.117.112A.98.98,0,0,0,214.69,239.589Z" transform="translate(-210.091 -224.277)" fill="#455a64"/>
          </g>
          <g id="Grupo_57677" data-name="Grupo 57677" transform="translate(19.448 15.823)">
            <path id="Trazado_92844" data-name="Trazado 92844" d="M204.369,239.919l50.124-28.939a1.547,1.547,0,0,1,2.009.438l.1.15a1.3,1.3,0,0,1-.446,1.86L206.023,242.39a1.479,1.479,0,0,1-1.953-.475l-.108-.161A1.259,1.259,0,0,1,204.369,239.919Z" transform="translate(-203.727 -210.782)" opacity="0.2"/>
            <path id="Trazado_92845" data-name="Trazado 92845" d="M209.766,248.8l50.164-28.963a1.285,1.285,0,0,1,1.826.547l.078.163a1.558,1.558,0,0,1-.633,1.962L211.029,251.5a1.228,1.228,0,0,1-1.766-.576c-.028-.061-.057-.121-.085-.182A1.514,1.514,0,0,1,209.766,248.8Z" transform="translate(-206.083 -214.72)" opacity="0.2"/>
            <path id="Trazado_92846" data-name="Trazado 92846" d="M213.733,258.438l50.2-28.982a1.069,1.069,0,0,1,1.629.629l.072.246a1.881,1.881,0,0,1-.835,2.035l-50.217,29.006a1.013,1.013,0,0,1-1.561-.648c-.026-.09-.051-.178-.077-.266A1.828,1.828,0,0,1,213.733,258.438Z" transform="translate(-207.792 -218.996)" opacity="0.2"/>
            <path id="Trazado_92847" data-name="Trazado 92847" d="M216.214,278.652l29.18-16.851a.885.885,0,0,1,1.415.679l.06.389a2.19,2.19,0,0,1-.992,2.069l-29.185,16.869a.881.881,0,0,1-1.41-.678l-.062-.408A2.193,2.193,0,0,1,216.214,278.652Z" transform="translate(-208.821 -233.36)" opacity="0.2"/>
          </g>
          <g id="Grupo_57678" data-name="Grupo 57678" transform="translate(27.397 41.629)">
            <path id="Trazado_92848" data-name="Trazado 92848" d="M277.805,292.539,230.05,320.117a3.08,3.08,0,0,1-4.031-.866,42.617,42.617,0,0,1-6.049-17.288l-1.91-12.675a4.393,4.393,0,0,1,1.993-4.139l47.839-27.622a1.764,1.764,0,0,1,2.822,1.359l1.91,12.68a39.893,39.893,0,0,0,5.991,17.309A2.525,2.525,0,0,1,277.805,292.539Z" transform="translate(-218.024 -257.195)" fill="#27debf"/>
            <path id="Trazado_92849" data-name="Trazado 92849" d="M277.805,292.539,230.05,320.117a3.08,3.08,0,0,1-4.031-.866,42.617,42.617,0,0,1-6.049-17.288l-1.91-12.675a4.393,4.393,0,0,1,1.993-4.139l47.839-27.622a1.764,1.764,0,0,1,2.822,1.359l1.91,12.68a39.893,39.893,0,0,0,5.991,17.309A2.525,2.525,0,0,1,277.805,292.539Z" transform="translate(-218.024 -257.195)" fill="#fff" opacity="0.7"/>
            <path id="Trazado_92850" data-name="Trazado 92850" d="M233.936,335.9l47.755-27.578a2.526,2.526,0,0,0,.809-3.664,37.032,37.032,0,0,1-3.793-7.735l-14.814-4.183-6.578,14.6,7.144,5.746-24.929-13.121-12.753,28.984a34.839,34.839,0,0,0,3.129,6.089A3.081,3.081,0,0,0,233.936,335.9Z" transform="translate(-221.91 -272.976)" fill="#27debf"/>
            <path id="Trazado_92851" data-name="Trazado 92851" d="M273.538,286.828c1.756-1.014,3.431-.173,3.74,1.878a5.869,5.869,0,0,1-2.621,5.551c-1.757,1.014-3.431.173-3.74-1.878A5.867,5.867,0,0,1,273.538,286.828Z" transform="translate(-241.486 -270.161)" fill="#27debf"/>
          </g>
          <g id="Grupo_57684" data-name="Grupo 57684" transform="translate(72.216 80.051)">
            <g id="Grupo_57682" data-name="Grupo 57682" transform="translate(0 11.127)">
              <g id="Grupo_57681" data-name="Grupo 57681" transform="translate(0 0.704)">
                <g id="Grupo_57679" data-name="Grupo 57679">
                  <path id="Trazado_92852" data-name="Trazado 92852" d="M300.368,349.008a2.533,2.533,0,0,1-.482-.014,2.045,2.045,0,0,1-.964-.346c-.428-.322-.377-.738.116-.948h0a2.312,2.312,0,0,1,1.982.242c.428.322.377.738-.116.948A1.66,1.66,0,0,1,300.368,349.008Z" transform="translate(-298.632 -347.576)" fill="#27debf"/>
                </g>
                <g id="Grupo_57680" data-name="Grupo 57680" transform="translate(1.557 1.358)">
                  <path id="Trazado_92853" data-name="Trazado 92853" d="M304.228,350.05a3.242,3.242,0,0,0-1.617.167l-.485.206c-.841.359-.927,1.07-.2,1.62l.258.194a5.914,5.914,0,0,0,2.628-.208c.8-.308,1.285-.662,1.358-1.168l-.361-.237A3.391,3.391,0,0,0,304.228,350.05Z" transform="translate(-301.434 -350.018)" fill="#27debf"/>
                </g>
              </g>
              <path id="Trazado_92854" data-name="Trazado 92854" d="M306.242,346.309l-1.786.088-.487.421a.171.171,0,0,0,.006.264l.486.382,1.817-.072Zm-1.908.756a.131.131,0,1,1,.131-.131A.131.131,0,0,1,304.334,347.065Z" transform="translate(-300.975 -346.309)" fill="#27debf"/>
            </g>
            <g id="Grupo_57683" data-name="Grupo 57683" transform="translate(8.532 5.108)">
              <path id="Trazado_92855" data-name="Trazado 92855" d="M323.248,340.544c-.022.271-.349.5-.542.612a3.48,3.48,0,0,1-1.259.4C321.012,341.066,321.823,340.176,323.248,340.544Z" transform="translate(-317.241 -337.692)" fill="#27debf"/>
              <path id="Trazado_92856" data-name="Trazado 92856" d="M320.053,336.581a4.478,4.478,0,0,0-4.819-.655,2.148,2.148,0,0,0-.4,3.666,4.947,4.947,0,0,0,5.14.27C321.408,339.028,321.365,337.663,320.053,336.581Zm-2.2-.231a.66.66,0,0,1,.744.116.333.333,0,0,1-.065.563.683.683,0,0,1-.774-.086A.362.362,0,0,1,317.852,336.351Zm-2.636,2.021a.362.362,0,0,1,.1-.592.658.658,0,0,1,.744.116.332.332,0,0,1-.066.562A.682.682,0,0,1,315.216,338.372Zm4.363.813a4.106,4.106,0,0,1-2,.484,4.034,4.034,0,0,1-1.753-.371l3.732-2.112a1.552,1.552,0,0,1,.7,1.172A1.208,1.208,0,0,1,319.579,339.184Z" transform="translate(-313.977 -335.483)" fill="#27debf"/>
            </g>
            <path id="Trazado_92857" data-name="Trazado 92857" d="M335.221,327.619a2.211,2.211,0,0,0-.493-.554,3.13,3.13,0,0,0-3.368-.458,1.5,1.5,0,0,0-.28,2.562,3.209,3.209,0,0,0,.372.245l.016.008a12.88,12.88,0,0,0,4.7,1.069A5.313,5.313,0,0,0,335.221,327.619Zm-1.446,1.048a1.654,1.654,0,0,1-1.719-.09.718.718,0,0,1,.134-1.225,1.5,1.5,0,0,1,1.611.219C334.241,327.932,334.254,328.388,333.775,328.667Z" transform="translate(-312.773 -326.297)" fill="#27debf"/>
          </g>
        </g>
      </g>
      <g id="Character" transform="translate(181.067 57.433)">
        <g id="Character-2" data-name="Character">
          <g id="Grupo_57689" data-name="Grupo 57689" transform="translate(33.553)">
            <g id="Grupo_57687" data-name="Grupo 57687" transform="translate(10.7)">
              <g id="Grupo_57686" data-name="Grupo 57686" transform="translate(0 23.476)">
                <g id="Grupo_57685" data-name="Grupo 57685">
                  <path id="Trazado_92858" data-name="Trazado 92858" d="M435.289,339.093l-7.151,20.866a.671.671,0,0,1-1.271,0l-7.058-21.032Z" transform="translate(-419.806 -245.876)" fill="#ffa8a7"/>
                  <path id="Trazado_92859" data-name="Trazado 92859" d="M431.3,373.157a.671.671,0,0,0,1.271,0l1.4-4.074h0a3.716,3.716,0,0,1-3.865-.215l-.311-.215Z" transform="translate(-424.237 -259.078)" fill="#263238"/>
                  <path id="Trazado_92860" data-name="Trazado 92860" d="M420.077,171.575l0,2.042-.016,2.464-.251,88.54a9.85,9.85,0,0,0,6.519,3.068c3.744.389,7.582-.837,8.954-2.9l.249-88.486.013-4.709C435.362,174.644,419.941,174.635,420.077,171.575Z" transform="translate(-419.805 -171.575)" fill="#27debf"/>
                  <path id="Trazado_92861" data-name="Trazado 92861" d="M420.206,185.522l0,4.559c-.046,1.322,2.769,2.175,6.02,2.474,4.316.409,9.4-.761,9.46-2.511l.009-3.361-.018-1.2c-.063,1.751-5.145,2.923-9.46,2.515-3.114-.291-5.839-1.1-5.994-2.332v-.013A.275.275,0,0,1,420.206,185.522Z" transform="translate(-419.981 -177.749)" fill="#ebebeb"/>
                  <path id="Trazado_92862" data-name="Trazado 92862" d="M420.226,183.925c-.111,3.069,15.359,3.031,15.47-.038l.019-4.564c-.111,3.069-15.579,3.108-15.468.038Z" transform="translate(-419.991 -175.015)" fill="#27debf"/>
                  <path id="Trazado_92863" data-name="Trazado 92863" d="M420.277,171.575l-.021,4.505c-.131,3.012,14.8,3.1,15.47.225a.613.613,0,0,0,.028-.171l-.015-4.538C435.562,174.644,420.141,174.635,420.277,171.575Z" transform="translate(-420.005 -171.575)" fill="#ebebeb"/>
                </g>
              </g>
              <path id="Trazado_92864" data-name="Trazado 92864" d="M435.829,133.524v-.191c0-2.2-3.463-3.98-7.734-3.98s-7.734,1.782-7.734,3.98v2.072l-.068,17.423c-.06,1.309,2.722,2.17,5.945,2.484,4.316.422,9.42-.717,9.517-2.463.007-.007.007-.007.006-.021l.068-19.179C435.83,133.621,435.829,133.539,435.829,133.524Z" transform="translate(-420.021 -129.353)" fill="#f28f8f"/>
              <ellipse id="Elipse_3654" data-name="Elipse 3654" cx="7.734" cy="3.981" rx="7.734" ry="3.981" transform="translate(0.34)" fill="#fff" opacity="0.2"/>
              <path id="Trazado_92865" data-name="Trazado 92865" d="M442.18,160.89l.086-24.035c-.105,1.883-3.31,3.663-6.812,3.79l-.25,111.7-.414,17.9,7.151-20.866h-.01Z" transform="translate(-426.458 -132.684)" opacity="0.1"/>
            </g>
            <g id="Grupo_57688" data-name="Grupo 57688" transform="translate(0 46.49)">
              <path id="Trazado_92866" data-name="Trazado 92866" d="M403.091,213.517c2.939-.427,6.568,1.785,9.092,5.333s11.321,12.182,12.284,14.929c.7,2,.29,5.765-3.851,4-4.011-1.709-16.789-14.248-16.789-14.248Z" transform="translate(-401.684 -213.188)" fill="#b16668"/>
              <path id="Trazado_92867" data-name="Trazado 92867" d="M400.561,213.3a14.532,14.532,0,0,1,2.88-.321,9.675,9.675,0,0,1,5.653,2.962c2.351,2.29,8.457,9.693,8.457,9.693a6.015,6.015,0,0,1-1.773,4.394c-2.046,2.319-3.955,2.319-3.955,2.319l-9.071-7.509Z" transform="translate(-400.561 -212.967)" fill="#37474f"/>
              <path id="Trazado_92868" data-name="Trazado 92868" d="M436.394,229.706l6.426-9.363.019-6.878a3.608,3.608,0,0,1,1.99,2.693c.566,2.217,1.273,4.8.99,6.689s-4.749,13.316-7.152,14.933S436.394,229.706,436.394,229.706Z" transform="translate(-416.47 -213.187)" fill="#b16668"/>
            </g>
          </g>
          <g id="Grupo_57700" data-name="Grupo 57700" transform="translate(17.172 20.536)">
            <g id="Grupo_57691" data-name="Grupo 57691" transform="translate(7.281 21.475)">
              <g id="Grupo_57690" data-name="Grupo 57690">
                <path id="Trazado_92869" data-name="Trazado 92869" d="M384.2,206.614l1.254,7.914,7.845-.419-1.125-9.2Z" transform="translate(-384.195 -204.911)" fill="#b16668"/>
              </g>
            </g>
            <g id="Grupo_57694" data-name="Grupo 57694" transform="translate(0.33 5.247)">
              <g id="Grupo_57692" data-name="Grupo 57692" transform="translate(0 8.221)">
                <path id="Trazado_92870" data-name="Trazado 92870" d="M373.367,190.509s-1.87,2.838-1.657,3.116,1.589.53,1.589.53Z" transform="translate(-371.694 -190.509)" fill="#9a4a4d"/>
              </g>
              <g id="Grupo_57693" data-name="Grupo 57693" transform="translate(1.525)">
                <path id="Trazado_92871" data-name="Trazado 92871" d="M379.778,176.094c-3.785.8-4.877,2.462-5.234,8.474-.373,6.282.269,8.256,1.094,9.1.557.57,3.653.674,5.215.243,1.955-.539,6.372-2.1,8.441-5.264,2.434-3.718,3.073-8.757.468-10.823C386.095,174.918,381.318,175.769,379.778,176.094Z" transform="translate(-374.436 -175.724)" fill="#b16668"/>
              </g>
              <path id="Trazado_92872" data-name="Trazado 92872" d="M384.319,208.353a15.68,15.68,0,0,0,1.993-.5,3.52,3.52,0,0,1-1.9,1.095Z" transform="translate(-377.299 -189.988)" fill="#9a4a4d"/>
            </g>
            <g id="Grupo_57699" data-name="Grupo 57699">
              <g id="Grupo_57696" data-name="Grupo 57696">
                <g id="Grupo_57695" data-name="Grupo 57695">
                  <path id="Trazado_92873" data-name="Trazado 92873" d="M372.823,173.811a7.056,7.056,0,0,0,1.647.673c.923.267.783.614.912,1.458a3.415,3.415,0,0,0,1.041,2c.358.325.627.355.747.856a7.189,7.189,0,0,1,.022,1.573c.012,1.043.677,1.836,1,.438,0,0,.6-2.322,2.555-2.031s2.13,2.5,1.2,4.228c-.568,1.053-2.088.778-2.088.778a6.829,6.829,0,0,0,2.043,5.265s1.949,1.444,4.98-.055a39.924,39.924,0,0,0,3.478-5.288c1.358-2.361,2.528-5.26,2.066-8.038a5.147,5.147,0,0,0-1.317-2.756,1.891,1.891,0,0,1-.631-1.39,2.676,2.676,0,0,0-3.7-1.97,2.292,2.292,0,0,0-1.756-2.054,4.213,4.213,0,0,0-2.82.389,3.109,3.109,0,0,0-5.227-.327,1.661,1.661,0,0,0-1.31-.757,3.953,3.953,0,0,0-1.543.245,5.866,5.866,0,0,0-1.2.509,3.833,3.833,0,0,0-1.708,4.146A3.334,3.334,0,0,0,372.823,173.811Z" transform="translate(-371.099 -166.287)" fill="#263238"/>
                </g>
              </g>
              <g id="Grupo_57698" data-name="Grupo 57698" transform="translate(19.26 4.915)">
                <g id="Grupo_57697" data-name="Grupo 57697">
                  <path id="Trazado_92874" data-name="Trazado 92874" d="M405.922,177.109l2.265-1.335a1.314,1.314,0,1,0-2.265,1.335Z" transform="translate(-405.74 -175.127)" fill="#263238"/>
                </g>
              </g>
            </g>
          </g>
          <g id="Grupo_57704" data-name="Grupo 57704" transform="translate(6.504 76.447)">
            <path id="Trazado_92875" data-name="Trazado 92875" d="M396.086,386.679l.05.509a9.309,9.309,0,0,1,.051,2.017,1.792,1.792,0,0,1-.622,1.349,5.561,5.561,0,0,1-1.477.578,5.164,5.164,0,0,1-3.426-.336,15.7,15.7,0,0,0-2.55-1.378,19.221,19.221,0,0,0-3.024-.5,6.742,6.742,0,0,1-1.337-.245,6.148,6.148,0,0,1-.962-.433,9.476,9.476,0,0,1-2.857-2.084,4.509,4.509,0,0,1-1.021-2.038c-.087-.446-.269-1.731.474-1.7,3.64.163,7.244.944,10.888.9a4.057,4.057,0,0,1,.707.029,2.961,2.961,0,0,1,1.223.572,1.273,1.273,0,0,0,1.117.274,5.512,5.512,0,0,1,1.889.028.894.894,0,0,1,.651.44.988.988,0,0,1,.054.276Q396,385.81,396.086,386.679Z" transform="translate(-363.863 -318.16)" fill="#263238"/>
            <g id="Grupo_57701" data-name="Grupo 57701" transform="translate(26.843 63.626)">
              <path id="Trazado_92876" data-name="Trazado 92876" d="M405.2,381.812l-.188,2.745c-.177,1.045-3.737,1.684-4.471-.165l-.349-3.111Z" transform="translate(-400.192 -381.28)" fill="#b16668"/>
            </g>
            <g id="Grupo_57702" data-name="Grupo 57702" transform="translate(0 73.238)">
              <path id="Trazado_92877" data-name="Trazado 92877" d="M370.216,401.747a27.431,27.431,0,0,1,.659,2.673c.179.99.428,2.643.067,3.377s-1.719,1.181-3.8,1.118a12.254,12.254,0,0,0-4.938,1.6,12.949,12.949,0,0,1-6.184.838c-1.852-.26-3.75-1.379-4.033-2.155s.134-1.565,4.551-3.33c.041-.016,6.126-1.845,8.3-4.133Z" transform="translate(-351.913 -399.974)" fill="#263238"/>
              <path id="Trazado_92878" data-name="Trazado 92878" d="M380.565,398.578s-.033,1.209-.043,1.9-.849,1.7-2.96,1.58c-1.483-.087-2.51-.509-2.424-1.73l.04-1.762Z" transform="translate(-362.223 -398.567)" fill="#b16668"/>
            </g>
            <g id="Grupo_57703" data-name="Grupo 57703" transform="translate(8.973)">
              <path id="Trazado_92879" data-name="Trazado 92879" d="M392.365,309.93c-.626-5.342-1.095-8.4-1.095-8.4s.108-7.438.544-14.375c.47-7.492.365-16.927.55-18.794,0,0-24.071-5.141-24.266,3.538-.227,10.087.445,30.953.587,33.67.2,3.815.209,7.781.857,13.972.639,6.11,2.492,20.546,2.492,20.546a5.715,5.715,0,0,0,5.387.011s2.094-17.3,2.014-21.694a60.191,60.191,0,0,0-.913-9.509l1.9-19.579s.744,6.053.944,9.868.724,6.143,1.666,13.242c.818,6.158,2.894,19.157,2.894,19.157a4.87,4.87,0,0,0,5.119-.2S392.992,315.271,392.365,309.93Z" transform="translate(-368.052 -266.846)" fill="#27debf"/>
              <path id="Trazado_92880" data-name="Trazado 92880" d="M392.365,309.93c-.626-5.342-1.095-8.4-1.095-8.4s.108-7.438.544-14.375c.47-7.492.365-16.927.55-18.794,0,0-24.071-5.141-24.266,3.538-.227,10.087.445,30.953.587,33.67.2,3.815.209,7.781.857,13.972.639,6.11,2.492,20.546,2.492,20.546a5.715,5.715,0,0,0,5.387.011s2.094-17.3,2.014-21.694a60.191,60.191,0,0,0-.913-9.509l1.9-19.579s.744,6.053.944,9.868.724,6.143,1.666,13.242c.818,6.158,2.894,19.157,2.894,19.157a4.87,4.87,0,0,0,5.119-.2S392.992,315.271,392.365,309.93Z" transform="translate(-368.052 -266.846)" opacity="0.3"/>
              <path id="Trazado_92881" data-name="Trazado 92881" d="M399.447,290.877s-1.669,2.751-6.728,4.768l-1.408,4.727-.154,8.306c-.193-2.677-.488-5.6-.865-8.7l.57-4.87S396.45,293.42,399.447,290.877Z" transform="translate(-377.926 -277.516)" opacity="0.15"/>
            </g>
          </g>
          <g id="Grupo_57706" data-name="Grupo 57706" transform="translate(15.327 46.804)">
            <g id="Grupo_57705" data-name="Grupo 57705">
              <path id="Trazado_92882" data-name="Trazado 92882" d="M393.171,218.668c-.966-3.441-3.238-4.961-5.757-5.121-.642-.041-1.942.014-1.942.014.178,1.457-4.313,2.485-7.806,1.663-1.053.276-2.8.672-3.673.963-2.51.833-5.521,3.973-5.912,12.161,0,0-.4,17.6-.275,22.713,6.2,2.615,12.183,2.942,15.8,2.238,7.522-1.467,8.758-4.689,8.758-4.689s-.071-4.474-.351-11.605C393.283,226.862,393.59,220.159,393.171,218.668Z" transform="translate(-367.781 -213.532)" fill="#455a64"/>
            </g>
          </g>
          <g id="Grupo_57707" data-name="Grupo 57707" transform="translate(0 49.161)">
            <path id="Trazado_92883" data-name="Trazado 92883" d="M351.606,249.958a4.674,4.674,0,0,1,2.2,3.916,11.992,11.992,0,0,0,.852,4.783c.124.239.778.778,1.036.7l.006-2.046a18.781,18.781,0,0,0,1.849-2.119c.493-1.009-.083-2.245.214-3.329a5.105,5.105,0,0,0,.377-1.347,3.756,3.756,0,0,0-1.252-3.083,42.746,42.746,0,0,1-3.086-3.006c-1.289-1.3-3.079-3.2-4.369-4.5l8.658-8.3a12.605,12.605,0,0,0,2.469-3.285c1.414-2.723,3.354-7.5,1.194-10.032-3.086,0-4.841.473-7.991,4.148-2.718,3.171-11.4,13.569-12.516,15.332s-1.756,2.967.384,4.925a64.367,64.367,0,0,0,5.461,4.172C348.546,247.933,350.142,248.919,351.606,249.958Z" transform="translate(-340.215 -218.009)" fill="#b16668"/>
            <path id="Trazado_92884" data-name="Trazado 92884" d="M354.672,257.2a9.785,9.785,0,0,1-2.655,1.819,7.921,7.921,0,0,0,3.255-1.209Z" transform="translate(-345.455 -235.275)" fill="#9a4a4d"/>
            <path id="Trazado_92885" data-name="Trazado 92885" d="M368.065,217.789a15.137,15.137,0,0,0-3.737.28c-1.873.406-3.133,1.359-6.383,5.031s-5.526,6.684-5.526,6.684-.936,2.072,1.672,4.414,4.951,1.94,4.951,1.94l7.293-7.091S371.534,223.592,368.065,217.789Z" transform="translate(-345.561 -217.77)" fill="#37474f"/>
          </g>
        </g>
      </g>
    </g>
  </g>
</svg>
