<?xml version="1.0" encoding="utf-8"?>
<!-- Generator: Adobe Illustrator 25.2.1, SVG Export Plug-In . SVG Version: 6.00 Build 0)  -->
<svg version="1.1" id="Capa_1" xmlns="http://www.w3.org/2000/svg" xmlns:xlink="http://www.w3.org/1999/xlink" x="0px" y="0px"
	 viewBox="0 0 178 143" style="enable-background:new 0 0 178 143;" xml:space="preserve">
<style type="text/css">
	.st0{enable-background:new    ;}
	.st1{fill:none;stroke:#6FC5CB;stroke-width:2;}
</style>
<g class="st0">
	<path class="st1" d="M92.2,79.9c0,14.7-3.1,26-9.2,33.8s-15,11.7-26.8,11.7c-11.6,0-20.5-3.8-26.7-11.5s-9.3-18.7-9.4-33V61.4
		c0-14.9,3.1-26.2,9.3-33.9s15.1-11.6,26.7-11.6s20.5,3.8,26.7,11.5S92,46,92.2,60.3V79.9z M71,58.3c0-8.8-1.2-15.3-3.6-19.3
		s-6.2-6-11.3-6c-5,0-8.7,1.9-11,5.8c-2.4,3.8-3.6,9.8-3.8,18v26c0,8.7,1.2,15.2,3.6,19.4c2.4,4.2,6.2,6.3,11.4,6.3s8.9-2,11.2-6.1
		c2.3-4.1,3.5-10.3,3.6-18.6L71,58.3L71,58.3z"/>
	<path class="st1" d="M157.9,124h-21.2V42.3l-25.3,7.8V33l44.2-15.8h2.3V124z"/>
</g>
</svg>
