<svg xmlns="http://www.w3.org/2000/svg" width="36" height="36" viewBox="0 0 36 36">
  <path id="Trazado_93398" data-name="Trazado 93398" d="M1209.031,2720a3.969,3.969,0,1,1-3.969,3.969,3.97,3.97,0,0,1,3.969-3.969Zm-28.062,0a3.969,3.969,0,1,1-3.969,3.969A3.97,3.97,0,0,1,1180.969,2720Zm14.031,0a3.969,3.969,0,1,1-3.969,3.969A3.97,3.97,0,0,1,1195,2720Zm14.031,14.031a3.969,3.969,0,1,1-3.969,3.969,3.972,3.972,0,0,1,3.969-3.969Zm-14.031,0a3.969,3.969,0,1,1-3.969,3.969A3.972,3.972,0,0,1,1195,2734.031Zm14.031,14.031a3.969,3.969,0,1,1-3.969,3.969,3.97,3.97,0,0,1,3.969-3.969Z" transform="translate(-1177 -2720)" fill="#fcbf2a"/>
</svg>
