<svg xmlns="http://www.w3.org/2000/svg" width="376" height="263.375" viewBox="0 0 376 263.375"><g transform="translate(-471.61 -288.234)"><g transform="translate(471.61 288.234)"><path d="M471.61,413.777,683.868,536.324l163.741-94.536L635.352,319.241Z" transform="translate(-471.61 -272.949)" fill="#f59d10" opacity="0.6" style="mix-blend-mode:multiply;isolation:isolate"/><path d="M471.61,394.77,683.868,517.317l163.741-94.536L635.351,300.234Z" transform="translate(-471.61 -282.319)" fill="#f59d10" opacity="0.6" style="mix-blend-mode:multiply;isolation:isolate"/><g transform="translate(0.001 28.376)"><path d="M471.61,401.777,683.868,524.324l163.741-94.536L635.352,307.241Z" transform="translate(-471.61 -307.241)" fill="#fff"/><path d="M471.61,370.562v7L683.868,500.112v-7Z" transform="translate(-471.61 -276.026)" fill="#cee4ea"/><path d="M613.782,490.863l163.741-94.536v-7L613.782,483.86Z" transform="translate(-401.524 -266.777)" fill="#e6f9ff"/><path d="M627.341,316.622,487.857,397.151l169.806,98.038L797.147,414.66Z" transform="translate(-463.601 -302.616)" fill="#99f1ff"/><path d="M627.341,316.622v7L493.925,400.654l-6.067-3.5Z" transform="translate(-463.601 -302.616)" fill="#4dc9ff"/><path d="M581.284,316.622v7L745.026,418.16l6.064-3.5Z" transform="translate(-417.544 -302.616)" fill="#25a7ef"/><path d="M627.626,470.91l-61.378-35.439L548.79,390.382v-7l97.032,14.007,6.064-31.513,80.754,11.573,34.469,12.936Z" transform="translate(-433.563 -278.338)" fill="#2aadad"/><path d="M627.626,473.223l-57.907-33.48L548.79,385.691l97.032,7,6.064-31.513,80.754,11.573,34.469,19.939Z" transform="translate(-433.563 -280.65)" fill="#52e89c"/><path d="M605.31,355.733V351.5h-1.584a12.561,12.561,0,0,0-3.707-3.123c-7.056-4.076-18.492-4.076-25.543,0a12.52,12.52,0,0,0-3.7,3.123h-1.586v4.25h0c0,2.671,1.76,5.34,5.288,7.377,7.051,4.071,18.487,4.071,25.543,0C603.555,361.083,605.318,358.408,605.31,355.733Z" transform="translate(-423.508 -288.471)" fill="#fab300"/><path d="M574.476,345.525c-7.051,4.076-7.051,10.681,0,14.752s18.487,4.07,25.543,0,7.057-10.676,0-14.752S581.527,341.45,574.476,345.525Z" transform="translate(-423.508 -289.875)" fill="#fed94f"/></g><path d="M471.61,382.77,683.868,505.317l163.741-94.536L635.351,288.234Z" transform="translate(-471.61 -288.234)" fill="#fff"/><path d="M471.61,401.777,683.868,524.324l163.741-94.536L635.352,307.241Z" transform="translate(-471.61 -278.865)" fill="#fff"/><path d="M471.61,382.77,683.868,505.317l163.741-94.536L635.351,288.234Z" transform="translate(-471.61 -288.234)" fill="#fff"/><path d="M471.61,351.555v7L683.868,481.105v-7Z" transform="translate(-471.61 -257.019)" fill="#cee4ea"/><path d="M613.782,471.856,777.523,377.32v-7L613.782,464.853Z" transform="translate(-401.524 -247.77)" fill="#e6f9ff"/><path d="M627.34,297.615,487.857,378.145l169.806,98.037,139.483-80.528Z" transform="translate(-463.6 -283.609)" fill="#99f1ff"/><path d="M627.34,297.615v7L493.924,381.647l-6.067-3.5Z" transform="translate(-463.6 -283.609)" fill="#4dc9ff"/><path d="M581.284,297.615v7l163.741,94.535,6.064-3.5Z" transform="translate(-417.544 -283.609)" fill="#25a7ef"/><path d="M627.625,451.9l-61.378-35.439L548.79,371.376v-7l97.032,14.007,6.064-31.513,80.754,11.573,34.469,12.936Z" transform="translate(-433.563 -259.331)" fill="#2aadad"/><path d="M627.625,454.216l-57.907-33.48L548.79,366.685l97.032,7,6.064-31.513,80.754,11.573,34.469,19.939Z" transform="translate(-433.563 -261.644)" fill="#52e89c"/><path d="M605.311,336.726V332.49h-1.586a12.539,12.539,0,0,0-3.706-3.125c-7.056-4.076-18.493-4.076-25.545,0a12.544,12.544,0,0,0-3.7,3.125h-1.586v4.249h0c0,2.671,1.762,5.34,5.288,7.377,7.051,4.071,18.489,4.071,25.545,0C603.555,342.076,605.318,339.4,605.311,336.726Z" transform="translate(-423.507 -269.465)" fill="#fab300"/><path d="M574.475,326.519c-7.051,4.074-7.051,10.679,0,14.751s18.489,4.071,25.545,0,7.056-10.676,0-14.751S581.526,322.444,574.475,326.519Z" transform="translate(-423.507 -270.868)" fill="#fed94f"/></g><g transform="translate(600.164 409.55)"><g transform="translate(6.518 18.844)"><path d="M576.323,404.795h0a2.762,2.762,0,0,1-1.6-3.565l5.309-16.917a2.761,2.761,0,0,1,3.564-1.6h0a2.761,2.761,0,0,1,1.6,3.564L579.888,403.2A2.764,2.764,0,0,1,576.323,404.795Z" transform="translate(-555.938 -381.908)" fill="#fcd2a0"/><path d="M570.843,407.025l-2.432-2.42,9.337-8.95a2.831,2.831,0,0,1,3.588-1.644h0a2.748,2.748,0,0,1,1.575,3.61l-.824,1.141Z" transform="translate(-558.961 -376.333)" fill="#fcd2a0"/><path d="M573.962,403.469c-1.268,1.214-4.752,5.424-6.951,5.673a6.376,6.376,0,0,1-4.748-1.618c-.2-.43-.4-1.169.4-1.4s3.516-.709,4.452-1.621-.53-.782-1.368-.757c-1.014.03-1.282-1.268.178-1.486s4.718-.2,5.6-1.2Z" transform="translate(-562.082 -372.779)" fill="#fcd2a0"/><path d="M582.2,396.281c-.421,1.108-7.424-1.557-7-2.665l3.459-9.086a3.746,3.746,0,0,1,4.834-2.169h0a3.748,3.748,0,0,1,2.168,4.836Z" transform="translate(-555.623 -382.114)" fill="#00a5c8"/></g><g transform="translate(13.791 96.917)"><path d="M582.786,437.479a2.753,2.753,0,0,1,0,1.945,3.937,3.937,0,0,1-2.307,1.5,6.825,6.825,0,0,0-2.775,1.653,7.242,7.242,0,0,1-5.093,2.746c-3.352.443-5-.767-5.508-1.623s.411-2.038.411-2.038Z" transform="translate(-566.953 -432.894)" fill="#e8e8f7"/><path d="M581.548,434.408c.608.161.9.5.9,1.638a28.689,28.689,0,0,0,.215,2.947,2.716,2.716,0,0,1-1.612,2.238c-1.183.591-2.175.618-3.008,1.29a27.26,27.26,0,0,1-3.355,2.747c-1.266.732-5.755.863-7.219-.754s3.2-3.017,5.9-5.519,3.358-3.422,3.492-3.991a.8.8,0,0,1,.721-.6Z" transform="translate(-566.834 -434.408)" fill="#3a5066"/><path d="M571.263,445.256c.083-.009.158-.024.239-.034a4.869,4.869,0,0,0,2.38-1.394c.276-.266.526-.557.8-.827a22.408,22.408,0,0,1,3.255-2.357c.763-.527,2.154-.8,2.66-1.624.363-.593.1-2.19,0-2.74l.1-1.871h.854c.608.161.9.5.9,1.638a28.707,28.707,0,0,0,.215,2.947,2.716,2.716,0,0,1-1.612,2.238c-1.182.591-2.175.618-3.008,1.29a27.3,27.3,0,0,1-3.355,2.747c-1.266.732-5.755.863-7.219-.754a1.028,1.028,0,0,1-.26-.47C567.353,444.238,568.466,445.568,571.263,445.256Z" transform="translate(-566.828 -434.408)" fill="#080a1f" opacity="0.4"/><path d="M570.77,438.782A4.967,4.967,0,0,1,573,439.3a4.689,4.689,0,0,1,2.526,3.289,7.719,7.719,0,0,1-.764.523c-1.266.732-5.755.863-7.219-.754a2.539,2.539,0,0,1-.42-.573,1.05,1.05,0,0,1,.012-.767A4.352,4.352,0,0,1,570.77,438.782Z" transform="translate(-566.903 -432.252)" fill="#fff"/><path d="M573.563,439.159s-1.566-1.7-3.059-.948" transform="translate(-565.203 -432.629)" fill="none" stroke="#fff" stroke-linecap="round" stroke-miterlimit="10" stroke-width="0.284"/><path d="M574.587,438.285s-1.565-1.706-3.059-.95" transform="translate(-564.698 -433.06)" fill="none" stroke="#fff" stroke-linecap="round" stroke-miterlimit="10" stroke-width="0.284"/><path d="M575.611,437.411s-1.565-1.706-3.058-.949" transform="translate(-564.193 -433.491)" fill="none" stroke="#fff" stroke-linecap="round" stroke-miterlimit="10" stroke-width="0.284"/></g><g transform="translate(0 86.591)"><path d="M573.549,430.564a2.753,2.753,0,0,1,0,1.945,3.94,3.94,0,0,1-2.307,1.5,6.844,6.844,0,0,0-2.775,1.654,7.242,7.242,0,0,1-5.093,2.746c-3.352.443-5-.767-5.508-1.623s.411-2.038.411-2.038Z" transform="translate(-557.716 -425.978)" fill="#e8e8f7"/><path d="M572.312,427.492c.608.161.9.5.9,1.638a28.7,28.7,0,0,0,.215,2.949,2.716,2.716,0,0,1-1.612,2.237c-1.182.591-2.175.618-3.008,1.29a27.384,27.384,0,0,1-3.355,2.747c-1.266.732-5.755.863-7.219-.754s3.2-3.017,5.9-5.519,3.358-3.422,3.492-3.991a.8.8,0,0,1,.721-.6Z" transform="translate(-557.597 -427.492)" fill="#3a5066"/><path d="M562.026,438.34c.084-.009.158-.024.239-.034a4.868,4.868,0,0,0,2.38-1.394c.276-.266.524-.557.8-.827a22.324,22.324,0,0,1,3.255-2.357c.763-.527,2.154-.8,2.661-1.624a5.424,5.424,0,0,0,0-2.74l.1-1.871h.854c.608.161.9.5.9,1.638a28.7,28.7,0,0,0,.215,2.949,2.716,2.716,0,0,1-1.612,2.237c-1.182.591-2.175.618-3.008,1.29a27.384,27.384,0,0,1-3.355,2.747c-1.266.732-5.755.863-7.219-.754a1.039,1.039,0,0,1-.26-.469C558.116,437.322,559.229,438.652,562.026,438.34Z" transform="translate(-557.591 -427.492)" fill="#080a1f" opacity="0.4"/><path d="M561.533,431.867a4.946,4.946,0,0,1,2.229.517,4.689,4.689,0,0,1,2.526,3.289,7.984,7.984,0,0,1-.764.523c-1.266.732-5.755.863-7.219-.754a2.542,2.542,0,0,1-.42-.573,1.043,1.043,0,0,1,.012-.767A4.351,4.351,0,0,1,561.533,431.867Z" transform="translate(-557.667 -425.335)" fill="#fff"/><path d="M564.325,432.245s-1.565-1.706-3.058-.95" transform="translate(-555.966 -425.713)" fill="none" stroke="#fff" stroke-linecap="round" stroke-miterlimit="10" stroke-width="0.284"/><path d="M565.35,431.369s-1.565-1.706-3.059-.95" transform="translate(-555.461 -426.144)" fill="none" stroke="#fff" stroke-linecap="round" stroke-miterlimit="10" stroke-width="0.284"/><path d="M566.374,430.5s-1.565-1.706-3.059-.95" transform="translate(-554.956 -426.575)" fill="none" stroke="#fff" stroke-linecap="round" stroke-miterlimit="10" stroke-width="0.284"/></g><path d="M574.066,436.367c0,2.117,3.962.967,3.962,0v-4.849h-3.962Z" transform="translate(-549.656 -338.916)" fill="#fcd2a0"/><path d="M565.034,429.547c0,2.117,3.962.967,3.962,0l.2-4.849h-3.962Z" transform="translate(-554.109 -342.278)" fill="#fcd2a0"/><path d="M566.8,410.853c1.781-.914,20.337-9.961,20.337-9.961l17.272,4.243c.172,7.054-.93,10.243-5.554,12.333-4.144,1.874-16.747,7.634-16.747,7.634a13.048,13.048,0,0,1,1.512,4.863c.266,2.326,0,19.1,0,19.1s-2.693,2.183-4.828,0c0,0-3.519-23.417-3.823-25.933s-.588-2.861,3.013-5.555c1.115-.835,2.583-1.839,4.076-2.829l-11.2,3.455a31.644,31.644,0,0,1,.882,4.9c-.031,1.254-1.608,16.16-1.608,16.16s-2.861,1.7-5.072-.212c0,0-.923-19.186-1.166-22.641A5.236,5.236,0,0,1,566.8,410.853Z" transform="translate(-554.692 -354.014)" fill="#315095"/><path d="M587.727,383.19,593,386.115a8.657,8.657,0,0,1,3,4.091c.836,2.978,1.223,10.255,1.636,17.06.091,1.48.194,5.773.178,7.156-.008.6-4.516,2.683-9.512,2.005-5.209-.706-6.654-4.577-7.76-6.248a35.1,35.1,0,0,0-1.475-9.83c-1.6-5.781-3.071-13.1-.225-16.061A6.8,6.8,0,0,1,584,382.063Z" transform="translate(-548.097 -363.3)" fill="#28bbe2"/><path d="M578.056,378.431a6.62,6.62,0,0,1-.625-4.776c.463-1.848,2.142-.5,2.142-.5Z" transform="translate(-548.094 -367.922)" fill="#19313a"/><path d="M586.67,379.5l.755,7.187s-.937.539-2.472,1.235c-1.8.818-3.422-.013-3.579-1.423-.234-2.111-.627-5.543-.627-5.543Z" transform="translate(-546.363 -364.557)" fill="#f9bb87"/><path d="M580.09,371.494a7.893,7.893,0,0,0-2.442,6.708l.917,5.829a3.972,3.972,0,0,0,5.921,2.817l2.544-1.481a3.382,3.382,0,0,0,1.63-2.335l1.238-6.99a5.205,5.205,0,0,0-2.981-5.621A7.631,7.631,0,0,0,580.09,371.494Z" transform="translate(-547.925 -369.224)" fill="#fcd2a0"/><path d="M588.819,386.156c.536.206,1.574-.037,2.05-3.756s.767-7.965-.378-10.191-4.046-2.911-6.157-2.671-7.623,2.578-7.58,4.486,2.595,2.169,4.424,2.081,5.018-1.087,5.334-.972.691.717.815,2.239a22.277,22.277,0,0,0,.361,2.877c.085.418.881.415,1.029.318.4-.266.324-1.169.358-2.413l.664,1.338-.675,3.807a3.269,3.269,0,0,1-.427,1.141Z" transform="translate(-548.331 -369.493)" fill="#19313a"/><path d="M585.125,375.52a1.043,1.043,0,0,1,1.629-.482c.633.387,1.111,2.414-.031,3.634s-1.956.451-1.956.451Z" transform="translate(-544.381 -366.857)" fill="#f9bb87"/><g transform="translate(41.221 23.621)"><path d="M596.932,407.648h0a2.761,2.761,0,0,1-3.64-1.417l-7.175-16.62a2.763,2.763,0,0,1,1.417-3.641h0a2.764,2.764,0,0,1,3.641,1.417l7.174,16.62A2.764,2.764,0,0,1,596.932,407.648Z" transform="translate(-585.052 -385.106)" fill="#fcd2a0"/><path d="M594.115,417.044l-3.431-.015.24-16.27a2.832,2.832,0,0,1,1.4-3.691h0a2.749,2.749,0,0,1,3.656,1.466l.214,1.391Z" transform="translate(-582.686 -379.633)" fill="#fcd2a0"/><path d="M595.26,410.377c-.052,1.754.424,7.2-.969,8.92a6.381,6.381,0,0,1-4.516,2.181c-.446-.164-1.109-.548-.7-1.285s2.006-2.974,2.033-4.28-.927-.185-1.506.421c-.7.733-1.8,0-.917-1.182s3.222-3.452,3.141-4.789Z" transform="translate(-583.832 -372.966)" fill="#fcd2a0"/><path d="M596.419,396.45c.478,1.085-6.381,4.1-6.859,3.019l-3.916-8.9a3.748,3.748,0,0,1,1.92-4.939h0a3.746,3.746,0,0,1,4.939,1.92Z" transform="translate(-585.326 -385.314)" fill="#00a5c8"/></g></g><g transform="translate(562.835 393.22)"><path d="M565.786,359.288c2.577,1.744,4.54,5,5.576,8.144s-.927,7.668.491,9.467,3.962,2.486,4.38,5.6-1.654,3.774-.891,5.082.652,4.958-3.708,6.4-18.017-1.915-20.6-6.287,1.635-6.011,2.581-7.508-.415-3.85-.361-5.672,2.29-4.551,1.636-6.132-1.829-3.159.122-5.86S565.786,359.288,565.786,359.288Z" transform="translate(-524.085 -358.193)" fill="#19313a"/><path d="M549.41,392.877h0a2.763,2.763,0,0,1-1.03-3.768l7.852-15.9A2.761,2.761,0,0,1,560,372.18h0a2.763,2.763,0,0,1,1.03,3.768l-7.851,15.9A2.763,2.763,0,0,1,549.41,392.877Z" transform="translate(-525.169 -352.017)" fill="#fcd2a0"/><path d="M543.189,394.036l-2.032-2.765,10.6-7.405a2.833,2.833,0,0,1,3.8-1.072h0a2.748,2.748,0,0,1,1,3.81l-.99,1Z" transform="translate(-528.55 -346.774)" fill="#fcd2a0"/><path d="M546.568,391.123c-1.439,1-5.531,4.627-7.743,4.534a6.376,6.376,0,0,1-4.442-2.329c-.134-.457-.22-1.218.615-1.327s3.585-.158,4.649-.915-.4-.855-1.233-.96c-1.006-.125-1.074-1.45.4-1.441s4.692.533,5.718-.327Z" transform="translate(-531.931 -343.862)" fill="#fcd2a0"/><g transform="translate(14.82 90.917)"><path d="M553.453,424.872a5.625,5.625,0,0,1-.223,2.91c-.2.87.046,3.025-.06,3.222s-1.072.331-1.273.031c0,0,0-3.05-.955-2.735Z" transform="translate(-538.546 -416.779)" fill="#d80b46"/><path d="M548.411,430.251c.969-1.469,1.717-2.781,2.248-3.788a8.211,8.211,0,0,0,.938-4.037l-.07-2.871,4.254-.1.088,3.613a2.089,2.089,0,0,1,.66,1.279,30.792,30.792,0,0,0,.975,3.017,2.916,2.916,0,0,1-1.111,2.744c-1.081.917-2.728,1.348-3.425,2.262s-1.045,2.483-2.18,3.568-5.781,2.365-7.717,1.053S546.234,433.548,548.411,430.251Z" transform="translate(-542.639 -419.451)" fill="#fcd2a0"/><path d="M546.963,432.617a3.525,3.525,0,0,0,3.534-1.545c1.087-1.333,4.224-4.43,4.68-5.2a7.373,7.373,0,0,0,.691-4h0a2.088,2.088,0,0,1,.66,1.279,30.792,30.792,0,0,0,.975,3.017,2.916,2.916,0,0,1-1.111,2.744c-1.081.917-2.728,1.348-3.425,2.262s-1.045,2.483-2.18,3.568-5.781,2.365-7.717,1.053c-1.271-.861.484-2.072,2.456-3.732C545.714,432.368,546.165,432.51,546.963,432.617Z" transform="translate(-542.639 -418.258)" fill="#e73555"/></g><g transform="translate(0 81.943)"><path d="M544.015,419.075a5.64,5.64,0,0,1-.434,2.884c-.264.853-.178,3.02-.3,3.208s-1.093.251-1.272-.063c0,0,.228-3.041-.751-2.8Z" transform="translate(-528.5 -410.662)" fill="#d80b46"/><path d="M538.918,423.877c1.075-1.393,1.918-2.648,2.522-3.612a8.2,8.2,0,0,0,1.233-3.958l.142-2.868,4.249.211-.178,3.608a2.1,2.1,0,0,1,.563,1.324,31.374,31.374,0,0,0,.75,3.083,2.913,2.913,0,0,1-1.309,2.653c-1.147.836-2.819,1.145-3.582,2s-1.227,2.4-2.438,3.4-5.939,1.933-7.774.481S536.5,427,538.918,423.877Z" transform="translate(-532.713 -413.44)" fill="#fcd2a0"/><path d="M537.211,426.058a3.522,3.522,0,0,0,3.638-1.278c1.181-1.251,4.539-4.107,5.052-4.842a7.383,7.383,0,0,0,.984-3.94h0a2.1,2.1,0,0,1,.563,1.324,31.374,31.374,0,0,0,.75,3.083,2.913,2.913,0,0,1-1.309,2.653c-1.147.836-2.819,1.145-3.582,2s-1.227,2.4-2.438,3.4-5.939,1.933-7.774.481c-1.2-.951.636-2.029,2.726-3.54C535.986,425.719,536.424,425.893,537.211,426.058Z" transform="translate(-532.713 -412.179)" fill="#e73555"/></g><path d="M539.247,400.963c1.874-.961,22.874-10.484,22.874-10.484l16.406,4.043c3.028,8.087-.679,11.2-5.545,13.4-4.362,1.972-16.132,8.032-16.132,8.032a13.74,13.74,0,0,1,1.593,5.119c.279,2.447.593,14.97.593,14.97a4.7,4.7,0,0,1-4.255-.039s-6.617-19.477-6.938-22.124-.618-3.011,3.171-5.846c1.175-.879,8.5-4.237,10.073-5.278l-16.073,5.935a33.378,33.378,0,0,1,.927,5.16c-.033,1.32-.714,14.019-.714,14.019a4.438,4.438,0,0,1-4.248-.245s-4.533-17.183-4.788-20.819A5.508,5.508,0,0,1,539.247,400.963Z" transform="translate(-531.021 -342.816)" fill="#00a5c8"/><path d="M554.007,374.6c-1.408,2.892-2.837,6.079-1.823,9.1s4.37,5,6.524,5.748c2.6.908,5.088-1.817,6.263-3.455.953-1.329,1.3-6.4,1.3-6.4l-10.909-6.3Z" transform="translate(-523.283 -351.289)" fill="#e73555"/><path d="M570.09,403.939c-1.023-3.219-2.092-7.814-1.111-10.84,1.269-3.913,2.947-14.032.061-17.209-3.974-4.377-10.76-5.013-12.12-4.222a8.528,8.528,0,0,0-3.613,3.877c-.2,1.078.252,2.892.8,10.724a69.974,69.974,0,0,1-.427,13.628s-1.357,2.392,4.242,4.407S566.782,406.417,570.09,403.939Z" transform="translate(-522.584 -352.234)" fill="#e73555"/><path d="M562.073,368.992l.6,6.061s-.1.567-1.714,1.3c-1.9.86-3.6-.015-3.767-1.5-.246-2.221-.46-4.334-.46-4.334Z" transform="translate(-520.875 -353.409)" fill="#f9bb87"/><path d="M556.239,360.041a8.309,8.309,0,0,0-3.053,6.866l.439,5.054h0a4.957,4.957,0,0,0,7.129,4.018l1.76-.866a3.562,3.562,0,0,0,1.883-2.333l1.808-7.248a5.482,5.482,0,0,0-2.72-6.12A8.039,8.039,0,0,0,556.239,360.041Z" transform="translate(-522.632 -358.42)" fill="#fcd2a0"/><path d="M563.8,374.744a6.517,6.517,0,0,0,3.5-5.288,11.766,11.766,0,0,0-1.224-7.644c-1.041-2.42-3.74-3.349-5.974-3.25s-5.582.869-6.623,4.333c-.579,1.924.99,1.7,2.917,1.742s5.3-.96,5.909-.739c.733.263,1.145,1.009,1.147,2.619s-.146,2,.26,2.538c.125.166.53.608.635.3a11.468,11.468,0,0,0,.349-1.842l.6,1.454-.985,3.947a3.841,3.841,0,0,1-.566,1.224Z" transform="translate(-522.54 -358.554)" fill="#19313a"/><path d="M561.156,364.769a1.1,1.1,0,0,1,1.745-.388c.636.454.99,2.616-.3,3.815s-2.087.33-2.087.33Z" transform="translate(-519.007 -355.812)" fill="#f9bb87"/><path d="M563.078,373.337c.233,1.057-5.985,7.753-6.95,7.133s1.4-8,1.4-8Z" transform="translate(-521.284 -351.693)" fill="#f9bb87"/><path d="M555.825,359.423a7.305,7.305,0,0,0-2.014,1.379,2.755,2.755,0,0,0-.745,1.792,2.607,2.607,0,0,0,.969,1.887,5.371,5.371,0,0,0,1.939.978c1.919.593,3.976.688,5.854,1.4a2.78,2.78,0,0,1,1.265.812,7.274,7.274,0,0,0,1.006,1.227c.328.184.366-2.64.387-2.81a3.76,3.76,0,0,0-.3-2.405C563.232,362.119,555.888,359.4,555.825,359.423Z" transform="translate(-522.68 -358.126)" fill="#19313a"/><path d="M552.071,380.262c1.366,1.877,7.3,4.518,12.893,3.465,0,0-.93.994-4.666,1.227C554.857,385.292,552.9,383.058,552.071,380.262Z" transform="translate(-523.17 -347.853)" fill="#cd224e"/><g transform="translate(42.397 23.386)"><path d="M572.16,396.13h0a2.763,2.763,0,0,1-3.641-1.415l-7.174-16.621a2.762,2.762,0,0,1,1.415-3.64h0a2.762,2.762,0,0,1,3.641,1.415l7.174,16.62A2.763,2.763,0,0,1,572.16,396.13Z" transform="translate(-561.111 -374.219)" fill="#fcd2a0"/><path d="M569.345,405.526l-3.432-.015.24-16.269a2.832,2.832,0,0,1,1.4-3.691h0a2.747,2.747,0,0,1,3.656,1.465l.215,1.391Z" transform="translate(-558.745 -368.746)" fill="#fcd2a0"/><path d="M570.488,398.859c-.051,1.754.424,7.2-.967,8.92A6.374,6.374,0,0,1,565,409.961c-.446-.164-1.109-.548-.7-1.284s2.006-2.974,2.032-4.28-.926-.185-1.5.419c-.7.733-1.8,0-.917-1.182s3.22-3.452,3.141-4.789Z" transform="translate(-559.891 -362.079)" fill="#fcd2a0"/></g></g><g transform="translate(528.493 392.437)"><g transform="translate(36.398 13.101)"><path d="M534.091,366.8v13.11l17.021-9.832-5.671-3.278h-11.35Z" transform="translate(-534.091 -366.805)" fill="#dfeef2"/><g transform="translate(5.671 3.278)"><path d="M537.889,369v13.11L549.239,369h-11.35Z" transform="translate(-537.889 -369)" fill="#fff"/></g></g><g transform="translate(5.668 3.273)"><path d="M513.507,381.145l36.406-20.923,0,36.8-36.408,20.916Z" transform="translate(-513.507 -360.222)" fill="#fff"/></g><g transform="translate(0 20.92)"><path d="M515.379,375.318l-5.668-3.276v36.795l5.668,3.277Z" transform="translate(-509.711 -372.042)" fill="#cee4ea"/></g><path d="M509.711,378.95,546.1,358.03l5.681,3.273-36.406,20.923Z" transform="translate(-509.711 -358.03)" fill="#dfeef2"/><g transform="translate(8.688 17.098)"><path d="M528.52,397.883l-4.2-1.111c-4.01-1.061-8.791-3.405-8.791-8.544,0-3.6,2.917-8.2,6.515-10.276,3.311-1.913,6.045.133,6.462,3.09.415-3.437,3.149-8.64,6.46-10.551,3.6-2.078,6.515-.845,6.515,2.753,0,5.146-4.767,13-8.765,18.677Z" transform="translate(-515.53 -369.482)" fill="#e73555"/></g></g><g transform="translate(661.645 421.949)"><g transform="translate(0 13.101)"><g transform="translate(0.005)"><path d="M615.921,386.572v13.11L598.9,389.851l5.671-3.278h11.35Z" transform="translate(-598.9 -386.572)" fill="#dfeef2"/></g><g transform="translate(0 3.278)"><path d="M610.252,388.768v13.11L598.9,388.768h11.35Z" transform="translate(-598.897 -388.768)" fill="#fff"/></g></g><g transform="translate(11.348 3.273)"><path d="M642.906,400.913,606.5,379.99l0,36.8,36.408,20.916Z" transform="translate(-606.498 -379.99)" fill="#fff"/></g><g transform="translate(47.757 20.92)"><path d="M630.884,395.086l5.668-3.276v36.8l-5.668,3.277Z" transform="translate(-630.884 -391.81)" fill="#cee4ea"/></g><g transform="translate(11.35)"><path d="M648.573,398.717,612.18,377.8l-5.681,3.273,36.406,20.923Z" transform="translate(-606.499 -377.797)" fill="#dfeef2"/></g><g transform="translate(18.785 17.098)"><path d="M624.441,417.651l4.2-1.112c4.009-1.062,8.789-3.4,8.789-8.543,0-3.6-2.917-8.2-6.515-10.278-3.31-1.911-6.045.133-6.46,3.092-.415-3.438-3.15-8.64-6.46-10.551-3.6-2.078-6.515-.845-6.515,2.753,0,5.145,4.766,13,8.765,18.677Z" transform="translate(-611.479 -389.25)" fill="#e73555"/></g></g></g></svg>