<svg xmlns="http://www.w3.org/2000/svg" width="140" height="140" viewBox="0 0 140 140"><g transform="translate(-728 -4072.946)"><g transform="translate(728 4072.946)" fill="#fff" stroke="#205d78" stroke-width="4"><circle cx="70" cy="70" r="70" stroke="none"/><circle cx="70" cy="70" r="68" fill="none"/></g><g transform="translate(67.818 3518.765)"><path d="M782.1,624.181a51.921,51.921,0,1,1-51.921-51.921A51.922,51.922,0,0,1,782.1,624.181Zm0,0" fill="#1f2060"/><path d="M775.1,624.181a44.919,44.919,0,1,1-44.919-44.919A44.92,44.92,0,0,1,775.1,624.181Zm0,0" fill="#2b246f"/><path d="M756.327,600.736h-52.29a2.608,2.608,0,0,0-2.61,2.609v36.092a2.61,2.61,0,0,0,2.61,2.609h19.169v8.624h-7.918a1.517,1.517,0,0,0-1.438,1.045.972.972,0,0,0-.035.113c-.009.035-.017.07-.023.1a1.57,1.57,0,0,0-.026.258,1.522,1.522,0,0,0,1.522,1.522h29.787a1.522,1.522,0,0,0,1.522-1.522,1.465,1.465,0,0,0-.026-.258c-.006-.035-.014-.07-.023-.1s-.022-.075-.035-.113a1.516,1.516,0,0,0-1.438-1.045h-7.918v-8.624h19.17a2.61,2.61,0,0,0,2.609-2.609V603.345a2.609,2.609,0,0,0-2.609-2.609Zm0,0" fill="#1f2060"/><path d="M756.327,639h-52.29a2.61,2.61,0,0,1-2.61-2.609V600.3a2.608,2.608,0,0,1,2.61-2.609h52.29a2.608,2.608,0,0,1,2.609,2.609v36.092A2.61,2.61,0,0,1,756.327,639Zm0,0" fill="#fff"/><path d="M756.327,637.7h-52.29a2.609,2.609,0,0,1-2.61-2.609v1.3a2.61,2.61,0,0,0,2.61,2.609h52.29a2.61,2.61,0,0,0,2.609-2.609v-1.3a2.609,2.609,0,0,1-2.609,2.609Zm0,0" fill="#e1e2e3"/><rect width="13.951" height="8.624" transform="translate(723.206 639.002)" fill="#c6c9ca"/><rect width="13.951" height="2.283" transform="translate(723.206 639.002)" fill="#aeb0b2"/><path d="M745.075,647.626H715.288a1.522,1.522,0,1,0,0,3.044h29.787a1.522,1.522,0,0,0,0-3.044Zm0,0" fill="#fff"/><path d="M745.075,649.148H715.288a1.517,1.517,0,0,1-1.311-.761,1.512,1.512,0,0,0,1.311,2.283h29.787a1.523,1.523,0,0,0,1.522-1.522,1.5,1.5,0,0,0-.212-.761,1.513,1.513,0,0,1-1.31.761Zm0,0" fill="#e1e2e3"/><path d="M756.327,597.692h-52.29a2.608,2.608,0,0,0-2.61,2.609v32.758h57.509V600.3a2.609,2.609,0,0,0-2.609-2.609Zm0,0" fill="#00a0df"/><path d="M732.32,636.212h-4.276a.87.87,0,0,1,0-1.74h4.276a.87.87,0,0,1,0,1.74Zm0,0" fill="#e1e2e3"/><path d="M743.988,630.015H716.375a1.74,1.74,0,0,1-1.739-1.739v-22.9a1.74,1.74,0,0,1,1.739-1.739h27.613a1.74,1.74,0,0,1,1.739,1.739v22.9a1.74,1.74,0,0,1-1.739,1.739Zm0,0" fill="#0089ce"/><path d="M743.988,629.146H716.375a1.74,1.74,0,0,1-1.739-1.74V604.5a1.74,1.74,0,0,1,1.739-1.739h27.613a1.74,1.74,0,0,1,1.739,1.739v22.9a1.74,1.74,0,0,1-1.739,1.74Zm0,0" fill="#c6c9ca"/><path d="M743.988,628.711H716.375a1.74,1.74,0,0,1-1.739-1.74v-22.9a1.74,1.74,0,0,1,1.739-1.74h27.613a1.74,1.74,0,0,1,1.739,1.74v22.9a1.74,1.74,0,0,1-1.739,1.74Zm0,0" fill="#fff"/><path d="M743.988,602.33H716.375a1.74,1.74,0,0,0-1.739,1.74v3.116h31.091V604.07a1.74,1.74,0,0,0-1.739-1.74Zm0,0" fill="#ffd520"/><rect width="31.119" height="0.58" transform="translate(714.636 606.606)" fill="#e69b11"/><path d="M738.847,604.622a.711.711,0,1,1-.711-.711.711.711,0,0,1,.711.711Zm0,0" fill="#e69b11"/><path d="M718.3,604.622a.711.711,0,1,1-.712-.711.712.712,0,0,1,.712.711Zm0,0" fill="#fff"/><path d="M741.456,604.622a.711.711,0,1,1-.711-.711.711.711,0,0,1,.711.711Zm0,0" fill="#e69b11"/><path d="M744.065,604.622a.711.711,0,1,1-.711-.711.711.711,0,0,1,.711.711Zm0,0" fill="#e69b11"/><rect width="31.091" height="0.87" transform="translate(714.636 613.926)" fill="#e1e2e3"/><rect width="31.091" height="0.87" transform="translate(714.636 621.101)" fill="#e1e2e3"/><path d="M719.744,608.75l.367,1.126a.157.157,0,0,0,.148.108h1.185a.156.156,0,0,1,.092.283l-.958.7a.154.154,0,0,0-.057.174l.366,1.127a.156.156,0,0,1-.241.174l-.958-.7a.158.158,0,0,0-.185,0l-.958.7a.156.156,0,0,1-.241-.174l.367-1.127a.156.156,0,0,0-.058-.174l-.958-.7a.157.157,0,0,1,.092-.283h1.184a.156.156,0,0,0,.149-.108l.367-1.126a.156.156,0,0,1,.3,0Zm0,0" fill="#fdbe00"/><path d="M725.07,608.75l.366,1.126a.157.157,0,0,0,.149.108h1.185a.156.156,0,0,1,.091.283l-.958.7a.154.154,0,0,0-.056.174l.366,1.127a.156.156,0,0,1-.241.174l-.959-.7a.155.155,0,0,0-.183,0l-.958.7a.156.156,0,0,1-.241-.174l.365-1.127a.154.154,0,0,0-.056-.174l-.958-.7a.156.156,0,0,1,.091-.283h1.185a.154.154,0,0,0,.148-.108l.367-1.126a.156.156,0,0,1,.3,0Zm0,0" fill="#fdbe00"/><path d="M730.4,608.75l.365,1.126a.157.157,0,0,0,.149.108h1.184a.157.157,0,0,1,.093.283l-.959.7a.157.157,0,0,0-.057.174l.366,1.127a.155.155,0,0,1-.24.174l-.959-.7a.156.156,0,0,0-.184,0l-.959.7a.156.156,0,0,1-.24-.174l.366-1.127a.154.154,0,0,0-.057-.174l-.959-.7a.157.157,0,0,1,.093-.283h1.185a.154.154,0,0,0,.148-.108l.367-1.126a.157.157,0,0,1,.3,0Zm0,0" fill="#fdbe00"/><path d="M735.72,608.75l.366,1.126a.157.157,0,0,0,.15.108h1.184a.156.156,0,0,1,.092.283l-.958.7a.155.155,0,0,0-.058.174l.367,1.127a.156.156,0,0,1-.241.174l-.958-.7a.158.158,0,0,0-.185,0l-.958.7a.156.156,0,0,1-.241-.174l.367-1.127a.155.155,0,0,0-.058-.174l-.958-.7a.156.156,0,0,1,.092-.283h1.184a.158.158,0,0,0,.15-.108l.365-1.126a.157.157,0,0,1,.3,0Zm0,0" fill="#c6c9ca"/><path d="M741.045,608.75l.367,1.126a.155.155,0,0,0,.148.108h1.185a.156.156,0,0,1,.092.283l-.959.7a.154.154,0,0,0-.056.174l.365,1.127a.155.155,0,0,1-.24.174l-.959-.7a.155.155,0,0,0-.183,0l-.959.7a.155.155,0,0,1-.24-.174l.365-1.127a.155.155,0,0,0-.056-.174l-.959-.7a.156.156,0,0,1,.092-.283h1.185a.154.154,0,0,0,.148-.108l.366-1.126a.157.157,0,0,1,.3,0Zm0,0" fill="#c6c9ca"/><path d="M719.744,615.87l.367,1.127a.157.157,0,0,0,.148.108h1.185a.156.156,0,0,1,.092.283l-.958.7a.156.156,0,0,0-.057.175l.366,1.126a.157.157,0,0,1-.241.175l-.958-.7a.161.161,0,0,0-.185,0l-.958.7a.157.157,0,0,1-.241-.175l.367-1.126a.158.158,0,0,0-.058-.175l-.958-.7a.157.157,0,0,1,.092-.283h1.184a.156.156,0,0,0,.149-.108l.367-1.127a.156.156,0,0,1,.3,0Zm0,0" fill="#fdbe00"/><path d="M725.07,615.87l.366,1.127a.157.157,0,0,0,.149.108h1.185a.156.156,0,0,1,.091.283l-.958.7a.156.156,0,0,0-.056.175l.366,1.126a.157.157,0,0,1-.241.175l-.959-.7a.158.158,0,0,0-.183,0l-.958.7a.157.157,0,0,1-.241-.175l.365-1.126a.156.156,0,0,0-.056-.175l-.958-.7a.156.156,0,0,1,.091-.283h1.185a.154.154,0,0,0,.148-.108l.367-1.127a.156.156,0,0,1,.3,0Zm0,0" fill="#c6c9ca"/><path d="M730.4,615.87l.365,1.127a.157.157,0,0,0,.149.108h1.184a.157.157,0,0,1,.093.283l-.959.7a.159.159,0,0,0-.057.175l.366,1.126a.156.156,0,0,1-.24.175l-.959-.7a.159.159,0,0,0-.184,0l-.959.7a.156.156,0,0,1-.24-.175l.366-1.126a.156.156,0,0,0-.057-.175l-.959-.7a.157.157,0,0,1,.093-.283h1.185a.154.154,0,0,0,.148-.108l.367-1.127a.157.157,0,0,1,.3,0Zm0,0" fill="#c6c9ca"/><path d="M735.72,615.87l.366,1.127a.157.157,0,0,0,.15.108h1.184a.156.156,0,0,1,.092.283l-.958.7a.157.157,0,0,0-.058.175l.367,1.126a.157.157,0,0,1-.241.175l-.958-.7a.161.161,0,0,0-.185,0l-.958.7a.157.157,0,0,1-.241-.175l.367-1.126a.157.157,0,0,0-.058-.175l-.958-.7a.156.156,0,0,1,.092-.283h1.184a.158.158,0,0,0,.15-.108l.365-1.127a.157.157,0,0,1,.3,0Zm0,0" fill="#c6c9ca"/><path d="M741.045,615.87l.367,1.127a.155.155,0,0,0,.148.108h1.185a.156.156,0,0,1,.092.283l-.959.7a.156.156,0,0,0-.056.175l.365,1.126a.156.156,0,0,1-.24.175l-.959-.7a.158.158,0,0,0-.183,0l-.959.7a.156.156,0,0,1-.24-.175l.365-1.126a.157.157,0,0,0-.056-.175l-.959-.7a.156.156,0,0,1,.092-.283h1.185a.154.154,0,0,0,.148-.108l.366-1.127a.157.157,0,0,1,.3,0Zm0,0" fill="#c6c9ca"/><path d="M719.744,622.991l.367,1.127a.157.157,0,0,0,.148.107h1.185a.156.156,0,0,1,.092.283l-.958.7a.155.155,0,0,0-.057.174l.366,1.127a.156.156,0,0,1-.241.174l-.958-.7a.157.157,0,0,0-.185,0l-.958.7a.156.156,0,0,1-.241-.174l.367-1.127a.157.157,0,0,0-.058-.174l-.958-.7a.157.157,0,0,1,.092-.283h1.184a.156.156,0,0,0,.149-.107l.367-1.127a.156.156,0,0,1,.3,0Zm0,0" fill="#fdbe00"/><path d="M725.07,622.991l.366,1.127a.157.157,0,0,0,.149.107h1.185a.156.156,0,0,1,.091.283l-.958.7a.154.154,0,0,0-.056.174l.366,1.127a.156.156,0,0,1-.241.174l-.959-.7a.154.154,0,0,0-.183,0l-.958.7a.156.156,0,0,1-.241-.174l.365-1.127a.154.154,0,0,0-.056-.174l-.958-.7a.156.156,0,0,1,.091-.283h1.185a.154.154,0,0,0,.148-.107l.367-1.127a.156.156,0,0,1,.3,0Zm0,0" fill="#fdbe00"/><path d="M730.4,622.991l.365,1.127a.157.157,0,0,0,.149.107h1.184a.157.157,0,0,1,.093.283l-.959.7a.158.158,0,0,0-.057.174l.366,1.127a.155.155,0,0,1-.24.174l-.959-.7a.156.156,0,0,0-.184,0l-.959.7a.156.156,0,0,1-.24-.174l.366-1.127a.155.155,0,0,0-.057-.174l-.959-.7a.157.157,0,0,1,.093-.283h1.185a.154.154,0,0,0,.148-.107l.367-1.127a.157.157,0,0,1,.3,0Zm0,0" fill="#fdbe00"/><path d="M735.72,622.991l.366,1.127a.158.158,0,0,0,.15.107h1.184a.157.157,0,0,1,.092.283l-.958.7a.155.155,0,0,0-.058.174l.367,1.127a.156.156,0,0,1-.241.174l-.958-.7a.157.157,0,0,0-.185,0l-.958.7a.156.156,0,0,1-.241-.174l.367-1.127a.155.155,0,0,0-.058-.174l-.958-.7a.156.156,0,0,1,.092-.283h1.184a.158.158,0,0,0,.15-.107l.365-1.127a.157.157,0,0,1,.3,0Zm0,0" fill="#fdbe00"/><path d="M741.045,622.991l.367,1.127a.155.155,0,0,0,.148.107h1.185a.156.156,0,0,1,.092.283l-.959.7a.154.154,0,0,0-.056.174l.365,1.127a.155.155,0,0,1-.24.174l-.959-.7a.154.154,0,0,0-.183,0l-.959.7a.155.155,0,0,1-.24-.174l.365-1.127a.156.156,0,0,0-.056-.174l-.959-.7a.156.156,0,0,1,.092-.283h1.185a.154.154,0,0,0,.148-.107l.366-1.127a.157.157,0,0,1,.3,0Zm0,0" fill="#c6c9ca"/></g></g></svg>