<svg xmlns="http://www.w3.org/2000/svg" width="140" height="140" viewBox="0 0 140 140"><g transform="translate(-238 -4292.946)"><g transform="translate(238 4292.946)" fill="#fff" stroke="#205d78" stroke-width="4"><circle cx="70" cy="70" r="70" stroke="none"/><circle cx="70" cy="70" r="68" fill="none"/></g><g transform="translate(-400.182 3993.765)"><path d="M760.1,369.181a51.921,51.921,0,1,1-51.921-51.921A51.922,51.922,0,0,1,760.1,369.181Zm0,0" fill="#1f2060"/><path d="M753.1,369.181a44.919,44.919,0,1,1-44.919-44.919A44.92,44.92,0,0,1,753.1,369.181Zm0,0" fill="#2b246f"/><path d="M738.392,360.488H712.728v-11.27a2.008,2.008,0,0,0-2.006-2.008H679.711a2.008,2.008,0,0,0-2.008,2.008V375.7a2.008,2.008,0,0,0,2.008,2.008h3.847v7.524a1.337,1.337,0,0,0,2.284.945l8.47-8.469h11.062v11.27a2.006,2.006,0,0,0,2.007,2.006H723.79l8.47,8.471a1.338,1.338,0,0,0,2.284-.946v-7.525h3.848a2.007,2.007,0,0,0,2.007-2.006V362.495a2.006,2.006,0,0,0-2.007-2.007Zm0,0" fill="#1f2060"/><path d="M710.119,347.008H680.312a2.609,2.609,0,0,0-2.609,2.609v22.437a2.61,2.61,0,0,0,2.609,2.609h3.246v7.524a1.337,1.337,0,0,0,2.284.945l8.47-8.469h15.807a2.609,2.609,0,0,0,2.609-2.609V349.617a2.608,2.608,0,0,0-2.609-2.609Zm0,0" fill="#005c91"/><path d="M710.119,344.166H680.312a2.61,2.61,0,0,0-2.609,2.609v22.438a2.61,2.61,0,0,0,2.609,2.609h3.246V378.8a1.338,1.338,0,0,0,2.284.947l7.92-7.92h16.357a2.608,2.608,0,0,0,2.609-2.609V346.775a2.609,2.609,0,0,0-2.609-2.609Zm0,0" fill="#00a0df"/><path d="M737.791,360.284H707.983a2.609,2.609,0,0,0-2.609,2.609V385.33a2.608,2.608,0,0,0,2.609,2.609h15.808l8.47,8.471a1.338,1.338,0,0,0,2.284-.946v-7.523h3.246a2.61,2.61,0,0,0,2.609-2.61V362.893a2.61,2.61,0,0,0-2.609-2.609Zm0,0" fill="#911961"/><path d="M737.791,357.444H707.983a2.608,2.608,0,0,0-2.609,2.609V382.49a2.608,2.608,0,0,0,2.609,2.609h16.358l7.92,7.919a1.337,1.337,0,0,0,2.284-.945V385.1h3.246a2.609,2.609,0,0,0,2.609-2.609V360.053a2.61,2.61,0,0,0-2.609-2.609Zm0,0" fill="#df428b"/><path d="M729.686,377.69l-5.137-13.572a.794.794,0,0,0-.743-.514h-1.091a.794.794,0,0,0-.744.514l-5.135,13.572a.794.794,0,0,0,.743,1.077h1.2a.8.8,0,0,0,.747-.522l1.208-3.291h5.051L727,378.247a.8.8,0,0,0,.748.52h1.192a.794.794,0,0,0,.744-1.077Zm-8.012-5.3,1.581-4.3,1.582,4.3Zm0,0" fill="#fff"/><path d="M701.759,362.21l-1.366-1.151a8.881,8.881,0,0,0,.571-3.233v-1.634a8.505,8.505,0,0,0-.758-3.524,5.754,5.754,0,0,0-2.145-2.467,6.214,6.214,0,0,0-6.385.016,5.823,5.823,0,0,0-2.154,2.539,8.616,8.616,0,0,0-.729,3.617v1.4a7.6,7.6,0,0,0,1.655,5.109,5.606,5.606,0,0,0,4.444,1.979,5.875,5.875,0,0,0,3.2-.889c.152-.1.29-.212.431-.322l1.181,1a1.591,1.591,0,0,0,2.051-2.434Zm-5.018-4.227a1.591,1.591,0,0,0-2.051,2.432l1.759,1.481a3.179,3.179,0,0,1-1.557.374,2.893,2.893,0,0,1-2.416-1.111,5.271,5.271,0,0,1-.946-3.333V356.41a5.326,5.326,0,0,1,.946-3.392,3.2,3.2,0,0,1,4.814-.008,5.268,5.268,0,0,1,.935,3.344v1.435a8.23,8.23,0,0,1-.115,1.347Zm0,0" fill="#fff"/></g></g></svg>