<svg xmlns="http://www.w3.org/2000/svg" width="172.7" height="157.065" viewBox="0 0 172.7 157.065"><g transform="translate(-792.36 -829.051)"><path d="M856.782,838.468l8.686,7.146-9.363,11.328Zm0,0" transform="translate(99.591 14.712)" fill="#e55669"/><path d="M831.83,838.468l-8.686,7.146,10.36,13.322Zm0,0" transform="translate(48.094 14.712)" fill="#e55669"/><path d="M941.084,899.79H797.572a5.213,5.213,0,0,1-5.212-5.212V891.1a1.735,1.735,0,0,1,1.737-1.737h6.949l76.967-5.061h53.942l12.6,5.061A1.735,1.735,0,0,1,946.3,891.1v3.475a5.213,5.213,0,0,1-5.212,5.212Zm0,0" transform="translate(0 86.326)" fill="#c4e6f0"/><path d="M865.634,889.306v3.474a5.216,5.216,0,0,1-5.212,5.212H850a5.215,5.215,0,0,0,5.212-5.212v-3.474a1.737,1.737,0,0,0-1.737-1.737l1.107-2.111,2.367,2.111H863.9a1.737,1.737,0,0,1,1.737,1.737Zm0,0" transform="translate(90.045 88.124)" fill="#99d5eb"/><path d="M871.83,845.325H800.964a5.213,5.213,0,0,0-5.214,5.212v99.73H932.66V884.31Zm0,0" transform="translate(5.296 25.425)" fill="#5b525f"/><path d="M895.3,884.308v65.959H884.881V938.8l-59.438-93.473Zm0,0" transform="translate(51.686 25.425)" fill="#4a424e"/><path d="M924.914,880.926v51.515a1.044,1.044,0,0,1-1.045,1.043H800.859a1.042,1.042,0,0,1-1.04-1.043V859.818l69.4-10.424Zm0,0" transform="translate(11.653 31.782)" fill="#fff"/><path d="M825.178,873.961V830.788a1.739,1.739,0,0,1,1.737-1.737H897.11a1.739,1.739,0,0,1,1.737,1.737V873.8l-30.22,29.484Zm0,0" transform="translate(51.272)" fill="#fbedee"/><path d="M865.142,830.788V873.8H854.716V830.788a1.739,1.739,0,0,0-1.737-1.737h10.426a1.739,1.739,0,0,1,1.737,1.737Zm0,0" transform="translate(94.706)" fill="#f2dfd9"/><path d="M914.694,860.361l-8.156-13.649-17.132,6.439-15.218,11.269a6.949,6.949,0,0,1-8.271,0L850.7,853.15l-21.1-3.969-6.454,19.694v12.161a6.948,6.948,0,0,0,6.949,6.949h70.192a6.948,6.948,0,0,0,6.949-6.949Zm0,0" transform="translate(48.096 27.59)" fill="#ea7682"/><path d="M870.354,860.226v12.161a6.948,6.948,0,0,1-6.949,6.949H852.979a6.947,6.947,0,0,0,6.949-6.949v-18.11l5.214-2.029Zm0,0" transform="translate(94.706 36.239)" fill="#e55669"/><path d="M849.005,856.964l17.132,9.775,5.214-12.627-5.214-9.842Zm0,0" transform="translate(88.497 23.777)" fill="#ee8f9a"/><path d="M866.117,841.257V877.4l-10.426-5.952V848.977Zm0,0" transform="translate(98.943 19.07)" fill="#ea7682"/><path d="M859.585,849.4v10.421H799.819v-9.381a1.042,1.042,0,0,1,1.04-1.043h58.726Zm0,0" transform="translate(11.653 31.781)" fill="#ab9dcc"/><path d="M841.052,884.5H834.1a1.736,1.736,0,0,1-1.737-1.737v-6.949a1.737,1.737,0,0,1,1.737-1.737h6.949a1.737,1.737,0,0,1,1.737,1.737v6.949a1.736,1.736,0,0,1-1.737,1.737Zm0,0" transform="translate(62.502 70.342)" fill="#ffd766"/><path d="M830.884,884.5h-6.952a1.736,1.736,0,0,1-1.737-1.737v-6.949a1.737,1.737,0,0,1,1.737-1.737h6.952a1.739,1.739,0,0,1,1.737,1.737v6.949a1.737,1.737,0,0,1-1.737,1.737Zm0,0" transform="translate(46.612 70.342)" fill="#ffd766"/><path d="M820.71,884.5h-6.949a1.737,1.737,0,0,1-1.737-1.737v-6.949a1.739,1.739,0,0,1,1.737-1.737h6.949a1.737,1.737,0,0,1,1.737,1.737v6.949a1.736,1.736,0,0,1-1.737,1.737Zm0,0" transform="translate(30.721 70.342)" fill="#ffd766"/><path d="M850.7,861.671,823.144,877.4V841.257Zm0,0" transform="translate(48.094 19.07)" fill="#ee8f9a"/><path d="M862.619,848.7H838.295a2.6,2.6,0,1,1,0-5.209h24.324a2.6,2.6,0,1,1,0,5.209Zm0,0" transform="translate(67.693 22.566)" fill="#e1ccc7"/><path d="M873.8,844.638H835.58a2.606,2.606,0,0,1,0-5.212H873.8a2.606,2.606,0,1,1,0,5.212Zm0,0" transform="translate(63.456 16.209)" fill="#e1ccc7"/><path d="M885,840.7H832.87a2.606,2.606,0,1,1,0-5.212H885a2.606,2.606,0,0,1,0,5.212Zm0,0" transform="translate(59.218 10.064)" fill="#e1ccc7"/></g></svg>