<svg xmlns="http://www.w3.org/2000/svg" width="220.925" height="224.333" viewBox="0 0 220.925 224.333"><g transform="translate(-316.593 -241.579)"><g transform="translate(380.671 278.427)"><path d="M402.041,352.543l-22.358,12.908a11.621,11.621,0,0,1-10.512,0l-14.142-8.163c-2.9-1.677-2.905-4.4,0-6.074L377.361,338.3a11.6,11.6,0,0,1,10.508-.005l14.172,8.183C404.943,348.149,404.943,350.867,402.041,352.543Z" transform="translate(-352.85 -205.182)" fill="#f59d10" opacity="0.6" style="mix-blend-mode:multiply;isolation:isolate"/><g transform="translate(4.719)"><path d="M377.776,301.383h0a3.333,3.333,0,0,0,2.084-4.227l-6.325-18.627a3.333,3.333,0,0,0-4.227-2.084h0a3.333,3.333,0,0,0-2.084,4.227L373.55,299.3A3.33,3.33,0,0,0,377.776,301.383Z" transform="translate(-346.677 -251.811)" fill="#fcd2a0"/><g transform="translate(28.835 17.237)"><g transform="translate(0 11.12)"><path d="M371.836,293.323l15.406-14.849,2.846,2.87-14.482,17.3Z" transform="translate(-371.836 -278.474)" fill="#fcd2a0"/></g><g transform="translate(15.406)"><path d="M383.4,286.172c1.43-1.492,6.4-5.59,6.693-8.181s-1.391-5.355-1.9-5.594-1.377-.479-1.656.474-.841,4.141-1.918,5.242-.921-.624-.889-1.612c.037-1.193-1.492-1.513-1.75.207s-.24,5.556-1.43,6.594Z" transform="translate(-380.553 -272.182)" fill="#fcd2a0"/></g></g><path d="M370.471,292.923c.46,1.354,9.019-1.552,8.559-2.907l-3.771-11.1a4.521,4.521,0,0,0-5.733-2.826h0a4.52,4.52,0,0,0-2.826,5.733Z" transform="translate(-347.127 -252.135)" fill="#49ae48"/><g transform="translate(5.587 140.793)"><path d="M358.9,345.342a3.434,3.434,0,0,0,0,2.434,4.927,4.927,0,0,0,2.886,1.88,8.541,8.541,0,0,1,3.473,2.068,9.067,9.067,0,0,0,6.373,3.437c4.194.553,6.262-.961,6.891-2.032s-.514-2.55-.514-2.55Z" transform="translate(-358.681 -339.602)" fill="#e8e8f7"/><path d="M360.207,342.094c-.76.2-1.129.622-1.129,2.052a36,36,0,0,1-.269,3.688,3.4,3.4,0,0,0,2.017,2.8c1.479.739,2.723.774,3.764,1.613a34.141,34.141,0,0,0,4.2,3.437c1.585.915,7.2,1.08,9.033-.944s-4-3.775-7.38-6.907-4.2-4.282-4.369-4.994a1,1,0,0,0-.9-.746Z" transform="translate(-358.587 -342.094)" fill="#3a5066"/><path d="M373.07,355.671c-.1-.011-.2-.03-.3-.044a6.071,6.071,0,0,1-2.98-1.744c-.345-.332-.656-.7-.995-1.036a28.041,28.041,0,0,0-4.074-2.95c-.954-.659-2.7-1-3.328-2.031-.454-.742-.131-2.743,0-3.43l-.12-2.342h-1.069c-.76.2-1.129.622-1.129,2.052a36,36,0,0,1-.269,3.688,3.4,3.4,0,0,0,2.017,2.8c1.479.739,2.723.774,3.764,1.613a34.141,34.141,0,0,0,4.2,3.437c1.585.915,7.2,1.08,9.033-.944a1.277,1.277,0,0,0,.325-.587C377.963,354.4,376.572,356.059,373.07,355.671Z" transform="translate(-358.587 -342.094)" fill="#080a1f" opacity="0.4"/><path d="M369.863,346.719a6.218,6.218,0,0,0-2.789.647,5.875,5.875,0,0,0-3.162,4.118,10.2,10.2,0,0,0,.956.652c1.585.915,7.2,1.08,9.033-.944a3.086,3.086,0,0,0,.525-.718,1.3,1.3,0,0,0-.014-.96A5.446,5.446,0,0,0,369.863,346.719Z" transform="translate(-354.668 -338.545)" fill="#fff"/><path d="M364.1,347.34s1.958-2.135,3.828-1.188" transform="translate(-354.525 -339.166)" fill="none" stroke="#fff" stroke-linecap="round" stroke-miterlimit="10" stroke-width="0.3"/><path d="M363.015,346.416s1.958-2.135,3.828-1.188" transform="translate(-355.356 -339.875)" fill="none" stroke="#fff" stroke-linecap="round" stroke-miterlimit="10" stroke-width="0.3"/><path d="M361.932,345.492s1.958-2.135,3.828-1.188" transform="translate(-356.187 -340.584)" fill="none" stroke="#fff" stroke-linecap="round" stroke-miterlimit="10" stroke-width="0.3"/></g><g transform="translate(18.54 133.291)"><path d="M366.232,341.1a3.45,3.45,0,0,0,0,2.435,4.931,4.931,0,0,0,2.886,1.879,8.533,8.533,0,0,1,3.473,2.07,9.065,9.065,0,0,0,6.373,3.436c4.194.555,6.263-.96,6.891-2.032s-.513-2.548-.513-2.548Z" transform="translate(-366.011 -335.358)" fill="#e8e8f7"/><path d="M367.538,337.849c-.76.2-1.131.622-1.131,2.05a35.94,35.94,0,0,1-.269,3.688,3.405,3.405,0,0,0,2.017,2.8c1.479.739,2.723.772,3.766,1.614a34.2,34.2,0,0,0,4.2,3.437c1.583.916,7.2,1.08,9.033-.944s-4-3.777-7.38-6.908-4.2-4.28-4.371-4.993a1,1,0,0,0-.9-.746Z" transform="translate(-365.917 -337.849)" fill="#3a5066"/><path d="M380.4,351.425c-.1-.012-.2-.03-.3-.044a6.114,6.114,0,0,1-2.98-1.744c-.345-.332-.656-.7-1-1.036a27.994,27.994,0,0,0-4.072-2.95c-.954-.659-2.7-1-3.33-2.032-.454-.742-.131-2.741,0-3.429l-.12-2.342h-1.067c-.76.2-1.131.622-1.131,2.05a35.94,35.94,0,0,1-.269,3.688,3.405,3.405,0,0,0,2.017,2.8c1.479.739,2.723.772,3.766,1.614a34.2,34.2,0,0,0,4.2,3.437c1.583.916,7.2,1.08,9.033-.944a1.278,1.278,0,0,0,.323-.589C385.292,350.15,383.9,351.814,380.4,351.425Z" transform="translate(-365.917 -337.849)" fill="#080a1f" opacity="0.4"/><path d="M377.193,342.474a6.2,6.2,0,0,0-2.791.647,5.882,5.882,0,0,0-3.162,4.116,10.221,10.221,0,0,0,.958.654c1.585.915,7.2,1.08,9.033-.944a3.228,3.228,0,0,0,.525-.718,1.306,1.306,0,0,0-.016-.96A5.437,5.437,0,0,0,377.193,342.474Z" transform="translate(-361.998 -334.3)" fill="#fff"/><path d="M371.427,343.095s1.958-2.135,3.828-1.188" transform="translate(-361.855 -334.921)" fill="none" stroke="#fff" stroke-linecap="round" stroke-miterlimit="10" stroke-width="0.3"/><path d="M370.344,342.17s1.958-2.135,3.828-1.188" transform="translate(-362.686 -335.631)" fill="none" stroke="#fff" stroke-linecap="round" stroke-miterlimit="10" stroke-width="0.3"/><path d="M369.261,341.246s1.958-2.135,3.828-1.188" transform="translate(-363.517 -336.34)" fill="none" stroke="#fff" stroke-linecap="round" stroke-miterlimit="10" stroke-width="0.3"/></g><path d="M370.736,272.4c.624-1.684,1.446-5.8-.17-7l-1.576.559Z" transform="translate(-345.185 -260.149)" fill="#19313a"/><g transform="translate(3.85)"><g transform="translate(16.431 128.279)"><path d="M371.957,341.082c0,2.651-4.961,1.211-4.961,0l.578-6.069h4.959Z" transform="translate(-366.996 -335.013)" fill="#fcd2a0"/></g><g transform="translate(3.356 135.979)"><path d="M364.559,345.439c0,2.651-4.961,1.212-4.961,0V339.37h4.961Z" transform="translate(-359.598 -339.37)" fill="#fcd2a0"/></g><g transform="translate(2.514 62.047)"><path d="M361.982,300.19c-.972,4.432-2,9.066-1.8,14.419s.993,28.963.979,28.867a16.333,16.333,0,0,0-1.895,6.088c-.332,2.911,0,24.967,0,24.967s3.372,2.732,6.044,0c0,0,3.386-29.309,3.768-32.458s2.84-26.4,2.84-26.4a7.129,7.129,0,0,0,1.255-.17l2.046,24.854s-1.681,4.372-1.64,5.942-1.239,21.013-1.239,21.013,3.582,2.131,6.348-.267c0,0,4.008-23.177,4.655-27.464s-1.416-42.041-1.416-42.041Z" transform="translate(-359.121 -297.537)" fill="#315095"/></g><path d="M367.752,278.256l-7.69,4.441a4.713,4.713,0,0,0-2.363,4.067c-.011,3.625.306,10.029,2.4,14.22,3.066,6.12,3.308,10.051,3.4,11.9s-.541,3.413-.424,4.15,2.384,3.669,8.637,2.821c6.52-.885,9.927-3.383,11.313-5.473a146.42,146.42,0,0,0,.779-15.342c0-7.506-.078-16.024-3.641-19.73-2.992-3.114-7.776-3.729-7.776-3.729Z" transform="translate(-357.699 -252.336)" fill="#fff"/><path d="M363.229,273.167l.322,7.987a30.446,30.446,0,0,0,3.655,2.22c1.887.942,3.879.205,3.879-1.569v-6.755Z" transform="translate(-353.456 -254.189)" fill="#f9bb87"/><path d="M372.557,263.85a9.881,9.881,0,0,1,4.325,7.82v7.384a4.971,4.971,0,0,1-6.772,4.634l-3.434-1.336a4.227,4.227,0,0,1-2.471-2.57l-2.889-8.4a6.52,6.52,0,0,1,2.593-7.53A9.562,9.562,0,0,1,372.557,263.85Z" transform="translate(-355.181 -262.132)" fill="#fcd2a0"/><path d="M365.4,283.469c-.622.36-1.926.353-3.236-4.151s-2.223-8.95-1.241-11.924,5.256-4.848,7.912-4.961,7.758,2.312,8.216,4.8c.431,2.349-3.022,2.741-5.3,2.987s-4.832-.293-5.2-.088a2.04,2.04,0,0,0-1.405,2.395c.164,1.905.285,2.941-.249,3.146s-1.06-.421-1.345-1.951l-.56,1.783,1.575,4.576a4.111,4.111,0,0,0,.749,1.327Z" transform="translate(-355.543 -262.429)" fill="#19313a"/><path d="M363.373,269.114a1.3,1.3,0,0,0-2.107-.281c-.707.6-.9,3.2.746,4.487s2.506.178,2.506.178Z" transform="translate(-355.363 -257.822)" fill="#f9bb87"/></g><path d="M358.295,306.058h0a3.334,3.334,0,0,0,3.844-2.729l3.292-19.394a3.33,3.33,0,0,0-2.727-3.842h0a3.331,3.331,0,0,0-3.842,2.727l-3.294,19.395A3.334,3.334,0,0,0,358.295,306.058Z" transform="translate(-355.52 -248.912)" fill="#fcd2a0"/><g transform="translate(0.099 53.371)"><path d="M362.083,293.736l3.291,20.989-3.978.71s-5.108-15.275-5.818-21.508C355.477,291.119,362.083,293.736,362.083,293.736Z" transform="translate(-355.576 -292.628)" fill="#fcd2a0"/><g transform="translate(5.819 22.097)"><path d="M358.869,305.841c.414,2.025.963,8.441,2.927,10.157s5.2,1.9,5.682,1.617,1.177-.861.551-1.631-2.93-3.045-3.224-4.556,1.037-.4,1.831.184c.961.709,2.092-.368.825-1.557s-4.436-3.356-4.614-4.924Z" transform="translate(-358.869 -305.131)" fill="#fcd2a0"/></g></g><path d="M355.6,294.959c-.239,1.41,8.672,2.923,8.913,1.513l1.964-11.562a4.52,4.52,0,0,0-3.7-5.212h0a4.519,4.519,0,0,0-5.214,3.7Z" transform="translate(-355.466 -249.228)" fill="#49ae48"/></g></g><g transform="translate(414.816 300.997)"><path d="M423.237,367.393,403.7,378.671a10.153,10.153,0,0,1-9.183,0l-12.355-7.131c-2.536-1.465-2.538-3.84,0-5.305l19.511-11.286a10.133,10.133,0,0,1,9.181,0l12.38,7.147C425.773,363.557,425.773,365.93,423.237,367.393Z" transform="translate(-365.961 -214.853)" fill="#f59d10" opacity="0.6" style="mix-blend-mode:multiply;isolation:isolate"/><g transform="translate(17.724)"><g transform="translate(0 12.307)"><g transform="translate(5.697 11.846)"><path d="M402.159,305.4l-13.576-16.539-3.16,2.52L397.8,310.249Z" transform="translate(-385.423 -288.866)" fill="#fcd2a0"/></g><path d="M387.9,296.529c-1.248-1.647-5.7-6.3-5.7-8.9s2-5.159,2.536-5.337,1.423-.315,1.589.665.354,4.21,1.3,5.429.986-.514,1.071-1.5c.1-1.189,1.656-1.329,1.714.408s-.408,5.548.652,6.716Z" transform="translate(-382.199 -282.164)" fill="#fcd2a0"/></g><g transform="translate(3.298)"><g transform="translate(14.101 130.431)"><path d="M395.838,363.133s.558.836,3.167-.482,3.268-2.713,3.268-2.713-1.076-5.346-2.644-3.872S395.838,363.133,395.838,363.133Z" transform="translate(-389.133 -343.779)" fill="#080a1f"/><path d="M403.8,349c-.2,2.448-.537,5.256.3,6.444a9.66,9.66,0,0,1,1.347,2.465,8.1,8.1,0,0,0-4.636,2.989c-1.467,2.313-1.223,4.507-2.7,4.977s-4.116-1.083-4.116-1.083a3.619,3.619,0,0,0,2.347-2.389c.781-2.285,2.628-6.26,2.609-7.387-.035-1.962-.09-1.958-.383-5.463Z" transform="translate(-390.552 -349.002)" fill="#fcd2a0"/><path d="M404.716,353.11a6.158,6.158,0,0,0-4,3.549c-.6,1.661-1.614,4.006-2.483,4.577s-2.522-.057-3.888.032-2.289.788-2.3,1.79l5.876,2.294c1.356.528,2.464.472,3.3-2.326s1.122-4.356,2.07-2.563a26.153,26.153,0,0,1,1.582,5.938,1.324,1.324,0,0,0,1.606-.806,27.407,27.407,0,0,1-.057-3.651c.117-1.693,1.49-3.906,1.232-5.915S406.218,352.91,404.716,353.11Z" transform="translate(-392.044 -345.868)" fill="#d80b46"/></g><g transform="translate(0 136.582)"><path d="M387.86,366.613s.557.836,3.165-.482,3.27-2.715,3.27-2.715-1.078-5.344-2.646-3.87S387.86,366.613,387.86,366.613Z" transform="translate(-381.153 -347.259)" fill="#080a1f"/><path d="M395.825,352.482c-.2,2.448-.537,5.254.3,6.444a9.677,9.677,0,0,1,1.345,2.465,8.1,8.1,0,0,0-4.634,2.989c-1.469,2.313-1.223,4.507-2.7,4.977s-4.118-1.083-4.118-1.083a3.62,3.62,0,0,0,2.347-2.389c.781-2.285,2.63-6.26,2.608-7.387s-.384-5.463-.384-5.463Z" transform="translate(-382.573 -352.482)" fill="#fcd2a0"/><path d="M396.737,356.59a6.158,6.158,0,0,0-4,3.549c-.6,1.661-1.613,4.006-2.481,4.577s-2.524-.057-3.89.032-2.289.788-2.3,1.79c0,0,4.521,1.764,5.876,2.294s2.464.47,3.3-2.326,1.12-4.358,2.07-2.563a26.192,26.192,0,0,1,1.58,5.938,1.324,1.324,0,0,0,1.607-.808,27.219,27.219,0,0,1-.055-3.651c.117-1.691,1.488-3.906,1.232-5.915S398.239,356.39,396.737,356.59Z" transform="translate(-384.065 -349.348)" fill="#e73555"/></g><path d="M409.093,309.75c2.2,5.086,4.136,8.884,1.622,16.208-.216,5.636-2.174,29.265-2.225,29.664,0,0,1.993,4.051,1.993,6.408,0,3.086-1.209,21.234-1.209,21.234a17.519,17.519,0,0,1-4.728-.092s-3.22-24.1-3.621-27.416-1.037-25.294-1.037-25.294l-.3,1.522L395.284,359.2s1.769,4.6,1.727,6.256-1.789,23.033-1.789,23.033a5.31,5.31,0,0,1-4.844.5s-2.966-26.089-3.648-30.6.824-41.549.824-41.549Z" transform="translate(-382.156 -248.689)" fill="#007cb6"/><path d="M394.068,276.911a10.409,10.409,0,0,0-4.553,8.232l.67,7.718a5.249,5.249,0,0,0,6.6,4.613l3.98-1.082a4.6,4.6,0,0,0,3.31-3.542l1.826-8.011a6.865,6.865,0,0,0-2.731-7.928A10.06,10.06,0,0,0,394.068,276.911Z" transform="translate(-379.883 -274.723)" fill="#fcd2a0"/><path d="M397.963,291.88l-3.985,2.3c-4.044,2.335-7.414,7.025-7.53,11.693-.074,2.971,3.05,7.271,2.743,12.634-.325,5.634-1.555,8.623-1.555,14.2,0,.785,2.614,1.79,9.2.9,6.864-.931,12.449-6.938,12.345-7.979-.974-2.382-1.29-3.764-1.935-5.682-1.474-4.376.267-7.492,1.476-11.063,2.225-6.58,5.387-12.691,2.312-15.888-3.151-3.278-8.186-3.927-8.186-3.927Z" transform="translate(-382.238 -264.563)" fill="#fff"/><path d="M400.438,286.2l-.348,6.917c-.262,2.457-1.895,4.134-4.233,3.335l-2.9-.991V290.2a4.188,4.188,0,0,1,3.284-4.09Z" transform="translate(-377.241 -266.83)" fill="#f9bb87"/><path d="M396.107,287.852v3.112c0,.737-1.483.581-1.64-.79s0-3.824-.369-4.865a24.932,24.932,0,0,0-1.492-2.891s-1.691-1.308-2.787-1.085c0-2.6,3.642-6.17,8.865-6.133,4.775.035,8.2,3.271,8.264,7.014s.4,8.248-1.393,11.113c-2.987,4.772-5.592,2.923-7.166,2.426s-1.006-2.937-1.006-2.937Z" transform="translate(-379.65 -275.2)" fill="#19313a"/><path d="M393.377,287.555c1.463.836,2.465-.559,2.84-2.018.49-1.91.673-3.091-.606-3.609-1.2-.488-2.234.845-2.234.845Z" transform="translate(-376.92 -270.12)" fill="#f9bb87"/><path d="M392.944,276.48a5.049,5.049,0,0,0-3.837,3.913,20.819,20.819,0,0,0-.433,4.508,4.425,4.425,0,0,0,2.135.848l.555-2.957.191,3.126a4.511,4.511,0,0,0,1.826.62l.288-3.314s1.543,2.723,1.587,4.081,1.73-4.321,1.73-4.321Z" transform="translate(-380.529 -274.218)" fill="#19313a"/><path d="M398.345,276.658c1.981-1.022,6.391-.216,7.253,6.042s-2.556,14.176-2.381,15.538-1.734,1.67-2.745-1.84.73-8.05-.428-10.332S398.345,276.658,398.345,276.658Z" transform="translate(-373.108 -274.365)" fill="#19313a"/></g></g><g transform="translate(0 33.929)"><path d="M388.369,319.876h0a3.331,3.331,0,0,1-2.3-4.111l5.33-18.937a3.333,3.333,0,0,1,4.111-2.3h0a3.334,3.334,0,0,1,2.3,4.111l-5.33,18.937A3.334,3.334,0,0,1,388.369,319.876Z" transform="translate(-361.606 -294.398)" fill="#fcd2a0"/><g transform="translate(0 20.49)"><g transform="translate(12.232)"><path d="M391.606,305.992l-12.515,6.885,2.281,3.337,14.767-5.521Z" transform="translate(-379.092 -305.992)" fill="#fcd2a0"/></g><g transform="translate(0 6.886)"><path d="M386.683,313.225c-1.734,1.124-6.7,5.226-9.3,5.028s-5-2.377-5.136-2.92-.21-1.442.778-1.538,4.226-.044,5.51-.893-.44-1.021-1.416-1.177c-1.179-.189-1.2-1.75.534-1.681s5.5.815,6.744-.157Z" transform="translate(-372.171 -309.888)" fill="#fcd2a0"/></g></g></g></g><g transform="translate(474.276 316.167)"><g transform="translate(0 15.508)"><g transform="translate(0.006)"><path d="M425.967,292.558v15.519l-20.149-11.638,6.713-3.88h13.436Z" transform="translate(-405.818 -292.558)" fill="#dfeef2"/></g><g transform="translate(0 3.881)"><path d="M419.257,294.754v15.52l-13.436-15.519h13.436Z" transform="translate(-405.815 -294.754)" fill="#fff"/></g></g><g transform="translate(13.434 3.875)"><path d="M456.515,310.744l-43.1-24.768,0,43.565,43.1,24.76Z" transform="translate(-413.416 -285.976)" fill="#fff"/></g><g transform="translate(56.532 24.764)"><path d="M437.8,301.674l6.71-3.878v43.556l-6.71,3.879Z" transform="translate(-437.803 -297.796)" fill="#cee4ea"/></g><g transform="translate(13.436)"><path d="M463.223,308.547l-43.081-24.764-6.725,3.875,43.1,24.768Z" transform="translate(-413.417 -283.783)" fill="#dfeef2"/></g><g transform="translate(23.203 23.356)"><g transform="translate(6.649)"><path d="M422.706,306.794a48.387,48.387,0,0,0,3.445-4.249c.3-.693,0-4.678,0-5.371s2.849.689,3.75,3.72a12.829,12.829,0,0,1,.454,7.189l6.935,4a4.71,4.71,0,0,1,2.066,3.7c0,1.343-.749,1.647-1.124,1.69a4.359,4.359,0,0,1,1.389,3.052c0,1.039-.636,1.8-1.686,1.453a5.1,5.1,0,0,1,.452,2.165,1.341,1.341,0,0,1-1.948,1.216,7.486,7.486,0,0,1,.3,1.992c0,1.256-1.048,1.907-2.547,1.043l-11.473-6.613Z" transform="translate(-422.706 -296.999)" fill="#28bbe2"/></g><g transform="translate(0 5.53)"><path d="M418.956,317.568l5,2.881-.013-17.44-5-2.881Z" transform="translate(-418.944 -300.128)" fill="#28bbe2"/></g></g></g><g transform="translate(316.593 241.579)"><g transform="translate(0 3.875)"><path d="M359.691,268.54l-43.1-24.768,0,43.565,43.1,24.76Z" transform="translate(-316.593 -243.772)" fill="#fff"/></g><g transform="translate(43.098 24.764)"><path d="M340.979,259.47l6.71-3.878v43.556l-6.71,3.879Z" transform="translate(-340.979 -255.592)" fill="#cee4ea"/></g><g transform="translate(0.002)"><path d="M366.4,266.344l-43.081-24.764-6.725,3.875,43.1,24.768Z" transform="translate(-316.594 -241.579)" fill="#dfeef2"/></g><g transform="translate(9.769 23.352)"><g transform="translate(6.65)"><path d="M325.883,264.588a48.416,48.416,0,0,0,3.444-4.249c.3-.693,0-4.676-.005-5.371s2.849.691,3.752,3.72a12.829,12.829,0,0,1,.454,7.189l6.935,4a4.7,4.7,0,0,1,2.064,3.7c0,1.343-.748,1.647-1.122,1.691a4.359,4.359,0,0,1,1.389,3.052c0,1.039-.636,1.8-1.686,1.453a5.091,5.091,0,0,1,.452,2.165,1.341,1.341,0,0,1-1.949,1.214,7.528,7.528,0,0,1,.3,1.992c0,1.257-1.048,1.907-2.548,1.043l-11.472-6.611Z" transform="translate(-325.883 -254.793)" fill="#28bbe2"/></g><g transform="translate(0 5.53)"><path d="M322.133,275.362l5,2.881-.013-17.44-5-2.881Z" transform="translate(-322.12 -257.922)" fill="#28bbe2"/></g></g><path d="M340.979,267.133l12.928,16.572-12.928-1.053Z" transform="translate(-297.881 -221.972)" fill="#fff"/><path d="M344.776,264.945,357.7,281.517l-12.928-1.052Z" transform="translate(-294.968 -223.651)" fill="#f4f8f9"/><path d="M340.979,268.839l6.71-3.893,12.928,16.572-6.71,3.867Z" transform="translate(-297.881 -223.651)" fill="#dfeef2"/></g></g></svg>