<?xml version="1.0" encoding="utf-8"?>
<!-- Generator: Adobe Illustrator 25.2.1, SVG Export Plug-In . SVG Version: 6.00 Build 0)  -->
<svg version="1.1" id="Capa_1" xmlns="http://www.w3.org/2000/svg" xmlns:xlink="http://www.w3.org/1999/xlink" x="0px" y="0px"
	 viewBox="0 0 178 143" style="enable-background:new 0 0 178 143;" xml:space="preserve">
<style type="text/css">
	.st0{enable-background:new    ;}
	.st1{fill:none;stroke:#6FC5CB;stroke-width:2;}
</style>
<g class="st0">
	<path class="st1" d="M82,79.9c0,14.7-3.1,26-9.2,33.8s-15,11.7-26.8,11.7c-11.6,0-20.5-3.8-26.7-11.5s-9.3-18.7-9.4-33V61.4
		c0-14.9,3.1-26.2,9.3-33.9s15.1-11.6,26.7-11.6s20.5,3.8,26.7,11.5S81.8,46,82,60.3V79.9z M60.8,58.3c0-8.8-1.2-15.3-3.6-19.3
		c-2.4-4-6.2-6-11.3-6c-5,0-8.7,1.9-11,5.8c-2.4,3.8-3.6,9.8-3.8,18v26c0,8.7,1.2,15.2,3.6,19.4c2.4,4.2,6.2,6.3,11.4,6.3
		s8.9-2,11.2-6.1s3.5-10.3,3.6-18.6L60.8,58.3L60.8,58.3z"/>
	<path class="st1" d="M169.3,124h-73v-14.5l34.5-36.8c4.7-5.2,8.2-9.7,10.5-13.5c2.3-3.9,3.4-7.5,3.4-11c0-4.7-1.2-8.5-3.6-11.2
		c-2.4-2.7-5.8-4.1-10.3-4.1c-4.8,0-8.6,1.6-11.3,4.9c-2.8,3.3-4.1,7.6-4.1,13H94.1c0-6.5,1.5-12.4,4.7-17.8
		c3.1-5.4,7.5-9.6,13.1-12.6c5.7-3.1,12.1-4.6,19.3-4.6c11,0,19.5,2.6,25.6,7.9s9.1,12.7,9.1,22.3c0,5.3-1.4,10.6-4.1,16.1
		c-2.7,5.5-7.4,11.8-14.1,19.1l-24.2,25.6h45.8V124z"/>
</g>
</svg>
