<?xml version="1.0" encoding="utf-8"?>
<!-- Generator: Adobe Illustrator 25.2.1, SVG Export Plug-In . SVG Version: 6.00 Build 0)  -->
<svg version="1.1" id="Capa_1" xmlns="http://www.w3.org/2000/svg" xmlns:xlink="http://www.w3.org/1999/xlink" x="0px" y="0px"
	 viewBox="0 0 178 143" style="enable-background:new 0 0 178 143;" xml:space="preserve">
<style type="text/css">
	.st0{enable-background:new    ;}
	.st1{fill:none;stroke:#6FC5CB;stroke-width:2;}
</style>
<g class="st0">
	<path class="st1" d="M82,79.9c0,14.7-3.1,26-9.2,33.8s-15,11.7-26.8,11.7c-11.6,0-20.5-3.8-26.7-11.5s-9.3-18.7-9.4-33V61.4
		c0-14.9,3.1-26.2,9.3-33.9s15.1-11.6,26.7-11.6s20.5,3.8,26.7,11.5S81.8,46,82,60.3V79.9z M60.8,58.3c0-8.8-1.2-15.3-3.6-19.3
		c-2.4-4-6.2-6-11.3-6c-5,0-8.7,1.9-11,5.8c-2.4,3.8-3.6,9.8-3.8,18v26c0,8.7,1.2,15.2,3.6,19.4c2.4,4.2,6.2,6.3,11.4,6.3
		s8.9-2,11.2-6.1s3.5-10.3,3.6-18.6L60.8,58.3L60.8,58.3z"/>
	<path class="st1" d="M117.8,61.3h11.3c5.4,0,9.3-1.3,11.9-4c2.6-2.7,3.9-6.2,3.9-10.7c0-4.3-1.3-7.6-3.8-10
		c-2.6-2.4-6.1-3.6-10.6-3.6c-4.1,0-7.4,1.1-10.2,3.3c-2.7,2.2-4.1,5.1-4.1,8.7H95c0-5.6,1.5-10.6,4.5-15s7.2-7.9,12.6-10.4
		s11.3-3.7,17.8-3.7c11.3,0,20.1,2.7,26.5,8.1s9.6,12.8,9.6,22.3c0,4.9-1.5,9.4-4.5,13.5s-6.9,7.3-11.7,9.4c6,2.1,10.5,5.4,13.4,9.7
		c3,4.3,4.4,9.4,4.4,15.2c0,9.5-3.5,17.1-10.4,22.8s-16.1,8.6-27.4,8.6c-10.6,0-19.3-2.8-26.1-8.4c-6.8-5.6-10.1-13-10.1-22.3h21.2
		c0,4,1.5,7.3,4.5,9.8s6.7,3.8,11.1,3.8c5,0,9-1.3,11.8-4s4.3-6.2,4.3-10.6c0-10.6-5.9-16-17.6-16h-11.2L117.8,61.3L117.8,61.3z"/>
</g>
</svg>
