<svg xmlns="http://www.w3.org/2000/svg" width="262" height="260.08" viewBox="0 0 262 260.08">
  <g id="Grupo_57782" data-name="Grupo 57782" transform="translate(-31.585 -39.753)">
    <g id="Floor" transform="translate(31.585 162.961)">
      <path id="Floor-2" data-name="Floor" d="M69.954,363.85c51.159,26.726,134.1,26.726,185.262,0s51.159-70.057,0-96.782-134.1-26.726-185.262,0S18.795,337.124,69.954,363.85Z" transform="translate(-31.585 -247.023)" fill="#f5f5f5"/>
    </g>
    <g id="Shadows" transform="translate(184.361 209.871)">
      <ellipse id="Shadow" cx="24.308" cy="14.034" rx="24.308" ry="14.034" transform="translate(0 20.98)" fill="#e0e0e0"/>
      <ellipse id="Shadow-2" data-name="Shadow" cx="21.499" cy="12.413" rx="21.499" ry="12.413" transform="translate(47.223 0)" fill="#e0e0e0"/>
    </g>
    <g id="Clouds" transform="translate(216.437 60.91)">
      <g id="Clouds-2" data-name="Clouds">
        <path id="Trazado_92886" data-name="Trazado 92886" d="M370.919,77.421l3.8,2.195a4.54,4.54,0,0,1-.032-.5v-1.1c0-1.96,1.376-2.754,3.073-1.774A5.944,5.944,0,0,1,379.592,78c.278-2.464,2.211-3.382,4.559-2.026a10.161,10.161,0,0,1,4.6,7.962v1.647a4.341,4.341,0,0,1-.389,1.908l3.157,1.823a3.769,3.769,0,0,1,1.7,2.952c0,1.087-.763,1.528-1.7.984l-20.6-11.891a3.769,3.769,0,0,1-1.7-2.953C369.215,77.318,369.978,76.877,370.919,77.421Z" transform="translate(-353.368 -75.344)" fill="#ebebeb"/>
        <path id="Trazado_92887" data-name="Trazado 92887" d="M343.842,96.4l2.869,1.656a3.453,3.453,0,0,1-.024-.38v-.831c0-1.479,1.039-2.078,2.319-1.339a4.484,4.484,0,0,1,1.381,1.329c.21-1.859,1.669-2.552,3.441-1.529a7.669,7.669,0,0,1,3.469,6.009v1.243A3.28,3.28,0,0,1,357,104l2.383,1.376a2.843,2.843,0,0,1,1.286,2.228c0,.82-.576,1.153-1.286.742l-15.544-8.974a2.843,2.843,0,0,1-1.286-2.228C342.556,96.32,343.131,95.988,343.842,96.4Z" transform="translate(-342.556 -83.248)" fill="#ebebeb"/>
      </g>
    </g>
    <g id="Plants" transform="translate(32.041 190.791)">
      <g id="Plants-2" data-name="Plants" transform="translate(0 24.711)">
        <path id="Trazado_92888" data-name="Trazado 92888" d="M59.774,371.3c-.379.205-7.378,2.192-9.971-1.233s1.71-8.763-.723-10.731-9.248.011-10.889-4.133,3.222-5.921.49-10.092c-1.721-2.627-6.542-4.08-6.321-6.527.323-3.577,6.906-4.541,12.659-.709s8.431.693,10.257.436,5.761.31,5.634,6.718S59.774,371.3,59.774,371.3Z" transform="translate(-32.353 -335.411)" fill="#455a64"/>
        <g id="Grupo_57710" data-name="Grupo 57710" transform="translate(3.743 1.522)">
          <path id="Trazado_92889" data-name="Trazado 92889" d="M62.79,363.22a.382.382,0,0,1-.376-.319c-2-12.161-16.14-22.058-23.49-24.182a.381.381,0,1,1,.212-.732c7.517,2.171,21.974,12.313,24.031,24.79a.381.381,0,0,1-.314.439A.439.439,0,0,1,62.79,363.22Z" transform="translate(-38.649 -337.971)" fill="#fff"/>
        </g>
        <g id="Grupo_57711" data-name="Grupo 57711" transform="translate(10.836 13.66)">
          <path id="Trazado_92890" data-name="Trazado 92890" d="M50.963,361.322a.381.381,0,0,1-.2-.709c.229-.136,5.667-3.315,11.027-1.828a.381.381,0,0,1-.2.735c-5.041-1.4-10.379,1.718-10.432,1.749A.383.383,0,0,1,50.963,361.322Z" transform="translate(-50.581 -358.39)" fill="#fff"/>
        </g>
      </g>
      <g id="Plants-3" data-name="Plants" transform="translate(230.16 0)">
        <g id="Grupo_57722" data-name="Grupo 57722">
          <g id="Grupo_57718" data-name="Grupo 57718">
            <g id="Grupo_57713" data-name="Grupo 57713">
              <g id="Grupo_57712" data-name="Grupo 57712">
                <path id="Trazado_92891" data-name="Trazado 92891" d="M421.656,322.146l-1.852-.858a60.123,60.123,0,0,1,.027-11.088c1.178-8.269,6.964-15.4,12.1-16.234,6.626-1.08,5.448,5.018,1.66,7.646C427.563,305.8,422.844,312.2,421.656,322.146Z" transform="translate(-419.543 -293.84)" fill="#27debf"/>
              </g>
            </g>
            <g id="Grupo_57715" data-name="Grupo 57715" opacity="0.1">
              <g id="Grupo_57714" data-name="Grupo 57714">
                <path id="Trazado_92892" data-name="Trazado 92892" d="M421.656,322.146l-1.852-.858a60.123,60.123,0,0,1,.027-11.088c1.178-8.269,6.964-15.4,12.1-16.234,6.626-1.08,5.448,5.018,1.66,7.646C427.563,305.8,422.844,312.2,421.656,322.146Z" transform="translate(-419.543 -293.84)"/>
              </g>
            </g>
            <g id="Grupo_57717" data-name="Grupo 57717" transform="translate(0.88 1.682)">
              <g id="Grupo_57716" data-name="Grupo 57716">
                <path id="Trazado_92893" data-name="Trazado 92893" d="M421.557,320.631l.033,0a.323.323,0,0,0,.257-.377c-1.283-6.793,4.312-19.39,11.792-22.964a.323.323,0,1,0-.279-.583c-7.707,3.683-13.471,16.665-12.148,23.667A.323.323,0,0,0,421.557,320.631Z" transform="translate(-421.023 -296.669)" fill="#fff"/>
              </g>
            </g>
          </g>
          <g id="Grupo_57721" data-name="Grupo 57721" transform="translate(0.032 6.682)">
            <g id="Grupo_57720" data-name="Grupo 57720">
              <g id="Grupo_57719" data-name="Grupo 57719">
                <path id="Trazado_92894" data-name="Trazado 92894" d="M419.826,325.848c-.136-.983-.2-2.423-.215-2.778a9.09,9.09,0,0,1,.539-3.684,7.273,7.273,0,0,1,3.073-3.728,6.055,6.055,0,0,0,2.177-1.507,4.88,4.88,0,0,0,.567-2.2,4.767,4.767,0,0,1,1.535-3.315,5.009,5.009,0,0,1,3.585-.65c1.783.189,3.452.43,5.117-.388a36.1,36.1,0,0,1,4.113-1.853c1.779-.611,5.773-1.486,6.614,1.017a2.421,2.421,0,0,1-.366,2.041,7.153,7.153,0,0,1-1.5,1.524l-2.788,2.318a3.564,3.564,0,0,0-.846.886c-.542.926-.158,2.1-.278,3.165a3.777,3.777,0,0,1-1.707,2.662,5.074,5.074,0,0,1-3.119.754c-1.455-.1-3.832-1.217-4.722.5a5.486,5.486,0,0,0-.43,1.843,2.78,2.78,0,0,1-3.115,2.81,14.444,14.444,0,0,0-3.833.616c-.5.2-.814.835-1.106,1.256C422.216,326.8,421.217,326.431,419.826,325.848Z" transform="translate(-419.597 -305.081)" fill="#27debf"/>
              </g>
            </g>
          </g>
        </g>
        <g id="Grupo_57724" data-name="Grupo 57724" transform="translate(0.761 8.341)">
          <g id="Grupo_57723" data-name="Grupo 57723">
            <path id="Trazado_92895" data-name="Trazado 92895" d="M421.15,326.47a.3.3,0,0,1-.3-.411c3.747-9.3,15.7-15.965,22.813-18.174a.3.3,0,1,1,.178.573c-7.008,2.176-18.766,8.718-22.434,17.826A.3.3,0,0,1,421.15,326.47Z" transform="translate(-420.823 -307.871)" fill="#fff"/>
          </g>
        </g>
      </g>
    </g>
    <g id="Pen" transform="translate(100.946 198.733)">
      <g id="Pen-2" data-name="Pen">
        <g id="Grupo_57725" data-name="Grupo 57725" transform="translate(7.444)">
          <path id="Trazado_92896" data-name="Trazado 92896" d="M278.841,309.579a7.36,7.36,0,0,0,3.334,5.77,2.649,2.649,0,0,0,1.915.406,1.477,1.477,0,0,1-.361.283l.8-.455a.313.313,0,0,1,.045-.029c.041-.024.078-.053.119-.082a1.044,1.044,0,0,0,.147-.127c.029-.029.058-.057.086-.09a.029.029,0,0,0,.017-.016,1.118,1.118,0,0,0,.078-.1,1.987,1.987,0,0,0,.275-.5c.021-.053.041-.107.058-.16a.34.34,0,0,0,.024-.082.957.957,0,0,0,.037-.148,3.445,3.445,0,0,0,.09-.828,7.37,7.37,0,0,0-3.329-5.77,3.009,3.009,0,0,0-1.493-.455h-.012a1.65,1.65,0,0,0-.205.012l-.193.033a1.038,1.038,0,0,0-.115.033l-.07.021a1.007,1.007,0,0,0-.135.057l-.029.012c-.041.021-.086.041-.127.066l-.7.4a1.329,1.329,0,0,1,.361-.127A2.645,2.645,0,0,0,278.841,309.579Zm5.489,6.1c.02-.008.038-.019.058-.028C284.368,315.659,284.35,315.67,284.33,315.678Z" transform="translate(-208.669 -307.201)" fill="#27debf"/>
          <path id="Trazado_92897" data-name="Trazado 92897" d="M162.432,348.239l4.7,8.168.8-.459,68.591-39.6a1.479,1.479,0,0,0,.361-.283,2.664,2.664,0,0,0,.615-1.874,7.36,7.36,0,0,0-3.334-5.77,2.986,2.986,0,0,0-1.488-.455,1.783,1.783,0,0,0-.422.049,1.327,1.327,0,0,0-.361.127c-.021.008-.041.02-.058.029l-.02.012s0,0-.008,0Z" transform="translate(-161.457 -307.512)" fill="#ebebeb"/>
          <path id="Trazado_92898" data-name="Trazado 92898" d="M164.123,375.8c-1.84-1.062-3.331-.2-3.331,1.923a7.364,7.364,0,0,0,3.331,5.77c1.84,1.062,3.331.2,3.331-1.923A7.364,7.364,0,0,0,164.123,375.8Z" transform="translate(-160.792 -334.837)" fill="#27debf"/>
        </g>
        <path id="Trazado_92899" data-name="Trazado 92899" d="M154.146,380.749a.958.958,0,0,1,.082-.094l4.253-4.675s0-.008.008-.013l.033-.035c.025-.03.051-.057.078-.084l.045-.049,0,0a2.147,2.147,0,0,1,2.662,0,7.364,7.364,0,0,1,3.331,5.77,2.168,2.168,0,0,1-1.285,2.289l0,0-.051.011a1.671,1.671,0,0,1-.241.051l-.052.011s-.012,0-.016,0l-6.163,1.345a1.513,1.513,0,0,1-1.075-.234,4.2,4.2,0,0,1-1.906-3.3A1.571,1.571,0,0,1,154.146,380.749Z" transform="translate(-150.533 -334.838)" fill="#e0e0e0"/>
        <g id="Grupo_57726" data-name="Grupo 57726" transform="translate(5.778 15.446)">
          <path id="Trazado_92900" data-name="Trazado 92900" d="M210.28,333.314a.023.023,0,0,1,.021-.012l.111-.065a.863.863,0,0,1,.775.111,2.631,2.631,0,0,1,1.185,2.054.873.873,0,0,1-.275.713,0,0,0,0,1,0,0l-.143.082-50.63,29.23-3.33-1.923Z" transform="translate(-157.989 -333.186)" fill="#455a64"/>
          <path id="Trazado_92901" data-name="Trazado 92901" d="M166.02,380.9l-4.7,2.714-3.33-1.923,6.365-3.675A8.009,8.009,0,0,1,166.02,380.9Z" transform="translate(-157.989 -351.365)" fill="#37474f"/>
        </g>
        <g id="Grupo_57729" data-name="Grupo 57729" transform="translate(1.723 43.437)">
          <g id="Grupo_57727" data-name="Grupo 57727" transform="translate(0.001)">
            <path id="Trazado_92902" data-name="Trazado 92902" d="M151.383,384.97h0l0,0,3.857-4.241a1.065,1.065,0,0,1,.1-.114,1.512,1.512,0,0,1,1.9-.015,5.2,5.2,0,0,1,2.355,4.078,1.545,1.545,0,0,1-.9,1.62l-.037.011-.155.033-5.654,1.233,0,0a.859.859,0,0,1-.608-.131,2.368,2.368,0,0,1-1.072-1.856A.83.83,0,0,1,151.383,384.97Z" transform="translate(-151.169 -380.274)" fill="#27debf"/>
            <path id="Trazado_92903" data-name="Trazado 92903" d="M151.383,384.97h0l0,0,3.857-4.241a1.065,1.065,0,0,1,.1-.114,1.512,1.512,0,0,1,1.9-.015,5.2,5.2,0,0,1,2.355,4.078,1.545,1.545,0,0,1-.9,1.62l-.037.011-.155.033-5.654,1.233,0,0a.859.859,0,0,1-.608-.131,2.368,2.368,0,0,1-1.072-1.856A.83.83,0,0,1,151.383,384.97Z" transform="translate(-151.169 -380.274)" opacity="0.1"/>
          </g>
          <g id="Grupo_57728" data-name="Grupo 57728" transform="translate(0 2.27)">
            <path id="Trazado_92904" data-name="Trazado 92904" d="M151.168,387.13a2.368,2.368,0,0,0,1.074,1.856.845.845,0,0,0,.605.13l0,0,2.857-.624c.45-.1.745-.521.745-1.2a3.8,3.8,0,0,0-1.713-2.971,1.1,1.1,0,0,0-1.373,0l-.077.085-1.912,2.1,0,0A.83.83,0,0,0,151.168,387.13Z" transform="translate(-151.168 -384.092)" fill="#27debf"/>
            <path id="Trazado_92905" data-name="Trazado 92905" d="M152.241,388.062c-.592-.342-1.072-.065-1.072.619a2.369,2.369,0,0,0,1.072,1.856c.592.342,1.072.065,1.072-.619A2.369,2.369,0,0,0,152.241,388.062Z" transform="translate(-151.168 -385.643)" opacity="0.1"/>
          </g>
        </g>
        <g id="Grupo_57730" data-name="Grupo 57730" transform="translate(58.201 8.211)">
          <path id="Trazado_92906" data-name="Trazado 92906" d="M258.656,321.094a.823.823,0,0,1,.836.083,2.592,2.592,0,0,1,1.176,2.042.817.817,0,0,1-.348.767h0l-12.458,7.192a.873.873,0,0,0,.275-.713,2.631,2.631,0,0,0-1.185-2.054.863.863,0,0,0-.775-.111Z" transform="translate(-246.178 -321.014)" fill="#fafafa"/>
          <path id="Trazado_92907" data-name="Trazado 92907" d="M266.59,321.858a2.61,2.61,0,0,0,1.181,2.042.719.719,0,0,0,1.176-.681,2.592,2.592,0,0,0-1.176-2.042.719.719,0,0,0-1.181.681Z" transform="translate(-254.456 -321.014)" fill="#f5f5f5"/>
        </g>
        <path id="Trazado_92908" data-name="Trazado 92908" d="M270.467,311.816l0,0,.038-.021.052-.03,4.915-2.834c.037-.024.076-.046.115-.067l.027-.015v0a2.157,2.157,0,0,1,2.031.252,6.626,6.626,0,0,1,3,5.193,2.1,2.1,0,0,1-.888,1.946h0l-4.975,2.872-.027.015-.029.017,0,0a2.132,2.132,0,0,1-2.075-.231,6.626,6.626,0,0,1-3-5.193A2.144,2.144,0,0,1,270.467,311.816Z" transform="translate(-197.497 -307.806)" fill="#27debf"/>
        <path id="Trazado_92909" data-name="Trazado 92909" d="M270.467,311.816l0,0,.038-.021.052-.03,4.915-2.834c.037-.024.076-.046.115-.067l.027-.015v0a2.157,2.157,0,0,1,2.031.252,6.626,6.626,0,0,1,3,5.193,2.1,2.1,0,0,1-.888,1.946h0l-4.975,2.872-.027.015-.029.017,0,0a2.132,2.132,0,0,1-2.075-.231,6.626,6.626,0,0,1-3-5.193A2.144,2.144,0,0,1,270.467,311.816Z" transform="translate(-197.497 -307.806)" opacity="0.05"/>
        <path id="Trazado_92910" data-name="Trazado 92910" d="M272.648,313.951c-1.656-.956-3-.181-3,1.731a6.626,6.626,0,0,0,3,5.193c1.656.956,3,.181,3-1.731A6.627,6.627,0,0,0,272.648,313.951Z" transform="translate(-197.497 -309.772)" opacity="0.1"/>
        <g id="Grupo_57731" data-name="Grupo 57731" transform="translate(0 48.655)">
          <path id="Trazado_92911" data-name="Trazado 92911" d="M148.632,390.315h0l2.034-1.22v0a.376.376,0,0,1,.4.03,1.214,1.214,0,0,1,.549.952.384.384,0,0,1-.161.355h0l-2.026,1.226h0a.781.781,0,0,1-.8-1.344Z" transform="translate(-148.269 -389.052)" fill="#455a64"/>
          <path id="Trazado_92912" data-name="Trazado 92912" d="M148.514,391.257l0,0a1.176,1.176,0,0,1,.108-.086s0,0,.008,0a.417.417,0,0,1,.353.062,1.21,1.21,0,0,1,.549.951.375.375,0,0,1-.156.348.176.176,0,0,1-.041.021.26.26,0,0,1-.04.019.637.637,0,0,1-.251.042.782.782,0,0,1-.779-.783A.763.763,0,0,1,148.514,391.257Z" transform="translate(-148.269 -389.901)" fill="#263238"/>
        </g>
      </g>
    </g>
    <g id="Agreement" transform="translate(58.691 39.753)">
      <g id="Contract">
        <g id="Grupo_57732" data-name="Grupo 57732">
          <path id="Trazado_92913" data-name="Trazado 92913" d="M80.444,254.083l-2.074-1.2a2.618,2.618,0,0,1-1.184-2.051V97.137a2.616,2.616,0,0,1,1.184-2.05L173.72,40.036a2.615,2.615,0,0,1,2.367,0l2.075,1.2a2.617,2.617,0,0,1,1.184,2.051v153.7a2.616,2.616,0,0,1-1.184,2.05L82.811,254.083A2.617,2.617,0,0,1,80.444,254.083Z" transform="translate(-77.185 -39.753)" fill="#27debf"/>
          <path id="Trazado_92914" data-name="Trazado 92914" d="M179.567,43.092c-.081-.612-.58-.836-1.17-.492L83.046,97.651a2.4,2.4,0,0,0-.836.88l-4.445-2.564a2.449,2.449,0,0,1,.837-.88l95.351-55.051a2.617,2.617,0,0,1,2.368,0l2.078,1.2A2.651,2.651,0,0,1,179.567,43.092Z" transform="translate(-77.42 -39.753)" fill="#fff" opacity="0.4"/>
          <path id="Trazado_92915" data-name="Trazado 92915" d="M82.6,292.531a.186.186,0,0,1-.071.027.734.734,0,0,1-.12.043l-.049.017c-.071.022-.142.039-.219.055h-.027a2.669,2.669,0,0,1-1.411-.115,1.891,1.891,0,0,1-.262-.121l-2.078-1.2a2.63,2.63,0,0,1-1.181-2.05v-153.7a2.438,2.438,0,0,1,.344-1.17l4.445,2.564a2.393,2.393,0,0,0-.35,1.17v153.7a.983.983,0,0,0,.181.623.618.618,0,0,0,.634.2A.953.953,0,0,0,82.6,292.531Z" transform="translate(-77.185 -78.106)" opacity="0.15"/>
        </g>
        <g id="Grupo_57733" data-name="Grupo 57733" transform="translate(31.093 16.264)">
          <path id="Trazado_92916" data-name="Trazado 92916" d="M170.776,79.432c-.055-.033-.115-.065-.175-.1L168.633,78.2a7.4,7.4,0,0,0-2.3-.814c-.339-.077-.645-.164-.913-.251a7.17,7.17,0,0,1-.87-.355l.148-.181v-.005L162.477,75.3v.005a2.246,2.246,0,0,0-.585-.235c-.836-.2-2.088.285-3.341.142a3.138,3.138,0,0,1-2.269-1.35c-.76-1.022-1.219-2.816-1.891-4.3l.585-.864c-.06-.038-.12-.071-.186-.1L152.75,67.42a2.221,2.221,0,0,0-1.137-.306,4.356,4.356,0,0,0-2.138.694c-4.882,2.821-5.046,9.519-6.807,13.92s-4.248,5.784-5.6,7.682-1.449,3.3-4.45,7.435-3.122,5.15-3.122,5.932v6.167l2.22,1.279,39.962-23.078ZM134.134,103.2c-.52.3-.946-.1-.946-.908a2.508,2.508,0,0,1,.946-2c.519-.3.94.109.94.913A2.5,2.5,0,0,1,134.134,103.2Zm17.555-17.3a2.013,2.013,0,0,1-3.078-.94c-1.547.3-2.7-1.2-2.7-3.768,0-3.029,1.6-6.4,3.565-7.539a2.007,2.007,0,0,1,3.073.94c1.553-.306,2.7,1.186,2.7,3.767C155.249,81.383,153.658,84.757,151.689,85.895Zm13.27-.5c-.52.3-.94-.1-.94-.9a2.485,2.485,0,0,1,.94-2c.525-.3.946.1.946.908A2.471,2.471,0,0,1,164.959,85.4Z" transform="translate(-129.492 -67.114)" fill="#455a64"/>
          <path id="Trazado_92917" data-name="Trazado 92917" d="M133.931,127.981l-4.3-2.481a3.021,3.021,0,0,0-.141.957v6.167l2.22,1.279,2.219-1.282Z" transform="translate(-129.492 -90.793)" fill="#37474f" opacity="0.5"/>
          <path id="Trazado_92918" data-name="Trazado 92918" d="M141.678,111.82l2.221-5.129-3.529-2.07h0c-1.036,1.434-1.336,2.591-2.727,4.868Z" transform="translate(-132.797 -82.325)" fill="#37474f" opacity="0.5"/>
          <path id="Trazado_92919" data-name="Trazado 92919" d="M155.759,90.049l.288-1.494c-.981-.411-1.634-1.737-1.634-3.669a10.213,10.213,0,0,1,2.705-6.876l-3.078-1.776c-1.313,2.988-1.8,6.514-2.869,9.194-.227.569-.467,1.086-.714,1.562Z" transform="translate(-137.995 -70.812)" fill="#37474f" opacity="0.5"/>
          <path id="Trazado_92920" data-name="Trazado 92920" d="M172.29,80.305c-.055-.033-.115-.065-.175-.1a8.8,8.8,0,0,0-2.05-.667A6.413,6.413,0,0,1,166.938,78a4.55,4.55,0,0,0-.722-.536,2.09,2.09,0,0,0-.6-.24c-1.345-.323-3.794,1.143-5.555-1.138l-.055-.071c-1.23-1.657-1.678-5.353-3.521-6.441-.06-.038-.12-.071-.186-.1-.76-.355-1.749-.289-3.1.487-4.882,2.821-5.046,9.519-6.807,13.92s-4.248,5.784-5.6,7.682-1.444,3.3-4.451,7.436-3.117,5.15-3.117,5.932V111.1L173.188,88.02V81.858A1.556,1.556,0,0,0,172.29,80.305Zm-34.428,25.046c-.52.3-.94-.1-.94-.907a2.506,2.506,0,0,1,.94-2c.525-.3.94.109.94.913A2.478,2.478,0,0,1,137.863,105.351ZM153.2,86.768a2.013,2.013,0,0,1-3.078-.94,5.691,5.691,0,0,1-.487-2.488c0-3.029,1.6-6.4,3.565-7.539a2.889,2.889,0,0,1,.858-.339c1.553-.306,2.7,1.186,2.7,3.767C156.763,82.257,155.172,85.63,153.2,86.768Zm15.489.782c-.525.3-.946-.1-.946-.9a2.473,2.473,0,0,1,.946-2c.52-.3.94.1.94.908A2.482,2.482,0,0,1,168.693,87.549Z" transform="translate(-131.006 -67.987)" fill="#37474f"/>
          <path id="Trazado_92921" data-name="Trazado 92921" d="M168.293,83.427c0,3.029-1.591,6.4-3.559,7.54a2.013,2.013,0,0,1-3.078-.94,2.78,2.78,0,0,0,.864-.339c1.968-1.137,3.559-4.511,3.559-7.539a5.679,5.679,0,0,0-.487-2.488C167.145,79.354,168.293,80.847,168.293,83.427Z" transform="translate(-142.537 -72.186)" fill="#263238"/>
          <path id="Trazado_92922" data-name="Trazado 92922" d="M140.384,127.917c-.521.3-.945-.1-.945-.9a2.5,2.5,0,0,1,.945-2c.52-.3.941.111.941.911a2.483,2.483,0,0,1-.941,1.993" transform="translate(-133.526 -90.556)" fill="#263238"/>
          <path id="Trazado_92923" data-name="Trazado 92923" d="M192.243,97.98c-.52.3-.945-.1-.945-.9a2.5,2.5,0,0,1,.945-2c.521-.3.942.111.942.911a2.48,2.48,0,0,1-.942,1.993" transform="translate(-154.558 -78.414)" fill="#263238"/>
        </g>
        <g id="Grupo_57734" data-name="Grupo 57734" transform="translate(11.102 24.2)">
          <path id="Trazado_92924" data-name="Trazado 92924" d="M96.572,128.54l82.973-47.9a1.57,1.57,0,0,1,1.421,0l.8.462a1.57,1.57,0,0,1,.71,1.23V208.911a1.569,1.569,0,0,1-.71,1.23l-82.972,47.9a1.57,1.57,0,0,1-1.421,0l-.8-.464a1.569,1.569,0,0,1-.71-1.23V129.771A1.57,1.57,0,0,1,96.572,128.54Z" transform="translate(-95.862 -80.465)" fill="#f5f5f5"/>
          <path id="Trazado_92925" data-name="Trazado 92925" d="M182.594,82.112c-.087-.289-.361-.383-.683-.2L98.938,129.821a1.424,1.424,0,0,0-.5.53l-2.22-1.279a1.382,1.382,0,0,1,.5-.531l82.973-47.9a1.539,1.539,0,0,1,1.416,0l.8.459A1.574,1.574,0,0,1,182.594,82.112Z" transform="translate(-96.005 -80.464)" fill="#fafafa"/>
          <path id="Trazado_92926" data-name="Trazado 92926" d="M98.626,291.283a1.305,1.305,0,0,1-.262.071l-.137.017a1.913,1.913,0,0,1-.432-.017,1.305,1.305,0,0,1-.262-.071,1.4,1.4,0,0,1-.159-.077l-.8-.46a1.57,1.57,0,0,1-.711-1.23V162.936a1.4,1.4,0,0,1,.208-.7l2.22,1.279a1.5,1.5,0,0,0-.207.7V290.8C98.085,291.184,98.315,291.376,98.626,291.283Z" transform="translate(-95.863 -113.628)" fill="#e0e0e0"/>
        </g>
        <g id="Grupo_57735" data-name="Grupo 57735" transform="translate(28.59 20.256)">
          <path id="Trazado_92927" data-name="Trazado 92927" d="M175.717,95.873l-2.209-1.279a2.4,2.4,0,0,0-2.22.065c-2.58,1.137-3.7,1.651-5.03,2.209-.306.125-.618.251-.962.388-.52.207-1.564.033-1.241-1.788l3.428-9.235c-.017-.011-.033-.016-.049-.027l-2.17-1.257a.976.976,0,0,0-.361-.126,1.61,1.61,0,0,0-.241-.021c-1.405-.033-1.8-9.087-1.815-9.366V75.43l-.1-.055L160.6,74.139a2.4,2.4,0,0,0-1.225-.311,4.487,4.487,0,0,0-2.034.574c-3.373,1.771-6.78,7.02-7.611,11.733-.525,2.974-3.516,7.551-5.243,9.234a5.519,5.519,0,0,0-1.848,3.095l-1.345,7.622-.432,2.438a8,8,0,0,1-2.182,3.581l-6.96,5.216c-4.357,3.62-5.588,7.272-6.424,11.793,0,.006-.005.027-.005.033-.027.158.005.267.076.311a.08.08,0,0,0,.077.005v-.005c.006.005.006.005.011,0l.891-.508,47.884-27.616a1.05,1.05,0,0,0,.437-.667c.005-.005.005-.016.011-.022s-.005-.011,0-.016c.273-1.651,1.072-4.741,1.072-4.741ZM161.874,81.881c-.514,2.9-2.6,6.129-4.68,7.217-1.433.749-2.477.284-2.827-1.033a1.638,1.638,0,0,1-1.569-.2c-.667-.525,5.434-10.995,5.932-10.765a1.77,1.77,0,0,1,.919,1.252C161.36,77.83,162.333,79.279,161.874,81.881Z" transform="translate(-125.282 -73.828)" fill="#455a64"/>
          <path id="Trazado_92928" data-name="Trazado 92928" d="M132.224,154.184l-3.488-2.013a19.292,19.292,0,0,0-3.439,8.716c0,.006-.005.027-.005.033-.027.158.005.268.076.311a.079.079,0,0,0,.077.005v-.005c.006.005.006.005.011,0l.01-.006,2.752-2.18Z" transform="translate(-125.282 -105.601)" fill="#37474f" opacity="0.5"/>
          <path id="Trazado_92929" data-name="Trazado 92929" d="M151.1,124.968l4.918,2.839,2.22-12.823-4.434-2.56a4.2,4.2,0,0,0-.7,1.693l-1.345,7.622-.432,2.438A4.106,4.106,0,0,1,151.1,124.968Z" transform="translate(-135.754 -89.481)" fill="#37474f" opacity="0.5"/>
          <path id="Trazado_92930" data-name="Trazado 92930" d="M167.556,84.231a19.08,19.08,0,0,0-2.332,6.123,15.222,15.222,0,0,1-1.739,4.348l4.221,2.437,2.1-4.843a1.618,1.618,0,0,1-1.511-.215c-.343-.27,1.1-3.169,2.658-5.891Z" transform="translate(-140.776 -78.047)" fill="#37474f" opacity="0.5"/>
          <path id="Trazado_92931" data-name="Trazado 92931" d="M175.858,96.76l-.033-.016a2.411,2.411,0,0,0-2.209.071c-3.166,1.395-4.122,1.853-6,2.6-.5.2-1.515.039-1.252-1.673a.831.831,0,0,1,.016-.115l.432-2.439,1.2-6.643s.273-1.044-.421-1.438c-.017-.011-.033-.016-.049-.027a1.3,1.3,0,0,0-.552-.12,2.7,2.7,0,0,1-1.979-1.263,4.992,4.992,0,0,1-.744-3.8c.5-2.849-.049-4.844-1.313-5.588a.871.871,0,0,0-.1-.06,3.39,3.39,0,0,0-3.187.311c-3.373,1.771-6.78,7.02-7.611,11.733-.525,2.975-3.515,7.551-5.243,9.235a5.517,5.517,0,0,0-1.848,3.095l-1.345,7.621-.432,2.439A7.994,7.994,0,0,1,141,114.261l-6.955,5.216a16.778,16.778,0,0,0-5.724,8.666s-2.608,2.023-2.772,2.187v.005c-.005.005-.005.005.006,0l.005-.005.891-.508,48.02-27.6s.552-.3.672-.377,2.056-1.9,2.056-1.9C177.121,98.362,176.662,97.241,175.858,96.76ZM161.982,82.752c-.514,2.9-2.6,6.129-4.68,7.217-1.433.749-2.477.284-2.827-1.033a5.479,5.479,0,0,1-.005-2.248c.514-2.9,2.608-6.129,4.685-7.211a3.68,3.68,0,0,1,.6-.257C161.468,78.7,162.441,80.15,161.982,82.752Z" transform="translate(-125.39 -74.699)" fill="#37474f"/>
          <path id="Trazado_92932" data-name="Trazado 92932" d="M181.718,84.895c-.514,2.9-2.6,6.129-4.68,7.217-1.433.749-2.477.284-2.827-1.033a3.933,3.933,0,0,0,.607-.252c2.078-1.088,4.171-4.319,4.68-7.216a5.4,5.4,0,0,0-.005-2.248C181.2,80.843,182.177,82.292,181.718,84.895Z" transform="translate(-145.126 -76.841)" fill="#263238"/>
          <path id="Trazado_92933" data-name="Trazado 92933" d="M179.633,81.552h0a1.137,1.137,0,0,1,1,.484c.861,1.223.036,4.341-.32,5.337-.5,1.388-3.716,4.641-4.605,4.641a2.165,2.165,0,0,1-1.452-.929,5.429,5.429,0,0,1,0-2.166c.508-2.861,2.577-6.053,4.615-7.114a3.579,3.579,0,0,1,.565-.243c.067-.007.132-.01.194-.01m0-.137a2.2,2.2,0,0,0-.221.011,3.678,3.678,0,0,0-.6.257c-2.078,1.082-4.172,4.313-4.685,7.211a5.479,5.479,0,0,0,.005,2.248A2.327,2.327,0,0,0,175.7,92.15h.019c.962,0,4.2-3.282,4.721-4.732.508-1.419,1.639-6-.81-6Z" transform="translate(-145.045 -76.905)" fill="#263238"/>
          <path id="Trazado_92934" data-name="Trazado 92934" d="M125.559,146.682l48.914-28.119s.555-.3.674-.376,2.056-1.907,2.056-1.907l-48.877,28.21S125.364,146.784,125.559,146.682Z" transform="translate(-125.39 -91.045)" fill="#263238"/>
        </g>
        <g id="Grupo_57742" data-name="Grupo 57742" transform="translate(22.206 56.464)">
          <g id="Grupo_57737" data-name="Grupo 57737">
            <g id="Grupo_57736" data-name="Grupo 57736">
              <path id="Trazado_92935" data-name="Trazado 92935" d="M114.542,173.884V175c0,.6.424.849.947.547l64.733-37.37a2.092,2.092,0,0,0,.947-1.64v-1.117c0-.6-.424-.849-.947-.547l-64.733,37.374A2.094,2.094,0,0,0,114.542,173.884Z" transform="translate(-114.542 -134.74)" fill="#e0e0e0"/>
              <path id="Trazado_92936" data-name="Trazado 92936" d="M114.542,185.191V186.3c0,.6.424.849.947.547l64.733-37.37a2.092,2.092,0,0,0,.947-1.64v-1.117c0-.6-.424-.848-.947-.546L115.489,183.55A2.094,2.094,0,0,0,114.542,185.191Z" transform="translate(-114.542 -139.326)" fill="#e0e0e0"/>
              <path id="Trazado_92937" data-name="Trazado 92937" d="M114.542,196.434v1.113c0,.6.424.848.947.547l64.733-37.37a2.093,2.093,0,0,0,.947-1.64v-1.117c0-.6-.424-.849-.947-.547l-64.733,37.374A2.094,2.094,0,0,0,114.542,196.434Z" transform="translate(-114.542 -143.886)" fill="#e0e0e0"/>
            </g>
          </g>
          <g id="Grupo_57739" data-name="Grupo 57739" transform="translate(0 28.21)">
            <g id="Grupo_57738" data-name="Grupo 57738">
              <path id="Trazado_92938" data-name="Trazado 92938" d="M114.542,221.341v1.113c0,.6.424.849.947.547l64.733-37.37a2.092,2.092,0,0,0,.947-1.64v-1.116c0-.6-.424-.849-.947-.547L115.489,219.7A2.093,2.093,0,0,0,114.542,221.341Z" transform="translate(-114.542 -182.197)" fill="#e0e0e0"/>
              <path id="Trazado_92939" data-name="Trazado 92939" d="M114.542,232.647v1.113c0,.6.424.849.947.547l64.733-37.37a2.094,2.094,0,0,0,.947-1.641V194.18c0-.6-.424-.849-.947-.547l-64.733,37.374A2.092,2.092,0,0,0,114.542,232.647Z" transform="translate(-114.542 -186.783)" fill="#e0e0e0"/>
              <path id="Trazado_92940" data-name="Trazado 92940" d="M114.542,243.891V245c0,.6.424.849.947.547l64.733-37.37a2.092,2.092,0,0,0,.947-1.64v-1.116c0-.6-.424-.849-.947-.547l-64.733,37.374A2.092,2.092,0,0,0,114.542,243.891Z" transform="translate(-114.542 -191.343)" fill="#e0e0e0"/>
            </g>
          </g>
          <g id="Grupo_57741" data-name="Grupo 57741" transform="translate(0 56.42)">
            <g id="Grupo_57740" data-name="Grupo 57740">
              <path id="Trazado_92941" data-name="Trazado 92941" d="M114.542,268.8v1.113c0,.6.424.849.947.547l64.733-37.37a2.092,2.092,0,0,0,.947-1.64V230.33c0-.6-.424-.849-.947-.547l-64.733,37.374A2.094,2.094,0,0,0,114.542,268.8Z" transform="translate(-114.542 -229.653)" fill="#e0e0e0"/>
              <path id="Trazado_92942" data-name="Trazado 92942" d="M114.542,280.1v1.113c0,.6.424.849.947.547l64.733-37.37a2.092,2.092,0,0,0,.947-1.64v-1.117c0-.6-.424-.849-.947-.547l-64.733,37.374A2.094,2.094,0,0,0,114.542,280.1Z" transform="translate(-114.542 -234.239)" fill="#e0e0e0"/>
              <path id="Trazado_92943" data-name="Trazado 92943" d="M114.542,291.347v1.113c0,.6.424.848.947.547l64.733-37.37a2.093,2.093,0,0,0,.947-1.64V252.88c0-.6-.424-.849-.947-.547l-64.733,37.374A2.093,2.093,0,0,0,114.542,291.347Z" transform="translate(-114.542 -238.799)" fill="#e0e0e0"/>
            </g>
          </g>
        </g>
        <path id="Trazado_92944" data-name="Trazado 92944" d="M170.584,306.442,203.9,287.209v.641l-33.313,19.233Z" transform="translate(-115.064 -140.112)" fill="#e0e0e0"/>
        <path id="Trazado_92945" data-name="Trazado 92945" d="M180.846,294.775c1.386-.93,2.932-2.492,2.682-4.344a1.418,1.418,0,0,0-2.1-1.157c-2.028.776-3.31,3.831-4.018,5.673-.619,1.611-1.4,4.648,1.012,5.162,2.839.6,5.033-3.56,5.67-5.729.089-.3-.4-.468-.543-.2-.253.493-1.925,3.748-.087,3.343.653-.144,1.032-1.16,1.265-1.677a13.438,13.438,0,0,1,1.282-3.016l-.482-.22a2.964,2.964,0,0,0,.572,2.1.292.292,0,0,0,.4.07c.937-.875,1-2.3,2.037-3.088l-.422-.2c-.012.27-.121,1.05-.142,1.417-.01.17.234.281.371.229a.806.806,0,0,0,.591-.511l-.451-.165c.391,2.094,2.182.012,2.794-.8a13.353,13.353,0,0,0,3.106-7.976c0-.244-.46-.366-.465-.073-.043,2.339-1.064,4.487-1.722,6.695a74.264,74.264,0,0,0-1.768,7.262l.424.152a14.576,14.576,0,0,1,1.308-5,9.868,9.868,0,0,1,2.248-3.756l-.39-.147a4.246,4.246,0,0,1-.951,3.459c-.126.162.155.461.281.3.653-.821,1.73-1.082,2.428-1.877a21.111,21.111,0,0,0,1.757-2.83l-.321-.161c-.043,1.995,1.842-1.118,2.1-1.453l-.309-.118c.125.412.295.685.758.688.918.007,1.266-1.342,1.959-1.5.006,0,.306.26.411.269a1.713,1.713,0,0,0,1.112-.209,5.178,5.178,0,0,0,1.821-2.032c.1-.188-.257-.426-.379-.219-.453.772-1.881,2.821-2.919,1.817-.062-.06-.2-.115-.27-.031-.278.343-1.876,2.176-2.173,1.209-.037-.12-.21-.25-.309-.118-.242.322-.438.679-.662,1.015-.123.184-.823,1.357-.8.762.007-.14-.223-.311-.321-.161a14.619,14.619,0,0,1-2.025,3.1c-.672.6-1.557.824-2.136,1.541l.281.3a4.568,4.568,0,0,0,1.085-3.756.248.248,0,0,0-.389-.147,10.107,10.107,0,0,0-2.29,3.838,14.979,14.979,0,0,0-1.334,5.107c-.005.185.378.39.424.152a71.3,71.3,0,0,1,1.956-7.825c.651-2.067,1.541-4.06,1.583-6.259l-.465-.073a11.565,11.565,0,0,1-2.061,6.357c-.337.52-.687,1.034-1.065,1.525-.169.219-1.643,2.144-1.834,1.025-.027-.161-.343-.384-.451-.165l-.429.379.372.23c.029-.482.123-.937.146-1.42.009-.189-.284-.306-.422-.2-1.05.8-1.125,2.223-2.074,3.1l.4.07a3.223,3.223,0,0,1-.448-1.792c0-.206-.322-.413-.482-.22-.726.87-.951,2.252-1.43,3.265-.262.553-1.21,2.028-.888.454a7.763,7.763,0,0,1,.834-1.845l-.543-.2c-.561,1.891-2.052,4.761-4.092,5.372-2.606.782-2.153-2.448-1.675-3.883a15.951,15.951,0,0,1,2.482-4.651,5.887,5.887,0,0,1,.67-.772c.529-.479.688-.571,1.424-.175.773.414.77.658.568,1.45a4.265,4.265,0,0,1-.486,1.126,7.383,7.383,0,0,1-1.749,1.867c-.1.076.043.331.152.258Z" transform="translate(-117.577 -138.432)" fill="#455a64"/>
      </g>
    </g>
    <g id="Characters" transform="translate(191.174 119.328)">
      <g id="Characters-2" data-name="Characters" transform="translate(0 0)">
        <g id="Grupo_57764" data-name="Grupo 57764" transform="translate(0 20.832)">
          <g id="Grupo_57760" data-name="Grupo 57760">
            <g id="Grupo_57743" data-name="Grupo 57743" transform="translate(0 18.756)">
              <path id="Trazado_92946" data-name="Trazado 92946" d="M310.7,240.312c-2.154-.509-4.521,1.022-5.907,4.4s-4.157,12-4.734,14.262c-.258,1.012,7.421,9.967,7.146,9.833-.084-.041,2.5-4.368,2.5-4.368l-3.727-5.735,2.334-6.227Z" transform="translate(-300.057 -240.216)" fill="#b16668"/>
            </g>
            <g id="Grupo_57750" data-name="Grupo 57750" transform="translate(4.226 41.866)">
              <g id="Grupo_57744" data-name="Grupo 57744" transform="translate(1.014 51.931)">
                <path id="Trazado_92947" data-name="Trazado 92947" d="M309.316,371.642c-.292.11-.366.666-.41,1.771-.033.836-.212,2.3.767,2.588a3.065,3.065,0,0,0,3.042-.646c.783-.984,1.313-1.85,2.431-3.05a8.487,8.487,0,0,0,2.41-3.473c.354-1.32.059-1.892-.841-2.276-1.238-.528-3.183,1.2-4.153,1.468C311.727,368.257,309.608,371.531,309.316,371.642Z" transform="translate(-308.873 -366.456)" fill="#263238"/>
              </g>
              <g id="Grupo_57745" data-name="Grupo 57745" transform="translate(1.457 55.603)">
                <path id="Trazado_92948" data-name="Trazado 92948" d="M309.619,373.123v1.357a3.323,3.323,0,0,0,3.429.093c.059-.131.356-1.941.356-1.941Z" transform="translate(-309.619 -372.632)" fill="#b16668"/>
              </g>
              <g id="Grupo_57746" data-name="Grupo 57746" transform="translate(10.702 64.327)">
                <path id="Trazado_92949" data-name="Trazado 92949" d="M326.022,387.308s-.389,1.18-.6,2.212a5.986,5.986,0,0,0-.118,2.808c.288.617,1.408,1.015,3.145,1a10.191,10.191,0,0,1,4.079,1.425,6.239,6.239,0,0,0,3.9.54c1.546-.181,3.147-1.078,3.4-1.717s-.071-.947-3.713-2.5c-.033-.014-3.841-1.734-5.6-3.679Z" transform="translate(-325.171 -387.308)" fill="#263238"/>
              </g>
              <g id="Grupo_57747" data-name="Grupo 57747" transform="translate(11.553 62.86)">
                <path id="Trazado_92950" data-name="Trazado 92950" d="M326.6,384.841s0,1.007,0,1.582.675,1.433,2.434,1.37c1.235-.044,2.1-.376,2.049-1.394v-1.466Z" transform="translate(-326.603 -384.841)" fill="#b16668"/>
              </g>
              <g id="Grupo_57748" data-name="Grupo 57748">
                <path id="Trazado_92951" data-name="Trazado 92951" d="M307.289,316.379a32.142,32.142,0,0,1,1.656-6.978s-.765-6-1.209-11.77c-.8-10.334-.157-13.712,1.875-18.348,0,0,17.342-1.757,17.871,5.45.659,8.975-.215,26.32-.454,29.491a109.476,109.476,0,0,1-1.654,11.225c-.854,5.041-2.171,16.6-2.171,16.6a4.758,4.758,0,0,1-4.483-.092s-1.418-14.431-1.269-18.09a31.256,31.256,0,0,1,1.387-7.985s-1.075-14.627-1.389-16.955c0,0-.541,4.64-.779,7.81s-1.18,6.2-2.1,12.088c-.8,5.109-2.274,16.528-2.274,16.528a3.023,3.023,0,0,1-3.675-.163S306.668,320.812,307.289,316.379Z" transform="translate(-307.167 -279.093)" fill="#27debf"/>
              </g>
              <g id="Grupo_57749" data-name="Grupo 57749" opacity="0.35">
                <path id="Trazado_92952" data-name="Trazado 92952" d="M307.289,316.379a32.142,32.142,0,0,1,1.656-6.978s-.765-6-1.209-11.77c-.8-10.334-.157-13.712,1.875-18.348,0,0,17.342-1.757,17.871,5.45.659,8.975-.215,26.32-.454,29.491a109.476,109.476,0,0,1-1.654,11.225c-.854,5.041-2.171,16.6-2.171,16.6a4.758,4.758,0,0,1-4.483-.092s-1.418-14.431-1.269-18.09a31.256,31.256,0,0,1,1.387-7.985s-1.075-14.627-1.389-16.955c0,0-.541,4.64-.779,7.81s-1.18,6.2-2.1,12.088c-.8,5.109-2.274,16.528-2.274,16.528a3.023,3.023,0,0,1-3.675-.163S306.668,320.812,307.289,316.379Z" transform="translate(-307.167 -279.093)"/>
              </g>
            </g>
            <g id="Grupo_57752" data-name="Grupo 57752" transform="translate(12.823 15.249)">
              <g id="Grupo_57751" data-name="Grupo 57751">
                <path id="Trazado_92953" data-name="Trazado 92953" d="M328.336,235.586l-.815,6.7-5.892-.532.673-7.438Z" transform="translate(-321.629 -234.317)" fill="#b16668"/>
              </g>
            </g>
            <g id="Grupo_57754" data-name="Grupo 57754" transform="translate(4.447 18.846)">
              <g id="Grupo_57753" data-name="Grupo 57753">
                <path id="Trazado_92954" data-name="Trazado 92954" d="M309.449,243.732c.648-1.763,2.85-3.726,5.116-3.305.59.11,1.109.2,1.664.307.052,1.544,2.96,2.343,5.86,1.406q1.308.375,2.394.763c2.073.741,2.907,4.185,2.953,9.948s.659,20.135.659,20.135l-2.425.762-1.132-4.2-.456,5.036a18.015,18.015,0,0,1-8.373-.041c-6.231-1.361-8.171-4.723-8.171-4.723a30.366,30.366,0,0,1,4.443-10.893C308.858,250.616,308.488,246.348,309.449,243.732Z" transform="translate(-307.538 -240.369)" fill="#ebebeb"/>
              </g>
            </g>
            <g id="Grupo_57759" data-name="Grupo 57759" transform="translate(6.668)">
              <g id="Grupo_57755" data-name="Grupo 57755" transform="translate(0.83)">
                <path id="Trazado_92955" data-name="Trazado 92955" d="M329.08,216.67a5.168,5.168,0,0,0-.443-4.981c-1.978-3.105-5.791-3.635-10.309-2.424a8.015,8.015,0,0,0-5.652,7.276c-.216,3.313,9.025,5.757,8.814,8.027Z" transform="translate(-312.672 -208.664)" fill="#263238"/>
              </g>
              <g id="Grupo_57756" data-name="Grupo 57756" transform="translate(17.438 9.264)">
                <path id="Trazado_92956" data-name="Trazado 92956" d="M340.61,224.249s1.254,2.011,1.078,2.215a3.132,3.132,0,0,1-1.013.4Z" transform="translate(-340.61 -224.249)" fill="#9a4a4d"/>
              </g>
              <g id="Grupo_57757" data-name="Grupo 57757" transform="translate(4.75 2.301)">
                <path id="Trazado_92957" data-name="Trazado 92957" d="M328.129,213.13c1.253.691,3.416,1.963,3.854,6.658.45,4.82-.665,6.46-1.336,7.073-.454.413-2.739.506-3.919.1-1.477-.5-4.659-2.183-6.1-4.7-1.7-2.966-1.963-6.863.131-8.332A7.676,7.676,0,0,1,328.129,213.13Z" transform="translate(-319.266 -212.534)" fill="#b16668"/>
              </g>
              <g id="Grupo_57758" data-name="Grupo 57758" transform="translate(0.824 1.228)">
                <path id="Trazado_92958" data-name="Trazado 92958" d="M325.82,212.609s.989,4.412-.412,7.146c0,0-.731-1.731-2.214-1.28s-1.411,2.431-.273,3.471a2.2,2.2,0,0,0,2.281.549,9.9,9.9,0,0,1-2.2,3.328,7.232,7.232,0,0,1-8.194-2.334c-3.45-3.895-2.809-10.687,2.476-12.29A9,9,0,0,1,325.82,212.609Z" transform="translate(-312.661 -210.73)" fill="#263238"/>
              </g>
              <path id="Trazado_92959" data-name="Trazado 92959" d="M312.736,214.486a1.036,1.036,0,0,1,.109,1.461l-1.57-1.351A1.036,1.036,0,0,1,312.736,214.486Z" transform="translate(-311.275 -210.924)" fill="#263238"/>
            </g>
          </g>
          <g id="Grupo_57761" data-name="Grupo 57761" transform="translate(36.303 25.246)">
            <path id="Trazado_92960" data-name="Trazado 92960" d="M361.128,257.884c.855-.977,1.182-3.15,2.321-4.635,1.113-1.45,1.554-2.576,2.005-1.926.594.859-.748,2.578-.451,2.75a8.944,8.944,0,0,1,1.528,3.7c.112,1.26-3.221,4.424-3.221,4.424Z" transform="translate(-361.128 -251.135)" fill="#b16668"/>
          </g>
          <g id="Grupo_57762" data-name="Grupo 57762" transform="translate(40.086 27.834)">
            <path id="Trazado_92961" data-name="Trazado 92961" d="M367.493,255.647s4.031-.35,4.618-.011.41,2.094,0,3.164-2.466,1.766-4.374,3.058C367.733,261.674,367.493,255.647,367.493,255.647Z" transform="translate(-367.493 -255.488)" fill="#b16668"/>
          </g>
          <g id="Grupo_57763" data-name="Grupo 57763" transform="translate(19.225 21.203)">
            <path id="Trazado_92962" data-name="Trazado 92962" d="M334.05,244.334c1.732.6,3.248,1.3,4.865,4.338,2.077,3.9,5.854,11.55,5.854,11.55l4.707-5.1s.685-.965,1.959,1.14.711,2.688.711,2.688-5.477,7.335-6.482,8.269-2.657.208-3.734-1.26-7.88-9.975-7.88-9.975S330.335,251.1,334.05,244.334Z" transform="translate(-332.399 -244.334)" fill="#b16668"/>
          </g>
          <path id="Trazado_92963" data-name="Trazado 92963" d="M320.632,308.7l-.328-3.505a13.236,13.236,0,0,1-5.29-2,7.182,7.182,0,0,0,4.218,2.627l.322,4.459.19,7.309Z" transform="translate(-306.123 -247)" opacity="0.2"/>
          <path id="Trazado_92964" data-name="Trazado 92964" d="M303.7,232.125h0a6.1,6.1,0,0,0,6.1-6.1v-9.265h0a4.663,4.663,0,0,0-6.1,4.436Z" transform="translate(-301.533 -211.855)" fill="#263238"/>
          <path id="Trazado_92965" data-name="Trazado 92965" d="M338.2,267.373s-3.384-4.361-4.462-6.117l4.579,9.677Z" transform="translate(-313.715 -229.994)" fill="#e0e0e0"/>
        </g>
        <g id="Grupo_57781" data-name="Grupo 57781" transform="translate(38.485)">
          <g id="Grupo_57765" data-name="Grupo 57765" transform="translate(2.365 18.921)">
            <path id="Trazado_92966" data-name="Trazado 92966" d="M382.067,208.912c-1.285,3.783-4.025,15.076-4.025,15.076s-5.229,6.952-6.664,8.277c-.8.737-2.6,2.063-2.6,2.063l1.5,1.1s2.5-.76,2.7.615a76.717,76.717,0,0,0,7.373-6.778,4.779,4.779,0,0,0,1.168-2.178l2.238-9.6s-.014-7.727,1.185-8.741.718-3.3.718-3.3C384.861,205.473,383.076,205.941,382.067,208.912Z" transform="translate(-368.777 -205.449)" fill="#ffa8a7"/>
          </g>
          <g id="Grupo_57779" data-name="Grupo 57779" transform="translate(5.753)">
            <path id="Trazado_92967" data-name="Trazado 92967" d="M388.033,204.815a22.074,22.074,0,0,0,1.318,2.988c.524.9-3.48,17.037-3.745,18.237s-8.024,8.194-8.024,8.194a5.8,5.8,0,0,1-3.105-3.115l5.6-7.284s1.739-7.649,2.657-11.152S384.628,205.192,388.033,204.815Z" transform="translate(-374.477 -186.271)" fill="#27debf"/>
            <g id="Grupo_57766" data-name="Grupo 57766" transform="translate(0 18.544)">
              <path id="Trazado_92968" data-name="Trazado 92968" d="M388.033,204.815a22.074,22.074,0,0,0,1.318,2.988c.524.9-3.48,17.037-3.745,18.237s-8.024,8.194-8.024,8.194a5.8,5.8,0,0,1-3.105-3.115l5.6-7.284s1.739-7.649,2.657-11.152S384.628,205.192,388.033,204.815Z" transform="translate(-374.477 -204.815)" opacity="0.1"/>
            </g>
            <g id="Grupo_57778" data-name="Grupo 57778" transform="translate(1.027)">
              <g id="Grupo_57767" data-name="Grupo 57767" transform="translate(0 46.334)">
                <rect id="Rectángulo_8463" data-name="Rectángulo 8463" width="3.867" height="6.619" transform="translate(25.048 48.052)" fill="#ffa8a7"/>
                <path id="Trazado_92969" data-name="Trazado 92969" d="M395.473,330.325l-3.864.133-.193-7.005,4.058-.133Z" transform="translate(-382.374 -280.666)" fill="#ffa8a7"/>
                <path id="Trazado_92970" data-name="Trazado 92970" d="M410.445,252.364c0,3.693.255,25.161.255,25.161.09,1.063,1.113,2.951,1.192,6.779.115,5.55-.738,18.622-.738,18.622a5.088,5.088,0,0,1-4.305.085s-3.037-18.491-3.729-23.984c-.605-4.794-2.691-17.593-2.691-17.593l-2.956,16.206a21.981,21.981,0,0,1,.479,6.145c-.181,2.541-2.533,15.269-2.533,15.269a5.278,5.278,0,0,1-4.464.341s-.231-19.978-.276-22.309c-.051-2.658,1.109-25.521,1.109-25.521Z" transform="translate(-382.074 -251.565)" fill="#37474f"/>
                <path id="Trazado_92971" data-name="Trazado 92971" d="M414.951,339.946v-.553c-.207,0-.336.2-.415.7-.057.356-.109.625-.226,1.094a12.9,12.9,0,0,1-.675,1.979,12.039,12.039,0,0,1-2.257,3.423,14.709,14.709,0,0,0-1.2,1.383c-.234.416-.316,1.574.081,1.839a6.72,6.72,0,0,0,5.245.54,3.165,3.165,0,0,0,2.277-2.558c.058-.357.036-.721.077-1.08a5.121,5.121,0,0,1,.968-2.246,6.806,6.806,0,0,0,.742-1.222,3.969,3.969,0,0,0-.143-2.481c-.18-.684-.374-1.436-.607-1.371,0,.083,0,.421,0,.421a3.059,3.059,0,0,1-1.934.654C416.319,340.489,414.946,340.377,414.951,339.946Z" transform="translate(-389.903 -287.183)" fill="#263238"/>
                <path id="Trazado_92972" data-name="Trazado 92972" d="M385.4,333.149c-.2.007-.364.29-.807.769a8.438,8.438,0,0,1-2.275,1.637c-1.447.725-4.263,1.84-5.537,2.414-.8.358-.759,1.32.064,1.867a7.452,7.452,0,0,0,5.194.408c1.3-.291,2.99-1.491,4.061-1.426s3.074.049,3.864-.5.474-1.708.251-2.708c-.244-1.091-.549-2.792-.909-2.717v.376c-.465.7-2.864.99-3.885.473Z" transform="translate(-376.205 -284.55)" fill="#263238"/>
                <path id="Trazado_92973" data-name="Trazado 92973" d="M403.407,266.062a14.319,14.319,0,0,1-5.384-3.087,11.144,11.144,0,0,0,4.128,3.756l-1.495,14.415Z" transform="translate(-385.054 -256.193)" fill="#263238"/>
              </g>
              <g id="Grupo_57770" data-name="Grupo 57770" transform="translate(8.946 17.965)">
                <path id="Trazado_92974" data-name="Trazado 92974" d="M404.266,205.141c1.314.316,3.966.75,4.562,3.372a76.518,76.518,0,0,1,.948,10l.244,15.251c-2.663,1.94-12.443,3-18.048-1.1,0,0,.686-18.315.686-21.165s1.584-6.275,5.957-6.53Z" transform="translate(-391.546 -204.301)" fill="#f5f5f5"/>
                <path id="Trazado_92975" data-name="Trazado 92975" d="M398.386,204.22a7.823,7.823,0,0,0-2.5,3.867c-.533,2.306-.618,28.062-.618,28.062a11.707,11.707,0,0,1-4.015-1.51s.166-20.331.426-23.692c.4-5.1.354-6.567,6.7-7.1Z" transform="translate(-391.255 -203.841)" fill="#27debf"/>
                <path id="Trazado_92976" data-name="Trazado 92976" d="M411.878,203.841s-3.644,2.243-3.684,11.162c-.035,7.712-.293,21.145-.293,21.145s6.034.886,9.856-1.4c0,0,.455-18.7.383-21.6-.083-3.316-.86-7.6-1.921-8.028A30.8,30.8,0,0,0,411.878,203.841Z" transform="translate(-398.006 -203.841)" fill="#27debf"/>
                <g id="Grupo_57769" data-name="Grupo 57769" transform="translate(15.487 0.525)">
                  <g id="Grupo_57768" data-name="Grupo 57768" transform="translate(0.47 0.244)">
                    <path id="Trazado_92977" data-name="Trazado 92977" d="M429.569,224.85c-3.628-14.828-6.31-19.773-10.716-19.715-1.286,1.538-.931,6.182,1.1,9,0,0,4.533,9.563,5.256,12.963a47.863,47.863,0,0,1,1.31,9.311,1.858,1.858,0,0,1-.5,1.222c-.827.9-.83,1.619-1.367,2.612-.42.776-.879,1.067-.748,1.242a1,1,0,0,0,1.361.1,5.114,5.114,0,0,0,1.031-.989,10.286,10.286,0,0,1-.817,2.75c-.93,2.1-.7,3.168,2.128,2.421,1.774-.468,2.888-1.946,3.155-6.211a32.981,32.981,0,0,0,.046-4.72A81.747,81.747,0,0,0,429.569,224.85Z" transform="translate(-418.099 -205.134)" fill="#ffa8a7"/>
                  </g>
                  <path id="Trazado_92978" data-name="Trazado 92978" d="M417.778,204.727s2.921-.133,4.5,1.466,3.717,4.964,5.785,12.32a67.885,67.885,0,0,1,2.806,16.865,5.841,5.841,0,0,1-4.982-.171s-1.059-6.4-2-9.8-4.442-10.583-4.442-10.583S416.1,209.848,417.778,204.727Z" transform="translate(-417.308 -204.724)" fill="#27debf"/>
                  <path id="Trazado_92979" data-name="Trazado 92979" d="M417.778,204.727s2.921-.133,4.5,1.466,3.717,4.964,5.785,12.32a67.885,67.885,0,0,1,2.806,16.865,5.841,5.841,0,0,1-4.982-.171s-1.059-6.4-2-9.8-4.442-10.583-4.442-10.583S416.1,209.848,417.778,204.727Z" transform="translate(-417.308 -204.724)" opacity="0.1"/>
                </g>
                <path id="Trazado_92980" data-name="Trazado 92980" d="M413.213,212.047l-1.669,2.065.834,2.352-2.194,5.622,2.645-5.622-.926-2.22Z" transform="translate(-398.932 -207.169)" opacity="0.1"/>
                <path id="Trazado_92981" data-name="Trazado 92981" d="M394.739,210.93l.363,2.135-1.445,1.881,2.01,6.329-1.556-6.259,1.333-1.759Z" transform="translate(-392.229 -206.716)" opacity="0.1"/>
              </g>
              <g id="Grupo_57777" data-name="Grupo 57777" transform="translate(9.313)">
                <g id="Grupo_57771" data-name="Grupo 57771">
                  <circle id="Elipse_3655" data-name="Elipse 3655" cx="5.314" cy="5.314" r="5.314" transform="translate(0 10.491) rotate(-80.783)" fill="#263238"/>
                  <path id="Trazado_92982" data-name="Trazado 92982" d="M416.035,190.231a45.911,45.911,0,0,1-1.207,4.71,1.832,1.832,0,0,1-1.059.854l.06-2.846Z" transform="translate(-400.753 -180.356)" fill="#263238"/>
                  <path id="Trazado_92983" data-name="Trazado 92983" d="M415.394,180.471a1.993,1.993,0,0,1,1.65.581c.709.725.313,2.993-.569,5.215l-1.622.186Z" transform="translate(-401.192 -176.392)" fill="#263238"/>
                  <path id="Trazado_92984" data-name="Trazado 92984" d="M406.145,184.762c.325.194.789-.431,1.19-.851a1.412,1.412,0,0,1,2.364.383c.665,1.4-.577,3.256-1.608,3.58-1.776.558-2.043-.582-2.043-.582l-.131,6.6h0c-1.228,1.575-3.987,3.426-5.473,3.161-1.186-.211-1.444-2.214-.311-3.527l0-1.95a11.209,11.209,0,0,1-2.395.123,3.257,3.257,0,0,1-2.525-2.647c-.637-2.272-.878-4.106-.338-8.573.592-4.9,6.287-4.947,9.362-3.011S406.145,184.762,406.145,184.762Z" transform="translate(-392.971 -174.699)" fill="#ffa8a7"/>
                  <path id="Trazado_92985" data-name="Trazado 92985" d="M405.717,184.245c.163,0,.785-1.029,1.19-1.4.561-.51-.162-5.133-.162-5.133a2.243,2.243,0,0,0-.386-2.5c-.769-.846-1.84-1.878-5.328-1.466-2.486.294-5.192,1.069-7.378,0a3.72,3.72,0,0,0,1.3,3.952,7.472,7.472,0,0,0,2.872.764,30.823,30.823,0,0,0,5.766-.109c.6-.083.732.5,1.057,2.1C404.929,181.857,405.167,184.234,405.717,184.245Z" transform="translate(-392.543 -173.635)" fill="#263238"/>
                  <path id="Trazado_92986" data-name="Trazado 92986" d="M415.674,179.942l1.967-1.056a1.084,1.084,0,0,0-1.489-.492A1.173,1.173,0,0,0,415.674,179.942Z" transform="translate(-401.475 -175.503)" fill="#263238"/>
                  <path id="Trazado_92987" data-name="Trazado 92987" d="M403.928,200.3a22.4,22.4,0,0,0,3.936-1.129,3.365,3.365,0,0,0,1.41-1.395,4.6,4.6,0,0,1-.8,1.645c-.745.953-4.544,1.655-4.544,1.655Z" transform="translate(-396.761 -183.415)" fill="#f28f8f"/>
                </g>
                <g id="Grupo_57772" data-name="Grupo 57772" transform="translate(2.517 6.438)">
                  <path id="Trazado_92988" data-name="Trazado 92988" d="M405.107,188.9a.585.585,0,1,0,.584-.609A.594.594,0,0,0,405.107,188.9Z" transform="translate(-399.757 -186.009)" fill="#263238"/>
                  <path id="Trazado_92989" data-name="Trazado 92989" d="M406.15,185.341l1.25.69a.75.75,0,0,0-.291-1A.7.7,0,0,0,406.15,185.341Z" transform="translate(-400.18 -184.652)" fill="#263238"/>
                  <path id="Trazado_92990" data-name="Trazado 92990" d="M403.462,196.112l-1.334.5a.7.7,0,0,0,.906.442A.746.746,0,0,0,403.462,196.112Z" transform="translate(-398.549 -189.179)" fill="#f28f8f"/>
                  <path id="Trazado_92991" data-name="Trazado 92991" d="M396.245,185.625l1.14-.879a.691.691,0,0,0-.991-.152A.756.756,0,0,0,396.245,185.625Z" transform="translate(-396.107 -184.449)" fill="#263238"/>
                  <path id="Trazado_92992" data-name="Trazado 92992" d="M396.93,188.625a.585.585,0,1,0,.585-.609A.595.595,0,0,0,396.93,188.625Z" transform="translate(-396.441 -185.896)" fill="#263238"/>
                  <path id="Trazado_92993" data-name="Trazado 92993" d="M400.556,188.108l-.192,3.515L398.529,191Z" transform="translate(-397.089 -185.933)" fill="#f28f8f"/>
                </g>
                <g id="Grupo_57776" data-name="Grupo 57776" transform="translate(4.602 16.673)">
                  <path id="Trazado_92994" data-name="Trazado 92994" d="M400.871,209.551c.359.851,1.02,1.2,2.219,1.333a4.454,4.454,0,0,0,3.318-1.154l-1.492-1.484-1.89,1.425-.161-1.588Z" transform="translate(-400.124 -204.27)" fill="#27debf"/>
                  <path id="Trazado_92995" data-name="Trazado 92995" d="M400.871,209.551c.359.851,1.02,1.2,2.219,1.333a4.454,4.454,0,0,0,3.318-1.154l-1.492-1.484-1.89,1.425-.161-1.588Z" transform="translate(-400.124 -204.27)" opacity="0.1"/>
                  <g id="Grupo_57773" data-name="Grupo 57773" transform="translate(0 4.817)">
                    <path id="Trazado_92996" data-name="Trazado 92996" d="M402.3,209.771a3.972,3.972,0,0,0-.2,1.6,2.731,2.731,0,0,0,.533,1.33,1.465,1.465,0,0,0,1.289.14,3.519,3.519,0,0,0,1.226-2.669l-1.637.187Z" transform="translate(-400.617 -209.771)" fill="#27debf"/>
                    <path id="Trazado_92997" data-name="Trazado 92997" d="M401.636,214.693s-1.94,10.711-2.019,11.575,1.115,3.936,1.854,3.962,2.193-2.754,2.215-3.54-.761-11.857-.761-11.857Z" transform="translate(-399.614 -211.767)" fill="#27debf"/>
                    <path id="Trazado_92998" data-name="Trazado 92998" d="M404.285,214.833a1.3,1.3,0,0,1-1.289-.14l-.03.169a1.476,1.476,0,0,0,1.34.265Z" transform="translate(-400.973 -211.767)" opacity="0.1"/>
                  </g>
                  <g id="Grupo_57775" data-name="Grupo 57775" transform="translate(0.366)">
                    <g id="Grupo_57774" data-name="Grupo 57774">
                      <path id="Trazado_92999" data-name="Trazado 92999" d="M404.495,207.069l5.468-4.166.024-1.235s1.271.482,1.556,2.725a9.641,9.641,0,0,1-4.264,4.536l-1.148-2.048Z" transform="translate(-401.96 -201.668)" fill="#e0e0e0"/>
                      <path id="Trazado_93000" data-name="Trazado 93000" d="M402.428,202.623a2.727,2.727,0,0,0-1.764,1.084c-.548.9-.422,4.352-.422,4.352l1.308-1.188,1.214.584c-.116-1.15-.342-3.243-.342-3.243Z" transform="translate(-400.23 -202.055)" fill="#e0e0e0"/>
                    </g>
                  </g>
                </g>
              </g>
            </g>
          </g>
          <g id="Grupo_57780" data-name="Grupo 57780" transform="translate(0 46.711)">
            <path id="Trazado_93001" data-name="Trazado 93001" d="M368.038,263.4a4.733,4.733,0,0,0,.866-2.443c.152-1.125,3.234-2.331,3.331-1.493a2.473,2.473,0,0,1-.569,2.549C370.718,263.021,369.448,264.148,368.038,263.4Z" transform="translate(-366.112 -255.03)" fill="#ffa8a7"/>
            <path id="Trazado_93002" data-name="Trazado 93002" d="M366.862,253.3c-.737.954-1.193,2.8-1.581,3.423s-.855,1.165,0,1.282,2.1-1.553,2.564-2.564a2.7,2.7,0,0,1,.8-1.021,1.812,1.812,0,0,1,.447-.264c-.4-.135-.19-1.741-.474-1.962C368.613,252.2,367.163,252.792,366.862,253.3Z" transform="translate(-364.799 -252.199)" fill="#ffa8a7"/>
          </g>
        </g>
      </g>
    </g>
  </g>
</svg>
