<svg xmlns="http://www.w3.org/2000/svg" width="172.241" height="172.242" viewBox="0 0 172.241 172.242">
  <g id="Grupo_57474" data-name="Grupo 57474" transform="translate(0)">
    <g id="Grupo_57473" data-name="Grupo 57473" transform="translate(0)">
      <g id="Grupo_57450" data-name="Grupo 57450" transform="translate(124.229 25.225)">
        <g id="Grupo_57449" data-name="Grupo 57449">
          <path id="Trazado_92620" data-name="Trazado 92620" d="M399.971,117.444l31.137-8.343A86.031,86.031,0,0,0,408.8,70.5L386.009,93.288A53.85,53.85,0,0,1,399.971,117.444Z" transform="translate(-386.009 -70.501)" fill="#f69f23"/>
        </g>
      </g>
      <g id="Grupo_57452" data-name="Grupo 57452" transform="translate(63.827 138.19)">
        <g id="Grupo_57451" data-name="Grupo 57451" transform="translate(0 0)">
          <path id="Trazado_92621" data-name="Trazado 92621" d="M369.487,144.918a53.988,53.988,0,0,1-13.951-1.824l-8.343,31.137a86.749,86.749,0,0,0,44.59,0l-8.344-31.137A53.914,53.914,0,0,1,369.487,144.918Z" transform="translate(-347.194 -143.093)" fill="#7421b0"/>
        </g>
      </g>
      <g id="Grupo_57454" data-name="Grupo 57454" transform="translate(25.225 124.23)">
        <g id="Grupo_57453" data-name="Grupo 57453">
          <path id="Trazado_92622" data-name="Trazado 92622" d="M345.176,134.122,322.388,156.91a86.035,86.035,0,0,0,38.6,22.311l8.343-31.137A53.819,53.819,0,0,1,345.176,134.122Z" transform="translate(-322.388 -134.122)" fill="#3a48ba"/>
        </g>
      </g>
      <g id="Grupo_57456" data-name="Grupo 57456" transform="translate(100.073 124.228)">
        <g id="Grupo_57455" data-name="Grupo 57455">
          <path id="Trazado_92623" data-name="Trazado 92623" d="M370.486,148.083l8.344,31.137a86.016,86.016,0,0,0,38.6-22.311l-22.788-22.788A53.82,53.82,0,0,1,370.486,148.083Z" transform="translate(-370.486 -134.121)" fill="#d2298e"/>
        </g>
      </g>
      <g id="Grupo_57458" data-name="Grupo 57458" transform="translate(2.913 100.073)">
        <g id="Grupo_57457" data-name="Grupo 57457">
          <path id="Trazado_92624" data-name="Trazado 92624" d="M339.187,118.6l-31.137,8.343a86.039,86.039,0,0,0,22.312,38.6l22.788-22.788A53.837,53.837,0,0,1,339.187,118.6Z" transform="translate(-308.05 -118.599)" fill="#006fc4"/>
        </g>
      </g>
      <g id="Grupo_57460" data-name="Grupo 57460" transform="translate(124.229 100.073)">
        <g id="Grupo_57459" data-name="Grupo 57459">
          <path id="Trazado_92625" data-name="Trazado 92625" d="M399.971,118.6a53.837,53.837,0,0,1-13.962,24.155L408.8,165.542a86.031,86.031,0,0,0,22.311-38.6Z" transform="translate(-386.009 -118.599)" fill="#ff2600"/>
        </g>
      </g>
      <g id="Grupo_57462" data-name="Grupo 57462" transform="translate(100.073 2.915)">
        <g id="Grupo_57461" data-name="Grupo 57461">
          <path id="Trazado_92626" data-name="Trazado 92626" d="M394.642,101.261l22.788-22.787a86.016,86.016,0,0,0-38.6-22.311L370.486,87.3A53.831,53.831,0,0,1,394.642,101.261Z" transform="translate(-370.486 -56.164)" fill="#fac712"/>
        </g>
      </g>
      <g id="Grupo_57464" data-name="Grupo 57464" transform="translate(63.827)">
        <g id="Grupo_57463" data-name="Grupo 57463">
          <path id="Trazado_92627" data-name="Trazado 92627" d="M369.487,86.517a53.915,53.915,0,0,1,13.952,1.825l8.344-31.137a86.749,86.749,0,0,0-44.59,0c2.018,7.533,4.2,15.657,8.343,31.137A53.988,53.988,0,0,1,369.487,86.517Z" transform="translate(-347.194 -54.291)" fill="#feef00"/>
        </g>
      </g>
      <g id="Grupo_57466" data-name="Grupo 57466" transform="translate(138.191 63.826)">
        <g id="Grupo_57465" data-name="Grupo 57465">
          <path id="Trazado_92628" data-name="Trazado 92628" d="M396.8,117.6a53.99,53.99,0,0,1-1.824,13.952l31.137,8.343a86.772,86.772,0,0,0,0-44.59l-31.137,8.343A53.99,53.99,0,0,1,396.8,117.6Z" transform="translate(-394.981 -95.306)" fill="#fb6312"/>
        </g>
      </g>
      <g id="Grupo_57468" data-name="Grupo 57468" transform="translate(0 63.826)">
        <g id="Grupo_57467" data-name="Grupo 57467">
          <path id="Trazado_92629" data-name="Trazado 92629" d="M338.4,117.6a53.992,53.992,0,0,1,1.824-13.953l-31.137-8.343a86.773,86.773,0,0,0,0,44.59l31.137-8.343A53.992,53.992,0,0,1,338.4,117.6Z" transform="translate(-306.178 -95.306)" fill="#00afcf"/>
        </g>
      </g>
      <g id="Grupo_57470" data-name="Grupo 57470" transform="translate(25.225 2.913)">
        <g id="Grupo_57469" data-name="Grupo 57469">
          <path id="Trazado_92630" data-name="Trazado 92630" d="M369.333,87.3c-4.147-15.481-6.324-23.6-8.343-31.137a86.035,86.035,0,0,0-38.6,22.311l22.788,22.788A53.819,53.819,0,0,1,369.333,87.3Z" transform="translate(-322.388 -56.163)" fill="#7fd200"/>
        </g>
      </g>
      <g id="Grupo_57472" data-name="Grupo 57472" transform="translate(2.913 25.224)">
        <g id="Grupo_57471" data-name="Grupo 57471">
          <path id="Trazado_92631" data-name="Trazado 92631" d="M353.15,93.288,330.362,70.5a86.038,86.038,0,0,0-22.312,38.6l31.137,8.343A53.836,53.836,0,0,1,353.15,93.288Z" transform="translate(-308.05 -70.5)" fill="#00b500"/>
        </g>
      </g>
    </g>
    <ellipse id="Elipse_3634" data-name="Elipse 3634" cx="8.412" cy="8.412" rx="8.412" ry="8.412" transform="translate(77.428 8.399)" fill="none" stroke="#000" stroke-miterlimit="10" stroke-width="1"/>
    <ellipse id="Elipse_3635" data-name="Elipse 3635" cx="8.412" cy="8.412" rx="8.412" ry="8.412" transform="translate(112.283 17.051)" fill="none" stroke="#000" stroke-miterlimit="10" stroke-width="1"/>
    <ellipse id="Elipse_3636" data-name="Elipse 3636" cx="8.412" cy="8.412" rx="8.412" ry="8.412" transform="translate(138.392 44.087)" fill="none" stroke="#000" stroke-miterlimit="10" stroke-width="1"/>
  </g>
</svg>
