<svg xmlns="http://www.w3.org/2000/svg" width="172.243" height="172.241" viewBox="0 0 172.243 172.241">
  <g id="Grupo_57500" data-name="Grupo 57500" transform="translate(0)">
    <g id="Grupo_57499" data-name="Grupo 57499" transform="translate(0)">
      <g id="Grupo_57476" data-name="Grupo 57476" transform="translate(124.231 25.225)">
        <g id="Grupo_57475" data-name="Grupo 57475">
          <path id="Trazado_92632" data-name="Trazado 92632" d="M283.013,257.756l31.137-8.344a86.035,86.035,0,0,0-22.309-38.6L269.053,233.6A53.83,53.83,0,0,1,283.013,257.756Z" transform="translate(-269.053 -210.811)" fill="#f69f23"/>
        </g>
      </g>
      <g id="Grupo_57478" data-name="Grupo 57478" transform="translate(63.827 138.192)">
        <g id="Grupo_57477" data-name="Grupo 57477">
          <path id="Trazado_92633" data-name="Trazado 92633" d="M252.532,285.228a53.97,53.97,0,0,1-13.951-1.824l-8.344,31.137a86.771,86.771,0,0,0,44.59,0L266.485,283.4A54,54,0,0,1,252.532,285.228Z" transform="translate(-230.237 -283.404)" fill="#7421b0"/>
        </g>
      </g>
      <g id="Grupo_57480" data-name="Grupo 57480" transform="translate(25.225 124.231)">
        <g id="Grupo_57479" data-name="Grupo 57479">
          <path id="Trazado_92634" data-name="Trazado 92634" d="M228.219,274.433l-22.788,22.788a86.032,86.032,0,0,0,38.6,22.309l8.344-31.137A53.836,53.836,0,0,1,228.219,274.433Z" transform="translate(-205.431 -274.433)" fill="#3a48ba"/>
        </g>
      </g>
      <g id="Grupo_57482" data-name="Grupo 57482" transform="translate(100.075 124.23)">
        <g id="Grupo_57481" data-name="Grupo 57481">
          <path id="Trazado_92635" data-name="Trazado 92635" d="M253.53,288.394l8.343,31.137a86.035,86.035,0,0,0,38.6-22.311l-22.788-22.788A53.834,53.834,0,0,1,253.53,288.394Z" transform="translate(-253.53 -274.432)" fill="#d2298e"/>
        </g>
      </g>
      <g id="Grupo_57484" data-name="Grupo 57484" transform="translate(2.915 100.073)">
        <g id="Grupo_57483" data-name="Grupo 57483">
          <path id="Trazado_92636" data-name="Trazado 92636" d="M222.231,258.909l-31.137,8.344a86.035,86.035,0,0,0,22.311,38.6l22.788-22.788A53.848,53.848,0,0,1,222.231,258.909Z" transform="translate(-191.094 -258.909)" fill="#006fc4"/>
        </g>
      </g>
      <g id="Grupo_57486" data-name="Grupo 57486" transform="translate(124.231 100.073)">
        <g id="Grupo_57485" data-name="Grupo 57485">
          <path id="Trazado_92637" data-name="Trazado 92637" d="M283.013,258.909a53.839,53.839,0,0,1-13.96,24.156l22.788,22.788a86.017,86.017,0,0,0,22.309-38.6Z" transform="translate(-269.053 -258.909)" fill="#ff2600"/>
        </g>
      </g>
      <g id="Grupo_57488" data-name="Grupo 57488" transform="translate(100.075 2.915)">
        <g id="Grupo_57487" data-name="Grupo 57487">
          <path id="Trazado_92638" data-name="Trazado 92638" d="M277.686,241.573l22.788-22.788a86.035,86.035,0,0,0-38.6-22.311l-8.343,31.137A53.819,53.819,0,0,1,277.686,241.573Z" transform="translate(-253.53 -196.474)" fill="#fac712"/>
        </g>
      </g>
      <g id="Grupo_57490" data-name="Grupo 57490" transform="translate(63.827)">
        <g id="Grupo_57489" data-name="Grupo 57489">
          <path id="Trazado_92639" data-name="Trazado 92639" d="M252.532,226.829a53.934,53.934,0,0,1,13.952,1.824l8.342-31.137a86.727,86.727,0,0,0-44.59,0l8.344,31.137A53.9,53.9,0,0,1,252.532,226.829Z" transform="translate(-230.237 -194.601)" fill="#feef00"/>
        </g>
      </g>
      <g id="Grupo_57492" data-name="Grupo 57492" transform="translate(138.191 63.826)">
        <g id="Grupo_57491" data-name="Grupo 57491">
          <path id="Trazado_92640" data-name="Trazado 92640" d="M279.848,257.911a53.924,53.924,0,0,1-1.824,13.953l31.137,8.343a86.728,86.728,0,0,0,0-44.59l-31.137,8.344A53.912,53.912,0,0,1,279.848,257.911Z" transform="translate(-278.024 -235.616)" fill="#fb6312"/>
        </g>
      </g>
      <g id="Grupo_57494" data-name="Grupo 57494" transform="translate(0 63.826)">
        <g id="Grupo_57493" data-name="Grupo 57493">
          <path id="Trazado_92641" data-name="Trazado 92641" d="M221.449,257.911a54,54,0,0,1,1.824-13.952l-31.137-8.343a86.734,86.734,0,0,0,0,44.592l31.137-8.344A53.983,53.983,0,0,1,221.449,257.911Z" transform="translate(-189.221 -235.616)" fill="#00afcf"/>
        </g>
      </g>
      <g id="Grupo_57496" data-name="Grupo 57496" transform="translate(25.225 2.915)">
        <g id="Grupo_57495" data-name="Grupo 57495">
          <path id="Trazado_92642" data-name="Trazado 92642" d="M252.377,227.611l-8.344-31.137a86.018,86.018,0,0,0-38.6,22.309l22.788,22.788A53.836,53.836,0,0,1,252.377,227.611Z" transform="translate(-205.431 -196.474)" fill="#7fd200"/>
        </g>
      </g>
      <g id="Grupo_57498" data-name="Grupo 57498" transform="translate(2.915 25.224)">
        <g id="Grupo_57497" data-name="Grupo 57497">
          <path id="Trazado_92643" data-name="Trazado 92643" d="M236.193,233.6,213.4,210.81a86.036,86.036,0,0,0-22.311,38.6l31.137,8.343A53.842,53.842,0,0,1,236.193,233.6Z" transform="translate(-191.094 -210.81)" fill="#00b500"/>
        </g>
      </g>
    </g>
    <ellipse id="Elipse_3637" data-name="Elipse 3637" cx="8.412" cy="8.412" rx="8.412" ry="8.412" transform="translate(77.429 8.4)" fill="none" stroke="#000" stroke-miterlimit="10" stroke-width="1"/>
    <ellipse id="Elipse_3638" data-name="Elipse 3638" cx="8.412" cy="8.412" rx="8.412" ry="8.412" transform="translate(17.052 115.134)" fill="none" stroke="#000" stroke-miterlimit="10" stroke-width="1"/>
    <ellipse id="Elipse_3639" data-name="Elipse 3639" cx="8.412" cy="8.412" rx="8.412" ry="8.412" transform="translate(137.429 115.134)" fill="none" stroke="#000" stroke-miterlimit="10" stroke-width="1"/>
  </g>
</svg>
