<svg id="Grupo_57526" data-name="Grupo 57526" xmlns="http://www.w3.org/2000/svg" width="169.518" height="169.519" viewBox="0 0 169.518 169.519">
  <g id="Grupo_57525" data-name="Grupo 57525">
    <g id="Grupo_57502" data-name="Grupo 57502" transform="translate(122.265 24.827)">
      <g id="Grupo_57501" data-name="Grupo 57501">
        <path id="Trazado_92644" data-name="Trazado 92644" d="M399.57,257.013l30.645-8.211a84.675,84.675,0,0,0-21.958-37.992l-22.428,22.428A52.982,52.982,0,0,1,399.57,257.013Z" transform="translate(-385.829 -210.811)" fill="#f69f23"/>
      </g>
    </g>
    <g id="Grupo_57504" data-name="Grupo 57504" transform="translate(62.818 136.007)">
      <g id="Grupo_57503" data-name="Grupo 57503">
        <path id="Trazado_92645" data-name="Trazado 92645" d="M368.955,285.2a53.124,53.124,0,0,1-13.73-1.795l-8.211,30.645a85.4,85.4,0,0,0,43.885,0L382.687,283.4A53.128,53.128,0,0,1,368.955,285.2Z" transform="translate(-347.014 -283.404)" fill="#7421b0"/>
      </g>
    </g>
    <g id="Grupo_57506" data-name="Grupo 57506" transform="translate(24.827 122.267)">
      <g id="Grupo_57505" data-name="Grupo 57505">
        <path id="Trazado_92646" data-name="Trazado 92646" d="M344.635,274.433l-22.427,22.428A84.663,84.663,0,0,0,360.2,318.817l8.211-30.645A52.993,52.993,0,0,1,344.635,274.433Z" transform="translate(-322.208 -274.433)" fill="#3a48ba"/>
      </g>
    </g>
    <g id="Grupo_57508" data-name="Grupo 57508" transform="translate(98.491 122.266)">
      <g id="Grupo_57507" data-name="Grupo 57507">
        <path id="Trazado_92647" data-name="Trazado 92647" d="M370.306,288.173l8.212,30.645a84.67,84.67,0,0,0,37.99-21.958L394.08,274.432A52.983,52.983,0,0,1,370.306,288.173Z" transform="translate(-370.306 -274.432)" fill="#d2298e"/>
      </g>
    </g>
    <g id="Grupo_57510" data-name="Grupo 57510" transform="translate(2.867 98.491)">
      <g id="Grupo_57509" data-name="Grupo 57509">
        <path id="Trazado_92648" data-name="Trazado 92648" d="M338.515,258.909l-30.645,8.212a84.663,84.663,0,0,0,21.959,37.992l22.427-22.428A53.01,53.01,0,0,1,338.515,258.909Z" transform="translate(-307.87 -258.909)" fill="#006fc4"/>
      </g>
    </g>
    <g id="Grupo_57512" data-name="Grupo 57512" transform="translate(122.265 98.491)">
      <g id="Grupo_57511" data-name="Grupo 57511">
        <path id="Trazado_92649" data-name="Trazado 92649" d="M399.57,258.909a52.983,52.983,0,0,1-13.741,23.774l22.428,22.428a84.674,84.674,0,0,0,21.958-37.992Z" transform="translate(-385.829 -258.909)" fill="#ff2600"/>
      </g>
    </g>
    <g id="Grupo_57514" data-name="Grupo 57514" transform="translate(98.491 2.869)">
      <g id="Grupo_57513" data-name="Grupo 57513">
        <path id="Trazado_92650" data-name="Trazado 92650" d="M394.08,240.86l22.428-22.428a84.67,84.67,0,0,0-37.99-21.958l-8.212,30.645A52.969,52.969,0,0,1,394.08,240.86Z" transform="translate(-370.306 -196.474)" fill="#fac712"/>
      </g>
    </g>
    <g id="Grupo_57516" data-name="Grupo 57516" transform="translate(62.818)">
      <g id="Grupo_57515" data-name="Grupo 57515">
        <path id="Trazado_92651" data-name="Trazado 92651" d="M368.955,226.319a53.128,53.128,0,0,1,13.732,1.795L390.9,197.47a85.356,85.356,0,0,0-43.885,0c1.986,7.413,4.128,15.409,8.211,30.645A53.059,53.059,0,0,1,368.955,226.319Z" transform="translate(-347.014 -194.601)" fill="#feef00"/>
      </g>
    </g>
    <g id="Grupo_57518" data-name="Grupo 57518" transform="translate(136.007 62.818)">
      <g id="Grupo_57517" data-name="Grupo 57517">
        <path id="Trazado_92652" data-name="Trazado 92652" d="M396.6,257.558A53.137,53.137,0,0,1,394.8,271.29l30.645,8.211a85.394,85.394,0,0,0,0-43.884L394.8,243.828A53.126,53.126,0,0,1,396.6,257.558Z" transform="translate(-394.801 -235.617)" fill="#fb6312"/>
      </g>
    </g>
    <g id="Grupo_57520" data-name="Grupo 57520" transform="translate(0 62.817)">
      <g id="Grupo_57519" data-name="Grupo 57519">
        <path id="Trazado_92653" data-name="Trazado 92653" d="M337.715,257.559a53.146,53.146,0,0,1,1.795-13.732l-30.645-8.211a85.406,85.406,0,0,0,0,43.887l30.645-8.212A53.129,53.129,0,0,1,337.715,257.559Z" transform="translate(-305.998 -235.616)" fill="#00afcf"/>
      </g>
    </g>
    <g id="Grupo_57522" data-name="Grupo 57522" transform="translate(24.827 2.869)">
      <g id="Grupo_57521" data-name="Grupo 57521">
        <path id="Trazado_92654" data-name="Trazado 92654" d="M368.41,227.119c-4.083-15.236-6.224-23.232-8.211-30.645a84.65,84.65,0,0,0-37.992,21.956l22.427,22.428A52.993,52.993,0,0,1,368.41,227.119Z" transform="translate(-322.208 -196.474)" fill="#7fd200"/>
      </g>
    </g>
    <g id="Grupo_57524" data-name="Grupo 57524" transform="translate(2.867 24.825)">
      <g id="Grupo_57523" data-name="Grupo 57523">
        <path id="Trazado_92655" data-name="Trazado 92655" d="M352.256,233.238,329.829,210.81A84.664,84.664,0,0,0,307.87,248.8l30.645,8.211A53,53,0,0,1,352.256,233.238Z" transform="translate(-307.87 -210.81)" fill="#00b500"/>
      </g>
    </g>
  </g>
  <ellipse id="Elipse_3640" data-name="Elipse 3640" cx="8.279" cy="8.279" rx="8.279" ry="8.279" transform="translate(76.204 8.267)" fill="none" stroke="#000" stroke-miterlimit="10" stroke-width="1"/>
  <ellipse id="Elipse_3641" data-name="Elipse 3641" cx="8.279" cy="8.279" rx="8.279" ry="8.279" transform="translate(39.924 136.416)" fill="none" stroke="#000" stroke-miterlimit="10" stroke-width="1"/>
  <ellipse id="Elipse_3642" data-name="Elipse 3642" cx="8.279" cy="8.279" rx="8.279" ry="8.279" transform="translate(110.784 136.416)" fill="none" stroke="#000" stroke-miterlimit="10" stroke-width="1"/>
</svg>
