<svg id="Grupo_57552" data-name="Grupo 57552" xmlns="http://www.w3.org/2000/svg" width="169.52" height="169.519" viewBox="0 0 169.52 169.519">
  <g id="Grupo_57551" data-name="Grupo 57551">
    <g id="Grupo_57528" data-name="Grupo 57528" transform="translate(122.267 24.826)">
      <g id="Grupo_57527" data-name="Grupo 57527">
        <path id="Trazado_92656" data-name="Trazado 92656" d="M282.793,381.573l30.645-8.212a84.676,84.676,0,0,0-21.956-37.99L269.053,357.8A52.98,52.98,0,0,1,282.793,381.573Z" transform="translate(-269.053 -335.371)" fill="#f69f23"/>
      </g>
    </g>
    <g id="Grupo_57530" data-name="Grupo 57530" transform="translate(62.818 136.007)">
      <g id="Grupo_57529" data-name="Grupo 57529">
        <path id="Trazado_92657" data-name="Trazado 92657" d="M252.18,409.759a53.116,53.116,0,0,1-13.73-1.795l-8.212,30.645a85.4,85.4,0,0,0,43.885,0l-8.211-30.645A53.145,53.145,0,0,1,252.18,409.759Z" transform="translate(-230.237 -407.964)" fill="#7421b0"/>
      </g>
    </g>
    <g id="Grupo_57532" data-name="Grupo 57532" transform="translate(24.826 122.267)">
      <g id="Grupo_57531" data-name="Grupo 57531">
        <path id="Trazado_92658" data-name="Trazado 92658" d="M227.859,398.993l-22.428,22.428a84.672,84.672,0,0,0,37.992,21.956l8.212-30.645A52.985,52.985,0,0,1,227.859,398.993Z" transform="translate(-205.431 -398.993)" fill="#3a48ba"/>
      </g>
    </g>
    <g id="Grupo_57534" data-name="Grupo 57534" transform="translate(98.493 122.265)">
      <g id="Grupo_57533" data-name="Grupo 57533">
        <path id="Trazado_92659" data-name="Trazado 92659" d="M253.53,412.733l8.211,30.645a84.675,84.675,0,0,0,37.992-21.958L277.3,398.992A52.983,52.983,0,0,1,253.53,412.733Z" transform="translate(-253.53 -398.992)" fill="#d2298e"/>
      </g>
    </g>
    <g id="Grupo_57536" data-name="Grupo 57536" transform="translate(2.869 98.491)">
      <g id="Grupo_57535" data-name="Grupo 57535">
        <path id="Trazado_92660" data-name="Trazado 92660" d="M221.739,383.469l-30.645,8.212a84.675,84.675,0,0,0,21.958,37.992l22.428-22.428A53,53,0,0,1,221.739,383.469Z" transform="translate(-191.094 -383.469)" fill="#006fc4"/>
      </g>
    </g>
    <g id="Grupo_57538" data-name="Grupo 57538" transform="translate(122.267 98.491)">
      <g id="Grupo_57537" data-name="Grupo 57537">
        <path id="Trazado_92661" data-name="Trazado 92661" d="M282.793,383.469a52.988,52.988,0,0,1-13.74,23.774l22.428,22.428a84.658,84.658,0,0,0,21.956-37.992Z" transform="translate(-269.053 -383.469)" fill="#ff2600"/>
      </g>
    </g>
    <g id="Grupo_57540" data-name="Grupo 57540" transform="translate(98.493 2.869)">
      <g id="Grupo_57539" data-name="Grupo 57539">
        <path id="Trazado_92662" data-name="Trazado 92662" d="M277.3,365.42l22.428-22.428a84.675,84.675,0,0,0-37.992-21.958l-8.211,30.645A52.968,52.968,0,0,1,277.3,365.42Z" transform="translate(-253.53 -321.034)" fill="#fac712"/>
      </g>
    </g>
    <g id="Grupo_57542" data-name="Grupo 57542" transform="translate(62.818)">
      <g id="Grupo_57541" data-name="Grupo 57541">
        <path id="Trazado_92663" data-name="Trazado 92663" d="M252.18,350.879a53.08,53.08,0,0,1,13.732,1.795l8.211-30.645a85.356,85.356,0,0,0-43.885,0l8.212,30.645A53.051,53.051,0,0,1,252.18,350.879Z" transform="translate(-230.237 -319.161)" fill="#feef00"/>
      </g>
    </g>
    <g id="Grupo_57544" data-name="Grupo 57544" transform="translate(136.006 62.817)">
      <g id="Grupo_57543" data-name="Grupo 57543">
        <path id="Trazado_92664" data-name="Trazado 92664" d="M279.819,382.119a53.07,53.07,0,0,1-1.8,13.732l30.645,8.211a85.356,85.356,0,0,0,0-43.885l-30.645,8.212A53.059,53.059,0,0,1,279.819,382.119Z" transform="translate(-278.024 -360.176)" fill="#fb6312"/>
      </g>
    </g>
    <g id="Grupo_57546" data-name="Grupo 57546" transform="translate(0 62.817)">
      <g id="Grupo_57545" data-name="Grupo 57545">
        <path id="Trazado_92665" data-name="Trazado 92665" d="M220.939,382.119a53.146,53.146,0,0,1,1.795-13.732l-30.645-8.211a85.361,85.361,0,0,0,0,43.887l30.645-8.212A53.129,53.129,0,0,1,220.939,382.119Z" transform="translate(-189.221 -360.176)" fill="#00afcf"/>
      </g>
    </g>
    <g id="Grupo_57548" data-name="Grupo 57548" transform="translate(24.826 2.869)">
      <g id="Grupo_57547" data-name="Grupo 57547">
        <path id="Trazado_92666" data-name="Trazado 92666" d="M251.635,351.679l-8.212-30.645a84.658,84.658,0,0,0-37.992,21.956l22.428,22.428A52.984,52.984,0,0,1,251.635,351.679Z" transform="translate(-205.431 -321.034)" fill="#7fd200"/>
      </g>
    </g>
    <g id="Grupo_57550" data-name="Grupo 57550" transform="translate(2.869 24.825)">
      <g id="Grupo_57549" data-name="Grupo 57549">
        <path id="Trazado_92667" data-name="Trazado 92667" d="M235.48,357.8,213.052,335.37a84.675,84.675,0,0,0-21.958,37.992l30.645,8.211A52.99,52.99,0,0,1,235.48,357.8Z" transform="translate(-191.094 -335.37)" fill="#00b500"/>
      </g>
    </g>
  </g>
  <ellipse id="Elipse_3643" data-name="Elipse 3643" cx="8.279" cy="8.279" rx="8.279" ry="8.279" transform="translate(41.457 16.546)" fill="none" stroke="#000" stroke-miterlimit="10" stroke-width="1"/>
  <ellipse id="Elipse_3644" data-name="Elipse 3644" cx="8.279" cy="8.279" rx="8.279" ry="8.279" transform="translate(113.315 16.546)" fill="none" stroke="#000" stroke-miterlimit="10" stroke-width="1"/>
  <ellipse id="Elipse_3645" data-name="Elipse 3645" cx="8.279" cy="8.279" rx="8.279" ry="8.279" transform="translate(110.251 136.179)" fill="none" stroke="#000" stroke-miterlimit="10" stroke-width="1"/>
  <ellipse id="Elipse_3646" data-name="Elipse 3646" cx="8.279" cy="8.279" rx="8.279" ry="8.279" transform="translate(41.457 136.415)" fill="none" stroke="#000" stroke-miterlimit="10" stroke-width="1"/>
</svg>
