<svg id="Grupo_57578" data-name="Grupo 57578" xmlns="http://www.w3.org/2000/svg" width="169.518" height="169.519" viewBox="0 0 169.518 169.519">
  <g id="Grupo_57577" data-name="Grupo 57577">
    <g id="Grupo_57554" data-name="Grupo 57554" transform="translate(122.265 24.826)">
      <g id="Grupo_57553" data-name="Grupo 57553">
        <path id="Trazado_92668" data-name="Trazado 92668" d="M399.57,381.573l30.645-8.211a84.675,84.675,0,0,0-21.958-37.992L385.829,357.8A52.982,52.982,0,0,1,399.57,381.573Z" transform="translate(-385.829 -335.371)" fill="#f69f23"/>
      </g>
    </g>
    <g id="Grupo_57556" data-name="Grupo 57556" transform="translate(62.818 136.007)">
      <g id="Grupo_57555" data-name="Grupo 57555">
        <path id="Trazado_92669" data-name="Trazado 92669" d="M368.955,409.759a53.124,53.124,0,0,1-13.73-1.795l-8.211,30.645a85.4,85.4,0,0,0,43.885,0l-8.212-30.645A53.128,53.128,0,0,1,368.955,409.759Z" transform="translate(-347.014 -407.964)" fill="#7421b0"/>
      </g>
    </g>
    <g id="Grupo_57558" data-name="Grupo 57558" transform="translate(24.827 122.267)">
      <g id="Grupo_57557" data-name="Grupo 57557">
        <path id="Trazado_92670" data-name="Trazado 92670" d="M344.635,398.993l-22.427,22.428A84.65,84.65,0,0,0,360.2,443.377l8.211-30.645A52.993,52.993,0,0,1,344.635,398.993Z" transform="translate(-322.208 -398.993)" fill="#3a48ba"/>
      </g>
    </g>
    <g id="Grupo_57560" data-name="Grupo 57560" transform="translate(98.491 122.265)">
      <g id="Grupo_57559" data-name="Grupo 57559">
        <path id="Trazado_92671" data-name="Trazado 92671" d="M370.306,412.733l8.212,30.645a84.67,84.67,0,0,0,37.99-21.958L394.08,398.992A52.983,52.983,0,0,1,370.306,412.733Z" transform="translate(-370.306 -398.992)" fill="#d2298e"/>
      </g>
    </g>
    <g id="Grupo_57562" data-name="Grupo 57562" transform="translate(2.867 98.491)">
      <g id="Grupo_57561" data-name="Grupo 57561">
        <path id="Trazado_92672" data-name="Trazado 92672" d="M338.515,383.469l-30.645,8.212a84.663,84.663,0,0,0,21.959,37.992l22.427-22.428A53.009,53.009,0,0,1,338.515,383.469Z" transform="translate(-307.87 -383.469)" fill="#006fc4"/>
      </g>
    </g>
    <g id="Grupo_57564" data-name="Grupo 57564" transform="translate(122.265 98.491)">
      <g id="Grupo_57563" data-name="Grupo 57563">
        <path id="Trazado_92673" data-name="Trazado 92673" d="M399.57,383.469a52.982,52.982,0,0,1-13.741,23.774l22.428,22.428a84.675,84.675,0,0,0,21.958-37.992Z" transform="translate(-385.829 -383.469)" fill="#ff2600"/>
      </g>
    </g>
    <g id="Grupo_57566" data-name="Grupo 57566" transform="translate(98.491 2.869)">
      <g id="Grupo_57565" data-name="Grupo 57565">
        <path id="Trazado_92674" data-name="Trazado 92674" d="M394.08,365.42l22.428-22.428a84.67,84.67,0,0,0-37.99-21.958l-8.212,30.645A52.982,52.982,0,0,1,394.08,365.42Z" transform="translate(-370.306 -321.034)" fill="#fac712"/>
      </g>
    </g>
    <g id="Grupo_57568" data-name="Grupo 57568" transform="translate(62.818)">
      <g id="Grupo_57567" data-name="Grupo 57567">
        <path id="Trazado_92675" data-name="Trazado 92675" d="M368.955,350.879a53.128,53.128,0,0,1,13.732,1.795L390.9,322.03a85.356,85.356,0,0,0-43.885,0c1.986,7.413,4.128,15.409,8.211,30.645A53.06,53.06,0,0,1,368.955,350.879Z" transform="translate(-347.014 -319.161)" fill="#feef00"/>
      </g>
    </g>
    <g id="Grupo_57570" data-name="Grupo 57570" transform="translate(136.007 62.818)">
      <g id="Grupo_57569" data-name="Grupo 57569">
        <path id="Trazado_92676" data-name="Trazado 92676" d="M396.6,382.118A53.137,53.137,0,0,1,394.8,395.85l30.645,8.211a85.393,85.393,0,0,0,0-43.884L394.8,368.388A53.126,53.126,0,0,1,396.6,382.118Z" transform="translate(-394.801 -360.177)" fill="#fb6312"/>
      </g>
    </g>
    <g id="Grupo_57572" data-name="Grupo 57572" transform="translate(0 62.817)">
      <g id="Grupo_57571" data-name="Grupo 57571">
        <path id="Trazado_92677" data-name="Trazado 92677" d="M337.715,382.119a53.146,53.146,0,0,1,1.795-13.732l-30.645-8.211a85.406,85.406,0,0,0,0,43.887l30.645-8.212A53.129,53.129,0,0,1,337.715,382.119Z" transform="translate(-305.998 -360.176)" fill="#00afcf"/>
      </g>
    </g>
    <g id="Grupo_57574" data-name="Grupo 57574" transform="translate(24.827 2.869)">
      <g id="Grupo_57573" data-name="Grupo 57573">
        <path id="Trazado_92678" data-name="Trazado 92678" d="M368.41,351.679c-4.083-15.236-6.224-23.232-8.211-30.645a84.65,84.65,0,0,0-37.992,21.956l22.427,22.428A52.993,52.993,0,0,1,368.41,351.679Z" transform="translate(-322.208 -321.034)" fill="#7fd200"/>
      </g>
    </g>
    <g id="Grupo_57576" data-name="Grupo 57576" transform="translate(2.867 24.825)">
      <g id="Grupo_57575" data-name="Grupo 57575">
        <path id="Trazado_92679" data-name="Trazado 92679" d="M352.256,357.8,329.829,335.37a84.663,84.663,0,0,0-21.959,37.992l30.645,8.211A53,53,0,0,1,352.256,357.8Z" transform="translate(-307.87 -335.37)" fill="#00b500"/>
      </g>
    </g>
  </g>
  <ellipse id="Elipse_3647" data-name="Elipse 3647" cx="8.279" cy="8.279" rx="8.279" ry="8.279" transform="translate(76.204 8.267)" fill="none" stroke="#000" stroke-miterlimit="10" stroke-width="1"/>
  <ellipse id="Elipse_3648" data-name="Elipse 3648" cx="8.279" cy="8.279" rx="8.279" ry="8.279" transform="translate(8.477 76.481)" fill="none" stroke="#000" stroke-miterlimit="10" stroke-width="1"/>
  <ellipse id="Elipse_3649" data-name="Elipse 3649" cx="8.279" cy="8.279" rx="8.279" ry="8.279" transform="translate(144.483 76.481)" fill="none" stroke="#000" stroke-miterlimit="10" stroke-width="1"/>
  <ellipse id="Elipse_3650" data-name="Elipse 3650" cx="8.279" cy="8.279" rx="8.279" ry="8.279" transform="translate(76.757 144.458)" fill="none" stroke="#000" stroke-miterlimit="10" stroke-width="1"/>
</svg>
