<svg xmlns="http://www.w3.org/2000/svg" xmlns:xlink="http://www.w3.org/1999/xlink" width="541.715" height="546.789" viewBox="0 0 541.715 546.789">
  <defs>
    <linearGradient id="linear-gradient" x1="0.5" y1="1" x2="0.5" gradientUnits="objectBoundingBox">
      <stop offset="0" stop-color="#e3a5fe"/>
      <stop offset="1" stop-color="#e3cbff"/>
    </linearGradient>
    <linearGradient id="linear-gradient-6" x1="1" y1="0.5" x2="0" y2="0.5" gradientUnits="objectBoundingBox">
      <stop offset="0.005" stop-color="#b17ae5"/>
      <stop offset="0.995" stop-color="#965fd6"/>
    </linearGradient>
    <linearGradient id="linear-gradient-7" x1="1" y1="0.5" x2="0" y2="0.5" gradientUnits="objectBoundingBox">
      <stop offset="0.005" stop-color="#b88cea"/>
      <stop offset="1" stop-color="#b17ae5"/>
    </linearGradient>
    <linearGradient id="linear-gradient-8" x1="1" y1="0.5" x2="0" y2="0.5" gradientUnits="objectBoundingBox">
      <stop offset="0.005" stop-color="#d82b72"/>
      <stop offset="1" stop-color="#ef3a8d"/>
    </linearGradient>
    <linearGradient id="linear-gradient-9" x1="1" y1="0.5" x2="0" y2="0.5" gradientUnits="objectBoundingBox">
      <stop offset="0.005" stop-color="#ef4190"/>
      <stop offset="1" stop-color="#ff579c"/>
    </linearGradient>
    <linearGradient id="linear-gradient-10" x1="0.5" y1="1" x2="0.5" y2="0" xlink:href="#linear-gradient-8"/>
    <linearGradient id="linear-gradient-11" x1="0.5" y1="1" x2="0.5" gradientUnits="objectBoundingBox">
      <stop offset="0" stop-color="#ef4190"/>
      <stop offset="0.018" stop-color="#ef4592"/>
      <stop offset="0.375" stop-color="#f594c0"/>
      <stop offset="0.668" stop-color="#facde2"/>
      <stop offset="0.885" stop-color="#fdf1f7"/>
      <stop offset="1" stop-color="#fff"/>
    </linearGradient>
    <linearGradient id="linear-gradient-12" x1="0" y1="0.5" x2="1" y2="0.5" xlink:href="#linear-gradient-7"/>
    <linearGradient id="linear-gradient-13" y1="0.5" x2="1" y2="0.5" gradientUnits="objectBoundingBox">
      <stop offset="0" stop-color="#4b42c6"/>
      <stop offset="1" stop-color="#4232b2"/>
    </linearGradient>
    <linearGradient id="linear-gradient-15" x1="0.672" y1="0.261" x2="0.219" y2="0.795" xlink:href="#linear-gradient-13"/>
    <linearGradient id="linear-gradient-16" x1="0.558" y1="0.631" x2="0.361" y2="0.178" xlink:href="#linear-gradient-13"/>
    <linearGradient id="linear-gradient-17" x1="-0.141" y1="0.076" x2="1.178" y2="0.956" xlink:href="#linear-gradient-13"/>
    <linearGradient id="linear-gradient-18" x1="0" y1="0.5" x2="1" y2="0.5" xlink:href="#linear-gradient-13"/>
    <linearGradient id="linear-gradient-19" x1="0.86" y1="0.952" x2="0.353" y2="-0.041" xlink:href="#linear-gradient-13"/>
    <linearGradient id="linear-gradient-20" x1="0.709" y1="0.91" x2="0.157" y2="-0.18" xlink:href="#linear-gradient-9"/>
    <linearGradient id="linear-gradient-21" x1="0" y1="0.5" x2="1.331" y2="0.5" xlink:href="#linear-gradient-8"/>
    <linearGradient id="linear-gradient-22" x1="-0.057" y1="0.5" x2="1" y2="0.5" xlink:href="#linear-gradient-9"/>
    <linearGradient id="linear-gradient-23" x1="0.782" y1="0.872" x2="0.273" y2="-0.055" xlink:href="#linear-gradient-9"/>
    <linearGradient id="linear-gradient-24" x1="-3.088" y1="0.5" x2="1.296" y2="0.5" xlink:href="#linear-gradient-8"/>
    <linearGradient id="linear-gradient-25" x1="0.821" y1="0.903" x2="0.343" y2="0.173" xlink:href="#linear-gradient-8"/>
    <linearGradient id="linear-gradient-26" y1="0.5" x2="4.652" y2="0.5" gradientUnits="objectBoundingBox">
      <stop offset="0" stop-color="#ffb850"/>
      <stop offset="1" stop-color="#ff862c"/>
    </linearGradient>
    <linearGradient id="linear-gradient-27" x1="0.5" y1="-0.088" x2="0.5" y2="1" gradientUnits="objectBoundingBox">
      <stop offset="0" stop-color="#ff7110"/>
      <stop offset="1" stop-color="#ef6100"/>
    </linearGradient>
    <linearGradient id="linear-gradient-28" x1="0.5" y1="0" x2="0.5" y2="1" xlink:href="#linear-gradient-27"/>
    <linearGradient id="linear-gradient-29" x1="0.5" y1="-0.025" x2="0.5" y2="1.01" xlink:href="#linear-gradient-27"/>
    <linearGradient id="linear-gradient-30" x1="0.5" y1="1" x2="0.5" gradientUnits="objectBoundingBox">
      <stop offset="0.01" stop-color="#e9a9f8"/>
      <stop offset="0.525" stop-color="#e49efb"/>
      <stop offset="1" stop-color="#de90ff"/>
    </linearGradient>
    <linearGradient id="linear-gradient-31" x1="-15.738" y1="0.5" x2="-14.738" y2="0.5" gradientUnits="objectBoundingBox">
      <stop offset="0.005" stop-color="#b17ae5"/>
      <stop offset="1" stop-color="#cba3ff"/>
    </linearGradient>
    <linearGradient id="linear-gradient-32" x1="-15.738" y1="0.5" x2="-14.738" y2="0.5" gradientUnits="objectBoundingBox">
      <stop offset="0.005" stop-color="#e3b7ff"/>
      <stop offset="1" stop-color="#f2d7fe"/>
    </linearGradient>
    <linearGradient id="linear-gradient-33" x1="-14.15" y1="0.5" x2="-13.15" y2="0.5" xlink:href="#linear-gradient-30"/>
    <linearGradient id="linear-gradient-34" x1="0" y1="0.5" x2="1" y2="0.5" xlink:href="#linear-gradient-8"/>
    <linearGradient id="linear-gradient-35" y1="0.5" x2="1" y2="0.5" gradientUnits="objectBoundingBox">
      <stop offset="0" stop-color="#3a2baa"/>
      <stop offset="1" stop-color="#2f1784"/>
    </linearGradient>
    <linearGradient id="linear-gradient-37" x1="0.5" y1="-1.153" x2="0.5" y2="1" xlink:href="#linear-gradient-8"/>
    <linearGradient id="linear-gradient-38" x1="0.5" y1="0" x2="0.5" y2="1.088" xlink:href="#linear-gradient-8"/>
    <linearGradient id="linear-gradient-39" x1="0.5" y1="0" x2="0.5" y2="1" xlink:href="#linear-gradient-9"/>
    <linearGradient id="linear-gradient-42" x1="0" y1="0.5" x2="1" y2="0.5" xlink:href="#linear-gradient-26"/>
    <linearGradient id="linear-gradient-43" x1="0" y1="0.5" x2="1" y2="0.5" xlink:href="#linear-gradient-30"/>
    <linearGradient id="linear-gradient-49" x1="0" y1="0.5" x2="1" y2="0.5" xlink:href="#linear-gradient-8"/>
    <linearGradient id="linear-gradient-53" x1="-11.229" y1="0.5" x2="-10.229" y2="0.5" xlink:href="#linear-gradient-8"/>
    <linearGradient id="linear-gradient-56" x1="-14.101" y1="0.5" x2="-13.101" y2="0.5" xlink:href="#linear-gradient-26"/>
    <linearGradient id="linear-gradient-57" x1="0" y1="0.5" x2="5.677" y2="0.5" xlink:href="#linear-gradient-8"/>
    <linearGradient id="linear-gradient-58" x1="0" y1="0.5" x2="1" y2="0.5" xlink:href="#linear-gradient-6"/>
    <linearGradient id="linear-gradient-62" x1="0.5" y1="1" x2="0.5" y2="0" xlink:href="#linear-gradient-7"/>
    <linearGradient id="linear-gradient-63" x1="0.5" y1="1" x2="0.5" y2="0" xlink:href="#linear-gradient-6"/>
    <linearGradient id="linear-gradient-64" x1="0" y1="0.5" x2="1" y2="0.5" xlink:href="#linear-gradient-32"/>
    <linearGradient id="linear-gradient-65" x1="0.5" y1="1" x2="0.5" y2="0" xlink:href="#linear-gradient-9"/>
    <linearGradient id="linear-gradient-69" y1="0.5" x2="1" y2="0.5" gradientUnits="objectBoundingBox">
      <stop offset="0" stop-color="#4b42c6"/>
      <stop offset="0.484" stop-color="#4d47ca"/>
      <stop offset="1" stop-color="#5454d6"/>
    </linearGradient>
    <linearGradient id="linear-gradient-78" x1="1.589" y1="0.5" x2="2.589" y2="0.5" xlink:href="#linear-gradient-30"/>
    <linearGradient id="linear-gradient-82" x1="-0.901" y1="0.5" x2="1" y2="0.5" xlink:href="#linear-gradient-13"/>
    <linearGradient id="linear-gradient-83" x1="12.48" y1="0.5" x2="14.396" y2="0.5" xlink:href="#linear-gradient-13"/>
    <linearGradient id="linear-gradient-86" x1="0" y1="0.5" x2="1" y2="0.5" xlink:href="#linear-gradient-13"/>
    <linearGradient id="linear-gradient-87" x1="0" y1="0.5" x2="1" y2="0.5" xlink:href="#linear-gradient-13"/>
    <linearGradient id="linear-gradient-89" x1="0" y1="0.5" x2="1.592" y2="0.5" xlink:href="#linear-gradient-8"/>
    <linearGradient id="linear-gradient-90" x1="0" y1="0.5" x2="2.469" y2="0.5" xlink:href="#linear-gradient-13"/>
    <linearGradient id="linear-gradient-92" x1="-0.306" y1="0.5" x2="2.918" y2="0.5" xlink:href="#linear-gradient-13"/>
    <linearGradient id="linear-gradient-98" x1="14.862" y1="0.5" x2="15.862" y2="0.5" xlink:href="#linear-gradient-35"/>
    <linearGradient id="linear-gradient-99" x1="15.303" y1="0.5" x2="16.303" y2="0.5" xlink:href="#linear-gradient-69"/>
    <linearGradient id="linear-gradient-100" x1="0.364" y1="4.124" x2="1.183" y2="4.124" gradientUnits="objectBoundingBox">
      <stop offset="0.005" stop-color="#e3b7ff"/>
      <stop offset="1" stop-color="#cc9cf2"/>
    </linearGradient>
    <linearGradient id="linear-gradient-101" x1="-2.09" y1="0.5" x2="-1.09" y2="0.5" gradientUnits="objectBoundingBox">
      <stop offset="0" stop-color="#3a2baf"/>
      <stop offset="1" stop-color="#38239e"/>
    </linearGradient>
    <linearGradient id="linear-gradient-102" x1="0.689" y1="0.5" x2="1.689" y2="0.5" xlink:href="#linear-gradient-101"/>
    <linearGradient id="linear-gradient-103" x1="0.15" y1="0" x2="0.15" y2="1" xlink:href="#linear-gradient-35"/>
    <linearGradient id="linear-gradient-104" x1="-0.004" y1="1" x2="-0.004" y2="0" xlink:href="#linear-gradient-32"/>
    <linearGradient id="linear-gradient-105" x1="-0.891" y1="0.5" x2="0.109" y2="0.5" xlink:href="#linear-gradient-35"/>
    <linearGradient id="linear-gradient-106" x1="-3.934" y1="1" x2="-3.934" y2="0" xlink:href="#linear-gradient-9"/>
    <linearGradient id="linear-gradient-107" x1="-5.832" y1="0.5" x2="-4.833" y2="0.5" xlink:href="#linear-gradient-100"/>
    <linearGradient id="linear-gradient-108" x1="-1.331" y1="0.5" x2="-0.331" y2="0.5" xlink:href="#linear-gradient-100"/>
    <linearGradient id="linear-gradient-109" x1="4.853" y1="3.846" x2="4.853" y2="4.793" xlink:href="#linear-gradient-100"/>
    <linearGradient id="linear-gradient-118" x1="55.241" y1="0.5" x2="56.241" y2="0.5" xlink:href="#linear-gradient-8"/>
    <linearGradient id="linear-gradient-119" x1="35.583" y1="0.5" x2="36.583" y2="0.5" xlink:href="#linear-gradient-8"/>
    <linearGradient id="linear-gradient-123" x1="-0.369" y1="0.5" x2="0.631" y2="0.5" xlink:href="#linear-gradient-31"/>
    <linearGradient id="linear-gradient-124" x1="-0.308" y1="0.5" x2="0.692" y2="0.5" xlink:href="#linear-gradient-32"/>
    <linearGradient id="linear-gradient-129" x1="0.5" y1="0" x2="0.5" y2="1" xlink:href="#linear-gradient-26"/>
    <linearGradient id="linear-gradient-130" x1="0" y1="0.5" x2="1" y2="0.5" xlink:href="#linear-gradient-27"/>
    <linearGradient id="linear-gradient-131" x1="0" y1="0.5" x2="1" y2="0.5" xlink:href="#linear-gradient-27"/>
    <linearGradient id="linear-gradient-133" x1="0" y1="0.5" x2="1" y2="0.5" xlink:href="#linear-gradient-26"/>
    <linearGradient id="linear-gradient-147" x1="0" y1="0.5" x2="1" y2="0.5" xlink:href="#linear-gradient-13"/>
    <linearGradient id="linear-gradient-148" x1="0" y1="0.5" x2="1" y2="0.5" xlink:href="#linear-gradient-13"/>
    <linearGradient id="linear-gradient-152" x1="0" y1="0.5" x2="1.408" y2="0.5" xlink:href="#linear-gradient-30"/>
    <linearGradient id="linear-gradient-154" x1="0" y1="0.5" x2="2.014" y2="0.5" xlink:href="#linear-gradient-13"/>
    <linearGradient id="linear-gradient-157" x1="0" y1="0.5" x2="1" y2="0.5" xlink:href="#linear-gradient-8"/>
    <linearGradient id="linear-gradient-158" x1="18.458" y1="0.5" x2="19.458" y2="0.5" xlink:href="#linear-gradient-8"/>
    <linearGradient id="linear-gradient-159" x1="30.258" y1="0.5" x2="31.258" y2="0.5" xlink:href="#linear-gradient-26"/>
  </defs>
  <g id="Grupo_15784" data-name="Grupo 15784" transform="translate(-38.511)">
    <g id="Grupo_15737" data-name="Grupo 15737" transform="translate(38.511 385.433)">
      <path id="Trazado_24845" data-name="Trazado 24845" d="M249.41,266.217c-50.644.6-91.427,24.184-91.092,52.685s41.663,51.13,92.305,50.534,91.43-24.184,91.094-52.69S300.055,265.622,249.41,266.217Z" transform="translate(29.68 -233.915)" opacity="0.5" fill="url(#linear-gradient)"/>
      <path id="Trazado_24846" data-name="Trazado 24846" d="M119.006,327.357c-16.243.191-29.323,7.756-29.217,16.9s13.363,16.4,29.606,16.208,29.323-7.756,29.217-16.9S135.248,327.166,119.006,327.357Z" transform="translate(-9.324 -199.111)" opacity="0.5" fill="url(#linear-gradient)"/>
      <path id="Trazado_24847" data-name="Trazado 24847" d="M335.57,329.254c-13.854.163-25.011,6.616-24.919,14.413s11.4,13.986,25.251,13.824,25.011-6.617,24.919-14.414S349.424,329.091,335.57,329.254Z" transform="translate(116.386 -198.031)" opacity="0.5" fill="url(#linear-gradient)"/>
      <path id="Trazado_24848" data-name="Trazado 24848" d="M373.874,251.149c-19.361.228-34.953,9.246-34.825,20.142s15.927,19.547,35.289,19.32,34.955-9.246,34.826-20.144S393.238,250.921,373.874,251.149Z" transform="translate(132.549 -242.487)" opacity="0.5" fill="url(#linear-gradient)"/>
      <path id="Trazado_24849" data-name="Trazado 24849" d="M70.417,245.631c-17.738.209-32.024,8.47-31.906,18.454s14.593,17.907,32.331,17.7,32.024-8.472,31.906-18.455S88.157,245.423,70.417,245.631Z" transform="translate(-38.511 -245.627)" opacity="0.5" fill="url(#linear-gradient)"/>
    </g>
    <g id="Grupo_15748" data-name="Grupo 15748" transform="translate(68.501)">
      <g id="Grupo_15738" data-name="Grupo 15738" transform="translate(163.439 406.204)">
        <path id="Trazado_24850" data-name="Trazado 24850" d="M334.061,293.421h-32.63c-14.844-6.514-33.649-10.3-54.082-10.065-19.142.224-36.78,3.953-51.011,10.065H161.781s0,9.707,0,10.233c.314,26.777,39.135,48.029,86.708,47.471,47.3-.557,85.428-22.469,85.553-49.038Z" transform="translate(-161.779 -244.93)" fill="url(#linear-gradient-6)"/>
        <path id="Trazado_24851" data-name="Trazado 24851" d="M247.349,258.875c-47.571.56-85.883,22.719-85.567,49.49s39.135,48.029,86.708,47.469,85.884-22.719,85.569-49.493S294.923,258.316,247.349,258.875Z" transform="translate(-161.778 -258.864)" fill="url(#linear-gradient-7)"/>
      </g>
      <g id="Grupo_15739" data-name="Grupo 15739" transform="translate(182.607 397.927)">
        <path id="Trazado_24852" data-name="Trazado 24852" d="M307.94,280.457H282.572c-11.543-5.065-26.163-8.012-42.048-7.826-14.884.174-28.6,3.072-39.659,7.826H174s0,16.974,0,17.382c.245,20.818,30.426,37.342,67.413,36.907,36.775-.433,66.419-17.468,66.516-38.126Z" transform="translate(-173.994 -242.757)" fill="url(#linear-gradient-8)"/>
        <path id="Trazado_24853" data-name="Trazado 24853" d="M240.523,253.6c-36.986.435-66.772,17.663-66.527,38.476s30.426,37.342,67.413,36.907,66.773-17.663,66.528-38.481S277.512,253.163,240.523,253.6Z" transform="translate(-173.994 -253.59)" fill="url(#linear-gradient-9)"/>
        <path id="Trazado_24854" data-name="Trazado 24854" d="M231.988,261.07c-23.309.273-42.078,11.129-41.924,24.247s19.174,23.531,42.482,23.257,42.078-11.132,41.924-24.25S255.3,260.8,231.988,261.07Z" transform="translate(-164.848 -249.335)" fill="url(#linear-gradient-10)"/>
      </g>
      <path id="Trazado_24855" data-name="Trazado 24855" d="M559.886,0H57.623L265.447,433.909c.154,13.118,19.174,23.531,42.482,23.257,23.012-.27,41.586-10.859,41.908-23.753h.017Z" transform="translate(-57.623)" opacity="0.6" fill="url(#linear-gradient-11)"/>
      <g id="Grupo_15740" data-name="Grupo 15740" transform="translate(146.882 150.363)">
        <path id="Trazado_24856" data-name="Trazado 24856" d="M355.341,177.836c-1.3,5.214-3.408,10.245-3.619,15.7-.168,4.331-1.189,7.567-3.468,10.035-.882.956-3.349,0-4.27-1.425-1.456-2.247.949-6.736-1.905-7.3-3.545-.7-5.528-.008-6.8,4.638-1.346,4.836,1.87,8.929,3.388,13.484.347,1.039,1.329,2.467-.758,2.752-3.143.428-7.4-1.553-8.637-4.651-.758-1.9-3.892-1.111-4.933-2.373-1.51-1.823-1.44-3.914-3.112-3.4-1.339.411-2.258,1.677-3.482,2.413-2.337,1.4-5.975,6.135-8.78,5.731-10.542-1.517-15.836-1.161-22.681,1.329-2.089.759-3.65-.6-5.213-.3-2,.389-3.039-1.178-4.471-1.96-.375,1.022-1.15,2.713-.281,3.868.712.948,2.4.854,3.892.854,1.764,0,3.89.949,6.073,2.562,1.087.8,3.454.471,4.511.3,3.733-.6,5.76-2.6,9.763-.962,4.168,1.7,7.267,4.077,7.155,9.111-.08,3.554.632,7.309.137,10.656-1.387,9.366-3.347,16.385-9.61,24.451-1.252,1.613-1.519,4.927-2.846,6.548-2.186,2.666-6.3,4.9-8.827,7.308-2.2,2.1-4.067,5.563-6.528,7.312-4.38,3.115-5.181,5.348-9.035,3.506-2.183-1.043-5.985-6.773-7.444-8.8a25.7,25.7,0,0,1-4.27-9.522,47.532,47.532,0,0,1-.642-5.638c-.4-4.069-1.79-5.414-4.93-7.626-3.123-2.2-4.07-4.155-6.187-7.342-2.92-4.4-6.945-4.3-10.926-6.917a7.13,7.13,0,0,1-3.5-4.66c-.24-1.033.364-5.061.383-5.983.052-2.432-.65-4.35-.582-6.669.207-7.013,10.433-13.443,16.054-15.957,4.088-1.828,6.722-.621,10.277-.8,1.7-.085,4.461-.934,6.007.457,1.065.96,2.552,1.309,3.769,2.082a23.739,23.739,0,0,0,5.39.676c.058,0,.085.039.137.05a23.136,23.136,0,0,1-3.163-2.191c-3.049-2.5-5.517-5.533-9.288-7.01-3.846-1.506-7.68-1.061-11.694-.827a38.031,38.031,0,0,1-11.634-1.412c-4.006-1.017-5.517-4.29-5.991-9.307-.168-1.767.993-4.342,1.13-6.324.217-3.141-2.087-5.315.1-8.731,2.213-3.462,4.681-7.758,8.3-9.773,3.184-1.773,6.962-2.266,10.25-3.812a45,45,0,0,0,8.725-5.738c4.317-3.441,8.321-7.3,13.071-10.168,10.78-6.506,23.825-3.193,34.79-8.587,5.458-2.685,11.427-11.728,18.1-11.941A102.867,102.867,0,0,0,271.3,96.73a21.09,21.09,0,0,1,4.912,6.448c2.186,4.653.356,6.978-2.032,10.782-2.357,3.753-.127,7.862-3.639,10.771-2.611,2.164-7.137,2.8-10.255,3.92-4.028,1.451-8.044,2.942-12.084,4.354-4.1,1.433-8.676,2.807-13.076,2.06-4.762-.808-5.822-3.03-7.862-6.817-.408-.756-.767-5.106-4.179-5.249-4.555-.19-7.971-.38-10.81,1.5-3.827,2.539-5.006,8.025-5.9,12.5-1.141,5.713,1.638,12.773-1.845,17.881-2.071,3.036-5.795,4.188-9.261,4.6-6.826.811-13.4-1.714-20.158-1.756-5.437-.033-9.487,2.541-10.542,6.807-.733,2.966.843,6.09.912,9.145a51.917,51.917,0,0,1-1.138,12.621c-.342,1.579-1.775,3.465-3.036,2.467a33.923,33.923,0,0,1-8.343-9.561,103.488,103.488,0,0,0-1.538,11.993,21.789,21.789,0,0,1,4.6,3.223c3.939,3.342,3.6,9.721,5.933,14.17,3.606,6.876,10.637,7.962,16.315,12.31,3.05,2.337,5.569,5.379,5.917,9.351.185,2.1-.41,3.611-.739,5.632-.982,6.041-.105,10.537,2.766,15.966,5.021,9.5,12.96,18.819,23.2,22.6,1.816.67,4.458,1.335,5.407,2.853.894,1.431-4.254,3.426-5.5,4.176a24.737,24.737,0,0,1-10.87,3.653A103.159,103.159,0,0,0,355.341,177.836ZM168.1,203.74a5.751,5.751,0,0,1-.135-2.666,8.856,8.856,0,0,0-.706-4.053,3.43,3.43,0,0,1-.011-3.254c1.04-1.776,2.065.422,3.032,1.64a11.412,11.412,0,0,1,1.462,2.548,4.873,4.873,0,0,1,.231.716,7.059,7.059,0,0,1-.26,2.471,8.452,8.452,0,0,0,.133,4.7c.146.447.617,1.208.2,1.216C170.228,207.1,168.7,205.292,168.1,203.74Zm8.111,11.736c-.231.146-.11-.792-1.091-1.47-1.269-.877-3.484-1.932-3.782-3.6-.2-1.12.577-1.692,1.607-2.112.656-.268.684.384,1.07,1.155.424.846,1.318,1.022,2.013,1.692C177.084,212.165,177.459,214.691,176.207,215.476Zm28.184-47.463a16.324,16.324,0,0,0-1.29,4.5c-.146,1.18.116,2.18-.767,3.145-1.218,1.328-3.058,1.048-4.422.1-3.043-2.117-5.042-5.718-8.081-7.965-1.233-.912-2.989-1.277-2.539-3.008.5-1.921,3.25-2.468,4.868-2.453,2.139.02,4.391,1.293,6.137-.066,1.414-1.1,3.477-1.692,4.64-.825C204.826,162.844,205.179,166.019,204.391,168.013ZM312.1,266.578c-1.025,1.63-1.044,5.3-3.036,7.024-1.939,1.681-5.034,1.757-6.994,2.566-2.7,1.114-2.883-2.793-2.07-6.606.609-2.853,4.863-3.942,6.795-6.2a25.523,25.523,0,0,0,4.356-7.223c.449-1.169.854-3.537,1.786-2.5C316.336,257.414,314.637,262.544,312.1,266.578Z" transform="translate(-151.113 -95.307)" fill="url(#linear-gradient-12)"/>
        <path id="Trazado_24857" data-name="Trazado 24857" d="M244.845,135.626c-4.75,2.865-8.754,6.727-13.071,10.168a45,45,0,0,1-8.725,5.738c-3.287,1.546-7.066,2.038-10.25,3.812-3.619,2.015-6.087,6.311-8.3,9.773-2.183,3.416.121,5.589-.1,8.731-.137,1.982-1.3,4.557-1.13,6.324.474,5.017,1.985,8.29,5.991,9.307a38.032,38.032,0,0,0,11.634,1.412c4.014-.234,7.847-.679,11.694.827,3.771,1.477,6.239,4.505,9.288,7.01a23.136,23.136,0,0,0,3.163,2.191c-.052-.011-.078-.05-.137-.05a23.739,23.739,0,0,1-5.39-.676c-1.218-.774-2.7-1.122-3.769-2.082-1.546-1.39-4.306-.541-6.007-.457-3.554.177-6.189-1.029-10.277.8-5.621,2.514-15.847,8.944-16.054,15.957-.067,2.319.634,4.237.582,6.669-.019.923-.623,4.951-.383,5.983a7.13,7.13,0,0,0,3.5,4.66c3.981,2.613,8.006,2.52,10.926,6.917,2.117,3.187,3.065,5.142,6.187,7.342,3.14,2.213,4.533,3.557,4.93,7.626a47.532,47.532,0,0,0,.642,5.638,25.7,25.7,0,0,0,4.27,9.522c1.459,2.032,5.261,7.761,7.444,8.8,3.854,1.842,4.656-.391,9.035-3.506,2.46-1.75,4.323-5.211,6.528-7.312,2.528-2.41,6.641-4.642,8.827-7.308,1.328-1.621,1.594-4.935,2.846-6.548,6.263-8.066,8.223-15.085,9.61-24.451.5-3.347-.217-7.1-.137-10.656.111-5.034-2.988-7.408-7.155-9.111-4-1.637-6.03.366-9.763.962-1.058.169-3.424.5-4.511-.3-2.183-1.613-4.309-2.562-6.073-2.562-1.488,0-3.179.094-3.892-.854-.869-1.155-.094-2.846.281-3.868,1.431.781,2.471,2.349,4.471,1.96,1.563-.306,3.124,1.054,5.213.3,6.845-2.49,12.139-2.847,22.681-1.329,2.8.4,6.443-4.328,8.78-5.731,1.224-.736,2.143-2,3.482-2.413,1.671-.515,1.6,1.575,3.112,3.4,1.042,1.262,4.176.475,4.933,2.373,1.24,3.1,5.494,5.079,8.637,4.651,2.087-.286,1.1-1.714.758-2.752-1.517-4.555-4.734-8.648-3.388-13.484,1.27-4.646,3.253-5.34,6.8-4.638,2.854.566.449,5.056,1.905,7.3.921,1.422,3.388,2.38,4.27,1.425,2.278-2.468,3.3-5.7,3.468-10.035.21-5.451,2.322-10.482,3.619-15.7a102.913,102.913,0,0,0-28.1-52.283c-6.675.213-12.644,9.257-18.1,11.941C268.669,132.433,255.625,129.12,244.845,135.626Z" transform="translate(-121.613 -84.852)" fill="url(#linear-gradient-13)"/>
        <path id="Trazado_24858" data-name="Trazado 24858" d="M257.414,199.318a25.522,25.522,0,0,1-4.356,7.223c-1.932,2.256-6.186,3.345-6.795,6.2-.813,3.813-.631,7.72,2.07,6.606,1.96-.808,5.054-.885,6.994-2.566,1.993-1.728,2.012-5.393,3.036-7.024,2.537-4.034,4.237-9.164.836-12.939C258.267,195.781,257.863,198.149,257.414,199.318Z" transform="translate(-97.377 -38.485)" fill="url(#linear-gradient-13)"/>
        <path id="Trazado_24859" data-name="Trazado 24859" d="M214.933,243.037c-.949-1.517-3.592-2.183-5.407-2.853-10.242-3.783-18.18-13.1-23.2-22.6-2.872-5.429-3.749-9.925-2.766-15.966.33-2.021.924-3.532.739-5.632-.348-3.972-2.867-7.014-5.917-9.351-5.677-4.348-12.709-5.434-16.315-12.31-2.333-4.449-1.994-10.827-5.933-14.17a21.79,21.79,0,0,0-4.6-3.223c-.166,2.395-.281,4.8-.281,7.24a103.019,103.019,0,0,0,47.309,86.7,24.737,24.737,0,0,0,10.87-3.653C210.678,246.463,215.827,244.468,214.933,243.037Z" transform="translate(-151.215 -61.042)" fill="url(#linear-gradient-15)"/>
        <path id="Trazado_24860" data-name="Trazado 24860" d="M160.751,189.279c1.262,1,2.694-.888,3.036-2.467a51.917,51.917,0,0,0,1.138-12.621c-.069-3.055-1.644-6.179-.912-9.145,1.054-4.267,5.1-6.84,10.542-6.807,6.758.042,13.332,2.567,20.158,1.756,3.466-.411,7.19-1.563,9.261-4.6,3.484-5.108.7-12.167,1.845-17.881.893-4.471,2.071-9.956,5.9-12.5,2.839-1.883,6.255-1.693,10.81-1.5,3.411.143,3.771,4.493,4.179,5.249,2.04,3.786,3.1,6.008,7.862,6.817,4.4.747,8.98-.628,13.076-2.06,4.041-1.412,8.056-2.9,12.084-4.354,3.118-1.124,7.643-1.756,10.255-3.92,3.512-2.909,1.282-7.017,3.639-10.771,2.388-3.8,4.218-6.129,2.032-10.782a21.09,21.09,0,0,0-4.912-6.448,103.064,103.064,0,0,0-118.335,82.471A33.923,33.923,0,0,0,160.751,189.279Z" transform="translate(-150.556 -95.823)" fill="url(#linear-gradient-16)"/>
        <path id="Trazado_24861" data-name="Trazado 24861" d="M166.254,170.889a8.452,8.452,0,0,1-.133-4.7,7.059,7.059,0,0,0,.26-2.471,4.875,4.875,0,0,0-.231-.716,11.412,11.412,0,0,0-1.462-2.548c-.967-1.218-1.991-3.416-3.032-1.64a3.43,3.43,0,0,0,.011,3.254,8.856,8.856,0,0,1,.706,4.053,5.751,5.751,0,0,0,.135,2.666c.609,1.552,2.133,3.361,3.948,3.32C166.871,172.1,166.4,171.336,166.254,170.889Z" transform="translate(-145.526 -60.351)" fill="url(#linear-gradient-17)"/>
        <path id="Trazado_24862" data-name="Trazado 24862" d="M166.8,169.005c-.386-.77-.414-1.423-1.07-1.155-1.029.421-1.808.992-1.607,2.112.3,1.666,2.512,2.721,3.782,3.6.981.678.86,1.616,1.091,1.47,1.252-.785.877-3.311-.182-4.334C168.121,170.027,167.226,169.851,166.8,169.005Z" transform="translate(-143.904 -54.862)" fill="url(#linear-gradient-18)"/>
        <path id="Trazado_24863" data-name="Trazado 24863" d="M185.314,138.942c-1.747,1.359-4,.086-6.137.066-1.618-.016-4.369.532-4.868,2.453-.45,1.731,1.306,2.1,2.539,3.008,3.039,2.247,5.039,5.848,8.081,7.965,1.364.948,3.2,1.227,4.422-.1.883-.965.621-1.965.767-3.145a16.324,16.324,0,0,1,1.29-4.5c.788-1.994.435-5.169-1.455-6.576C188.791,137.251,186.728,137.841,185.314,138.942Z" transform="translate(-138.131 -71.987)" fill="url(#linear-gradient-19)"/>
        <path id="Trazado_24864" data-name="Trazado 24864" d="M304.1,225.022c-28.338,49.082-82.366,70.247-121.7,47.535-28.375-27.33-44.317-77.532-17.176-125.264,28.013-49.267,87.874-62.631,132.275-42.173C325.167,132.147,328.9,182.075,304.1,225.022Z" transform="translate(-151.227 -95.782)" fill="#fff" opacity="0.2"/>
        <path id="Trazado_24865" data-name="Trazado 24865" d="M262.441,191.975c-18.234,31.584-53.537,45.34-78.85,30.725s-31.052-52.065-12.817-83.648,53.537-45.34,78.851-30.725S280.676,160.392,262.441,191.975Z" transform="translate(-146.169 -92.031)" fill="#fff" opacity="0.2"/>
        <path id="Trazado_24866" data-name="Trazado 24866" d="M228.937,159.369c-10.184,17.636-29.9,25.317-44.033,17.157s-17.339-29.075-7.157-46.711,29.9-25.319,44.031-17.159S239.119,141.731,228.937,159.369Z" transform="translate(-139.521 -88.098)" fill="#fff" opacity="0.2"/>
      </g>
      <g id="Grupo_15744" data-name="Grupo 15744" transform="translate(322.198 63.012)">
        <g id="Grupo_15741" data-name="Grupo 15741" transform="translate(0.15 25.33)">
          <path id="Trazado_24867" data-name="Trazado 24867" d="M284.147,110.359c3.022-.108,4.791-1.169,8.444,1.04,2.644,1.6,5.6,5.523,8.7,5.456,3.309-.074,6.746-4.23,8.96-5.34,5.208-2.613,8.85-12.112,13.125-16.225,2.71-2.606,4.442-.422,5.847-1.428.987-.709,1.613-2.978,2.393-5.583,1.633-5.459-.766-7.648-3.433-6.889-6.147,1.751-5.356,4.838-7.86,5.586-4.205,1.255-6.638,2.679-8.117.909-3.509-4.191-5.9-6.548-10.639-7.766-3.935-1.011-3.317-1.613-8.265-.56-1.98.422-4.789,1.762-6.713,2.315-4.651,1.335-7.728,1.591-8.809-2.58-.745-2.878-5.045-4.028-5.326-6.551-.289-2.6.78-2.395.822-6.25.067-6.016-1.929-7.086-4.216-9.01a5.955,5.955,0,0,1-1.034-1.185,45.513,45.513,0,0,0,9.454,54.03A66.635,66.635,0,0,0,284.147,110.359Z" transform="translate(-263.048 -56.298)" fill="url(#linear-gradient-20)"/>
          <path id="Trazado_24868" data-name="Trazado 24868" d="M284.147,110.359c3.022-.108,4.791-1.169,8.444,1.04,2.644,1.6,5.6,5.523,8.7,5.456,3.309-.074,6.746-4.23,8.96-5.34,5.208-2.613,8.85-12.112,13.125-16.225,2.71-2.606,4.442-.422,5.847-1.428.987-.709,1.613-2.978,2.393-5.583,1.633-5.459-.766-7.648-3.433-6.889-6.147,1.751-5.356,4.838-7.86,5.586-4.205,1.255-6.638,2.679-8.117.909-3.509-4.191-5.9-6.548-10.639-7.766-3.935-1.011-3.317-1.613-8.265-.56-1.98.422-4.789,1.762-6.713,2.315-4.651,1.335-7.728,1.591-8.809-2.58-.745-2.878-5.045-4.028-5.326-6.551-.289-2.6.78-2.395.822-6.25.067-6.016-1.929-7.086-4.216-9.01a5.955,5.955,0,0,1-1.034-1.185,45.513,45.513,0,0,0,9.454,54.03A66.635,66.635,0,0,0,284.147,110.359Z" transform="translate(-263.048 -56.298)" fill="url(#linear-gradient-21)"/>
        </g>
        <g id="Grupo_15742" data-name="Grupo 15742" transform="translate(5.129)">
          <path id="Trazado_24869" data-name="Trazado 24869" d="M353.216,86.142a45.939,45.939,0,0,0-87-20.657,5.954,5.954,0,0,0,1.034,1.185c2.288,1.924,4.284,2.992,4.216,9.01-.042,3.855-1.111,3.651-.822,6.25.281,2.523,4.58,3.673,5.326,6.551,1.081,4.171,4.158,3.915,8.809,2.58,1.924-.552,4.733-1.892,6.713-2.315,4.948-1.053,4.329-.45,8.265.56,4.744,1.218,7.132,3.575,10.639,7.766,1.48,1.77,3.912.347,8.117-.909,2.5-.748,1.714-3.835,7.86-5.586,2.668-.759,5.067,1.43,3.433,6.889-.78,2.6-1.406,4.874-2.393,5.583-1.4,1.006-3.137-1.178-5.847,1.428-4.274,4.113-7.917,13.613-13.125,16.225-2.214,1.109-5.651,5.266-8.96,5.34-3.1.067-6.059-3.857-8.7-5.458-3.653-2.208-5.42-1.147-8.444-1.039a66.635,66.635,0,0,1-6.666-.031,45.785,45.785,0,0,0,56.467,5.244,3.572,3.572,0,0,1-.337-.262,17.443,17.443,0,0,1-2.978-6.065c-.35-1.668.946-3.531.723-5.241-.182-1.4-1.34-1.219-2.5-1.34-.6-.063-.813-1.15-.962-1.922a3.717,3.717,0,0,1,1.561-3.794c2.489-1.894,4.628-1.473,7.342-.665a9.431,9.431,0,0,1,3.7,2.021c1.147,1.017,1.08,4.339,2.619,3.568,1.585-.792,2.388-2.034,3.291-2.071a9.991,9.991,0,0,1,2.4.1,46.236,46.236,0,0,0,6.217-22.943Z" transform="translate(-266.221 -40.156)" fill="url(#linear-gradient-22)"/>
          <path id="Trazado_24870" data-name="Trazado 24870" d="M322.908,85.545c-.9.038-1.706,1.279-3.291,2.071-1.539.77-1.472-2.551-2.619-3.568a9.431,9.431,0,0,0-3.7-2.021c-2.715-.808-4.854-1.229-7.342.665a3.717,3.717,0,0,0-1.561,3.794c.149.772.362,1.859.962,1.922,1.158.121,2.316-.061,2.5,1.34.223,1.71-1.073,3.573-.723,5.241a17.444,17.444,0,0,0,2.978,6.065,3.573,3.573,0,0,0,.337.262,46.157,46.157,0,0,0,14.857-15.675A9.99,9.99,0,0,0,322.908,85.545Z" transform="translate(-244.531 -16.713)" fill="url(#linear-gradient-23)"/>
          <path id="Trazado_24871" data-name="Trazado 24871" d="M322.908,85.545c-.9.038-1.706,1.279-3.291,2.071-1.539.77-1.472-2.551-2.619-3.568a9.431,9.431,0,0,0-3.7-2.021c-2.715-.808-4.854-1.229-7.342.665a3.717,3.717,0,0,0-1.561,3.794c.149.772.362,1.859.962,1.922,1.158.121,2.316-.061,2.5,1.34.223,1.71-1.073,3.573-.723,5.241a17.444,17.444,0,0,0,2.978,6.065,3.573,3.573,0,0,0,.337.262,46.157,46.157,0,0,0,14.857-15.675A9.99,9.99,0,0,0,322.908,85.545Z" transform="translate(-244.531 -16.713)" fill="url(#linear-gradient-24)"/>
        </g>
        <path id="Trazado_24872" data-name="Trazado 24872" d="M317.579,63.428c.791-1.379.116-3.576.626-4.689.847-1.855,2.269-5.588.3-8.106-2.238-2.862-6.2-2.986-10.035-1.382-4.467,1.866-1.419,6.547-3.1,9.93-.8,1.607-4.4,1.453-6.485,1.56-2.707.14-3.182,1.563-4.6,4.2-1.357,2.533-5.4,4.3-3.859,7.323.587,1.145,3.184,3.01,4.8,2.639,2.542-.581,4.949-1.177,6.066,1.745.893,2.33,2.9,5.5,6.6,4.8,3.374-.639,5.189-3.192,7.505-5.6,1.637-1.706,4.036-3.041,3.9-4.9C319.138,68.6,316.271,65.712,317.579,63.428Z" transform="translate(-247.51 -35.567)" fill="url(#linear-gradient-25)"/>
        <g id="Grupo_15743" data-name="Grupo 15743" transform="translate(0 0.017)">
          <path id="Trazado_24873" data-name="Trazado 24873" d="M331.111,97.739c-12.635,21.884-36.724,31.319-54.262,21.193a45.768,45.768,0,0,1-7.658-55.849c12.489-21.967,39.179-27.925,58.974-18.8C340.5,56.33,342.166,78.59,331.111,97.739Z" transform="translate(-262.952 -40.167)" fill="#fff" opacity="0.1"/>
          <path id="Trazado_24874" data-name="Trazado 24874" d="M312.537,83c-8.13,14.082-23.87,20.214-35.156,13.7s-13.845-23.214-5.713-37.3,23.869-20.214,35.154-13.7S320.667,68.923,312.537,83Z" transform="translate(-260.697 -38.495)" fill="#fff" opacity="0.1"/>
          <path id="Trazado_24875" data-name="Trazado 24875" d="M297.6,68.465c-4.54,7.865-13.329,11.289-19.632,7.65s-7.731-12.961-3.19-20.826,13.329-11.287,19.63-7.65S302.139,60.6,297.6,68.465Z" transform="translate(-257.733 -36.741)" fill="#fff" opacity="0.1"/>
        </g>
      </g>
      <g id="Grupo_15746" data-name="Grupo 15746" transform="translate(242.896 30.517)">
        <path id="Trazado_24876" data-name="Trazado 24876" d="M263.717,28.242a29.8,29.8,0,1,0,8.789,21.222A29.918,29.918,0,0,0,263.717,28.242Z" transform="translate(-212.379 -19.448)" fill="url(#linear-gradient-26)"/>
        <path id="Trazado_24877" data-name="Trazado 24877" d="M257.9,25.052a5.758,5.758,0,0,1-1.419,2.693c-1.779,1.017-3.447,1.649-4.56.824a11.033,11.033,0,0,0-5.7-2.164,5.33,5.33,0,0,0-3.612,1.15c-1.71,1.2-2.729.588-3.99.887a4.5,4.5,0,0,0-2.746,2.042c-1.053,1.695-.8,2.391.024,3.449,1.779,2.285,4.267.836,5.447,3.642.6,1.43-.085,3.794-.02,5.174a5.16,5.16,0,0,1-3.424,5.425c-.876.362-2.406,2.156-3.331,2.316-1.637.281-2.638-1.379-3.736-2.479a3.752,3.752,0,0,0-3.138-1.05c-2.42.228-2.55,1.524-3.575,3.529-.7,1.365-1.447,2.316-1.414,3.138.071,1.74,1.91,3.206,2.933,5.084.672,1.232,1.61,1.844,1.8,3.724a3.529,3.529,0,0,0,2.244,3.046c1.32.461,3.763.251,5.265.577,1.861.4,3.394,2.131,5,2.6,1.637.474,3.325.835,4.306.182.728-.485.254-1.321,1.58-2.194,1.9-1.247,3.722-1.968,5.214-3.662a40.19,40.19,0,0,1,2.575-3.143c1.892-1.756,4.119-2.123,6.355-3.174A46.286,46.286,0,0,0,265.7,53.8a29.8,29.8,0,0,0-7.8-28.746Z" transform="translate(-206.558 -16.258)" fill="url(#linear-gradient-27)"/>
        <path id="Trazado_24878" data-name="Trazado 24878" d="M220.52,33.041a7.175,7.175,0,0,0-1.71-1.869c-.491-.427-1.218-.064-1.867-.063-.568,0-.73-.855-1.489-.063-.852.887-.843,1.67-.345,3.039.419,1.155.8.813,1.623,1.583.882.827.147,2.28.527,2.892.2.328.232.937.538,1.116.375.22.92.047,1.616-.4.747-.479,1.492-.083,2.311-.38.942-.342,1.188-.91,1.434-1.963.276-1.18-.344-1.419-1.023-1.842A5.429,5.429,0,0,1,220.52,33.041Z" transform="translate(-211.076 -13.038)" fill="url(#linear-gradient-28)"/>
        <path id="Trazado_24879" data-name="Trazado 24879" d="M220.883,55.274c.458-.819,1.342-1.053,2.153-1.615a4.779,4.779,0,0,0,1.444-1.387c.981-1.464,1.337-2.787.166-4.32a11.454,11.454,0,0,0-3.195-2.7c-1.254-.738-2.994-.8-4.056-1.728-1.022-.894-1.113-1.574-1.219-2.959a5.547,5.547,0,0,0-.518-2.343c-.53-.861-1.478-1.051-1.8-2.046a8.322,8.322,0,0,1-.245-2.752,29.809,29.809,0,0,0,4.067,24.955,8.818,8.818,0,0,0,1.783-.766C220.31,57.141,220.441,56.063,220.883,55.274Z" transform="translate(-212.379 -11.491)" fill="url(#linear-gradient-29)"/>
        <g id="Grupo_15745" data-name="Grupo 15745" transform="translate(0 0.012)">
          <path id="Trazado_24880" data-name="Trazado 24880" d="M256.9,57.032c-8.246,14.283-23.968,20.442-35.416,13.832a29.876,29.876,0,0,1-5-36.452c8.152-14.336,25.571-18.226,38.492-12.273C263.031,30,264.115,44.533,256.9,57.032Z" transform="translate(-212.415 -19.455)" fill="#fff" opacity="0.2"/>
          <path id="Trazado_24881" data-name="Trazado 24881" d="M244.778,47.415c-5.307,9.191-15.579,13.194-22.946,8.941S212.8,41.2,218.1,32.014s15.579-13.194,22.945-8.941S250.083,38.224,244.778,47.415Z" transform="translate(-210.942 -18.364)" fill="#fff" opacity="0.2"/>
          <path id="Trazado_24882" data-name="Trazado 24882" d="M235.027,37.926c-2.963,5.133-8.7,7.367-12.812,4.993s-5.046-8.461-2.082-13.592,8.7-7.369,12.812-4.993S237.991,32.794,235.027,37.926Z" transform="translate(-209.008 -17.22)" fill="#fff" opacity="0.2"/>
        </g>
      </g>
      <g id="Grupo_15747" data-name="Grupo 15747" transform="translate(52.478 28.583)">
        <path id="Trazado_24883" data-name="Trazado 24883" d="M286.668,127.785a2.413,2.413,0,1,1-2.413-2.412A2.412,2.412,0,0,1,286.668,127.785Z" transform="translate(17.52 42.777)" fill="#fff"/>
        <path id="Trazado_24884" data-name="Trazado 24884" d="M227.689,101.59a2.412,2.412,0,1,1-2.412-2.412A2.412,2.412,0,0,1,227.689,101.59Z" transform="translate(-16.049 27.867)" fill="#fff"/>
        <path id="Trazado_24885" data-name="Trazado 24885" d="M172.931,26.825a2.413,2.413,0,1,1-2.413-2.413A2.413,2.413,0,0,1,172.931,26.825Z" transform="translate(-47.216 -14.688)" fill="#fff"/>
        <path id="Trazado_24886" data-name="Trazado 24886" d="M209.5,20.627a2.412,2.412,0,1,1-2.412-2.412A2.413,2.413,0,0,1,209.5,20.627Z" transform="translate(-26.403 -18.215)" fill="#fff"/>
        <path id="Trazado_24887" data-name="Trazado 24887" d="M127.145,32.393a2.412,2.412,0,1,1-2.412-2.412A2.412,2.412,0,0,1,127.145,32.393Z" transform="translate(-73.276 -11.518)" fill="#fff"/>
        <path id="Trazado_24888" data-name="Trazado 24888" d="M181.721,67.641a2.413,2.413,0,1,1-2.413-2.413A2.413,2.413,0,0,1,181.721,67.641Z" transform="translate(-42.213 8.544)" fill="#fff"/>
        <path id="Trazado_24889" data-name="Trazado 24889" d="M202.393,49.395a2.413,2.413,0,1,1-2.412-2.412A2.412,2.412,0,0,1,202.393,49.395Z" transform="translate(-30.447 -1.841)" fill="#fff"/>
        <path id="Trazado_24890" data-name="Trazado 24890" d="M151.684,130.76a2.413,2.413,0,1,1-2.413-2.412A2.414,2.414,0,0,1,151.684,130.76Z" transform="translate(-59.31 44.47)" fill="#fff"/>
        <path id="Trazado_24891" data-name="Trazado 24891" d="M149.4,85.717a2.413,2.413,0,1,1-2.412-2.413A2.412,2.412,0,0,1,149.4,85.717Z" transform="translate(-60.61 18.832)" fill="#fff"/>
        <path id="Trazado_24892" data-name="Trazado 24892" d="M331.352,60.559a2.413,2.413,0,1,1-2.412-2.413A2.412,2.412,0,0,1,331.352,60.559Z" transform="translate(42.953 4.513)" fill="#fff"/>
        <path id="Trazado_24893" data-name="Trazado 24893" d="M302.384,35.468a2.413,2.413,0,1,1-2.412-2.413A2.412,2.412,0,0,1,302.384,35.468Z" transform="translate(26.465 -9.768)" fill="#fff"/>
        <path id="Trazado_24894" data-name="Trazado 24894" d="M294.063,109.141a3.719,3.719,0,1,1-3.719-3.717A3.719,3.719,0,0,1,294.063,109.141Z" transform="translate(20.242 31.422)" fill="#fff"/>
        <path id="Trazado_24895" data-name="Trazado 24895" d="M337.561,31.131a3.718,3.718,0,1,1-3.717-3.717A3.718,3.718,0,0,1,337.561,31.131Z" transform="translate(45.001 -12.979)" fill="#fff"/>
        <path id="Trazado_24896" data-name="Trazado 24896" d="M163.736,91.36a3.718,3.718,0,1,1-3.717-3.719A3.718,3.718,0,0,1,163.736,91.36Z" transform="translate(-53.936 21.301)" fill="#fff"/>
        <path id="Trazado_24897" data-name="Trazado 24897" d="M216.552,98.156a3.719,3.719,0,1,1-3.719-3.717A3.719,3.719,0,0,1,216.552,98.156Z" transform="translate(-23.876 25.17)" fill="#fff"/>
        <path id="Trazado_24898" data-name="Trazado 24898" d="M131.468,115.182a3.718,3.718,0,1,1-3.719-3.717A3.719,3.719,0,0,1,131.468,115.182Z" transform="translate(-72.302 34.861)" fill="#fff"/>
        <path id="Trazado_24899" data-name="Trazado 24899" d="M243.172,65.745a3.718,3.718,0,1,1-3.719-3.719A3.717,3.717,0,0,1,243.172,65.745Z" transform="translate(-8.723 6.721)" fill="#fff"/>
        <path id="Trazado_24900" data-name="Trazado 24900" d="M98.5,22.784a3.719,3.719,0,1,1-3.719-3.719A3.718,3.718,0,0,1,98.5,22.784Z" transform="translate(-91.066 -17.731)" fill="#fff"/>
        <path id="Trazado_24901" data-name="Trazado 24901" d="M126.3,67.058a3.718,3.718,0,1,1-3.719-3.719A3.717,3.717,0,0,1,126.3,67.058Z" transform="translate(-75.242 7.469)" fill="#fff"/>
        <path id="Trazado_24902" data-name="Trazado 24902" d="M301.424,142.31a3.718,3.718,0,1,1-3.717-3.717A3.718,3.718,0,0,1,301.424,142.31Z" transform="translate(24.433 50.302)" fill="#fff"/>
        <path id="Trazado_24903" data-name="Trazado 24903" d="M247.855,168.031a2.412,2.412,0,1,1-2.412-2.412A2.413,2.413,0,0,1,247.855,168.031Z" transform="translate(-4.571 65.684)" fill="#fff"/>
        <path id="Trazado_24904" data-name="Trazado 24904" d="M183.347,237.452a2.412,2.412,0,1,1-2.412-2.412A2.412,2.412,0,0,1,183.347,237.452Z" transform="translate(-41.287 105.197)" fill="#fff"/>
        <path id="Trazado_24905" data-name="Trazado 24905" d="M168.832,151.478a2.413,2.413,0,1,1-2.413-2.412A2.413,2.413,0,0,1,168.832,151.478Z" transform="translate(-49.55 56.263)" fill="#fff"/>
        <path id="Trazado_24906" data-name="Trazado 24906" d="M266.924,194.817a2.412,2.412,0,1,1-2.412-2.412A2.412,2.412,0,0,1,266.924,194.817Z" transform="translate(6.283 80.93)" fill="#fff"/>
        <path id="Trazado_24907" data-name="Trazado 24907" d="M227.689,271.293a2.412,2.412,0,1,1-2.412-2.413A2.412,2.412,0,0,1,227.689,271.293Z" transform="translate(-16.049 124.458)" fill="#fff"/>
        <path id="Trazado_24908" data-name="Trazado 24908" d="M218.036,234.378a2.412,2.412,0,1,1-2.412-2.412A2.412,2.412,0,0,1,218.036,234.378Z" transform="translate(-21.543 103.448)" fill="#fff"/>
        <path id="Trazado_24909" data-name="Trazado 24909" d="M219.573,265.526a2.412,2.412,0,1,1-2.412-2.413A2.412,2.412,0,0,1,219.573,265.526Z" transform="translate(-20.668 121.176)" fill="#fff"/>
        <path id="Trazado_24910" data-name="Trazado 24910" d="M253.458,151.952a3.718,3.718,0,1,1-3.717-3.719A3.718,3.718,0,0,1,253.458,151.952Z" transform="translate(-2.868 55.788)" fill="#fff"/>
        <path id="Trazado_24911" data-name="Trazado 24911" d="M264.421,206.3a3.718,3.718,0,1,1-3.717-3.719A3.718,3.718,0,0,1,264.421,206.3Z" transform="translate(3.372 86.72)" fill="#fff"/>
        <path id="Trazado_24912" data-name="Trazado 24912" d="M167.894,182.079a3.718,3.718,0,1,1-3.719-3.719A3.719,3.719,0,0,1,167.894,182.079Z" transform="translate(-51.57 72.936)" fill="#fff"/>
        <path id="Trazado_24913" data-name="Trazado 24913" d="M201.8,250.03a3.719,3.719,0,1,1-3.719-3.719A3.719,3.719,0,0,1,201.8,250.03Z" transform="translate(-32.27 111.612)" fill="#fff"/>
        <path id="Trazado_24914" data-name="Trazado 24914" d="M198.872,181.292a3.718,3.718,0,1,1-3.717-3.717A3.718,3.718,0,0,1,198.872,181.292Z" transform="translate(-33.938 72.489)" fill="#fff"/>
        <path id="Trazado_24915" data-name="Trazado 24915" d="M255.828,240.3a3.718,3.718,0,1,1-3.719-3.719A3.719,3.719,0,0,1,255.828,240.3Z" transform="translate(-1.519 106.072)" fill="#fff"/>
      </g>
      <circle id="Elipse_867" data-name="Elipse 867" cx="12.75" cy="12.75" r="12.75" transform="matrix(0.13, -0.992, 0.992, 0.13, 223.422, 114.649)" opacity="0.6" fill="url(#linear-gradient-30)"/>
    </g>
    <g id="Grupo_15757" data-name="Grupo 15757" transform="translate(387.584 303.812)">
      <g id="Grupo_15750" data-name="Grupo 15750" transform="translate(54.27 69.013)">
        <path id="Trazado_24916" data-name="Trazado 24916" d="M326.014,269.4c-.094-.031-7.079-3.8-7.52-4.249a26.394,26.394,0,0,0-2.749-2.843c-1.122-.852-2.131-1.645-2.495-1.977-.938-.861-1.207-.122-.8.883s1.075,2.417,1.075,2.417a9.765,9.765,0,0,0-4.766-1.677c-2.552-.077-3.625,1.073-1.411,3.289,1.371,1.37,5.5,4.193,7.633,4.193a8.092,8.092,0,0,1,3.126,1.012,64.136,64.136,0,0,1,5.688,3.217Z" transform="translate(-289.522 -224.864)" fill="#ffd0ca"/>
        <g id="Grupo_15749" data-name="Grupo 15749" transform="translate(0 23.44)">
          <path id="Trazado_24917" data-name="Trazado 24917" d="M296.6,259.07l9.963-5.654c2.7-1.56,3.476.246,4.488,2.173l8.831,16.859c1.012,1.925,1.841,3.275-.375,4.65l-9.633,5.555c-1.536,1.037-2.558,1.156-3.656-.9l-9.178-17.5C296.029,262.326,294.5,260.382,296.6,259.07Z" transform="translate(-295.552 -252.362)" fill="url(#linear-gradient-31)"/>
          <path id="Trazado_24918" data-name="Trazado 24918" d="M297.092,258.775l9.963-5.654c2.7-1.56,3.476.245,4.488,2.172l8.831,16.859c1.012,1.927,1.841,3.275-.375,4.649l-9.635,5.556c-1.535,1.037-2.556,1.155-3.655-.9l-9.178-17.5C296.519,262.031,294.994,260.086,297.092,258.775Z" transform="translate(-295.273 -252.53)" fill="url(#linear-gradient-32)"/>
          <path id="Trazado_24919" data-name="Trazado 24919" d="M319.187,272.988l-11.908,6.75-10.507-19.654,11.885-6.794Z" transform="translate(-294.857 -252.097)" fill="#fff"/>
          <path id="Trazado_24920" data-name="Trazado 24920" d="M309.945,257.718l-10.567,6.11-1.885-3.652,10.544-6.154Z" transform="translate(-294.446 -251.681)" opacity="0.6" fill="url(#linear-gradient-33)"/>
          <path id="Trazado_24921" data-name="Trazado 24921" d="M310.123,268.866l-2.774,1.6-.566-1.007,2.776-1.594Z" transform="translate(-289.159 -243.802)" fill="#fff"/>
        </g>
        <path id="Trazado_24922" data-name="Trazado 24922" d="M341.935,278.893c0,4.857-5.582,8.323-9.4,4.22a12.171,12.171,0,0,1-2.57-4.414,127.5,127.5,0,0,1,4.849-17.242l5.618.921A157.192,157.192,0,0,1,341.935,278.893Z" transform="translate(-275.963 -224.009)" fill="#ffd0ca"/>
        <path id="Trazado_24923" data-name="Trazado 24923" d="M336.557,275.973l6.594-2.412s-1.867-8.367-3.262-11.661c-1.061-2.509-2.056-5.13-5.269-5.748A3.9,3.9,0,0,0,330,259.428C329.424,262.724,336.557,275.973,336.557,275.973Z" transform="translate(-275.963 -227.073)" fill="url(#linear-gradient-34)"/>
        <path id="Trazado_24924" data-name="Trazado 24924" d="M340.526,343.5c-.931,2.219-3.08,2.012-7.424.449a37.38,37.38,0,0,1-9.773-4.982c-2.741-2.027-2.77-2.3-3.13-3.669-.507-1.921,2.3-3,6.955-1.549.461.143.883.279,1.282.41a2.823,2.823,0,0,0-2.128,1.18c-.847,1.591,1.8,3.3,4.588,4.689s5.068,1.4,6.462.761c1.022-.464,2.39-1.061,3.055-1.348C340.695,341.3,341.086,342.166,340.526,343.5Z" transform="translate(-281.557 -183.243)" fill="url(#linear-gradient-35)"/>
        <path id="Trazado_24925" data-name="Trazado 24925" d="M334.845,326.343h0c.033.383-.118-3.427-.218-8.26a40.241,40.241,0,0,1-10.22,2.883c.3,2.15.617,4.292.93,6.324.791,9.242,1.477,21.242,1.477,21.242s-1.282-.576-3.854-1.423a2.834,2.834,0,0,0-2.129,1.18c-.846,1.591,1.8,3.3,4.59,4.689s5.068,1.4,6.462.761c1.022-.464,2.391-1.061,3.055-1.348a22.352,22.352,0,0,1-.108-5.473C335.257,341.949,335.1,332.637,334.845,326.343Z" transform="translate(-281.254 -191.778)" fill="#ffd0ca"/>
        <path id="Trazado_24926" data-name="Trazado 24926" d="M338.632,321.745c.091-1.164.218-2.438.353-3.768a26.213,26.213,0,0,1-10.131,1.183c.188,3.7.375,7.1.507,9.151.449,6.922.748,15.863.748,15.863s-1.284-.574-3.854-1.422a2.823,2.823,0,0,0-2.128,1.18c-.847,1.591,1.8,3.3,4.588,4.689s5.068,1.393,6.462.761c1.022-.464,2.39-1.061,3.055-1.348a22.355,22.355,0,0,1-.108-5.473C338.48,338.436,338.323,325.705,338.632,321.745Z" transform="translate(-279.378 -191.839)" fill="#ffd0ca"/>
        <path id="Trazado_24927" data-name="Trazado 24927" d="M337.231,346.313c-.932,2.219-3.082,2.013-7.425.45a37.429,37.429,0,0,1-9.773-4.984c-2.741-2.027-2.768-2.3-3.131-3.669-.507-1.921,2.3-3,6.955-1.549.461.143.885.279,1.282.411a2.821,2.821,0,0,0-2.128,1.178c-.847,1.591,1.8,3.3,4.588,4.689s5.068,1.4,6.463.761c1.02-.464,2.39-1.061,3.054-1.348C337.4,344.116,337.79,344.98,337.231,346.313Z" transform="translate(-283.433 -181.641)" fill="url(#linear-gradient-35)"/>
        <path id="Trazado_24928" data-name="Trazado 24928" d="M328.983,309.714c-3.352,3.931-6.335,5.79-11.546,6.427,0,7.3,10.393,34.263,10.408,35.481,1.88,2.274,4.482,3.022,9.687,1.615C337.728,349.48,333.132,327.593,328.983,309.714Z" transform="translate(-283.095 -196.542)" fill="url(#linear-gradient-37)"/>
        <path id="Trazado_24929" data-name="Trazado 24929" d="M343.689,287.517c-3.118-7.369-2.865-8.094-2.738-8.155l-20.63,2.551s-.557,5.086-1.43,9.264c-1.3,6.211-1.475,34.878-1.453,43.653,1.761-.228,2.1.375,3.829-.138,3.212-.956,5.057,4.593,7.727,2.641,0-.028,1.4-4.166,1.4-4.194.552-10.954,1.1-16.945,3.264-23.208.213,3.3-1.367,19.116-1.174,25.873.177,6.178-.741,21.487-.741,28.347,2.719,3.3,8.265,3.291,11.053,1.648.794-4.419,1.472-28.659,1.966-35.744.11-2.655,1.1-20.255,1.489-23.42A35.056,35.056,0,0,0,343.689,287.517Z" transform="translate(-283.095 -213.817)" fill="url(#linear-gradient-38)"/>
        <path id="Trazado_24930" data-name="Trazado 24930" d="M326.722,240.838c-1.076.749-5.484.62-6.609,9.478-.995,7.849,1.282,8.574,2.876,9.238.88.367,4.091,1.422,4.091,1.422l-.358,7.937a11.267,11.267,0,0,0,7.617,0l3.727-1.538a13.124,13.124,0,0,1-1.213-6.857c.3-5.39,2.213-13.065.862-15.919C335.272,239.441,329.648,238.807,326.722,240.838Z" transform="translate(-281.711 -236.356)" fill="#ffd0ca"/>
        <path id="Trazado_24931" data-name="Trazado 24931" d="M346.893,305.134c-1.178,1.516-2.836,1.72-5.337,2.517a12.58,12.58,0,0,0-1.994-4.372s-.731,3.454-1.117,5.561c-2.161.516-6.2,1.134-7.141,1.247-4.188.5-11.88-2.073-13.843-5.161,2.55-7.978,3.727-23.4,3.727-23.4s-3.741-10.179-1.067-15.546,6.085-6,8.645-6.865c2.712-.918,11.411-2.454,11.411-2.454s8.249,6.437,6.423,14.48a78.048,78.048,0,0,0-1.85,14.733C344.557,288.935,346.837,302.145,346.893,305.134Z" transform="translate(-283.082 -226.736)" fill="url(#linear-gradient-39)"/>
        <path id="Trazado_24932" data-name="Trazado 24932" d="M319.789,286.631c-2.272,1.346-2.774,1.586-5.867-.141-1.8-2.351,1.458-4.114.5-7l.047-.017c2.134-6,5.1-12.456,5.1-12.456l9.167,2.881s-2.278,5.6-5.079,11.184C322.448,283.491,320.6,286.151,319.789,286.631Z" transform="translate(-285.411 -220.842)" fill="#ffd0ca"/>
        <path id="Trazado_24933" data-name="Trazado 24933" d="M299.7,265.578a35.746,35.746,0,0,0,4.855,3.951,4.694,4.694,0,0,0-.5-2.453c-.629-1.116.427-2.467,1.591-.493s3.077,3.1,4.069,4.9,2.715,2.36,8.139,4.659c3.016,1.279,5.735,2.267,7.854,3.2a27.144,27.144,0,0,0-2.467,8.528c-5.98-3.061-14.336-11.311-16.41-12.2-2.456-1.056-3.771-.978-6.446-3.895C298.808,270.042,298.069,266.085,299.7,265.578Z" transform="translate(-293.712 -221.663)" fill="#ffd0ca"/>
        <path id="Trazado_24934" data-name="Trazado 24934" d="M323.982,260.018c1.61-.391,4.7.976,5.748,4.579,1.608,5.514-.505,8.128-1.75,10.878-.4.9-2.147,4.055-2.147,4.055a10.3,10.3,0,0,1-6.613-1.483,6.863,6.863,0,0,1-3.276-3.708s1-3.885,2.106-7.377C319.021,263.893,320.781,260.8,323.982,260.018Z" transform="translate(-283.944 -224.864)" fill="url(#linear-gradient-34)"/>
        <path id="Trazado_24935" data-name="Trazado 24935" d="M322.717,260.627a4.738,4.738,0,0,1,3.739-2.79c7.884-.758,9.188-1.869,9.188-1.869a2.521,2.521,0,0,1,2.547,1.111c.513.89.953,1.622.953,1.622S329.882,263.294,322.717,260.627Z" transform="translate(-280.09 -227.15)" fill="#e2796f"/>
        <path id="Trazado_24936" data-name="Trazado 24936" d="M319.558,248.324a25.321,25.321,0,0,0,4.775,2.566c-.83,14.154-3.688,17.095,2.027,20.506,1.69,1.007,5.239,2.307,5.888,8.157,1,9,6.616,10.774,6.616,10.774s5.877-5.627,5.988-19.185c.058-7.111-.483-25.554-3.207-28.873-4.4-5.359-9.167-5.453-13.708-3.548C324.333,237.874,320.476,239.472,319.558,248.324Z" transform="translate(-281.888 -237.592)" fill="url(#linear-gradient-35)"/>
      </g>
      <g id="Grupo_15751" data-name="Grupo 15751" transform="translate(53.299)">
        <path id="Trazado_24937" data-name="Trazado 24937" d="M315.1,202.443c0,7.424-4.514,16.048-10.082,19.263s-10.082-.2-10.082-7.621,4.514-16.05,10.082-19.263S315.1,195.02,315.1,202.443Z" transform="translate(-294.933 -193.612)" opacity="0.8" fill="url(#linear-gradient-42)"/>
        <path id="Trazado_24938" data-name="Trazado 24938" d="M307.707,202.736c0,3.145-1.913,6.8-4.273,8.161s-4.273-.083-4.273-3.229,1.913-6.8,4.273-8.163S307.707,199.59,307.707,202.736Z" transform="translate(-292.527 -190.549)" fill="#fff" opacity="0.6"/>
      </g>
      <g id="Grupo_15752" data-name="Grupo 15752" transform="translate(26.765 123.181)">
        <path id="Trazado_24939" data-name="Trazado 24939" d="M278.024,283.333v12.691L297.459,284.8V272.112Z" transform="translate(-278.024 -272.112)" opacity="0.6" fill="url(#linear-gradient-43)"/>
        <path id="Trazado_24940" data-name="Trazado 24940" d="M288.261,281.664v8.29l12.695-7.329v-8.29Z" transform="translate(-272.196 -270.848)" opacity="0.5" fill="url(#linear-gradient-13)"/>
      </g>
      <g id="Grupo_15755" data-name="Grupo 15755" transform="translate(0 14.652)">
        <g id="Grupo_15753" data-name="Grupo 15753">
          <path id="Trazado_24941" data-name="Trazado 24941" d="M305.558,202.949l-44.591,25.9v70.8l44.591-25.775Z" transform="translate(-260.967 -202.949)" opacity="0.6" fill="url(#linear-gradient-43)"/>
          <path id="Trazado_24942" data-name="Trazado 24942" d="M294.852,206.875l-21.13,12.271v20.966l21.13-12.214Z" transform="translate(-253.707 -200.715)" opacity="0.5" fill="url(#linear-gradient-13)"/>
          <path id="Trazado_24943" data-name="Trazado 24943" d="M294.852,222.887l-21.13,12.271v20.966l21.13-12.214Z" transform="translate(-253.707 -191.601)" opacity="0.5" fill="url(#linear-gradient-13)"/>
          <path id="Trazado_24944" data-name="Trazado 24944" d="M294.852,239.8l-21.13,12.271v9.51l21.13-12.214Z" transform="translate(-253.707 -181.974)" opacity="0.5" fill="url(#linear-gradient-13)"/>
          <path id="Trazado_24945" data-name="Trazado 24945" d="M273.022,223.05c-.08,3.159-2.079,6.5-4.463,7.455s-4.249-.824-4.168-3.983,2.079-6.495,4.463-7.454S273.1,219.893,273.022,223.05Z" transform="translate(-259.019 -193.922)" opacity="0.5" fill="url(#linear-gradient-49)"/>
          <path id="Trazado_24946" data-name="Trazado 24946" d="M273.022,233.377c-.08,3.159-2.079,6.495-4.463,7.455s-4.249-.824-4.168-3.983,2.079-6.495,4.463-7.454S273.1,230.22,273.022,233.377Z" transform="translate(-259.019 -188.044)" opacity="0.5" fill="url(#linear-gradient-49)"/>
          <path id="Trazado_24947" data-name="Trazado 24947" d="M269.9,233.148a4.061,4.061,0,0,1-2.092,3.495c-1.117.449-1.991-.386-1.954-1.867a4.056,4.056,0,0,1,2.092-3.493C269.061,230.832,269.935,231.668,269.9,233.148Z" transform="translate(-258.187 -186.892)" fill="#fff" opacity="0.6"/>
          <path id="Trazado_24948" data-name="Trazado 24948" d="M273.022,243.7c-.08,3.159-2.079,6.495-4.463,7.455s-4.249-.824-4.168-3.983,2.079-6.495,4.463-7.454S273.1,240.547,273.022,243.7Z" transform="translate(-259.019 -182.166)" opacity="0.5" fill="url(#linear-gradient-49)"/>
          <path id="Trazado_24949" data-name="Trazado 24949" d="M273.022,254.031c-.08,3.157-2.079,6.495-4.463,7.454s-4.249-.822-4.168-3.981,2.079-6.495,4.463-7.454S273.1,250.872,273.022,254.031Z" transform="translate(-259.019 -176.288)" opacity="0.5" fill="url(#linear-gradient-49)"/>
        </g>
        <g id="Grupo_15754" data-name="Grupo 15754" transform="translate(16.747 83.398)">
          <path id="Trazado_24950" data-name="Trazado 24950" d="M282.738,266.775c0,4.086-2.484,8.833-5.55,10.6s-5.549-.108-5.549-4.2,2.484-8.833,5.549-10.6S282.738,262.687,282.738,266.775Z" transform="translate(-271.639 -252.787)" opacity="0.5" fill="url(#linear-gradient-53)"/>
          <path id="Trazado_24951" data-name="Trazado 24951" d="M319.594,263.458a2.286,2.286,0,0,0-2.234,1.812l-38.941,7.251a5.2,5.2,0,0,0,.089-.646c0-1.462-.734-2.23-1.729-2.07V256.1l-1.431.827v13.707a6.12,6.12,0,0,0-1.732,4.07c0,1.8,1.1,2.628,2.446,1.848a5.165,5.165,0,0,0,1.943-2.5l39.518-7.359a2.283,2.283,0,1,0,2.071-3.237Z" transform="translate(-270.514 -256.097)" opacity="0.5" fill="url(#linear-gradient-13)"/>
        </g>
      </g>
      <g id="Grupo_15756" data-name="Grupo 15756" transform="translate(66.57 23.446)">
        <path id="Trazado_24952" data-name="Trazado 24952" d="M304.729,222.375v15.632l23.939-13.821V208.554Z" transform="translate(-302.628 -208.554)" opacity="0.6" fill="url(#linear-gradient-43)"/>
        <path id="Trazado_24953" data-name="Trazado 24953" d="M324.154,237.162c0,6.311-3.837,13.641-8.569,16.374s-8.571-.168-8.571-6.479,3.838-13.642,8.571-16.374S324.154,230.851,324.154,237.162Z" transform="translate(-301.327 -196.543)" opacity="0.8" fill="url(#linear-gradient-56)"/>
        <path id="Trazado_24954" data-name="Trazado 24954" d="M318.7,240.878V222.5l-1.431.827V241.61a8.967,8.967,0,0,0-3.094,6.556,5.02,5.02,0,0,0,.311,1.768,2.226,2.226,0,0,0,.794,1.051l-10.415,28.132a1.681,1.681,0,0,0-1.473,1.654,1.7,1.7,0,1,0,2.846-1.24l10.446-28.214a3.142,3.142,0,0,0,1.122-.406c2.005-1.158,3.631-4.265,3.631-6.939C321.436,241.714,320.27,240.506,318.7,240.878Z" transform="translate(-303.39 -200.613)" opacity="0.5" fill="url(#linear-gradient-57)"/>
      </g>
    </g>
    <g id="Grupo_15765" data-name="Grupo 15765" transform="translate(461.324 162.165)">
      <g id="Grupo_15760" data-name="Grupo 15760" transform="translate(41.943 92.783)">
        <path id="Trazado_24955" data-name="Trazado 24955" d="M354.248,200.235c.794-3.435,2.245-13.164,3.983-17.228,4-9.37,10.44-7.132,10.44-7.132l-1.624,4.411a135.225,135.225,0,0,1-6.313,22.466c-1.6,1.894-.18,6.531-1.693,7.348-3.247,1.754-12.417-.2-14.559-1.213.163-.714-2.462-5.577-1.116-7.206C344.15,200.734,351.234,200.669,354.248,200.235Z" transform="translate(-329.969 -154.977)" fill="url(#linear-gradient-58)"/>
        <path id="Trazado_24956" data-name="Trazado 24956" d="M350.045,257.794c2.487-2.423,4.35-4.449,4.35-4.449l11.32-.48v3.744a4.69,4.69,0,0,1-2.1,2.66,48.062,48.062,0,0,1-7.09,3.7,42.779,42.779,0,0,1-9.47,2.049c-2.377.091-3.4-1.028-2.158-2.245C347.033,260.684,347.745,260.039,350.045,257.794Z" transform="translate(-329.183 -111.023)" fill="url(#linear-gradient-35)"/>
        <path id="Trazado_24957" data-name="Trazado 24957" d="M367.461,261.76l10.212-1.15a26.6,26.6,0,0,1-.963,13.183c-2.387,6.693-6.583,6.76-8.056,6.228s-2.154-4.786-1.889-9.6S367.461,261.76,367.461,261.76Z" transform="translate(-316.464 -106.615)" fill="url(#linear-gradient-35)"/>
        <path id="Trazado_24958" data-name="Trazado 24958" d="M358.357,204.034s21.466-6.476,20.864-1.848c0,0,7.571,7.218,6.691,20.952-.4,6.308.135,23.651.664,34.478,6.338,14.261,4.733,35.338,4.733,35.338s.968,2.754-3.961,5.219-12.13-.105-12.13-.105,1.167-24.548-2.5-37.375c-2.459-8.6-2.344-29.777-2.344-29.777l-5.765,21.272-.439,31.031s-3.509,3.463-7.766,3.479c-5.545.022-7.122-4.038-7.122-4.038s.333-25.757,2.539-40.646C353.761,228.913,358.357,204.034,358.357,204.034Z" transform="translate(-326.384 -140.817)" fill="url(#linear-gradient-58)"/>
        <path id="Trazado_24959" data-name="Trazado 24959" d="M352.812,191.615c.882-8.456,8.292-14.441,8.292-14.441,6.928-2.726,13.616,2.451,13.616,2.451s9.426,4.5,9.98,8.662c.331,2.486-5.45,18.06-2.853,27.172,4.356,15.285,3.063,24.3,3.063,24.3s-10.231,4.709-17.093,4.742a25.575,25.575,0,0,1-7.559-1.113c0-3.589-.419-10.105-.419-10.105a52.153,52.153,0,0,0-1.4,9.484,47.882,47.882,0,0,1-6.791-3.739s2.068-14.595,2.046-19.8C353.657,209.958,352.375,195.814,352.812,191.615Z" transform="translate(-325.036 -154.556)" fill="url(#linear-gradient-62)"/>
        <path id="Trazado_24960" data-name="Trazado 24960" d="M356.668,189.559l-2.181-2.129a14.285,14.285,0,0,1,2.181-3.926,43.647,43.647,0,0,1,6.923-7.122l9.2.792a7.659,7.659,0,0,1,5.453,5.315c.651,2.36-5.591,10.186-5.591,10.186l-4.427,1.445,2.716,4.1s-5.423,6.989-6.856,9.515-4.7,12.66-4.7,12.66-2.839-9.815-5.192-13.74-.617-15.607-.617-15.607Z" transform="translate(-324.294 -154.556)" fill="url(#linear-gradient-63)"/>
        <path id="Trazado_24961" data-name="Trazado 24961" d="M358.215,181.68c3.207-1.232,13.085.568,13.085.568a101.409,101.409,0,0,0-8.566,10.3c-3.143,4.46-4.7,20.134-4.7,20.134s-3.506-16.035-2.54-20.857A101.085,101.085,0,0,1,358.215,181.68Z" transform="translate(-322.945 -151.785)" fill="url(#linear-gradient-64)"/>
        <path id="Trazado_24962" data-name="Trazado 24962" d="M359.152,186.536l.524-4.118,2.02-.727,2.453,2.861-2.572,3.077a28.246,28.246,0,0,1-.8,5.938,24.32,24.32,0,0,0-.43,3.584c-.956,3.948-2.07,10.344-2.07,10.344l-.623,4.94-1.426-7.394s-.551-10.408-.03-13.282A11.22,11.22,0,0,1,359.152,186.536Z" transform="translate(-322.572 -151.533)" fill="url(#linear-gradient-65)"/>
        <g id="Grupo_15758" data-name="Grupo 15758" transform="translate(32.182 1.766)">
          <path id="Trazado_24963" data-name="Trazado 24963" d="M368.129,172.736l1.82,10.113s-5.464,5.07-7.818,5.8a17.419,17.419,0,0,1-3.057-3.149l.447-6.514Z" transform="translate(-352.991 -158.397)" fill="#fcb9b4"/>
          <path id="Trazado_24964" data-name="Trazado 24964" d="M371.345,166.82c1.9,2.426,2.493,8.508-.129,12.787-2.327,3.8-7.642,5.952-10,6.333-4.215.679-8.762-10.962-3.951-18.083C361.851,161.067,368.894,163.7,371.345,166.82Z" transform="translate(-355.198 -163.598)" fill="#ffd0ca"/>
        </g>
        <path id="Trazado_24965" data-name="Trazado 24965" d="M360.6,178.327l.584,5.28-4.29,1.751S356.4,179.719,360.6,178.327Z" transform="translate(-322.061 -153.448)" fill="#fff"/>
        <path id="Trazado_24966" data-name="Trazado 24966" d="M369.264,177.854c2.919,2.862-.411,6.809-.411,6.809a40.027,40.027,0,0,1-7.617,4.058l-1.615-4.844a29.347,29.347,0,0,0,5.232-1.8A11.973,11.973,0,0,0,369.264,177.854Z" transform="translate(-320.498 -153.717)" fill="#fff"/>
        <path id="Trazado_24967" data-name="Trazado 24967" d="M373.1,212.469a8.658,8.658,0,0,1-1.874,5.735,5.973,5.973,0,0,1,2.095,1.029c.734.67.734,1.616-.883,1.323s-4.557-.588-5.792-4.544a6.965,6.965,0,0,1,1.618-6.705S372.906,210.42,373.1,212.469Z" transform="translate(-316.675 -135.815)" fill="#ffd0ca"/>
        <path id="Trazado_24968" data-name="Trazado 24968" d="M387.305,210.345c-.741-6.521-2.424-11.179-4.519-16.829-2.878-7.764-5.092-11.976-9.395-11.819-1.739,1.433-3.206,7.716-1.847,13.878.722,3.272,3.641,11.661,4.634,14.48-1.025,1.875-2.41,4.317-3.513,5.9-1.983,2.85-5.957,8.088-5.957,8.088a7.2,7.2,0,0,0,1.987,4.411,6.294,6.294,0,0,0,5.012,2.213s9.222-8.99,11.285-13.3c.006-.013.006-.027.013-.041A10.731,10.731,0,0,0,387.305,210.345Z" transform="translate(-316.464 -151.533)" fill="url(#linear-gradient-63)"/>
        <path id="Trazado_24969" data-name="Trazado 24969" d="M359.593,164.115l.052-.039.006,0a11.4,11.4,0,0,1,7.836-1.484c5.605.694,7.871,6.747,7.88,9.807a10.987,10.987,0,0,1-3.383,7.844s.132-2.983-.769-3.76c-.8-.687-1.494-.306-1.918,1.323-.46.16-4.165-1.743-4.992-5.486-.057.02-.1.033-.159.055-4.254,1.544-10.3,0-10.3,0s.926-1.709,2.12-4.081A11.674,11.674,0,0,1,359.593,164.115Z" transform="translate(-323.784 -162.472)" fill="url(#linear-gradient-35)"/>
        <g id="Grupo_15759" data-name="Grupo 15759" transform="translate(0 32.363)">
          <path id="Trazado_24970" data-name="Trazado 24970" d="M335.894,183.179c.2-.13.548-.113,1.045.1l10.515,6.088a8.5,8.5,0,0,1,3.369,3.061l11.348,19.656c.391.675.411,1.133.144,1.31l.006.013-1.122.645-.526-1.1-9.922-5.743a8.507,8.507,0,0,1-3.369-3.061l-11.348-19.656c-.03-.052-.046-.094-.071-.143l-.257.251-.89-.807,1.065-.625Z" transform="translate(-334.615 -183.097)" fill="url(#linear-gradient-35)"/>
          <path id="Trazado_24971" data-name="Trazado 24971" d="M335.919,183.683l10.517,6.087a8.507,8.507,0,0,1,3.369,3.061l11.348,19.656c.678,1.175.273,1.72-.9,1.211l-10.517-6.088a8.506,8.506,0,0,1-3.369-3.061l-11.348-19.656C334.339,183.719,334.746,183.173,335.919,183.683Z" transform="translate(-334.689 -182.871)" fill="url(#linear-gradient-69)"/>
        </g>
        <path id="Trazado_24972" data-name="Trazado 24972" d="M339.347,191.354c2.173-.461,5.079,3.184,4.59,5.448s-3.782,1.158-4.723-1.062C338.139,193.208,337.484,191.748,339.347,191.354Z" transform="translate(-332.707 -146.056)" fill="#ffd0ca"/>
      </g>
      <path id="Trazado_24973" data-name="Trazado 24973" d="M322.644,170.442c0,6,3.645,12.96,8.141,15.555s8.141-.16,8.141-6.154-3.645-12.958-8.141-15.555S322.644,164.447,322.644,170.442Z" transform="translate(-299.602 -69.212)" opacity="0.5" fill="url(#linear-gradient-34)"/>
      <g id="Grupo_15761" data-name="Grupo 15761" transform="translate(72.504 35.058)">
        <path id="Trazado_24974" data-name="Trazado 24974" d="M354.165,125.685l25.753,14.956V171.32l-25.753-14.886Z" transform="translate(-354.165 -125.685)" opacity="0.6" fill="url(#linear-gradient-43)"/>
        <path id="Trazado_24975" data-name="Trazado 24975" d="M354.861,127.03l23.352,13.562v1.949l-23.352-13.5Z" transform="translate(-353.768 -124.92)" opacity="0.5" fill="url(#linear-gradient-13)"/>
        <path id="Trazado_24976" data-name="Trazado 24976" d="M360.96,133.428v1.15l-6.1-3.525v-1.167Z" transform="translate(-353.768 -123.295)" opacity="0.5" fill="url(#linear-gradient-13)"/>
        <path id="Trazado_24977" data-name="Trazado 24977" d="M371.644,153.7v1.15l-6.1-3.525V150.16Z" transform="translate(-347.687 -111.755)" opacity="0.5" fill="url(#linear-gradient-13)"/>
        <path id="Trazado_24978" data-name="Trazado 24978" d="M359.2,134.125v1.155l-4.344-2.511V131.6Z" transform="translate(-353.768 -122.317)" opacity="0.5" fill="url(#linear-gradient-13)"/>
        <path id="Trazado_24979" data-name="Trazado 24979" d="M356.8,141.991c.159,6.135,4.041,12.621,8.671,14.484s8.259-1.6,8.1-7.736-4.042-12.619-8.673-14.484S356.64,135.855,356.8,141.991Z" transform="translate(-352.668 -121.094)" opacity="0.8" fill="url(#linear-gradient-42)"/>
        <path id="Trazado_24980" data-name="Trazado 24980" d="M359.678,141.508c.067,2.6,1.714,5.354,3.678,6.143s3.5-.678,3.436-3.281-1.715-5.352-3.68-6.143S359.61,138.906,359.678,141.508Z" transform="translate(-351.028 -118.669)" fill="#fff" opacity="0.5"/>
      </g>
      <path id="Trazado_24981" data-name="Trazado 24981" d="M347.909,200.5,331.877,181.4a4.6,4.6,0,0,0,.231-1.484,8.29,8.29,0,0,0-3.386-6.547V159.339l-1.569-.907v14.5c-1.147.086-1.944,1.182-1.944,3a8.264,8.264,0,0,0,3.451,6.592,2.185,2.185,0,0,0,2.249.162L343.928,198.2Z" transform="translate(-298.142 -71.989)" opacity="0.5" fill="url(#linear-gradient-34)"/>
      <g id="Grupo_15762" data-name="Grupo 15762" transform="translate(0 19.066)">
        <path id="Trazado_24982" data-name="Trazado 24982" d="M307.96,115.494l61.027,35.363v50.5L307.96,166.12Z" transform="translate(-307.96 -115.494)" opacity="0.6" fill="url(#linear-gradient-78)"/>
        <path id="Trazado_24983" data-name="Trazado 24983" d="M337.325,145.187l-15.686-9.057V154.4l15.686,9.057Z" transform="translate(-300.174 -103.749)" opacity="0.8" fill="url(#linear-gradient-42)"/>
        <path id="Trazado_24984" data-name="Trazado 24984" d="M337.325,142.658,321.639,133.6v2.1l15.686,9.057Z" transform="translate(-300.174 -105.188)" opacity="0.5" fill="url(#linear-gradient-13)"/>
        <path id="Trazado_24985" data-name="Trazado 24985" d="M349.716,159.046,334.03,149.99v2.1l15.686,9.057Z" transform="translate(-293.121 -95.86)" opacity="0.5" fill="url(#linear-gradient-13)"/>
        <path id="Trazado_24986" data-name="Trazado 24986" d="M338.767,155.371v2.1l8.253,4.765v-2.1Z" transform="translate(-290.425 -92.797)" opacity="0.5" fill="url(#linear-gradient-82)"/>
        <path id="Trazado_24987" data-name="Trazado 24987" d="M320.651,125.515l-10.495-6.1v20.006l10.495,6.066Z" transform="translate(-306.71 -113.26)" opacity="0.5" fill="url(#linear-gradient-83)"/>
        <path id="Trazado_24988" data-name="Trazado 24988" d="M320.651,139.7l-10.495-6.1v20.006l10.495,6.066Z" transform="translate(-306.71 -105.188)" opacity="0.5" fill="url(#linear-gradient-83)"/>
        <path id="Trazado_24989" data-name="Trazado 24989" d="M332.211,143.029l-.039-.019c-1.219-.676-2.2.082-2.2,1.714a4.928,4.928,0,0,0,.179,1.271l-7.777,5.3-5.528-3.192v1.533l5.588,3.226,8.222-5.61A4.423,4.423,0,0,0,332.211,149c1.238.716,2.241-.044,2.241-1.693A5.367,5.367,0,0,0,332.211,143.029Z" transform="translate(-302.903 -99.973)" fill="#fff" opacity="0.6"/>
        <path id="Trazado_24990" data-name="Trazado 24990" d="M349.723,146.116l-15.686-9.057V155.33l15.686,9.057Z" transform="translate(-293.117 -103.22)" opacity="0.8" fill="url(#linear-gradient-42)"/>
        <path id="Trazado_24991" data-name="Trazado 24991" d="M351.655,154.919c-.017-.011-.036-.017-.055-.028a2.347,2.347,0,0,0-1.257-.33l-7.814-14.529-.089-.165-25.595-14.9V126.5l24.6,14.325,7.717,14.347a3.271,3.271,0,0,0-.614,2.09,7.431,7.431,0,0,0,3.1,5.93c1.715.99,3.105-.06,3.105-2.346A7.433,7.433,0,0,0,351.655,154.919Z" transform="translate(-302.903 -110.103)" fill="#fff" opacity="0.6"/>
        <path id="Trazado_24992" data-name="Trazado 24992" d="M326.973,144.091l-.016-.009c-.5-.279-.91.035-.91.709h0a2.217,2.217,0,0,0,.926,1.77c.512.3.926-.019.926-.7A2.216,2.216,0,0,0,326.973,144.091Z" transform="translate(-297.665 -99.281)" opacity="0.5" fill="url(#linear-gradient-86)"/>
        <path id="Trazado_24993" data-name="Trazado 24993" d="M339.527,145.582l-.024-.013c-.748-.414-1.353.05-1.353,1.053h0a3.3,3.3,0,0,0,1.376,2.632c.761.438,1.378-.028,1.378-1.042A3.3,3.3,0,0,0,339.527,145.582Z" transform="translate(-290.775 -98.462)" opacity="0.5" fill="url(#linear-gradient-87)"/>
      </g>
      <g id="Grupo_15763" data-name="Grupo 15763" transform="translate(41.204)">
        <path id="Trazado_24994" data-name="Trazado 24994" d="M334.218,103.344,359.971,118.3v18.242l-25.753-14.886Z" transform="translate(-334.218 -103.344)" opacity="0.6" fill="url(#linear-gradient-43)"/>
        <path id="Trazado_24995" data-name="Trazado 24995" d="M346.828,112.145l-11.182-6.494v13.443l11.182,6.463Z" transform="translate(-333.405 -102.031)" opacity="0.5" fill="url(#linear-gradient-89)"/>
        <path id="Trazado_24996" data-name="Trazado 24996" d="M351.946,116.161l-7.212-4.189v1.674l7.212,4.169Z" transform="translate(-328.233 -98.433)" opacity="0.5" fill="url(#linear-gradient-90)"/>
        <path id="Trazado_24997" data-name="Trazado 24997" d="M351.946,118.349l-7.212-4.189v1.674L351.946,120Z" transform="translate(-328.233 -97.188)" opacity="0.5" fill="url(#linear-gradient-90)"/>
        <path id="Trazado_24998" data-name="Trazado 24998" d="M345.811,117.067v1.67l5.522,3.192v-1.655Z" transform="translate(-327.62 -95.533)" opacity="0.5" fill="url(#linear-gradient-92)"/>
      </g>
      <g id="Grupo_15764" data-name="Grupo 15764" transform="translate(30.569 4.935)">
        <path id="Trazado_24999" data-name="Trazado 24999" d="M327.441,106.488l25.753,14.956v18.242L327.441,124.8Z" transform="translate(-327.441 -106.488)" opacity="0.6" fill="url(#linear-gradient-43)"/>
        <path id="Trazado_25000" data-name="Trazado 25000" d="M340.051,115.289,328.869,108.8v13.443l11.182,6.463Z" transform="translate(-326.628 -105.175)" opacity="0.5" fill="url(#linear-gradient-89)"/>
        <path id="Trazado_25001" data-name="Trazado 25001" d="M345.169,119.306l-7.212-4.189v1.674l7.212,4.169Z" transform="translate(-321.455 -101.577)" opacity="0.5" fill="url(#linear-gradient-90)"/>
        <path id="Trazado_25002" data-name="Trazado 25002" d="M345.169,121.493l-7.212-4.189v1.674l7.212,4.169Z" transform="translate(-321.455 -100.332)" opacity="0.5" fill="url(#linear-gradient-90)"/>
        <path id="Trazado_25003" data-name="Trazado 25003" d="M339.033,120.211v1.67l5.522,3.192v-1.655Z" transform="translate(-320.842 -98.678)" opacity="0.5" fill="url(#linear-gradient-92)"/>
      </g>
    </g>
    <g id="Grupo_15774" data-name="Grupo 15774" transform="translate(46.2 189.961)">
      <g id="Grupo_15766" data-name="Grupo 15766" transform="translate(44.37 98.277)">
        <path id="Trazado_25004" data-name="Trazado 25004" d="M98.288,183.77c-.2-.13-.548-.113-1.045.1L86.726,189.96a8.517,8.517,0,0,0-3.369,3.061L72.009,212.677c-.389.675-.411,1.133-.144,1.312l-.006.011,1.124.645.524-1.1,9.922-5.743a8.5,8.5,0,0,0,3.369-3.061l11.348-19.656c.03-.05.047-.094.072-.143l.257.251.888-.807L98.3,183.76Z" transform="translate(-71.687 -183.688)" fill="url(#linear-gradient-98)"/>
        <path id="Trazado_25005" data-name="Trazado 25005" d="M97.941,184.274l-10.517,6.088a8.513,8.513,0,0,0-3.369,3.06L72.707,213.078c-.678,1.175-.271,1.72.9,1.211L84.126,208.2a8.5,8.5,0,0,0,3.369-3.06l11.348-19.656C99.523,184.31,99.116,183.766,97.941,184.274Z" transform="translate(-71.293 -183.462)" fill="url(#linear-gradient-99)"/>
      </g>
      <g id="Grupo_15768" data-name="Grupo 15768" transform="translate(0 56.524)">
        <path id="Trazado_25006" data-name="Trazado 25006" d="M95.538,161.327s-2.453,1.08-4.022,1.765-2.991,1.373-4.216,4.708c-.786,2.136-4.778,11.016-6.964,15.208-2.828-1.034-6.951-3.289-9.1-4.243-3.5-1.555-9.985-4.756-9.985-4.756L60.18,185.673a53.919,53.919,0,0,0,7.885,2.784,100.089,100.089,0,0,1,11.257,3.826A3.751,3.751,0,0,0,82.2,192.2a10.8,10.8,0,0,0,4.7-4.491c1.285-2.453,1.629-11.51,2.806-13.878s3.877-2.981,4.982-5.335-1.011-3.557-1.207-4.031c.981-.637,3.87-.924,5-3.236C99.185,159.79,96.149,161.059,95.538,161.327Z" transform="translate(-33.866 -155.101)" fill="#ffd0ca"/>
        <path id="Trazado_25007" data-name="Trazado 25007" d="M57.308,171.262s-.16-3.8,5.453-2.765c2.964.544,4.558,1.359,8.237,3.345,3.957,2.136,8.889,4.309,8.889,4.309s-1.091,6.58-4.1,10.724c-2.669-.082-11.471-2.33-13.92-4.573C57.075,177.912,57.308,171.262,57.308,171.262Z" transform="translate(-35.502 -150.681)" fill="url(#linear-gradient-100)"/>
        <path id="Trazado_25008" data-name="Trazado 25008" d="M75.487,253.42c-2.531-2.468-4.425-4.529-4.425-4.529l-11.522-.49v3.812a4.778,4.778,0,0,0,2.142,2.707,48.78,48.78,0,0,0,7.215,3.761,43.41,43.41,0,0,0,9.638,2.085c2.418.093,3.463-1.045,2.194-2.285C78.554,256.361,77.829,255.7,75.487,253.42Z" transform="translate(-34.231 -105.1)" fill="url(#linear-gradient-101)"/>
        <path id="Trazado_25009" data-name="Trazado 25009" d="M56.58,253.195l-10.394-1.171a27.077,27.077,0,0,0,.981,13.416c2.429,6.812,6.7,6.879,8.2,6.339s2.192-4.871,1.922-9.776S56.58,253.195,56.58,253.195Z" transform="translate(-42.076 -103.039)" fill="url(#linear-gradient-102)"/>
        <path id="Trazado_25010" data-name="Trazado 25010" d="M43.489,281.77s2.945-22.251,9.4-36.766c.538-11.02-3.575-23.654-1.065-34.577,3.134-13.65,8.045-13.275,8.045-13.275-.3-2.294,4.734-1.9,9.974-.9q0,4.147-.019,8.293a47.163,47.163,0,0,0,1.662-9.443c4.784,1.423,9.2,3.143,9.2,3.143s3.029,22.366,3.957,35.812c1.054,15.284-2.387,45.417-2.387,45.417s-.54,3.262-6.165,2.8c-4.317-.355-7.6-4.147-7.6-4.147l2.368-34.762-1.982-8.64a103.74,103.74,0,0,1-2.7,16.469c-3.706,13.06-6.308,35.787-6.308,35.787s-7.326,2.614-12.345.105S43.489,281.77,43.489,281.77Z" transform="translate(-43.411 -135.44)" fill="url(#linear-gradient-103)"/>
        <path id="Trazado_25011" data-name="Trazado 25011" d="M71.328,171.894a3.175,3.175,0,0,0-1.455,1.365l-11.326-.946s-2.459,1.535-5.476,3.642c-2.4,1.674-5.337,3.5-6.314,6.711-.162,2.28,3,9.834,3.163,10.3,2.931,8.538,1.2,19.748.59,28.33,10.518,7.571,23.059,3.655,29.406-1.07C77.457,203.428,84.671,184.035,71.328,171.894Z" transform="translate(-41.51 -148.647)" fill="url(#linear-gradient-104)"/>
        <g id="Grupo_15767" data-name="Grupo 15767" transform="translate(12.19)">
          <path id="Trazado_25012" data-name="Trazado 25012" d="M64.511,174.026l-8.761-6.365L53.9,177.955a16.238,16.238,0,0,0,4.406,3.507,45.545,45.545,0,0,0,7.245,2.95c1.006-1.8,0-4.342,0-4.342Z" transform="translate(-49.633 -151.056)" fill="#fcb9b4"/>
          <path id="Trazado_25013" data-name="Trazado 25013" d="M55.028,161.64c-1.936,2.468-2.537,8.657.13,13.013,2.369,3.87,7.778,6.059,10.181,6.446,4.289.692,8.916-11.157,4.02-18.4C64.69,155.786,57.522,158.463,55.028,161.64Z" transform="translate(-49.937 -156.35)" fill="#ffd0ca"/>
          <path id="Trazado_25014" data-name="Trazado 25014" d="M60.391,157.124a8.69,8.69,0,0,0-5.641,3.746c-4.372.931-3.925,7.226-2.84,9.6,2.095,4.593,4.491,4.908,4.491,4.908s-.626-2.506-.072-3.6c.471-.932,1.96-1.092,2.46.565a3.843,3.843,0,0,0,1.216.119l-.5-3.311a5.933,5.933,0,0,0,5.387-.377,5.426,5.426,0,0,1,6.159.231,6.506,6.506,0,0,0,.433-3.375c1.7-1.191,3.316-2.261,3.071-3.071a4.928,4.928,0,0,1-4.067-.383,9.692,9.692,0,0,0,2.219-2.533C69.717,160.037,63.269,156.654,60.391,157.124Z" transform="translate(-51.179 -157.079)" fill="url(#linear-gradient-105)"/>
        </g>
        <path id="Trazado_25015" data-name="Trazado 25015" d="M60.18,178.54a19.085,19.085,0,0,0,3.512-1.381,8.557,8.557,0,0,1,0,4.577l0,0a31.226,31.226,0,0,1,2.173,7.621,175.533,175.533,0,0,1,1.8,18.068A14.676,14.676,0,0,1,64.7,211.89l-3.487-3.818.748-25.849A7.268,7.268,0,0,1,60.18,178.54Z" transform="translate(-33.866 -145.65)" fill="url(#linear-gradient-106)"/>
        <path id="Trazado_25016" data-name="Trazado 25016" d="M60.84,173.107c.573,3.267.883,7.537.883,7.537a12.015,12.015,0,0,0,4.861-2.17c-.472-2.366-2.829-6.313-2.829-6.313C63.5,172.451,62.066,173.573,60.84,173.107Z" transform="translate(-33.491 -148.495)" fill="url(#linear-gradient-107)"/>
        <path id="Trazado_25017" data-name="Trazado 25017" d="M55.088,171.143a10.05,10.05,0,0,0-1.709,2.679c-.543,2.766,3.647,6.832,5.859,9.712,6.131-.774,6.758-2.31,6.758-2.31s-3.444-2.548-5.385-4.089C56.06,173.517,55.088,171.143,55.088,171.143Z" transform="translate(-37.765 -149.075)" fill="url(#linear-gradient-108)"/>
      </g>
      <g id="Grupo_15769" data-name="Grupo 15769" transform="translate(4.502 85.703)">
        <path id="Trazado_25018" data-name="Trazado 25018" d="M92.8,208.6a7.433,7.433,0,0,1-3.645-.775,27.187,27.187,0,0,0,2.53-1.841c1.022-.832.913-2.58-.328-1.974-2.81,1.373-5.254,2.611-7.965,1.817-2.843-1.006-12.114-5.436-17.882-8.039-2.412-4.609-9.087-17.013-9.087-17.013s-10.509,3.1-7.816,8.485c2.388,4.781,6.471,11.557,9.654,14.628a13.593,13.593,0,0,0,3.157,2.633c1.72.686,4.009,1.026,5.853,1.558,5.032,1.453,10.683,1.627,14.309,2.787,1.141.364,2.349,1.891,3.433,2.873,5.065,4.59,10.214-.549,11.7-2.963C98.144,208.456,94.107,208.636,92.8,208.6Z" transform="translate(-45.207 -172.771)" fill="#ffd0ca"/>
        <path id="Trazado_25019" data-name="Trazado 25019" d="M50.131,176.422c-3.4,2.026-4.317,5.625-3.647,10.109.51,3.4,2.98,9.109,6.2,13.666,5.33-.874,8.472-2.249,11.13-5.975-.861-1.907-3.069-8.081-4.485-10.958C57.2,178.943,54.685,173.7,50.131,176.422Z" transform="translate(-46.28 -175.674)" fill="url(#linear-gradient-109)"/>
      </g>
      <g id="Grupo_15770" data-name="Grupo 15770" transform="translate(58.35 23.235)">
        <path id="Trazado_25020" data-name="Trazado 25020" d="M113.807,135.865,80.6,155.039V195.58l33.211-19.174Z" transform="translate(-80.596 -135.865)" opacity="0.6" fill="url(#linear-gradient-43)"/>
        <path id="Trazado_25021" data-name="Trazado 25021" d="M99.208,171.926l-16.966,9.8V163.265l16.966-9.8Z" transform="translate(-79.659 -125.844)" opacity="0.8" fill="url(#linear-gradient-42)"/>
        <path id="Trazado_25022" data-name="Trazado 25022" d="M94.457,143.507V157.6l9.235-5.332V138.175Z" transform="translate(-72.707 -134.55)" opacity="0.5" fill="url(#linear-gradient-34)"/>
        <path id="Trazado_25023" data-name="Trazado 25023" d="M94.457,155.238V172.29l9.235-5.332V149.906Z" transform="translate(-72.707 -127.873)" opacity="0.5" fill="url(#linear-gradient-13)"/>
        <path id="Trazado_25024" data-name="Trazado 25024" d="M99.208,144.652l-16.966,9.8v-1.871l16.966-9.8Z" transform="translate(-79.659 -131.928)" opacity="0.5" fill="url(#linear-gradient-13)"/>
        <path id="Trazado_25025" data-name="Trazado 25025" d="M99.208,147.116l-16.966,9.8v-1.871l16.966-9.8Z" transform="translate(-79.659 -130.525)" opacity="0.5" fill="url(#linear-gradient-13)"/>
        <path id="Trazado_25026" data-name="Trazado 25026" d="M99.208,149.664l-16.966,9.8v-1.87l16.966-9.8Z" transform="translate(-79.659 -129.075)" opacity="0.5" fill="url(#linear-gradient-13)"/>
        <path id="Trazado_25027" data-name="Trazado 25027" d="M99.208,152.127l-16.966,9.8v-1.871l16.966-9.8Z" transform="translate(-79.659 -127.673)" opacity="0.5" fill="url(#linear-gradient-13)"/>
      </g>
      <g id="Grupo_15771" data-name="Grupo 15771" transform="translate(62.777 72.666)">
        <path id="Trazado_25028" data-name="Trazado 25028" d="M97.917,175.217c0,3.46-2.1,7.48-4.7,8.979s-4.7-.093-4.7-3.553,2.1-7.482,4.7-8.979S97.917,171.756,97.917,175.217Z" transform="translate(-80.513 -165.24)" opacity="0.5" fill="url(#linear-gradient-118)"/>
        <path id="Trazado_25029" data-name="Trazado 25029" d="M83.417,197.3l10.907-16.346c0-.024,0-.044,0-.067a4.92,4.92,0,0,1,1.7-3.6v-9.472l.785-.453v9.523c.86-.2,1.5.46,1.5,1.7a4.769,4.769,0,0,1-1.991,3.805,1.157,1.157,0,0,1-1.822-.537l-9.847,14.736Z" transform="translate(-83.417 -167.366)" opacity="0.5" fill="url(#linear-gradient-119)"/>
      </g>
      <g id="Grupo_15772" data-name="Grupo 15772" transform="translate(67.239)">
        <path id="Trazado_25030" data-name="Trazado 25030" d="M86.261,132.279V144.97L105.7,133.749V121.058Z" transform="translate(-86.261 -121.058)" opacity="0.6" fill="url(#linear-gradient-43)"/>
        <path id="Trazado_25031" data-name="Trazado 25031" d="M96.5,130.609v8.29l12.695-7.329v-8.29Z" transform="translate(-80.434 -119.793)" opacity="0.8" fill="url(#linear-gradient-42)"/>
      </g>
      <g id="Grupo_15773" data-name="Grupo 15773" transform="translate(31.351 19.437)">
        <path id="Trazado_25032" data-name="Trazado 25032" d="M83.554,142.275c0,7.425-4.515,16.05-10.082,19.265s-10.082-.2-10.082-7.623,4.513-16.048,10.082-19.263S83.554,134.851,83.554,142.275Z" transform="translate(-63.39 -133.444)" opacity="0.8" fill="url(#linear-gradient-42)"/>
        <path id="Trazado_25033" data-name="Trazado 25033" d="M76.162,142.567c0,3.146-1.913,6.8-4.271,8.163s-4.273-.083-4.273-3.229,1.913-6.8,4.273-8.163S76.162,139.421,76.162,142.567Z" transform="translate(-60.984 -130.382)" fill="#fff" opacity="0.6"/>
      </g>
    </g>
    <g id="Grupo_15783" data-name="Grupo 15783" transform="translate(110.18 271.099)">
      <g id="Grupo_15776" data-name="Grupo 15776" transform="translate(15.677 96.464)">
        <g id="Grupo_15775" data-name="Grupo 15775" transform="translate(28.841 26.1)">
          <path id="Trazado_25034" data-name="Trazado 25034" d="M137.354,257.412l-9.963-5.654c-2.7-1.56-3.476.245-4.488,2.172l-8.831,16.859c-1.012,1.927-1.841,3.275.375,4.65L124.082,281c1.535,1.037,2.556,1.155,3.655-.9l9.178-17.5C137.927,260.668,139.452,258.723,137.354,257.412Z" transform="translate(-112.275 -250.704)" fill="url(#linear-gradient-123)"/>
          <path id="Trazado_25035" data-name="Trazado 25035" d="M136.864,257.116l-9.963-5.652c-2.7-1.56-3.476.245-4.488,2.172l-8.831,16.859c-1.012,1.927-1.839,3.275.375,4.649l9.635,5.555c1.535,1.039,2.556,1.156,3.655-.9l9.178-17.5C137.437,260.373,138.962,258.428,136.864,257.116Z" transform="translate(-112.554 -250.872)" fill="url(#linear-gradient-124)"/>
          <path id="Trazado_25036" data-name="Trazado 25036" d="M113.7,271.329l11.908,6.75,10.507-19.654-11.885-6.794Z" transform="translate(-111.901 -250.439)" fill="#fff"/>
          <path id="Trazado_25037" data-name="Trazado 25037" d="M119.329,256.059l10.567,6.11,1.885-3.652-10.544-6.154Z" transform="translate(-108.698 -250.023)" opacity="0.6" fill="url(#linear-gradient-43)"/>
          <path id="Trazado_25038" data-name="Trazado 25038" d="M115.846,267.207l2.774,1.6.566-1.007-2.776-1.594Z" transform="translate(-110.68 -242.144)" fill="#fff"/>
        </g>
        <path id="Trazado_25039" data-name="Trazado 25039" d="M128.071,262.822a13.084,13.084,0,0,0,.935-2.735c.146-.785-.413-1.786-1.326-.372a19.623,19.623,0,0,1-2.672,3.021l-3.421,6.029s1.091,2.415,5.178.341c3.615-1.836,4.078-5.483,3.545-5.911A5.015,5.015,0,0,0,128.071,262.822Z" transform="translate(-78.572 -220.143)" fill="#ffd0ca"/>
        <path id="Trazado_25040" data-name="Trazado 25040" d="M104.53,253.07c.129.9-7.846,3.534-9.407,9.461s-.78,11.566,1.171,13.523,9.352-.968,9.352-.968Z" transform="translate(-94.107 -223.521)" fill="#ffd0ca"/>
        <path id="Trazado_25041" data-name="Trazado 25041" d="M99.148,341.4c.891,2.123,2.948,1.925,7.107.43a35.759,35.759,0,0,0,9.355-4.77c2.624-1.941,2.65-2.2,3-3.512.485-1.839-2.2-2.868-6.658-1.483-.441.136-.846.267-1.227.392a2.71,2.71,0,0,1,2.038,1.13c.811,1.522-1.725,3.154-4.394,4.488s-4.852,1.335-6.186.728c-.978-.444-2.288-1.015-2.925-1.29C98.986,339.292,98.611,340.119,99.148,341.4Z" transform="translate(-91.499 -178.925)" fill="url(#linear-gradient-35)"/>
        <path id="Trazado_25042" data-name="Trazado 25042" d="M120.95,354.967a2.71,2.71,0,0,0-2.038-1.13c-2.462.811-3.689,1.362-3.689,1.362s.657-11.486,1.414-20.335c1.2-7.76,2.464-17.184,2.369-22.092-.009-.494.074-4.963.078-5.687-1.224.6-9.126,1.668-11.791,1.5a91.881,91.881,0,0,1,.529,9.23c.046,7.472-.337,16.723-.287,16.148h0c-.245,6.026-.394,14.939.014,19.7a21.382,21.382,0,0,1-.1,5.238c.636.276,1.947.847,2.923,1.291,1.335.606,3.518.606,6.187-.728S121.759,356.489,120.95,354.967Z" transform="translate(-86.708 -192.777)" fill="#ffd0ca"/>
        <path id="Trazado_25043" data-name="Trazado 25043" d="M113.115,348a2.71,2.71,0,0,0-2.038-1.13c-2.46.81-3.689,1.362-3.689,1.362s.287-8.561.717-15.186c.356-5.5,1.109-21.175,1.222-24.81-3.823-.552-8.047.37-10.926-2.137-.008.879.024,4.635-.053,5.514-.391,4.483.534,10.661.882,15.147.3,3.791.146,15.977.485,19.927a21.4,21.4,0,0,1-.1,5.24c.637.275,1.947.846,2.925,1.29,1.334.607,3.517.607,6.186-.728S113.926,349.52,113.115,348Z" transform="translate(-91.853 -193.34)" fill="#f9bbb7"/>
        <path id="Trazado_25044" data-name="Trazado 25044" d="M107.42,346.2c.891,2.123,2.948,1.925,7.107.43a35.778,35.778,0,0,0,9.355-4.77c2.624-1.941,2.65-2.2,3-3.512.485-1.838-2.2-2.868-6.658-1.483-.441.138-.846.268-1.227.392a2.71,2.71,0,0,1,2.038,1.13c.81,1.522-1.725,3.154-4.394,4.489s-4.852,1.334-6.187.728c-.976-.444-2.288-1.015-2.923-1.291C107.258,344.094,106.883,344.921,107.42,346.2Z" transform="translate(-86.791 -176.193)" fill="url(#linear-gradient-35)"/>
        <path id="Trazado_25045" data-name="Trazado 25045" d="M99.768,325.741c12.191,8.125,22.719,4.295,25.959,2.705.089-7.135.116-33.364-1.538-41.277-.893-4.276-2.916-10.331-2.916-10.331l-19.707-1.226s-2.7,2.465-4.681,10.055c-2.184,8.362-.3,13.413.122,17.514C97.678,309.712,99.656,323.023,99.768,325.741Z" transform="translate(-93.22 -210.69)" fill="url(#linear-gradient-35)"/>
        <path id="Trazado_25046" data-name="Trazado 25046" d="M110.473,236.574c1.034.716,4.885,1.6,5.961,10.088.954,7.518-.7,9.476-2.23,10.113a17.557,17.557,0,0,1-3.846.341l.115,6.352a10.787,10.787,0,0,1-7.3,0L99.606,262a12.571,12.571,0,0,0,1.163-6.569c-.29-5.164-2.118-12.517-.824-15.251C102.283,235.236,107.672,234.629,110.473,236.574Z" transform="translate(-91.151 -233.496)" fill="#ffd0ca"/>
        <path id="Trazado_25047" data-name="Trazado 25047" d="M97.837,295.02c1.819,2.15,9.586,4.649,12.455,4.668,7.509.052,10.576-2.415,12.367-4.668-2.61-8.166-1.39-19.641-1.39-19.641s3.968-7.052,1.232-12.544-4.329-8.3-6.95-9.186c-2.774-.94-15.037-.965-15.037-.965s-5.809,6.234-3.94,14.466A76.086,76.086,0,0,1,97.837,295.02Z" transform="translate(-93.02 -223.74)" fill="url(#linear-gradient-129)"/>
        <path id="Trazado_25048" data-name="Trazado 25048" d="M100.3,254.048s2.953,3.647,6.854,2.611a60.663,60.663,0,0,0,6.059-1.888,4.283,4.283,0,0,0-3.311-1.649,39.558,39.558,0,0,1-8.85-2.41Z" transform="translate(-90.686 -224.863)" fill="url(#linear-gradient-130)"/>
        <path id="Trazado_25049" data-name="Trazado 25049" d="M105.728,250.671c-1.538-2.175-5.819-1.047-7.957,2.147-8.856,13.223,1.434,17.623,1.434,17.623S107.165,252.7,105.728,250.671Z" transform="translate(-94.174 -225.525)" fill="url(#linear-gradient-131)"/>
        <path id="Trazado_25050" data-name="Trazado 25050" d="M119.7,244.49c-.273,2.916-2.663,3.783-4.794,6.008s-3.272,4.358-7.912,7.669c-1.7,1.213-1.271,10.614-4.515,17.291-3.457,7.115-1.445,8.414-1.445,8.414s-9.85-3.179-5.833-14.174c1.469-4.017,7.088-7.3,7.278-11.53.086-1.947-2.514-3.9-3.349-7.59-2.628-11.592,2.748-14.89,7.833-15.965C116.05,232.692,120.257,238.51,119.7,244.49Z" transform="translate(-94.14 -234.239)" fill="url(#linear-gradient-35)"/>
        <path id="Trazado_25051" data-name="Trazado 25051" d="M110.081,244.047s-2.23-3.821-3.189,0a3.881,3.881,0,0,0,2.2,4.742Z" transform="translate(-87.027 -229.623)" fill="#ffd0ca"/>
        <path id="Trazado_25052" data-name="Trazado 25052" d="M98.939,248.059s-.132,2.428.375,2.972c.686.734,3.253,1.564,4.188,1.2a4.814,4.814,0,0,0,2.1-2.752A31.793,31.793,0,0,1,98.939,248.059Z" transform="translate(-91.472 -226.373)" fill="url(#linear-gradient-133)"/>
        <path id="Trazado_25053" data-name="Trazado 25053" d="M110.78,254.613c-2.092-1.149-4.766,10.553-4.056,15.055s5.544,11.9,9.945,14.383c4.66,2.632,8.743,1.393,5.385-7.965S115.362,257.131,110.78,254.613Z" transform="translate(-87.098 -222.688)" fill="#ffd0ca"/>
        <path id="Trazado_25054" data-name="Trazado 25054" d="M111.889,253.867s-4.185.814-5.633,7.424-.636,7.281.518,9.815a35.378,35.378,0,0,0,2.382,3.659s4.857-.166,7.184-1.946a15.441,15.441,0,0,0,3.562-3.83s.931-7.192-1.522-10.826A10.637,10.637,0,0,0,111.889,253.867Z" transform="translate(-87.74 -223.067)" fill="url(#linear-gradient-131)"/>
        <path id="Trazado_25055" data-name="Trazado 25055" d="M107.349,268.705l.887,1.215a10.741,10.741,0,0,0,6.594-1.215,15.438,15.438,0,0,0,4.353-3.962l-.24-1.88s-1.924,3.5-4.913,4.836A15.348,15.348,0,0,1,107.349,268.705Z" transform="translate(-86.676 -217.947)" fill="#fff"/>
        <path id="Trazado_25056" data-name="Trazado 25056" d="M113.7,274.917s.792-.632,5.279-3.752c3.237-2.253,10.835-9.974,10.835-9.974l.279,5.673s-2.541,6.256-5.185,9.051c-4.944,5.222-7.066,5.222-7.066,5.222Z" transform="translate(-83.061 -218.898)" fill="#ffd0ca"/>
      </g>
      <g id="Grupo_15777" data-name="Grupo 15777" transform="translate(0 17.892)">
        <path id="Trazado_25057" data-name="Trazado 25057" d="M84.184,184.167,120.8,205.431v43.617L84.184,227.884Z" transform="translate(-84.184 -184.167)" opacity="0.6" fill="url(#linear-gradient-43)"/>
        <path id="Trazado_25058" data-name="Trazado 25058" d="M85.174,186.078l33.2,19.282v2.771l-33.2-19.191Z" transform="translate(-83.621 -183.079)" opacity="0.5" fill="url(#linear-gradient-13)"/>
        <path id="Trazado_25059" data-name="Trazado 25059" d="M93.845,195.174v1.635L85.174,191.8v-1.659Z" transform="translate(-83.621 -180.768)" opacity="0.5" fill="url(#linear-gradient-13)"/>
        <path id="Trazado_25060" data-name="Trazado 25060" d="M109.035,224v1.635l-8.672-5.012v-1.659Z" transform="translate(-74.975 -164.361)" opacity="0.5" fill="url(#linear-gradient-13)"/>
        <path id="Trazado_25061" data-name="Trazado 25061" d="M91.349,196.166v1.642l-6.175-3.569V192.58Z" transform="translate(-83.621 -179.378)" opacity="0.5" fill="url(#linear-gradient-13)"/>
        <path id="Trazado_25062" data-name="Trazado 25062" d="M87.929,207.351c.226,8.723,5.745,17.942,12.331,20.591s11.739-2.275,11.515-11S106.027,199,99.443,196.351,87.7,198.626,87.929,207.351Z" transform="translate(-82.056 -177.64)" opacity="0.8" fill="url(#linear-gradient-42)"/>
        <path id="Trazado_25063" data-name="Trazado 25063" d="M92.022,206.662c.1,3.7,2.437,7.612,5.23,8.736s4.981-.965,4.885-4.665S99.7,203.121,96.907,202,91.926,202.962,92.022,206.662Z" transform="translate(-79.724 -174.191)" fill="#fff" opacity="0.6"/>
      </g>
      <g id="Grupo_15780" data-name="Grupo 15780" transform="translate(42.841)">
        <path id="Trazado_25064" data-name="Trazado 25064" d="M111.485,240.767l77.724,44.874v-68l-77.724-44.874Z" transform="translate(-111.485 -172.765)" opacity="0.6" fill="url(#linear-gradient-43)"/>
        <path id="Trazado_25065" data-name="Trazado 25065" d="M128.506,221.978l-15.686-9.057v3.073l15.686,9.057Z" transform="translate(-110.726 -149.908)" fill="#fff" opacity="0.6"/>
        <path id="Trazado_25066" data-name="Trazado 25066" d="M128.506,218.113l-15.686-9.056v3.073l15.686,9.056Z" transform="translate(-110.726 -152.108)" fill="#fff" opacity="0.6"/>
        <path id="Trazado_25067" data-name="Trazado 25067" d="M128.506,214.073l-15.686-9.057v3.073l15.686,9.057Z" transform="translate(-110.726 -154.408)" fill="#fff" opacity="0.6"/>
        <path id="Trazado_25068" data-name="Trazado 25068" d="M128.506,210.208l-15.686-9.057v3.073l15.686,9.057Z" transform="translate(-110.726 -156.608)" fill="#fff" opacity="0.6"/>
        <path id="Trazado_25069" data-name="Trazado 25069" d="M128.506,206.167l-15.686-9.057v3.073l15.686,9.057Z" transform="translate(-110.726 -158.907)" fill="#fff" opacity="0.6"/>
        <path id="Trazado_25070" data-name="Trazado 25070" d="M128.506,202.3l-15.686-9.056v3.073l15.686,9.056Z" transform="translate(-110.726 -161.107)" fill="#fff" opacity="0.6"/>
        <path id="Trazado_25071" data-name="Trazado 25071" d="M128.506,198.262l-15.686-9.057v3.073l15.686,9.057Z" transform="translate(-110.726 -163.407)" fill="#fff" opacity="0.6"/>
        <path id="Trazado_25072" data-name="Trazado 25072" d="M128.506,194.4,112.82,185.34v3.073l15.686,9.057Z" transform="translate(-110.726 -165.607)" fill="#fff" opacity="0.6"/>
        <path id="Trazado_25073" data-name="Trazado 25073" d="M128.506,185.232l-15.686-9.057v8.2l15.686,9.057Z" transform="translate(-110.726 -170.823)" opacity="0.5" fill="url(#linear-gradient-13)"/>
        <path id="Trazado_25074" data-name="Trazado 25074" d="M164.88,206.36,149.194,197.3v8.2l15.686,9.057Z" transform="translate(-90.022 -158.798)" opacity="0.5" fill="url(#linear-gradient-34)"/>
        <path id="Trazado_25075" data-name="Trazado 25075" d="M148.653,195.843l-.041-.02c-1.218-.676-2.2.082-2.2,1.714a4.93,4.93,0,0,0,.179,1.273l-7.777,5.3L123.723,195.4v1.533l15.15,8.747,8.222-5.608a4.394,4.394,0,0,0,1.557,1.746c1.236.716,2.241-.042,2.241-1.693A5.368,5.368,0,0,0,148.653,195.843Z" transform="translate(-104.52 -159.882)" opacity="0.5" fill="url(#linear-gradient-13)"/>
        <path id="Trazado_25076" data-name="Trazado 25076" d="M155.325,208.158v8.2l6.066,3.5v-8.2Z" transform="translate(-86.533 -152.619)" fill="#fff" opacity="0.6"/>
        <path id="Trazado_25077" data-name="Trazado 25077" d="M155.325,215.969v8.2l6.066,3.5v-8.2Z" transform="translate(-86.533 -148.174)" fill="#fff" opacity="0.6"/>
        <path id="Trazado_25078" data-name="Trazado 25078" d="M155.325,223.78v8.2l6.066,3.5v-8.2Z" transform="translate(-86.533 -143.728)" fill="#fff" opacity="0.6"/>
        <path id="Trazado_25079" data-name="Trazado 25079" d="M155.325,231.591v8.2l6.066,3.5v-8.2Z" transform="translate(-86.533 -139.282)" fill="#fff" opacity="0.6"/>
        <path id="Trazado_25080" data-name="Trazado 25080" d="M150.3,197.935l-15.686-9.057V207.15l15.686,9.057Z" transform="translate(-98.322 -163.593)" opacity="0.5" fill="url(#linear-gradient-34)"/>
        <path id="Trazado_25081" data-name="Trazado 25081" d="M151.175,218.526l-15.686-9.057V227.74l15.686,9.057Z" transform="translate(-97.823 -151.873)" opacity="0.5" fill="url(#linear-gradient-34)"/>
        <path id="Trazado_25082" data-name="Trazado 25082" d="M150.029,224.608c-.019-.011-.036-.019-.055-.028a2.367,2.367,0,0,0-1.257-.331L140.9,209.721l-.089-.165-17.09-9.95v1.536l16.1,9.374,7.717,14.345a3.276,3.276,0,0,0-.614,2.092,7.436,7.436,0,0,0,3.1,5.93c1.714.99,3.1-.061,3.1-2.346A7.431,7.431,0,0,0,150.029,224.608Z" transform="translate(-104.52 -157.487)" fill="#fff" opacity="0.6"/>
        <path id="Trazado_25083" data-name="Trazado 25083" d="M139.946,196.839l-.017-.009c-.5-.278-.91.035-.91.709h0a2.218,2.218,0,0,0,.927,1.77c.512.3.926-.017.926-.7A2.217,2.217,0,0,0,139.946,196.839Z" transform="translate(-95.814 -159.125)" fill="#fff" opacity="0.6"/>
        <path id="Trazado_25084" data-name="Trazado 25084" d="M150.053,207.877c-.027-.016-.053-.025-.08-.041-2.486-1.376-4.488.168-4.488,3.495h0c0,3.363,2.046,7.27,4.568,8.726s4.568-.089,4.568-3.452S152.576,209.335,150.053,207.877Z" transform="translate(-92.133 -153.089)" fill="#fff" opacity="0.6"/>
        <path id="Trazado_25085" data-name="Trazado 25085" d="M140.986,217.067l-.024-.013c-.75-.416-1.353.05-1.353,1.053h0a3.294,3.294,0,0,0,1.376,2.63c.761.439,1.376-.027,1.376-1.04A3.292,3.292,0,0,0,140.986,217.067Z" transform="translate(-95.477 -147.642)" opacity="0.5" fill="url(#linear-gradient-147)"/>
        <path id="Trazado_25086" data-name="Trazado 25086" d="M149.378,209.377l-.047-.024c-1.475-.816-2.661.1-2.661,2.071h0a6.492,6.492,0,0,0,2.708,5.177c1.5.863,2.708-.053,2.708-2.049A6.485,6.485,0,0,0,149.378,209.377Z" transform="translate(-91.459 -152.109)" opacity="0.5" fill="url(#linear-gradient-148)"/>
        <g id="Grupo_15778" data-name="Grupo 15778" transform="translate(19.194 60.882)" opacity="0.5">
          <path id="Trazado_25087" data-name="Trazado 25087" d="M161.737,217.17v26.811L138.6,230.333l.116-11.286-15-7.485v1.648l13.518,6.744-.115,11.215,26.091,15.394V218.008a6.23,6.23,0,0,1-.769-.358A7.488,7.488,0,0,1,161.737,217.17Z" transform="translate(-123.717 -211.563)" opacity="0.5" fill="url(#linear-gradient-13)"/>
        </g>
        <g id="Grupo_15779" data-name="Grupo 15779" transform="translate(12.625 91.055)">
          <path id="Trazado_25088" data-name="Trazado 25088" d="M132.593,244.252c0,5.858,3.562,12.663,7.957,15.2s7.956-.157,7.956-6.015-3.562-12.665-7.956-15.2S132.593,238.393,132.593,244.252Z" transform="translate(-112.096 -227.098)" opacity="0.5" fill="url(#linear-gradient-34)"/>
          <path id="Trazado_25089" data-name="Trazado 25089" d="M148.162,248.246V231.559l-1.328-.767v16.765c-1.553-.4-2.71.788-2.71,3.013a8.691,8.691,0,0,0,.959,3.766l-21.691,17.079a2.437,2.437,0,0,0-1.362-.458,2.5,2.5,0,1,0,2.5,2.5,2.449,2.449,0,0,0-.251-1.054l21.48-16.919a6.23,6.23,0,0,0,1.9,1.85c1.955,1.13,3.542-.069,3.542-2.677A8.733,8.733,0,0,0,148.162,248.246Z" transform="translate(-119.531 -230.792)" opacity="0.5" fill="url(#linear-gradient-34)"/>
        </g>
      </g>
      <g id="Grupo_15781" data-name="Grupo 15781" transform="translate(101.663 117.251)">
        <path id="Trazado_25090" data-name="Trazado 25090" d="M174.977,262.589l-26.006-15.1V291.2l26.006,15.032Z" transform="translate(-148.971 -247.486)" opacity="0.6" fill="url(#linear-gradient-152)"/>
        <path id="Trazado_25091" data-name="Trazado 25091" d="M172.214,262.556l-21.951-12.748V288.85l21.951,12.688Z" transform="translate(-148.236 -246.165)" opacity="0.6" fill="url(#linear-gradient-152)"/>
        <path id="Trazado_25092" data-name="Trazado 25092" d="M166.117,260.761l-13-7.551v1.145l13,7.516Z" transform="translate(-146.613 -244.228)" opacity="0.5" fill="url(#linear-gradient-154)"/>
        <path id="Trazado_25093" data-name="Trazado 25093" d="M166.117,262.454l-13-7.552v1.145l13,7.516Z" transform="translate(-146.613 -243.265)" opacity="0.5" fill="url(#linear-gradient-154)"/>
        <path id="Trazado_25094" data-name="Trazado 25094" d="M151.932,264.146c0,3.079,1.874,6.656,4.183,7.99s4.182-.082,4.182-3.162-1.872-6.658-4.182-7.99S151.932,261.066,151.932,264.146Z" transform="translate(-147.286 -240.089)" opacity="0.5" fill="url(#linear-gradient-13)"/>
        <path id="Trazado_25095" data-name="Trazado 25095" d="M158.479,274.406a5.854,5.854,0,0,0,2.445,4.671c1.351.78,2.446-.047,2.446-1.848a5.856,5.856,0,0,0-2.446-4.673C159.573,271.777,158.479,272.605,158.479,274.406Z" transform="translate(-143.56 -233.384)" opacity="0.5" fill="url(#linear-gradient-157)"/>
        <path id="Trazado_25096" data-name="Trazado 25096" d="M160.319,268.143a4.067,4.067,0,0,0,1.7,3.243c.937.541,1.7-.033,1.7-1.284a4.066,4.066,0,0,0-1.7-3.242C161.08,266.32,160.319,266.894,160.319,268.143Z" transform="translate(-142.513 -236.574)" fill="#fff" opacity="0.5"/>
        <path id="Trazado_25097" data-name="Trazado 25097" d="M152.5,269.56a2.031,2.031,0,0,0,.849,1.623c.469.27.849-.017.849-.642a2.03,2.03,0,0,0-.849-1.621C152.878,268.649,152.5,268.936,152.5,269.56Z" transform="translate(-146.964 -235.345)" fill="#fff" opacity="0.5"/>
        <path id="Trazado_25098" data-name="Trazado 25098" d="M154.479,273.836a3.18,3.18,0,0,0,1.327,2.536c.733.424,1.328-.027,1.328-1a3.183,3.183,0,0,0-1.328-2.537C155.074,272.409,154.479,272.858,154.479,273.836Z" transform="translate(-145.837 -233.15)" fill="#fff" opacity="0.5"/>
        <path id="Trazado_25099" data-name="Trazado 25099" d="M160.86,263.366a2.033,2.033,0,0,0,.849,1.622c.469.27.849-.017.849-.642a2.035,2.035,0,0,0-.849-1.623C161.24,262.454,160.86,262.741,160.86,263.366Z" transform="translate(-142.205 -238.871)" fill="#fff" opacity="0.5"/>
        <path id="Trazado_25100" data-name="Trazado 25100" d="M157.091,261.149a2.03,2.03,0,0,0,.849,1.621c.469.271.849-.017.849-.642a2.03,2.03,0,0,0-.849-1.621C157.471,260.236,157.091,260.524,157.091,261.149Z" transform="translate(-144.35 -240.133)" fill="#fff" opacity="0.5"/>
      </g>
      <g id="Grupo_15782" data-name="Grupo 15782" transform="translate(70.639 152.473)">
        <path id="Trazado_25101" data-name="Trazado 25101" d="M160.456,290.4v15.631l-23.937-13.82V276.579Z" transform="translate(-125.035 -266.148)" opacity="0.5" fill="url(#linear-gradient-158)"/>
        <path id="Trazado_25102" data-name="Trazado 25102" d="M144.836,278.959v10.21L129.2,280.142v-10.21Z" transform="translate(-129.2 -269.932)" opacity="0.8" fill="url(#linear-gradient-159)"/>
      </g>
    </g>
  </g>
</svg>
