<svg xmlns="http://www.w3.org/2000/svg" width="190" height="118" viewBox="0 0 190 118">
  <g id="Grupo_57114" data-name="Grupo 57114" transform="translate(-180 -1058)">
    <rect id="Rect치ngulo_6951" data-name="Rect치ngulo 6951" width="190" height="118" rx="10" transform="translate(180 1058)" fill="#ffdcac"/>
    <rect id="Rect치ngulo_6941" data-name="Rect치ngulo 6941" width="11" height="118" transform="translate(359 1058)" fill="#ffba5b"/>
    <g id="cuaderno-de-bocetos" transform="translate(188.039 1042.809)">
      <path id="Trazado_106160" data-name="Trazado 106160" d="M163.9,115.249c-1.493-2.685-5.064-3.613-10.619-2.759a24.414,24.414,0,0,0-3.121.688c.625-5.9-.336-9.328-2.925-10.465-1.109-.487-4.482-1.966-14.062,6.982a108.448,108.448,0,0,0-8.283,8.741,1.458,1.458,0,0,0,2.24,1.866,107.487,107.487,0,0,1,8.033-8.477c7.588-7.087,10.263-6.723,10.9-6.443,1.308.574,1.706,3.784,1.066,8.587-.016.119-.032.238-.048.356-5.971,2.756-9.321,7.688-9.991,11.964a5.155,5.155,0,0,0,4.312,6.013,5.319,5.319,0,0,0,6.357-4.225c.687-3.3,1.348-7.2,1.971-11.619a19.679,19.679,0,0,1,3.994-1.086c2.9-.447,6.583-.585,7.627,1.293,1.094,1.967-.344,6.361-3.945,12.054q-.421.665-.85,1.309l-3.128-9.384a1.458,1.458,0,0,0-2.841.461v17.357a1.458,1.458,0,0,0,2.564.949c.077-.09,1.07-1.251,2.444-3.044l3.745,11.234a1.458,1.458,0,1,0,2.766-.922L157.715,133.5c.7-1,1.432-2.072,2.141-3.192,4.449-7.026,5.772-11.95,4.047-15.055Zm-18.994,12.235a2.446,2.446,0,0,1-2.981,1.95,2.258,2.258,0,0,1-1.954-2.693c.622-3.967,3.4-6.86,6.593-8.754C146.036,121.55,145.481,124.732,144.909,127.484Zm8.6,6.817v-4.213l.971,2.913C154.14,133.46,153.815,133.895,153.506,134.3Z" transform="translate(-58.828 -45.841)" fill="#12263f"/>
      <path id="Trazado_106161" data-name="Trazado 106161" d="M123.789,40.489a1.4,1.4,0,0,0-.016-.162,1.453,1.453,0,0,0-1.424-1.763h-4.373V37.8a3.606,3.606,0,1,0-7.212,0v.774c-.026,0-.05-.008-.076-.008h-2.915V37.8a3.606,3.606,0,0,0-7.212,0v.767H97.569V37.8a3.606,3.606,0,0,0-7.212,0v.767H87.366V37.8a3.606,3.606,0,0,0-7.212,0v.767H77.162V37.8a3.606,3.606,0,1,0-7.212,0v.774c-.026,0-.05-.008-.076-.008H65.5a1.455,1.455,0,0,0-1.433,1.213,1.443,1.443,0,0,0-.193.712v32.62l-12.21-15.12a1.458,1.458,0,0,0-2.05-.218l-7.938,6.41a1.458,1.458,0,0,0-.219,2.05L63.875,93.991v24.6a1.458,1.458,0,0,0,1.458,1.458h57a1.458,1.458,0,0,0,1.458-1.458ZM113.679,37.8a.691.691,0,1,1,1.382,0v4.449a.691.691,0,0,1-1.382,0Zm-10.2,0a.691.691,0,1,1,1.382,0v4.449a.691.691,0,0,1-1.382,0Zm-10.2,0a.691.691,0,1,1,1.382,0v4.449a.691.691,0,0,1-1.382,0Zm-10.2,0a.691.691,0,1,1,1.382,0v4.449a.691.691,0,0,1-1.382,0Zm-10.2,0a.691.691,0,1,1,1.382,0v4.449a.691.691,0,0,1-1.382,0ZM69.95,41.471v.774a3.606,3.606,0,0,0,7.212,0v-.767h2.991v.767a3.606,3.606,0,1,0,7.212,0v-.767h2.991v.767a3.606,3.606,0,1,0,7.212,0v-.767h2.991v.767a3.606,3.606,0,1,0,7.212,0v-.767h2.915c.026,0,.05-.006.076-.008v.774a3.606,3.606,0,1,0,7.212,0v-.767h2.9V47.31H66.791V41.479h3.084c.026,0,.05-.006.076-.008ZM88.845,113.32l.519,1.792-1.642-.884ZM84.626,106.1l1.861-.347.224.277,1.251,4.258-3.022,2.44-3.9-2.12-.294-.364,2.135.487a1.458,1.458,0,0,0,1.781-1.439Zm-1.739-2.642a1.459,1.459,0,0,0-1.191,1.45l.031,2.57-2.506-.571a1.448,1.448,0,0,0-1.043.157L48.372,70.151l5.67-4.579,30.363,37.6Zm-32.574-42.5,1.9,2.35-5.67,4.579-1.9-2.35ZM66.791,97.6l10.6,13.128,1.563,1.936a1.452,1.452,0,0,0,.438.365l5.009,2.724,0,0h0l2.566,1.381H66.791Zm26.194,19.536L91.035,110.4V110.4l-1.607-5.471a1.454,1.454,0,0,0-.265-.505l-.951-1.178h0L66.791,76.719V50.225h54.083v66.912Z" transform="translate(-5.807 -2.542)" fill="#12263f"/>
      <path id="Trazado_106162" data-name="Trazado 106162" d="M53.458,37.331a1.458,1.458,0,0,0,1.458-1.458V31.649a1.458,1.458,0,0,0-2.915,0v4.225A1.458,1.458,0,0,0,53.458,37.331Z" transform="translate(-12.712)" fill="#12263f"/>
      <path id="Trazado_106163" data-name="Trazado 106163" d="M53.458,57.242A1.458,1.458,0,0,0,52,58.7v4.225a1.458,1.458,0,1,0,2.915,0V58.7A1.458,1.458,0,0,0,53.458,57.242Z" transform="translate(-12.712 -17.193)" fill="#12263f"/>
      <path id="Trazado_106164" data-name="Trazado 106164" d="M39.288,51.649a1.458,1.458,0,0,0-1.458-1.458H33.458a1.458,1.458,0,1,0,0,2.915h4.373A1.458,1.458,0,0,0,39.288,51.649Z" transform="translate(0 -12.712)" fill="#12263f"/>
      <path id="Trazado_106165" data-name="Trazado 106165" d="M61.458,53.106h4.373a1.458,1.458,0,1,0,0-2.915H61.458a1.458,1.458,0,0,0,0,2.915Z" transform="translate(-17.797 -12.712)" fill="#12263f"/>
      <path id="Trazado_106166" data-name="Trazado 106166" d="M45.1,226.191a4.98,4.98,0,1,0,5.1,4.978A5.047,5.047,0,0,0,45.1,226.191Zm0,7.041a2.066,2.066,0,1,1,2.186-2.063A2.13,2.13,0,0,1,45.1,233.232Z" transform="translate(-5.085 -124.576)" fill="#12263f"/>
      <path id="Trazado_106167" data-name="Trazado 106167" d="M81.458,84.737A1.409,1.409,0,1,0,80,83.329,1.434,1.434,0,0,0,81.458,84.737Z" transform="translate(-30.508 -32.879)" fill="#12263f"/>
      <path id="Trazado_106168" data-name="Trazado 106168" d="M81.458,205.377a1.409,1.409,0,1,0,1.458,1.408A1.434,1.434,0,0,0,81.458,205.377Z" transform="translate(-30.508 -111.347)" fill="#12263f"/>
      <path id="Trazado_106169" data-name="Trazado 106169" d="M42.915,162.786a1.458,1.458,0,1,0-1.458,1.408A1.434,1.434,0,0,0,42.915,162.786Z" transform="translate(-5.085 -83.382)" fill="#12263f"/>
    </g>
  </g>
</svg>
