<svg xmlns="http://www.w3.org/2000/svg" width="85" height="89" viewBox="0 0 85 89">
  <g id="Grupo_57110" data-name="Grupo 57110" transform="translate(-180 -989)">
    <ellipse id="Elipse_4052" data-name="Elipse 4052" cx="42.5" cy="44.5" rx="42.5" ry="44.5" transform="translate(180 989)" fill="#26c6da"/>
    <g id="tridimensional" transform="translate(193 1000.5)">
      <path id="Trazado_105477" data-name="Trazado 105477" d="M28.188,14.938v33L2.75,39V6Z" transform="translate(1.312 10.5)" fill="#64b5f6"/>
      <path id="Trazado_105478" data-name="Trazado 105478" d="M28.188,2.75V20.625L2.75,11.688Z" transform="translate(1.312 4.813)" fill="#2196f3"/>
      <g id="Grupo_55607" data-name="Grupo 55607">
        <path id="Trazado_105479" data-name="Trazado 105479" d="M29.5,24a2.143,2.143,0,0,1-.685-.115L3.378,14.949a2.065,2.065,0,0,1,0-3.894L28.815,2.118a2.063,2.063,0,1,1,1.37,3.891L10.286,13l19.9,6.991A2.063,2.063,0,0,1,29.5,24Z" transform="translate(0 3.498)" fill="#12263f"/>
        <path id="Trazado_105480" data-name="Trazado 105480" d="M15.907,7.038a2.143,2.143,0,0,1-.685-.116L12.629,6.01A2.063,2.063,0,1,1,14,2.119l2.593.913a2.062,2.062,0,0,1-.685,4.007Z" transform="translate(16.187 3.5)" fill="#12263f"/>
        <path id="Trazado_105481" data-name="Trazado 105481" d="M22.081,9.206A2.143,2.143,0,0,1,21.4,9.09L16.334,7.311A2.063,2.063,0,1,1,17.7,3.42L22.766,5.2a2.062,2.062,0,0,1-.685,4.007Z" transform="translate(22.67 5.779)" fill="#12263f"/>
        <path id="Trazado_105482" data-name="Trazado 105482" d="M21.621,10.87A2.062,2.062,0,0,1,19.77,7.894a2.063,2.063,0,0,1,2.536-2.857L24.9,5.95a2.063,2.063,0,0,1,0,3.891l-2.593.913A2.143,2.143,0,0,1,21.621,10.87Z" transform="translate(30.724 8.605)" fill="#12263f"/>
        <path id="Trazado_105483" data-name="Trazado 105483" d="M17.017,12.456a2.062,2.062,0,0,1-.685-4.007L21.4,6.67a2.063,2.063,0,1,1,1.37,3.891L17.7,12.34a2.143,2.143,0,0,1-.685.115Z" transform="translate(22.669 11.467)" fill="#12263f"/>
        <path id="Trazado_105484" data-name="Trazado 105484" d="M13.313,13.205A2.062,2.062,0,0,1,12.629,9.2l2.593-.913a2.063,2.063,0,1,1,1.37,3.891L14,13.09a2.143,2.143,0,0,1-.685.115Z" transform="translate(16.187 14.295)" fill="#12263f"/>
        <path id="Trazado_105485" data-name="Trazado 105485" d="M29.5,51.313a2.143,2.143,0,0,1-.685-.116L3.378,42.259A2.067,2.067,0,0,1,2,40.313v-33a2.062,2.062,0,1,1,4.125,0v31.54l24.06,8.453a2.062,2.062,0,0,1-.685,4.007Z" transform="translate(0 9.188)" fill="#12263f"/>
        <path id="Trazado_105486" data-name="Trazado 105486" d="M13.313,25.206a2.062,2.062,0,0,1-.685-4.007l2.593-.913a2.063,2.063,0,1,1,1.37,3.891L14,25.09A2.143,2.143,0,0,1,13.313,25.206Z" transform="translate(16.187 35.294)" fill="#12263f"/>
        <path id="Trazado_105487" data-name="Trazado 105487" d="M17.018,24.455a2.062,2.062,0,0,1-.685-4.007L21.4,18.669a2.063,2.063,0,1,1,1.37,3.891L17.7,24.34A2.07,2.07,0,0,1,17.018,24.455Z" transform="translate(22.67 32.465)" fill="#12263f"/>
        <path id="Trazado_105488" data-name="Trazado 105488" d="M21.62,24.038a2.062,2.062,0,0,1-.685-4.007l1.215-.426V18.313a2.062,2.062,0,0,1,4.125,0v2.75A2.067,2.067,0,0,1,24.9,23.01l-2.593.913a2.143,2.143,0,0,1-.685.115Z" transform="translate(30.724 28.438)" fill="#12263f"/>
        <path id="Trazado_105489" data-name="Trazado 105489" d="M22.563,21A2.063,2.063,0,0,1,20.5,18.938V12.063a2.063,2.063,0,0,1,4.125,0v6.875A2.063,2.063,0,0,1,22.563,21Z" transform="translate(32.375 17.5)" fill="#12263f"/>
        <path id="Trazado_105490" data-name="Trazado 105490" d="M22.563,12.125A2.063,2.063,0,0,1,20.5,10.063V7.313a2.063,2.063,0,0,1,4.125,0v2.75A2.063,2.063,0,0,1,22.563,12.125Z" transform="translate(32.375 9.188)" fill="#12263f"/>
        <path id="Trazado_105491" data-name="Trazado 105491" d="M13.313,66a2.063,2.063,0,0,1-2.062-2.062V2.063a2.063,2.063,0,0,1,4.125,0V63.938A2.063,2.063,0,0,1,13.313,66Z" transform="translate(16.188)" fill="#12263f"/>
      </g>
    </g>
  </g>
</svg>
