<svg xmlns="http://www.w3.org/2000/svg" width="85" height="97.867" viewBox="0 0 85 97.867">
  <g id="Grupo_55623" data-name="Grupo 55623" transform="translate(-810 -8337.132)">
    <circle id="Elipse_4195" data-name="Elipse 4195" cx="42.5" cy="42.5" r="42.5" transform="translate(810 8350)" fill="#26c6da"/>
    <g id="paleta-de-color" transform="translate(768.479 8337.132)">
      <g id="Grupo_55609" data-name="Grupo 55609" transform="translate(60.447 23.301)">
        <g id="XMLID_233_" transform="translate(0)">
          <g id="Grupo_55608" data-name="Grupo 55608">
            <path id="Trazado_105534" data-name="Trazado 105534" d="M133.579,287.74l-7.875-.51-16.093,13.795,13.459,17.7,16.84-15.155,2.229-5.488Z" transform="translate(-109.611 -262.281)" fill="#01d0fb"/>
            <path id="Trazado_105535" data-name="Trazado 105535" d="M220.984,240.69l-6.167-1.45-9.405,8.061,14.206,16.335,9.523-8.57.8-4.473Z" transform="translate(-189.318 -222.353)" fill="#62dbfb"/>
            <path id="Trazado_105536" data-name="Trazado 105536" d="M278.8,189.946l-7.684-.306-9.719,8.332L275.725,213.8l9.56-8.6,2.647-5.325Z" transform="translate(-235.903 -181.085)" fill="#99e6fc"/>
            <path id="Trazado_105537" data-name="Trazado 105537" d="M338.846,149.721a6.1,6.1,0,0,1-.433,8.611l-4.987,4.487-14.164-15.554,9.981-8.555,4.31,5.159Z" transform="translate(-284.044 -138.71)" fill="#c8effe"/>
          </g>
        </g>
      </g>
      <path id="Trazado_105538" data-name="Trazado 105538" d="M96.021,239.321l-8.1,2.781L72.151,267.513l21.965,8.99,14.421-20.852.806-7.774Z" transform="translate(-17.997 -199.119)" fill="#05e39c"/>
      <g id="Grupo_55611" data-name="Grupo 55611" transform="translate(69.928 8.325)">
        <g id="XMLID_199_" transform="translate(0)">
          <g id="Grupo_55610" data-name="Grupo 55610">
            <path id="Trazado_105539" data-name="Trazado 105539" d="M182.829,174.686l-9.257,1.523-7.521,12.117,20.613,13.549,7.672-11.094.956-7.558Z" transform="translate(-166.051 -153.667)" fill="#00f2a6"/>
            <path id="Trazado_105540" data-name="Trazado 105540" d="M239.073,121.646l-14.354-9.218-6.932.756-6.966,11.225,20.764,14.572L239.5,127.54Z" transform="translate(-203.301 -101.867)" fill="#6cf5c2"/>
            <path id="Trazado_105541" data-name="Trazado 105541" d="M276.556,60.823A6.1,6.1,0,0,1,278.1,69.3L274,75.233l-21.71-14.356,7.025-11.317,9.941,6.215Z" transform="translate(-237.804 -49.56)" fill="#9cf8d2"/>
          </g>
        </g>
      </g>
      <g id="XMLID_134_" transform="translate(50.521 0)">
        <path id="Trazado_105542" data-name="Trazado 105542" d="M62.877,213.827l-11.263,27.9A14.06,14.06,0,0,0,77.69,252.252l11.136-27.586Z" transform="translate(-50.577 -177.908)" fill="#fed402"/>
        <g id="XMLID_186_" transform="translate(11.668 1.51)">
          <g id="Grupo_55612" data-name="Grupo 55612">
            <path id="Trazado_105543" data-name="Trazado 105543" d="M150.468,153.544,131.3,144.578,125.6,146.3l-5.616,13.534,25.488,9.918,5.3-13.142Z" transform="translate(-119.98 -121.801)" fill="#fee45a"/>
            <path id="Trazado_105544" data-name="Trazado 105544" d="M183.7,74.61l-20.4-6.54-4.236,1.923L153.8,82.669l25.113,10.287,5.342-13.234Z" transform="translate(-148.122 -58.145)" fill="#fee97d"/>
            <path id="Trazado_105545" data-name="Trazado 105545" d="M209.819,15.321a6.1,6.1,0,0,1,3.4,7.922l-2.92,7.322-25.2-9.73,4.564-11a6.085,6.085,0,0,1,5.354-.412Z" transform="translate(-174.167 -8.988)" fill="#fef0ae"/>
          </g>
        </g>
        <g id="Grupo_55613" data-name="Grupo 55613" transform="translate(0 0)">
          <path id="Trazado_105546" data-name="Trazado 105546" d="M50.521,56.514V6.1a6.1,6.1,0,0,1,6.1-6.1H72.543a6.1,6.1,0,0,1,6.1,6.1V69.215a14.06,14.06,0,0,1-28.12,0Z" transform="translate(-50.521 0)" fill="#f9f7f8"/>
        </g>
        <g id="Grupo_55615" data-name="Grupo 55615" transform="translate(0 0)">
          <g id="XMLID_173_" transform="translate(0 0)">
            <g id="Grupo_55614" data-name="Grupo 55614">
              <path id="Trazado_105547" data-name="Trazado 105547" d="M78.641,6.1v7.8L64.22,15.241,50.521,13.9V6.1a6.1,6.1,0,0,1,6.1-6.1H72.543a6.1,6.1,0,0,1,6.1,6.1Z" transform="translate(-50.521 0)" fill="#f9b1b1"/>
              <path id="Trazado_105548" data-name="Trazado 105548" d="M78.641,82.73V96.936l-14.236,1.68-13.884-1.68V82.73Z" transform="translate(-50.521 -68.833)" fill="#f79595"/>
              <path id="Trazado_105549" data-name="Trazado 105549" d="M78.641,243.54v14.206H50.521V243.54l13.7-1.68Z" transform="translate(-50.521 -201.232)" fill="#ee6161"/>
              <path id="Trazado_105550" data-name="Trazado 105550" d="M50.521,167.3h28.12v14.2H50.521Z" transform="translate(-50.521 -139.197)" fill="#f47c7c"/>
            </g>
          </g>
        </g>
      </g>
      <circle id="Elipse_4198" data-name="Elipse 4198" cx="4.782" cy="4.782" r="4.782" transform="translate(59.513 64.48)" fill="#e5e1e5"/>
    </g>
  </g>
</svg>
