<svg xmlns="http://www.w3.org/2000/svg" width="85" height="89" viewBox="0 0 85 89">
  <g id="Grupo_57111" data-name="Grupo 57111" transform="translate(-810 -989)">
    <ellipse id="Elipse_4053" data-name="Elipse 4053" cx="42.5" cy="44.5" rx="42.5" ry="44.5" transform="translate(810 989)" fill="#26c6da"/>
    <g id="foto" transform="translate(819 950.518)">
      <rect id="Rectángulo_6969" data-name="Rectángulo 6969" width="54.54" height="38.051" transform="translate(1.268 60.345)" fill="#90caf9"/>
      <path id="Trazado_105492" data-name="Trazado 105492" d="M64.386,209.908H9.846v-15.22l19.025-7.61,35.514,12.684Z" transform="translate(-8.578 -111.511)" fill="#4db6ac"/>
      <path id="Trazado_105493" data-name="Trazado 105493" d="M275.692,192.513l10.147-5.436,10.147,5.074v7.61Z" transform="translate(-240.178 -111.511)" fill="#e0f2f1"/>
      <circle id="Elipse_4191" data-name="Elipse 4191" cx="5.074" cy="5.074" r="5.074" transform="translate(27.904 65.419)" fill="#fb8c00"/>
      <path id="Trazado_105494" data-name="Trazado 105494" d="M124.43,147.692v27.9H78.769v10.147h54.54V147.692Z" transform="translate(-68.622 -77.2)" fill="#ffecb3"/>
      <path id="Trazado_105495" data-name="Trazado 105495" d="M64.687,69.224h-7.61V60.345a1.268,1.268,0,0,0-1.268-1.268H1.268A1.268,1.268,0,0,0,0,60.345V98.4a1.268,1.268,0,0,0,1.268,1.268h7.61v8.879a1.268,1.268,0,0,0,1.268,1.268h54.54a1.268,1.268,0,0,0,1.268-1.268V70.492A1.268,1.268,0,0,0,64.687,69.224ZM38.634,80.769l7.047-3.775,8.858,4.429V86.45l-5.3-1.894ZM54.54,61.614V78.587l-8.311-4.156a1.269,1.269,0,0,0-1.166.016l-9.651,5.17L20.721,74.371a1.269,1.269,0,0,0-.9.017L2.537,81.3V61.614Zm-52,32.978h7.61a1.268,1.268,0,0,0,0-2.537H2.537v-8.02l17.782-7.113L54.54,89.143v7.985h-52Zm8.879,12.684v-7.61H55.808A1.268,1.268,0,0,0,57.076,98.4V71.761h6.342V102.2H58.345a1.268,1.268,0,1,0,0,2.537h5.074v2.537Z" transform="translate(0 0)" fill="#12263f"/>
      <path id="Trazado_105496" data-name="Trazado 105496" d="M213.111,111.146a6.342,6.342,0,1,0-6.342-6.342A6.349,6.349,0,0,0,213.111,111.146Zm0-10.147a3.805,3.805,0,1,1-3.805,3.805A3.809,3.809,0,0,1,213.111,101Z" transform="translate(-180.133 -34.311)" fill="#12263f"/>
      <path id="Trazado_105497" data-name="Trazado 105497" d="M98.561,316.834a1.169,1.169,0,0,0,.117.219,1.229,1.229,0,0,0,.35.35,1.255,1.255,0,0,0,.219.117,1.291,1.291,0,0,0,.237.074,1.282,1.282,0,0,0,.495,0,1.283,1.283,0,0,0,.237-.074,1.239,1.239,0,0,0,.219-.117,1.231,1.231,0,0,0,.35-.35,1.258,1.258,0,0,0,.117-.219,1.193,1.193,0,0,0,.072-.237,1.218,1.218,0,0,0,0-.495,1.192,1.192,0,0,0-.072-.237,1.241,1.241,0,0,0-.117-.219,1.2,1.2,0,0,0-.157-.193,1.217,1.217,0,0,0-.193-.157,1.258,1.258,0,0,0-.219-.117,1.191,1.191,0,0,0-.237-.072,1.25,1.25,0,0,0-.495,0,1.193,1.193,0,0,0-.237.072,1.24,1.24,0,0,0-.219.117,1.23,1.23,0,0,0-.35.35,1.284,1.284,0,0,0-.189.457,1.218,1.218,0,0,0,0,.495A1.172,1.172,0,0,0,98.561,316.834Z" transform="translate(-85.779 -223.027)" fill="#12263f"/>
      <path id="Trazado_105498" data-name="Trazado 105498" d="M415.978,394.632a1.281,1.281,0,0,0-.117-.218,1.2,1.2,0,0,0-.157-.193,1.213,1.213,0,0,0-.193-.157,1.259,1.259,0,0,0-.219-.117,1.192,1.192,0,0,0-.237-.072,1.249,1.249,0,0,0-.495,0,1.192,1.192,0,0,0-.237.072,1.237,1.237,0,0,0-.219.117,1.2,1.2,0,0,0-.193.157,1.287,1.287,0,0,0-.274.411,1.332,1.332,0,0,0-.074.238,1.249,1.249,0,0,0-.024.247,1.277,1.277,0,0,0,.372.9,1.212,1.212,0,0,0,.193.157,1.259,1.259,0,0,0,.219.117,1.2,1.2,0,0,0,.237.072,1.219,1.219,0,0,0,.495,0,1.189,1.189,0,0,0,.237-.072,1.242,1.242,0,0,0,.219-.117,1.209,1.209,0,0,0,.193-.157,1.278,1.278,0,0,0,.372-.9,1.25,1.25,0,0,0-.025-.247A1.229,1.229,0,0,0,415.978,394.632Z" transform="translate(-360.267 -291.648)" fill="#12263f"/>
    </g>
  </g>
</svg>
