<svg xmlns="http://www.w3.org/2000/svg" xmlns:xlink="http://www.w3.org/1999/xlink" width="76" height="76" viewBox="0 0 76 76">
  <defs>
    <clipPath id="clip-path">
      <rect id="Rectángulo_7015" data-name="Rectángulo 7015" width="76" height="76" transform="translate(308 1942)" fill="#fff" stroke="#707070" stroke-width="1"/>
    </clipPath>
  </defs>
  <g id="Enmascarar_grupo_52" data-name="Enmascarar grupo 52" transform="translate(-308 -1942)" clip-path="url(#clip-path)">
    <g id="industrial" transform="translate(308 1942)">
      <path id="Trazado_105703" data-name="Trazado 105703" d="M68.645,28.194l.306,4.9H60.984l.306-4.9Zm0,0" fill="#fcd770"/>
      <path id="Trazado_105704" data-name="Trazado 105704" d="M50.258,23.29l.49,4.9H42.413l.49-4.9Zm0,0" fill="#fcd770"/>
      <path id="Trazado_105705" data-name="Trazado 105705" d="M68.952,33.1l.919,14.71H60.064l.919-14.71Zm0,0" fill="#e6e9ed"/>
      <path id="Trazado_105706" data-name="Trazado 105706" d="M50.748,28.194,52.71,47.806H47.059a3.366,3.366,0,0,0-.442-4.682L41.359,38.7l1.054-10.5Zm0,0" fill="#e6e9ed"/>
      <path id="Trazado_105707" data-name="Trazado 105707" d="M44.46,49.032a3.363,3.363,0,0,0,2.6-1.226H74.774v4.9H40.452v-5.8l1.508,1.3a3.36,3.36,0,0,0,2.194.821Zm0,0" fill="#ccd1d9"/>
      <path id="Trazado_105708" data-name="Trazado 105708" d="M72.323,52.71V74.774h-4.9V62.516H60.064V74.774H52.71V62.516H45.355V74.774h-4.9V52.71Zm0,0" fill="#e6e9ed"/>
      <path id="Trazado_105709" data-name="Trazado 105709" d="M47.059,47.806a3.363,3.363,0,0,1-2.6,1.226h-.306a3.36,3.36,0,0,1-2.194-.821l-1.508-1.3L24.516,33.1,8.581,46.912l-1.508,1.3a3.36,3.36,0,0,1-2.194.821H4.572a3.347,3.347,0,0,1-3.346-3.346,3.365,3.365,0,0,1,1.189-2.562l22.1-18.608L41.359,38.7l5.258,4.426a3.366,3.366,0,0,1,.442,4.682Zm0,0" fill="#fcd770"/>
      <path id="Trazado_105710" data-name="Trazado 105710" d="M24.516,33.1,40.452,46.912V74.774h-4.9V55.161H13.484V74.774h-4.9V46.912Zm0,0" fill="#aab2bd"/>
      <path id="Trazado_105711" data-name="Trazado 105711" d="M60.064,62.516h7.355V74.774H60.064Zm0,0" fill="#fcd770"/>
      <path id="Trazado_105712" data-name="Trazado 105712" d="M45.355,62.516H52.71V74.774H45.355Zm0,0" fill="#fcd770"/>
      <path id="Trazado_105713" data-name="Trazado 105713" d="M13.484,60.064H35.548v4.9H13.484Zm0,0" fill="#ccd1d9"/>
      <path id="Trazado_105714" data-name="Trazado 105714" d="M13.484,64.968H35.548v4.9H13.484Zm0,0" fill="#e6e9ed"/>
      <path id="Trazado_105715" data-name="Trazado 105715" d="M13.484,69.871H35.548v4.9H13.484Zm0,0" fill="#ccd1d9"/>
      <path id="Trazado_105716" data-name="Trazado 105716" d="M13.484,55.161H35.548v4.9H13.484Zm0,0" fill="#e6e9ed"/>
      <path id="Trazado_105717" data-name="Trazado 105717" d="M20.839,42.9h7.355v7.355H20.839Zm0,0" fill="#69d6f4"/>
      <path id="Trazado_105718" data-name="Trazado 105718" d="M19.613,51.484h9.806V41.677H19.613Zm2.452-7.355h4.9v4.9h-4.9Zm0,0"/>
      <path id="Trazado_105719" data-name="Trazado 105719" d="M76,46.581H71.022L69.8,26.968H60.138L58.912,46.581H53.819L51.367,22.065H41.794l-1.421,14.2L24.516,22.914,1.628,42.189a4.572,4.572,0,0,0,2.944,8.069H4.88a4.559,4.559,0,0,0,2.475-.742V76H73.548V53.935H76ZM67.494,29.419l.153,2.452H62.289l.153-2.452Zm-5.359,4.9H67.8l.766,12.258h-7.2ZM49.149,24.516l.245,2.452H43.767l.245-2.452Zm-5.627,4.9h6.117l1.716,17.161H48.941A4.548,4.548,0,0,0,47.4,42.189l-4.758-4.007ZM4.88,47.806H4.572a2.12,2.12,0,0,1-1.365-3.743L24.516,26.118,45.825,44.063a2.121,2.121,0,0,1-1.365,3.744h-.308a2.115,2.115,0,0,1-1.389-.518L24.516,31.475,6.268,47.289a2.12,2.12,0,0,1-1.389.517ZM34.323,58.839H14.71V56.387H34.323ZM14.71,61.29H34.323v2.452H14.71Zm0,4.9H34.323v2.452H14.71Zm0,4.9H34.323v2.452H14.71Zm22.065,2.452V53.935H12.258V73.548H9.806V47.467l14.71-12.748,14.71,12.748V73.548Zm14.71,0h-4.9V63.742h4.9Zm14.71,0h-4.9V63.742h4.9Zm4.9,0H68.645V61.29H58.839V73.548h-4.9V61.29H44.129V73.548H41.677V53.935H71.1Zm2.452-22.065H41.677V49.516a4.565,4.565,0,0,0,2.475.742h.308a4.54,4.54,0,0,0,3.093-1.226h26Zm0,0"/>
      <path id="Trazado_105720" data-name="Trazado 105720" d="M49.032,19.613h2.452a3.627,3.627,0,0,1,.98-2.531,6.185,6.185,0,0,0,0-8.008,3.633,3.633,0,0,1-.98-2.535A3.633,3.633,0,0,1,52.464,4a6.02,6.02,0,0,0,1.471-4H51.484a3.632,3.632,0,0,1-.98,2.534,6.023,6.023,0,0,0-1.471,4A6.027,6.027,0,0,0,50.5,10.544a3.761,3.761,0,0,1,0,5.065,6.02,6.02,0,0,0-1.471,4Zm0,0"/>
      <path id="Trazado_105721" data-name="Trazado 105721" d="M41.677,19.613h2.452a3.627,3.627,0,0,1,.98-2.531,6.185,6.185,0,0,0,0-8.008,3.633,3.633,0,0,1-.98-2.535A3.633,3.633,0,0,1,45.109,4a6.02,6.02,0,0,0,1.471-4H44.129a3.632,3.632,0,0,1-.98,2.534,6.023,6.023,0,0,0-1.471,4,6.027,6.027,0,0,0,1.471,4.006,3.761,3.761,0,0,1,0,5.065,6.02,6.02,0,0,0-1.471,4Zm0,0"/>
      <path id="Trazado_105722" data-name="Trazado 105722" d="M67.419,24.516h2.452a3.627,3.627,0,0,1,.98-2.531,6.185,6.185,0,0,0,0-8.008,3.764,3.764,0,0,1,0-5.067A6.027,6.027,0,0,0,72.323,4.9H69.871a3.632,3.632,0,0,1-.98,2.534,6.023,6.023,0,0,0-1.471,4,6.027,6.027,0,0,0,1.471,4.006,3.761,3.761,0,0,1,0,5.065,6.02,6.02,0,0,0-1.471,4Zm0,0"/>
      <path id="Trazado_105723" data-name="Trazado 105723" d="M61.29,22.065h2.452a3.627,3.627,0,0,1,.98-2.531,6.185,6.185,0,0,0,0-8.008,3.633,3.633,0,0,1-.98-2.535,3.633,3.633,0,0,1,.98-2.534,6.02,6.02,0,0,0,1.471-4H63.742a3.632,3.632,0,0,1-.98,2.534,6.023,6.023,0,0,0-1.471,4A6.027,6.027,0,0,0,62.762,13a3.761,3.761,0,0,1,0,5.065,6.02,6.02,0,0,0-1.471,4Zm0,0"/>
      <path id="Trazado_105724" data-name="Trazado 105724" d="M44.129,56.387h9.806v2.452H44.129Zm0,0"/>
      <path id="Trazado_105725" data-name="Trazado 105725" d="M58.839,56.387h9.806v2.452H58.839Zm0,0"/>
    </g>
  </g>
</svg>
